<?xml version="1.0" encoding="utf-8"?>
<!-- Generator: Adobe Illustrator 15.0.1, SVG Export Plug-In . SVG Version: 6.00 Build 0)  -->
<!DOCTYPE svg PUBLIC "-//W3C//DTD SVG 1.0//EN" "http://www.w3.org/TR/2001/REC-SVG-20010904/DTD/svg10.dtd">
<svg version="1.0" xmlns="http://www.w3.org/2000/svg" xmlns:xlink="http://www.w3.org/1999/xlink" x="0px" y="0px" width="1280px"
	 height="720px" viewBox="0 0 1280 720" enable-background="new 0 0 1280 720" xml:space="preserve">
<g id="margin">
</g>
<g id="Layer_2">
	<g id="outlines_1_">
		<g>
			<path d="M98.049,149.447v-39.316c0-3.096,2.447-5.544,5.544-5.544h27.938c2.736,0,4.969,2.231,4.969,4.968
				s-2.232,4.896-4.969,4.896h-22.466v10.226h19.226c2.736,0,4.969,2.231,4.969,4.968s-2.232,4.896-4.969,4.896h-19.226v10.586
				h22.826c2.736,0,4.968,2.231,4.968,4.968s-2.231,4.896-4.968,4.896h-28.299C100.496,154.991,98.049,152.543,98.049,149.447z"/>
			<path d="M146.288,109.844c0-3.097,2.448-5.545,5.544-5.545h1.152c2.664,0,4.249,1.296,5.761,3.24l21.386,28.082v-25.994
				c0-3.023,2.449-5.473,5.473-5.473c3.024,0,5.473,2.449,5.473,5.473v40.107c0,3.097-2.448,5.545-5.545,5.545h-0.359
				c-2.664,0-4.248-1.297-5.761-3.24l-22.178-29.091v27.003c0,3.023-2.448,5.473-5.473,5.473s-5.473-2.449-5.473-5.473V109.844z"/>
			<path d="M214.904,114.812h-10.656c-2.809,0-5.113-2.304-5.113-5.112s2.305-5.112,5.113-5.112h32.402
				c2.809,0,5.113,2.304,5.113,5.112s-2.305,5.112-5.113,5.112h-10.656v35.067c0,3.096-2.449,5.545-5.545,5.545
				s-5.545-2.449-5.545-5.545V114.812z"/>
			<path d="M249.823,109.699c0-3.096,2.448-5.545,5.544-5.545c3.098,0,5.545,2.449,5.545,5.545v14.834h20.45v-14.834
				c0-3.096,2.448-5.545,5.544-5.545c3.097,0,5.545,2.449,5.545,5.545v40.18c0,3.096-2.448,5.545-5.545,5.545
				c-3.096,0-5.544-2.449-5.544-5.545v-15.121h-20.45v15.121c0,3.096-2.447,5.545-5.545,5.545c-3.096,0-5.544-2.449-5.544-5.545
				V109.699z"/>
			<path d="M303.751,133.389v-23.689c0-3.096,2.448-5.545,5.544-5.545c3.097,0,5.545,2.449,5.545,5.545v23.402
				c0,8.209,4.104,12.457,10.873,12.457s10.873-4.104,10.873-12.098v-23.762c0-3.096,2.448-5.545,5.545-5.545
				c3.096,0,5.544,2.449,5.544,5.545v23.33c0,15.266-8.569,22.754-22.106,22.754S303.751,148.223,303.751,133.389z"/>
			<path d="M357.967,149.662c-1.225-0.863-2.088-2.447-2.088-4.176c0-2.881,2.304-5.112,5.184-5.112c1.44,0,2.449,0.504,3.169,1.008
				c3.815,2.809,7.993,4.536,12.889,4.536c4.536,0,7.272-1.8,7.272-4.752v-0.145c0-2.808-1.728-4.248-10.152-6.408
				c-10.152-2.592-16.705-5.4-16.705-15.409v-0.144c0-9.145,7.344-15.193,17.641-15.193c6.121,0,11.449,1.584,15.986,4.464
				c1.224,0.72,2.447,2.232,2.447,4.393c0,2.88-2.304,5.112-5.184,5.112c-1.08,0-1.945-0.288-2.809-0.792
				c-3.672-2.16-7.129-3.384-10.585-3.384c-4.249,0-6.48,1.943-6.48,4.393v0.143c0,3.312,2.16,4.393,10.873,6.625
				c10.225,2.664,15.985,6.337,15.985,15.121v0.145c0,10.009-7.633,15.625-18.506,15.625
				C370.279,155.711,363.583,153.695,357.967,149.662z"/>
			<path d="M405.559,109.699c0-3.096,2.449-5.545,5.545-5.545s5.545,2.449,5.545,5.545v40.18c0,3.096-2.449,5.545-5.545,5.545
				s-5.545-2.449-5.545-5.545V109.699z"/>
			<path d="M426.438,147.863l17.569-39.676c1.225-2.736,3.457-4.393,6.48-4.393h0.648c3.024,0,5.185,1.656,6.408,4.393l17.57,39.676
				c0.359,0.791,0.576,1.512,0.576,2.231c0,2.952-2.305,5.329-5.257,5.329c-2.593,0-4.321-1.513-5.329-3.816l-3.384-7.922h-22.179
				l-3.527,8.281c-0.937,2.16-2.809,3.457-5.113,3.457c-2.88,0-5.111-2.305-5.111-5.186
				C425.791,149.447,426.078,148.654,426.438,147.863z M457.617,133.894l-6.984-16.634l-6.984,16.634H457.617z"/>
			<path d="M483.031,149.662c-1.225-0.863-2.089-2.447-2.089-4.176c0-2.881,2.304-5.112,5.185-5.112
				c1.439,0,2.448,0.504,3.168,1.008c3.816,2.809,7.993,4.536,12.89,4.536c4.536,0,7.272-1.8,7.272-4.752v-0.145
				c0-2.808-1.729-4.248-10.152-6.408c-10.153-2.592-16.706-5.4-16.706-15.409v-0.144c0-9.145,7.345-15.193,17.642-15.193
				c6.121,0,11.449,1.584,15.985,4.464c1.224,0.72,2.448,2.232,2.448,4.393c0,2.88-2.305,5.112-5.185,5.112
				c-1.08,0-1.944-0.288-2.808-0.792c-3.673-2.16-7.129-3.384-10.586-3.384c-4.248,0-6.48,1.943-6.48,4.393v0.143
				c0,3.312,2.16,4.393,10.873,6.625c10.225,2.664,15.986,6.337,15.986,15.121v0.145c0,10.009-7.633,15.625-18.506,15.625
				C495.344,155.711,488.646,153.695,483.031,149.662z"/>
			<path d="M530.119,109.844c0-3.097,2.447-5.545,5.544-5.545h1.224c2.377,0,4.033,1.225,5.041,2.881l13.393,21.817l13.466-21.89
				c1.152-1.873,2.736-2.809,4.968-2.809h1.225c3.097,0,5.545,2.448,5.545,5.545v40.035c0,3.096-2.448,5.545-5.545,5.545
				c-3.023,0-5.473-2.521-5.473-5.545v-25.131l-9.721,14.979c-1.152,1.728-2.592,2.808-4.608,2.808s-3.456-1.08-4.608-2.808
				l-9.576-14.762v25.059c0,3.023-2.449,5.4-5.473,5.4c-3.024,0-5.4-2.377-5.4-5.4V109.844z"/>
			<path d="M614.718,109.699c0-3.096,2.448-5.545,5.544-5.545c3.097,0,5.545,2.449,5.545,5.545v40.18
				c0,3.096-2.448,5.545-5.545,5.545c-3.096,0-5.544-2.449-5.544-5.545V109.699z"/>
			<path d="M637.397,149.662c-1.224-0.863-2.089-2.447-2.089-4.176c0-2.881,2.305-5.112,5.186-5.112
				c1.439,0,2.447,0.504,3.168,1.008c3.816,2.809,7.992,4.536,12.889,4.536c4.537,0,7.272-1.8,7.272-4.752v-0.145
				c0-2.808-1.728-4.248-10.152-6.408c-10.153-2.592-16.706-5.4-16.706-15.409v-0.144c0-9.145,7.345-15.193,17.642-15.193
				c6.121,0,11.449,1.584,15.985,4.464c1.225,0.72,2.448,2.232,2.448,4.393c0,2.88-2.304,5.112-5.184,5.112
				c-1.08,0-1.944-0.288-2.809-0.792c-3.673-2.16-7.129-3.384-10.585-3.384c-4.248,0-6.48,1.943-6.48,4.393v0.143
				c0,3.312,2.16,4.393,10.873,6.625c10.225,2.664,15.985,6.337,15.985,15.121v0.145c0,10.009-7.633,15.625-18.506,15.625
				C649.71,155.711,643.014,153.695,637.397,149.662z"/>
			<path d="M703.275,147.863l17.569-39.676c1.225-2.736,3.456-4.393,6.48-4.393h0.648c3.024,0,5.185,1.656,6.408,4.393
				l17.569,39.676c0.36,0.791,0.576,1.512,0.576,2.231c0,2.952-2.304,5.329-5.256,5.329c-2.593,0-4.32-1.513-5.329-3.816
				l-3.384-7.922h-22.178l-3.528,8.281c-0.937,2.16-2.809,3.457-5.112,3.457c-2.881,0-5.113-2.305-5.113-5.186
				C702.627,149.447,702.915,148.654,703.275,147.863z M734.454,133.894l-6.984-16.634l-6.984,16.634H734.454z"/>
			<path d="M761.235,109.699c0-3.096,2.448-5.545,5.544-5.545c3.097,0,5.545,2.449,5.545,5.545v35.211h20.521
				c2.809,0,5.04,2.232,5.04,5.041c0,2.808-2.231,5.04-5.04,5.04h-26.066c-3.096,0-5.544-2.448-5.544-5.544V109.699z"/>
			<path d="M796.154,111.644c-0.216-0.647-0.432-1.44-0.432-2.089c0-3.096,2.592-5.4,5.688-5.4c2.592,0,4.681,1.656,5.4,3.961
				l10.009,30.891l10.081-30.603c0.864-2.593,2.809-4.393,5.616-4.393h0.864c2.809,0,4.753,1.728,5.616,4.393l10.081,30.603
				l10.009-30.891c0.721-2.16,2.593-3.961,5.329-3.961c3.023,0,5.472,2.305,5.472,5.329c0,0.647-0.216,1.513-0.432,2.16
				l-14.113,39.604c-1.008,2.808-3.097,4.536-5.761,4.536h-1.151c-2.665,0-4.681-1.656-5.688-4.536l-9.938-28.874l-9.937,28.874
				c-1.008,2.88-3.024,4.536-5.688,4.536h-1.152c-2.664,0-4.752-1.729-5.761-4.536L796.154,111.644z"/>
			<path d="M871.25,147.863l17.569-39.676c1.225-2.736,3.456-4.393,6.48-4.393h0.648c3.024,0,5.185,1.656,6.408,4.393l17.569,39.676
				c0.36,0.791,0.576,1.512,0.576,2.231c0,2.952-2.304,5.329-5.256,5.329c-2.593,0-4.32-1.513-5.329-3.816l-3.384-7.922h-22.178
				l-3.528,8.281c-0.937,2.16-2.809,3.457-5.112,3.457c-2.881,0-5.113-2.305-5.113-5.186
				C870.602,149.447,870.89,148.654,871.25,147.863z M902.429,133.894l-6.984-16.634l-6.984,16.634H902.429z"/>
			<path d="M936.987,135.549l-16.273-22.105c-0.792-1.08-1.368-2.376-1.368-3.96c0-2.952,2.448-5.329,5.545-5.329
				c2.52,0,4.104,1.369,5.473,3.385l12.24,17.642l12.457-17.786c1.368-2.016,3.024-3.312,5.329-3.312c3.384,0,5.4,2.376,5.4,5.4
				c0,1.513-0.721,2.88-1.44,3.888l-16.273,21.963v14.545c0,3.096-2.448,5.545-5.544,5.545c-3.097,0-5.545-2.449-5.545-5.545
				V135.549z"/>
			<path d="M970.897,149.662c-1.224-0.863-2.088-2.447-2.088-4.176c0-2.881,2.305-5.112,5.185-5.112c1.44,0,2.448,0.504,3.168,1.008
				c3.816,2.809,7.993,4.536,12.89,4.536c4.536,0,7.272-1.8,7.272-4.752v-0.145c0-2.808-1.729-4.248-10.153-6.408
				c-10.152-2.592-16.705-5.4-16.705-15.409v-0.144c0-9.145,7.345-15.193,17.642-15.193c6.12,0,11.449,1.584,15.985,4.464
				c1.224,0.72,2.448,2.232,2.448,4.393c0,2.88-2.305,5.112-5.185,5.112c-1.08,0-1.944-0.288-2.809-0.792
				c-3.672-2.16-7.128-3.384-10.585-3.384c-4.248,0-6.48,1.943-6.48,4.393v0.143c0,3.312,2.16,4.393,10.873,6.625
				c10.226,2.664,15.985,6.337,15.985,15.121v0.145c0,10.009-7.633,15.625-18.505,15.625
				C983.211,155.711,976.515,153.695,970.897,149.662z"/>
			<path d="M98.049,196.531c0-3.096,2.447-5.544,5.544-5.544h17.497c6.409,0,11.377,1.8,14.689,5.112
				c2.809,2.809,4.32,6.769,4.32,11.521v0.144c0,7.921-3.96,12.817-10.08,15.337l7.705,9.361c1.08,1.368,1.799,2.52,1.799,4.248
				c0,3.097-2.592,5.113-5.256,5.113c-2.52,0-4.176-1.225-5.473-2.881l-10.801-13.682h-8.856v11.018
				c0,3.096-2.448,5.545-5.545,5.545s-5.544-2.449-5.544-5.545V196.531z M120.371,215.469c5.4,0,8.496-2.88,8.496-7.128v-0.144
				c0-4.753-3.312-7.201-8.713-7.201h-11.017v14.473H120.371z"/>
			<path d="M150.608,196.1c0-3.096,2.448-5.545,5.544-5.545c3.097,0,5.545,2.449,5.545,5.545v40.18c0,3.096-2.448,5.545-5.545,5.545
				c-3.096,0-5.544-2.449-5.544-5.545V196.1z"/>
			<path d="M172.064,216.334v-0.145c0-14.329,11.16-26.066,26.426-26.066c7.633,0,12.673,1.729,17.209,4.896
				c1.08,0.792,2.305,2.305,2.305,4.465c0,3.023-2.448,5.473-5.473,5.473c-1.584,0-2.592-0.576-3.385-1.152
				c-3.023-2.16-6.264-3.457-11.016-3.457c-8.065,0-14.475,7.129-14.475,15.697v0.145c0,9.217,6.338,15.985,15.266,15.985
				c4.033,0,7.633-1.009,10.441-3.024v-7.201h-7.488c-2.664,0-4.825-2.088-4.825-4.752s2.161-4.824,4.825-4.824h12.672
				c3.098,0,5.545,2.448,5.545,5.545v12.24c0,3.24-1.224,5.473-3.889,7.057c-4.104,2.521-10.08,5.041-17.641,5.041
				C182.865,242.256,172.064,231.238,172.064,216.334z"/>
			<path d="M230.744,196.1c0-3.096,2.447-5.545,5.544-5.545s5.545,2.449,5.545,5.545v14.834h20.45V196.1
				c0-3.096,2.447-5.545,5.544-5.545s5.544,2.449,5.544,5.545v40.18c0,3.096-2.447,5.545-5.544,5.545s-5.544-2.449-5.544-5.545
				v-15.121h-20.45v15.121c0,3.096-2.448,5.545-5.545,5.545s-5.544-2.449-5.544-5.545V196.1z"/>
			<path d="M297.201,201.212h-10.658c-2.808,0-5.111-2.304-5.111-5.112s2.304-5.112,5.111-5.112h32.403
				c2.809,0,5.112,2.304,5.112,5.112s-2.304,5.112-5.112,5.112h-10.657v35.067c0,3.096-2.447,5.545-5.544,5.545
				s-5.544-2.449-5.544-5.545V201.212z"/>
			<path d="M322.4,248.232c3.672-0.864,5.688-3.385,5.544-6.841c-2.521-0.647-5.04-2.808-5.04-5.904v-0.144
				c0-3.385,2.376-5.905,5.977-5.905c4.031,0,6.408,3.097,6.408,8.065v0.287c0,5.257-1.584,9.145-4.248,11.809
				c-2.16,2.161-5.4,3.457-8.064,3.457c-1.945,0-2.736-1.152-2.736-2.448S321.176,248.52,322.4,248.232z"/>
			<path d="M367.111,235.848v-39.316c0-3.096,2.447-5.544,5.544-5.544h27.938c2.736,0,4.969,2.231,4.969,4.968
				s-2.232,4.896-4.969,4.896h-22.466v10.226h19.226c2.736,0,4.969,2.231,4.969,4.968s-2.232,4.896-4.969,4.896h-19.226v10.586
				h22.826c2.736,0,4.968,2.231,4.968,4.968s-2.231,4.896-4.968,4.896h-28.299C369.559,241.392,367.111,238.943,367.111,235.848z"/>
			<path d="M428.816,237.791l-16.346-39.1c-0.36-0.863-0.648-1.728-0.648-2.664c0-3.096,2.448-5.473,5.545-5.473
				c2.88,0,4.752,1.656,5.616,3.889l12.601,32.619l12.746-32.979c0.72-1.801,2.664-3.529,5.328-3.529
				c3.023,0,5.473,2.305,5.473,5.329c0,0.864-0.288,1.8-0.576,2.448l-16.49,39.459c-1.151,2.736-3.24,4.393-6.264,4.393h-0.721
				C432.057,242.184,429.969,240.527,428.816,237.791z"/>
			<path d="M467.623,235.848v-39.316c0-3.096,2.447-5.544,5.544-5.544h27.938c2.736,0,4.969,2.231,4.969,4.968
				s-2.232,4.896-4.969,4.896H478.64v10.226h19.226c2.736,0,4.969,2.231,4.969,4.968s-2.232,4.896-4.969,4.896H478.64v10.586h22.826
				c2.736,0,4.968,2.231,4.968,4.968s-2.231,4.896-4.968,4.896h-28.299C470.07,241.392,467.623,238.943,467.623,235.848z"/>
			<path d="M515.862,196.244c0-3.097,2.448-5.545,5.544-5.545h1.152c2.664,0,4.249,1.296,5.761,3.24l21.386,28.082v-25.994
				c0-3.023,2.449-5.473,5.473-5.473c3.024,0,5.473,2.449,5.473,5.473v40.107c0,3.097-2.448,5.545-5.545,5.545h-0.359
				c-2.664,0-4.248-1.297-5.761-3.24l-22.178-29.091v27.003c0,3.023-2.448,5.473-5.473,5.473s-5.473-2.449-5.473-5.473V196.244z"/>
			<path d="M594.846,196.1c0-3.096,2.447-5.545,5.544-5.545s5.544,2.449,5.544,5.545v40.18c0,3.096-2.447,5.545-5.544,5.545
				s-5.544-2.449-5.544-5.545V196.1z"/>
			<path d="M618.533,196.244c0-3.097,2.447-5.545,5.544-5.545h1.152c2.664,0,4.249,1.296,5.761,3.24l21.386,28.082v-25.994
				c0-3.023,2.448-5.473,5.473-5.473s5.472,2.449,5.472,5.473v40.107c0,3.097-2.447,5.545-5.544,5.545h-0.36
				c-2.664,0-4.248-1.297-5.76-3.24l-22.178-29.091v27.003c0,3.023-2.449,5.473-5.473,5.473c-3.025,0-5.473-2.449-5.473-5.473
				V196.244z"/>
			<path d="M708.748,201.212h-10.656c-2.809,0-5.112-2.304-5.112-5.112s2.304-5.112,5.112-5.112h32.402
				c2.809,0,5.112,2.304,5.112,5.112s-2.304,5.112-5.112,5.112h-10.657v35.067c0,3.096-2.447,5.545-5.544,5.545
				s-5.545-2.449-5.545-5.545V201.212z"/>
			<path d="M743.667,196.1c0-3.096,2.448-5.545,5.544-5.545c3.097,0,5.545,2.449,5.545,5.545v14.834h20.449V196.1
				c0-3.096,2.448-5.545,5.545-5.545c3.096,0,5.544,2.449,5.544,5.545v40.18c0,3.096-2.448,5.545-5.544,5.545
				c-3.097,0-5.545-2.449-5.545-5.545v-15.121h-20.449v15.121c0,3.096-2.448,5.545-5.545,5.545c-3.096,0-5.544-2.449-5.544-5.545
				V196.1z"/>
			<path d="M798.387,235.848v-39.316c0-3.096,2.448-5.544,5.544-5.544h27.938c2.736,0,4.969,2.231,4.969,4.968
				s-2.232,4.896-4.969,4.896h-22.466v10.226h19.226c2.736,0,4.969,2.231,4.969,4.968s-2.232,4.896-4.969,4.896h-19.226v10.586
				h22.826c2.736,0,4.969,2.231,4.969,4.968s-2.232,4.896-4.969,4.896h-28.299C800.835,241.392,798.387,238.943,798.387,235.848z"/>
			<path d="M94.881,284.443c-0.217-0.647-0.433-1.439-0.433-2.088c0-3.096,2.593-5.4,5.688-5.4c2.592,0,4.68,1.656,5.4,3.961
				l10.009,30.891l10.081-30.604c0.864-2.592,2.809-4.393,5.616-4.393h0.864c2.809,0,4.752,1.729,5.617,4.393l10.08,30.604
				l10.009-30.891c0.72-2.16,2.593-3.961,5.329-3.961c3.023,0,5.473,2.305,5.473,5.328c0,0.648-0.217,1.513-0.433,2.16
				l-14.113,39.604c-1.008,2.809-3.097,4.537-5.761,4.537h-1.152c-2.664,0-4.68-1.656-5.688-4.537l-9.938-28.874l-9.937,28.874
				c-1.009,2.881-3.024,4.537-5.688,4.537h-1.152c-2.664,0-4.752-1.729-5.76-4.537L94.881,284.443z"/>
			<path d="M177.104,282.932c0-3.096,2.449-5.545,5.545-5.545h17.498c6.408,0,11.377,1.801,14.689,5.113
				c2.808,2.808,4.32,6.768,4.32,11.521v0.144c0,7.922-3.961,12.818-10.081,15.338l7.704,9.361c1.08,1.367,1.801,2.52,1.801,4.248
				c0,3.096-2.593,5.112-5.257,5.112c-2.521,0-4.177-1.224-5.472-2.88l-10.802-13.682h-8.856v11.018
				c0,3.096-2.448,5.544-5.545,5.544c-3.096,0-5.545-2.448-5.545-5.544V282.932z M199.426,301.869c5.4,0,8.497-2.88,8.497-7.129
				v-0.144c0-4.753-3.312-7.2-8.713-7.2h-11.017v14.473H199.426z"/>
			<path d="M226.928,302.733v-0.144c0-14.33,11.305-26.066,26.858-26.066s26.714,11.593,26.714,25.922v0.145
				c0,14.328-11.305,26.066-26.857,26.066C238.089,328.656,226.928,317.062,226.928,302.733z M268.907,302.733v-0.144
				c0-8.641-6.337-15.842-15.265-15.842c-8.93,0-15.122,7.057-15.122,15.697v0.145c0,8.641,6.337,15.841,15.266,15.841
				S268.907,311.374,268.907,302.733z"/>
			<path d="M290.359,282.644c0-3.097,2.447-5.544,5.544-5.544h1.152c2.664,0,4.249,1.295,5.761,3.24l21.386,28.082v-25.994
				c0-3.024,2.448-5.473,5.472-5.473c3.025,0,5.473,2.448,5.473,5.473v40.107c0,3.096-2.447,5.545-5.544,5.545h-0.36
				c-2.664,0-4.248-1.297-5.76-3.24l-22.178-29.092v27.003c0,3.024-2.449,5.473-5.473,5.473c-3.025,0-5.473-2.448-5.473-5.473
				V282.644z"/>
			<path d="M345.006,302.733v-0.144c0-14.33,11.161-26.066,26.427-26.066c7.633,0,12.673,1.728,17.21,4.896
				c1.08,0.791,2.304,2.304,2.304,4.464c0,3.024-2.448,5.473-5.473,5.473c-1.584,0-2.593-0.576-3.384-1.152
				c-3.024-2.16-6.266-3.456-11.018-3.456c-8.064,0-14.473,7.129-14.473,15.697v0.145c0,9.217,6.336,15.984,15.266,15.984
				c4.031,0,7.632-1.008,10.44-3.023v-7.201h-7.489c-2.664,0-4.824-2.088-4.824-4.752s2.16-4.824,4.824-4.824h12.674
				c3.096,0,5.544,2.447,5.544,5.544v12.241c0,3.24-1.224,5.473-3.888,7.057c-4.105,2.52-10.081,5.041-17.643,5.041
				C355.807,328.656,345.006,317.639,345.006,302.733z"/>
			<path d="M425.285,282.932c0-3.096,2.448-5.545,5.545-5.545h15.049c12.025,0,19.298,7.129,19.298,17.426v0.145
				c0,11.664-9.073,17.713-20.378,17.713h-8.424v10.01c0,3.096-2.449,5.544-5.545,5.544c-3.097,0-5.545-2.448-5.545-5.544V282.932z
				 M445.159,302.805c5.544,0,8.784-3.312,8.784-7.632v-0.144c0-4.969-3.456-7.633-9-7.633h-8.568v15.408H445.159z"/>
			<path d="M473.381,282.5c0-3.097,2.449-5.545,5.545-5.545c3.097,0,5.545,2.448,5.545,5.545v35.211h20.521
				c2.809,0,5.041,2.232,5.041,5.04s-2.232,5.04-5.041,5.04h-26.066c-3.096,0-5.545-2.447-5.545-5.544V282.5z"/>
			<path d="M515.141,320.663l17.569-39.676c1.224-2.736,3.456-4.392,6.481-4.392h0.647c3.024,0,5.185,1.655,6.409,4.392
				l17.568,39.676c0.36,0.792,0.576,1.512,0.576,2.231c0,2.953-2.304,5.329-5.256,5.329c-2.592,0-4.32-1.513-5.328-3.816
				l-3.385-7.921h-22.178l-3.529,8.281c-0.936,2.16-2.808,3.456-5.111,3.456c-2.881,0-5.113-2.304-5.113-5.185
				C514.492,322.247,514.781,321.455,515.141,320.663z M546.319,306.693l-6.984-16.633l-6.985,16.633H546.319z"/>
			<path d="M569.068,302.733v-0.144c0-14.33,10.801-26.066,26.282-26.066c7.561,0,12.673,2.016,16.85,5.112
				c1.151,0.864,2.16,2.448,2.16,4.392c0,3.025-2.448,5.4-5.473,5.4c-1.513,0-2.521-0.575-3.312-1.08
				c-3.097-2.304-6.337-3.6-10.297-3.6c-8.497,0-14.617,7.057-14.617,15.697v0.145c0,8.641,5.977,15.841,14.617,15.841
				c4.681,0,7.776-1.44,10.945-3.96c0.864-0.721,2.017-1.225,3.312-1.225c2.809,0,5.186,2.305,5.186,5.113
				c0,1.728-0.865,3.096-1.873,3.959c-4.536,3.961-9.864,6.338-17.93,6.338C580.086,328.656,569.068,317.207,569.068,302.733z"/>
			<path d="M624.436,322.247v-39.315c0-3.096,2.449-5.545,5.545-5.545h27.938c2.736,0,4.969,2.232,4.969,4.969
				s-2.232,4.896-4.969,4.896h-22.466v10.225h19.226c2.736,0,4.969,2.232,4.969,4.969s-2.232,4.896-4.969,4.896h-19.226v10.585
				h22.826c2.736,0,4.969,2.231,4.969,4.968s-2.232,4.896-4.969,4.896H629.98C626.885,327.791,624.436,325.344,624.436,322.247z"/>
			<path d="M676.924,315.838c3.601,0,6.265,2.665,6.265,6.121v0.145c0,3.455-2.664,6.12-6.265,6.12s-6.265-2.665-6.265-6.12v-0.145
				C670.659,318.503,673.323,315.838,676.924,315.838z"/>
		</g>
	</g>
	<g id="livetype" display="none">
		<rect x="92" y="102" display="inline" fill="none" width="1040" height="499"/>
		<text transform="matrix(1 0 0 1 92 154.9912)" display="inline"><tspan x="0" y="0" font-family="'GothamRounded-Bold'" font-size="72">Enthusiasm is always </tspan><tspan x="0" y="86.4" font-family="'GothamRounded-Bold'" font-size="72">right, even in the </tspan><tspan x="0" y="172.8" font-family="'GothamRounded-Bold'" font-size="72">wrong place.</tspan></text>
	</g>
</g>
<g id="author">
	<g id="outlines">
		<g>
			<path d="M93.439,517.95h2.73v-17.64h-2.73v-1.05h6.75v1.05h-2.79v7.979h12.24v-7.979h-2.761v-1.05h6.75v1.05h-2.76v17.64h2.76
				V519h-6.75v-1.05h2.761v-8.55h-12.24v8.55h2.79V519h-6.75V517.95z"/>
			<path d="M116.961,512.88c0.12,3.48,2.22,5.34,5.369,5.34c1.681,0,3.03-0.569,4.351-1.439l-0.091,1.14
				c-1.199,0.811-2.76,1.29-4.38,1.29c-3.81,0-6.39-2.55-6.39-6.479c0-3.54,2.46-6.42,5.91-6.42c3.569,0,5.55,2.79,5.55,5.85
				c0,0.3-0.03,0.54-0.09,0.72H116.961z M116.99,511.92h9.15c-0.12-2.579-1.62-4.619-4.5-4.619
				C119.24,507.301,117.261,509.16,116.99,511.92z"/>
			<path d="M138.289,507.511c0,0.54-0.39,0.989-0.99,0.989c-0.539,0-1.02-0.449-1.05-0.989c-1.14,0.18-2.31,1.439-3.119,2.909v7.59
				h2.459V519h-5.76v-0.99h2.19v-10.499h-2.19v-0.99h3.24v2.79c0.93-1.65,2.46-3,3.75-3
				C137.779,506.311,138.289,506.881,138.289,507.511z"/>
			<path d="M140.029,518.01h2.19v-10.499h-2.19v-0.99h3.24v2.52c1.14-1.409,2.94-2.729,4.83-2.729c1.56,0,2.58,0.6,3.12,1.59
				c0.18,0.36,0.3,0.75,0.39,1.14c1.38-1.56,3.149-2.729,4.92-2.729c1.739,0,2.729,0.689,3.239,1.83
				c0.33,0.689,0.45,1.529,0.45,2.46v7.409h2.19V519h-5.46v-0.99h2.16v-7.26c0-0.84-0.12-1.529-0.33-2.01
				c-0.391-0.93-1.17-1.41-2.4-1.41c-1.71,0-3.3,1.17-4.619,2.67v8.01h2.189V519h-5.46v-0.99h2.16v-7.26c0-0.81-0.09-1.5-0.3-2.01
				c-0.391-0.93-1.17-1.41-2.4-1.41c-1.77,0-3.359,1.23-4.619,2.7v7.979h2.159V519h-5.46V518.01z"/>
			<path d="M164.359,515.641c0-2.25,1.95-3.75,4.649-3.75c1.44,0,3.091,0.359,3.99,0.72v-2.28c0-0.779-0.21-1.439-0.63-1.949
				c-0.57-0.66-1.56-1.11-2.939-1.11c-1.44,0-2.28,0.479-2.761,0.96c0.181,0.18,0.301,0.479,0.301,0.81c0,0.45-0.36,0.9-0.9,0.9
				c-0.6,0-0.96-0.45-0.96-1.021c0-1.17,1.59-2.609,4.41-2.609c1.649,0,2.939,0.479,3.689,1.35c0.57,0.63,0.87,1.471,0.87,2.49
				v7.859h2.16V519h-3.21v-1.89c-1.021,1.109-2.67,2.1-4.5,2.1C165.89,519.21,164.359,517.62,164.359,515.641z M172.999,516.061
				v-2.61c-1.14-0.36-2.58-0.63-3.93-0.63c-2.46,0-3.6,1.29-3.6,2.76c0,1.41,1.02,2.67,3.21,2.67
				C170.449,518.25,171.949,517.26,172.999,516.061z"/>
			<path d="M181.609,509.04c1.17-1.409,3-2.729,4.95-2.729c1.649,0,2.699,0.66,3.27,1.65c0.39,0.689,0.57,1.619,0.57,2.64v7.409
				h2.189V519h-5.46v-0.99h2.16v-7.26c0-0.84-0.09-1.529-0.36-2.069c-0.42-0.87-1.26-1.351-2.52-1.351c-1.83,0-3.51,1.23-4.739,2.73
				v7.949h2.159V519h-5.46v-0.99h2.19v-10.499h-2.19v-0.99h3.24V509.04z"/>
			<path d="M197.929,509.04c1.17-1.409,3-2.729,4.95-2.729c1.649,0,2.699,0.66,3.27,1.65c0.39,0.689,0.57,1.619,0.57,2.64v7.409
				h2.189V519h-5.46v-0.99h2.16v-7.26c0-0.84-0.09-1.529-0.36-2.069c-0.42-0.87-1.26-1.351-2.52-1.351c-1.83,0-3.51,1.23-4.739,2.73
				v7.949h2.159V519h-5.46v-0.99h2.19v-10.499h-2.19v-0.99h3.24V509.04z"/>
			<path d="M217.908,517.95h2.73v-17.64h-2.73v-1.05h7.86c4.409,0,6.239,2.37,6.239,4.92c0,2.399-1.619,4.17-3.989,4.71
				c2.85,0.54,4.56,2.22,4.56,4.77c0,3.18-2.61,5.34-6.6,5.34h-8.07V517.95z M225.559,508.381c3.659,0,5.25-1.83,5.25-4.141
				c0-2.25-1.65-3.93-5.101-3.93h-3.84v8.07H225.559z M226.009,517.95c3.3,0,5.369-1.771,5.369-4.29c0-2.64-2.069-4.229-5.85-4.229
				h-3.66v8.52H226.009z"/>
			<path d="M235.668,515.641c0-2.25,1.95-3.75,4.649-3.75c1.44,0,3.091,0.359,3.99,0.72v-2.28c0-0.779-0.21-1.439-0.63-1.949
				c-0.57-0.66-1.56-1.11-2.939-1.11c-1.44,0-2.28,0.479-2.761,0.96c0.181,0.18,0.301,0.479,0.301,0.81c0,0.45-0.36,0.9-0.9,0.9
				c-0.6,0-0.96-0.45-0.96-1.021c0-1.17,1.59-2.609,4.41-2.609c1.649,0,2.939,0.479,3.689,1.35c0.57,0.63,0.87,1.471,0.87,2.49
				v7.859h2.16V519h-3.21v-1.89c-1.021,1.109-2.67,2.1-4.5,2.1C237.198,519.21,235.668,517.62,235.668,515.641z M244.308,516.061
				v-2.61c-1.14-0.36-2.58-0.63-3.93-0.63c-2.46,0-3.6,1.29-3.6,2.76c0,1.41,1.02,2.67,3.21,2.67
				C241.758,518.25,243.258,517.26,244.308,516.061z"/>
			<path d="M249.049,498.091v-0.99h3.27v11.91c1.17-1.44,2.97-2.7,4.92-2.7c1.529,0,2.52,0.54,3.149,1.41
				c0.54,0.72,0.75,1.739,0.75,2.88v7.409h2.19V519h-5.46v-0.99h2.16v-7.26c0-1.05-0.181-1.859-0.601-2.43
				c-0.479-0.63-1.29-0.99-2.37-0.99c-1.829,0-3.479,1.23-4.739,2.73v7.949h2.189V519h-5.459v-0.99h2.159v-19.919H249.049z"/>
			<path d="M273.888,507.511c0,0.54-0.39,0.989-0.99,0.989c-0.54,0-1.02-0.449-1.05-0.989c-1.14,0.18-2.31,1.439-3.119,2.909v7.59
				h2.459V519h-5.76v-0.99h2.19v-10.499h-2.19v-0.99h3.24v2.79c0.93-1.65,2.46-3,3.75-3
				C273.378,506.311,273.888,506.881,273.888,507.511z"/>
		</g>
	</g>
	<g id="livetype_1_" display="none">
		<text transform="matrix(1 0 0 1 92 519)" display="inline" font-family="'Archer-Light'" font-size="30">Hermann Bahr</text>
	</g>
</g>
</svg>
