<?xml version="1.0" encoding="utf-8"?>
<!-- Generator: Adobe Illustrator 15.0.1, SVG Export Plug-In . SVG Version: 6.00 Build 0)  -->
<!DOCTYPE svg PUBLIC "-//W3C//DTD SVG 1.0//EN" "http://www.w3.org/TR/2001/REC-SVG-20010904/DTD/svg10.dtd">
<svg version="1.0" xmlns="http://www.w3.org/2000/svg" xmlns:xlink="http://www.w3.org/1999/xlink" x="0px" y="0px" width="1280px"
	 height="720px" viewBox="0 0 1280 720" enable-background="new 0 0 1280 720" xml:space="preserve">
<g id="margin">
</g>
<g id="Layer_2">
	<g id="outlines_1_">
		<g>
			<path d="M146.763,104.155h13.969v38.163h24.41v12.241h-38.379V104.155z"/>
			<path d="M191.403,104.155h14.041v50.404h-14.041V104.155z"/>
			<path d="M214.659,104.155h40.324v12.241h-26.354v8.568h23.834v11.593h-23.834v18.001h-13.969V104.155z"/>
			<path d="M261.314,104.155h40.54v11.881H275.14v7.633h24.194v11.017H275.14v7.993h27.074v11.881h-40.899V104.155z"/>
			<path d="M329.569,104.155h14.041v50.404h-14.041V104.155z"/>
			<path d="M349.008,147.071l7.777-9.289c4.968,3.96,10.513,6.048,16.345,6.048c3.745,0,5.761-1.296,5.761-3.456v-0.144
				c0-2.088-1.656-3.24-8.497-4.825c-10.729-2.448-19.009-5.472-19.009-15.841v-0.144c0-9.361,7.417-16.129,19.514-16.129
				c8.568,0,15.265,2.304,20.738,6.697l-6.985,9.865c-4.608-3.24-9.649-4.968-14.113-4.968c-3.384,0-5.04,1.44-5.04,3.24v0.144
				c0,2.304,1.728,3.312,8.712,4.896c11.593,2.52,18.794,6.264,18.794,15.697v0.144c0,10.297-8.137,16.417-20.378,16.417
				C363.698,155.424,355.201,152.615,349.008,147.071z"/>
			<path d="M432.024,116.396h-15.121v-12.241h44.212v12.241h-15.122v38.163h-13.969V116.396z"/>
			<path d="M467.23,104.155H481.2v18.866h17.93v-18.866h13.969v50.404h-13.969v-19.154H481.2v19.154H467.23V104.155z"/>
			<path d="M522.021,104.155h40.54v11.881h-26.714v7.633h24.194v11.017h-24.194v7.993h27.074v11.881h-40.899V104.155z"/>
			<path d="M588.26,129.501v-0.144c0-14.473,11.665-26.21,27.218-26.21s27.074,11.593,27.074,26.066v0.144
				c0,14.473-11.665,26.21-27.218,26.21S588.26,143.975,588.26,129.501z M628.295,129.501v-0.144
				c0-7.272-5.256-13.609-12.961-13.609c-7.633,0-12.745,6.193-12.745,13.465v0.144c0,7.272,5.256,13.609,12.889,13.609
				C623.183,142.967,628.295,136.774,628.295,129.501z"/>
			<path d="M649.82,104.155h13.032l20.738,26.642v-26.642h13.825v50.404h-12.241l-21.529-27.65v27.65H649.82V104.155z"/>
			<path d="M706.34,104.155h13.969v38.163h24.41v12.241H706.34V104.155z"/>
			<path d="M755.877,135.694l-19.153-31.539h15.913l10.369,18.361l10.44-18.361h15.625l-19.153,31.323v19.082h-14.041V135.694z"/>
			<path d="M811.603,129.501v-0.144c0-14.689,11.521-26.21,27.146-26.21c8.856,0,15.121,2.736,20.449,7.345l-8.208,9.865
				c-3.601-3.024-7.201-4.752-12.17-4.752c-7.272,0-12.889,6.121-12.889,13.825v0.144c0,8.137,5.688,13.969,13.682,13.969
				c3.384,0,5.977-0.72,8.064-2.088v-6.121h-9.938v-10.225h23.187v22.682c-5.328,4.393-12.745,7.777-21.89,7.777
				C823.34,155.568,811.603,144.767,811.603,129.501z"/>
			<path d="M886.124,103.795h13.466l21.457,50.764H906.07l-3.673-9.001h-19.441l-3.601,9.001h-14.689L886.124,103.795z
				 M898.365,134.686l-5.616-14.33l-5.688,14.33H898.365z"/>
			<path d="M925.939,104.155H940.7l12.025,19.514l12.024-19.514h14.762v50.404h-13.897v-28.946l-12.889,19.729h-0.288
				l-12.817-19.586v28.803h-13.681V104.155z"/>
			<path d="M988.436,104.155h40.539v11.881h-26.714v7.633h24.193v11.017h-24.193v7.993h27.074v11.881h-40.899V104.155z"/>
			<path d="M1056.689,104.155h14.042v50.404h-14.042V104.155z"/>
			<path d="M1079.946,104.155h13.032l20.738,26.642v-26.642h13.825v50.404h-12.241l-21.529-27.65v27.65h-13.825V104.155z"/>
			<path d="M250.658,190.555h14.761l8.785,29.163l9.721-29.307h12.025l9.721,29.307l8.785-29.163h14.474l-16.85,50.764h-12.169
				l-10.153-29.019l-10.081,29.019h-12.169L250.658,190.555z"/>
			<path d="M334.466,190.555h13.969v18.866h17.93v-18.866h13.969v50.404h-13.969v-19.154h-17.93v19.154h-13.969V190.555z"/>
			<path d="M389.545,190.555h14.041v50.404h-14.041V190.555z"/>
			<path d="M411.072,215.901v-0.144c0-14.689,11.305-26.21,26.57-26.21c10.297,0,16.921,4.32,21.386,10.513l-10.513,8.137
				c-2.88-3.601-6.193-5.905-11.017-5.905c-7.057,0-12.025,5.977-12.025,13.321v0.144c0,7.561,4.968,13.465,12.025,13.465
				c5.256,0,8.353-2.448,11.377-6.121l10.513,7.489c-4.752,6.552-11.161,11.377-22.322,11.377
				C422.665,241.968,411.072,230.951,411.072,215.901z"/>
			<path d="M465.36,190.555h13.969v18.866h17.93v-18.866h13.969v50.404h-13.969v-19.154h-17.93v19.154H465.36V190.555z"/>
			<path d="M552.407,202.796h-15.121v-12.241h44.212v12.241h-15.122v38.163h-13.969V202.796z"/>
			<path d="M587.613,190.555h13.969v18.866h17.93v-18.866h13.969v50.404h-13.969v-19.154h-17.93v19.154h-13.969V190.555z"/>
			<path d="M642.404,190.555h40.539v11.881h-26.714v7.633h24.194v11.017h-24.194v7.993h27.074v11.881h-40.899V190.555z"/>
			<path d="M708.643,215.901v-0.144c0-14.473,11.665-26.21,27.219-26.21c15.553,0,27.074,11.593,27.074,26.066v0.144
				c0,14.473-11.665,26.21-27.219,26.21S708.643,230.375,708.643,215.901z M748.678,215.901v-0.144
				c0-7.272-5.256-13.609-12.961-13.609c-7.633,0-12.745,6.193-12.745,13.465v0.144c0,7.272,5.257,13.609,12.89,13.609
				C743.565,229.367,748.678,223.174,748.678,215.901z"/>
			<path d="M770.203,190.555h25.85c6.337,0,10.801,1.584,13.753,4.536c2.017,2.017,3.24,4.681,3.24,8.137v0.144
				c0,5.833-3.312,9.289-7.776,11.233c6.121,2.017,10.009,5.473,10.009,12.313v0.144c0,8.641-7.057,13.897-19.081,13.897h-25.994
				V190.555z M792.597,210.645c4.248,0,6.624-1.44,6.624-4.393v-0.144c0-2.736-2.16-4.32-6.336-4.32h-9.073v8.857H792.597z
				 M794.612,229.727c4.249,0,6.697-1.656,6.697-4.608v-0.144c0-2.736-2.16-4.537-6.841-4.537h-10.657v9.289H794.612z"/>
			<path d="M817.506,233.327l9.001-8.497c2.448,2.952,4.752,4.68,7.849,4.68c3.528,0,5.761-2.376,5.761-7.056v-31.899h13.896v31.971
				c0,6.336-1.584,10.801-4.968,14.185c-3.312,3.312-8.065,5.113-13.825,5.113C826.435,241.824,821.034,238.151,817.506,233.327z"/>
			<path d="M862.29,190.555h40.539v11.881h-26.714v7.633h24.193v11.017h-24.193v7.993h27.074v11.881H862.29V190.555z"/>
			<path d="M908.226,215.901v-0.144c0-14.689,11.305-26.21,26.57-26.21c10.297,0,16.921,4.32,21.386,10.513l-10.513,8.137
				c-2.881-3.601-6.192-5.905-11.018-5.905c-7.057,0-12.024,5.977-12.024,13.321v0.144c0,7.561,4.968,13.465,12.024,13.465
				c5.257,0,8.354-2.448,11.377-6.121l10.514,7.489c-4.753,6.552-11.161,11.377-22.322,11.377
				C919.818,241.968,908.226,230.951,908.226,215.901z"/>
			<path d="M974.826,202.796h-15.121v-12.241h44.212v12.241h-15.121v38.163h-13.97V202.796z"/>
			<path d="M1028.248,215.901v-0.144c0-14.473,11.665-26.21,27.219-26.21c15.553,0,27.074,11.593,27.074,26.066v0.144
				c0,14.473-11.665,26.21-27.219,26.21S1028.248,230.375,1028.248,215.901z M1068.283,215.901v-0.144
				c0-7.272-5.256-13.609-12.961-13.609c-7.633,0-12.745,6.193-12.745,13.465v0.144c0,7.272,5.257,13.609,12.89,13.609
				C1063.171,229.367,1068.283,223.174,1068.283,215.901z"/>
			<path d="M1089.809,190.555h40.323v12.241h-26.354v8.568h23.834v11.593h-23.834v18.001h-13.969V190.555z"/>
			<path d="M261.964,289.197h-15.121v-12.241h44.212v12.241h-15.122v38.163h-13.969V289.197z"/>
			<path d="M297.17,276.956h13.969v18.866h17.93v-18.866h13.969v50.404h-13.969v-19.154h-17.93v19.154H297.17V276.956z"/>
			<path d="M351.961,276.956h40.54v11.881h-26.714v7.633h24.194v11.017h-24.194v7.993h27.074v11.881h-40.899V276.956z"/>
			<path d="M418.2,302.302v-0.144c0-14.689,11.521-26.21,27.146-26.21c8.856,0,15.121,2.736,20.45,7.345l-8.209,9.865
				c-3.6-3.024-7.201-4.752-12.169-4.752c-7.272,0-12.889,6.121-12.889,13.825v0.144c0,8.137,5.688,13.969,13.681,13.969
				c3.384,0,5.977-0.72,8.065-2.088v-6.121h-9.937v-10.225h23.186v22.682c-5.329,4.393-12.745,7.777-21.89,7.777
				C429.937,328.368,418.2,317.567,418.2,302.302z"/>
			<path d="M492.721,276.596h13.465l21.458,50.764h-14.978l-3.672-9.001h-19.441l-3.601,9.001h-14.689L492.721,276.596z
				 M504.962,307.486l-5.616-14.33l-5.688,14.33H504.962z"/>
			<path d="M532.535,276.956h14.761l12.025,19.514l12.025-19.514h14.761v50.404H572.21v-28.946l-12.889,19.729h-0.288
				l-12.817-19.585v28.802h-13.681V276.956z"/>
			<path d="M595.031,276.956h40.54v11.881h-26.714v7.633h24.194v11.017h-24.194v7.993h27.074v11.881h-40.899V276.956z"/>
			<path d="M663.285,276.956h14.042v50.404h-14.042V276.956z"/>
			<path d="M682.726,319.871l7.776-9.289c4.969,3.96,10.513,6.048,16.346,6.048c3.744,0,5.76-1.296,5.76-3.456v-0.144
				c0-2.088-1.656-3.24-8.496-4.825c-10.729-2.448-19.01-5.472-19.01-15.841v-0.144c0-9.361,7.416-16.129,19.514-16.129
				c8.568,0,15.266,2.304,20.737,6.697l-6.984,9.865c-4.608-3.24-9.648-4.968-14.113-4.968c-3.384,0-5.04,1.44-5.04,3.24v0.144
				c0,2.304,1.728,3.312,8.713,4.896c11.593,2.52,18.793,6.264,18.793,15.697v0.144c0,10.297-8.137,16.417-20.378,16.417
				C697.414,328.224,688.918,325.416,682.726,319.871z"/>
			<path d="M765.741,289.197H750.62v-12.241h44.212v12.241h-15.121v38.163h-13.97V289.197z"/>
			<path d="M797.06,302.302v-0.144c0-14.473,11.665-26.21,27.218-26.21c15.554,0,27.075,11.593,27.075,26.066v0.144
				c0,14.473-11.665,26.21-27.219,26.21S797.06,316.775,797.06,302.302z M837.095,302.302v-0.144
				c0-7.272-5.256-13.609-12.961-13.609c-7.633,0-12.745,6.193-12.745,13.465v0.144c0,7.272,5.257,13.609,12.889,13.609
				C831.982,315.767,837.095,309.574,837.095,302.302z"/>
			<path d="M878.562,276.956h13.969v38.163h24.41v12.241h-38.379V276.956z"/>
			<path d="M922.914,276.956h40.539v11.881h-26.714v7.633h24.193v11.017h-24.193v7.993h27.074v11.881h-40.899V276.956z"/>
			<path d="M988.362,276.596h13.466l21.457,50.764h-14.977l-3.673-9.001h-19.441l-3.601,9.001h-14.689L988.362,276.596z
				 M1000.604,307.486l-5.616-14.33l-5.688,14.33H1000.604z"/>
			<path d="M1028.178,276.956h23.834c7.704,0,13.033,2.016,16.417,5.472c2.952,2.88,4.465,6.769,4.465,11.737v0.144
				c0,7.705-4.104,12.817-10.369,15.481l12.024,17.569h-16.129l-10.153-15.265h-6.12v15.265h-13.969V276.956z M1051.363,301.149
				c4.752,0,7.488-2.304,7.488-5.977v-0.144c0-3.96-2.88-5.977-7.561-5.977h-9.145v12.097H1051.363z"/>
			<path d="M1079.945,276.956h13.032l20.738,26.642v-26.642h13.825v50.404H1115.3l-21.529-27.65v27.65h-13.825V276.956z"/>
			<path d="M712.391,375.597H697.27v-12.241h44.212v12.241H726.36v38.163h-13.97V375.597z"/>
			<path d="M747.598,363.355h13.969v18.865h17.93v-18.865h13.969v50.404h-13.969v-19.153h-17.93v19.153h-13.969V363.355z"/>
			<path d="M802.389,363.355h40.539v11.881h-26.714v7.633h24.193v11.017h-24.193v7.993h27.074v11.881h-40.899V363.355z"/>
			<path d="M870.355,363.355h23.834c7.704,0,13.033,2.016,16.417,5.473c2.952,2.88,4.465,6.769,4.465,11.736v0.145
				c0,7.705-4.104,12.817-10.369,15.481l12.024,17.569h-16.129l-10.153-15.266h-6.12v15.266h-13.969V363.355z M893.541,387.55
				c4.752,0,7.488-2.305,7.488-5.977v-0.145c0-3.96-2.88-5.977-7.561-5.977h-9.145v12.098H893.541z"/>
			<path d="M921.475,391.654v-28.299h14.186v28.011c0,7.272,3.672,10.729,9.288,10.729c5.617,0,9.289-3.312,9.289-10.369v-28.37
				h14.186v27.938c0,16.273-9.289,23.402-23.618,23.402S921.475,407.423,921.475,391.654z"/>
			<path d="M976.699,363.355h13.969v38.163h24.41v12.241h-38.379V363.355z"/>
			<path d="M1021.051,363.355h40.539v11.881h-26.714v7.633h24.193v11.017h-24.193v7.993h27.074v11.881h-40.899V363.355z"/>
			<path d="M1065.258,406.271l7.776-9.289c4.969,3.96,10.513,6.049,16.346,6.049c3.744,0,5.76-1.297,5.76-3.457v-0.144
				c0-2.088-1.656-3.24-8.496-4.824c-10.729-2.448-19.01-5.473-19.01-15.842v-0.144c0-9.361,7.416-16.13,19.514-16.13
				c8.568,0,15.266,2.305,20.737,6.696l-6.984,9.865c-4.608-3.24-9.648-4.969-14.113-4.969c-3.384,0-5.04,1.44-5.04,3.24v0.145
				c0,2.304,1.728,3.312,8.713,4.896c11.593,2.521,18.793,6.265,18.793,15.697v0.144c0,10.297-8.137,16.418-20.378,16.418
				C1079.946,414.624,1071.45,411.815,1065.258,406.271z"/>
			<path d="M1114.649,399.719h14.257v14.041h-14.257V399.719z"/>
		</g>
	</g>
	<g id="livetype" display="none">
		<rect x="92" y="102" display="inline" fill="none" width="1040" height="499"/>
		<text transform="matrix(1 0 0 1 132.9395 154.5596)" display="inline"><tspan x="0" y="0" font-family="'Gotham-Black'" font-size="72">Life is the only game in </tspan><tspan x="116.279" y="86.4" font-family="'Gotham-Black'" font-size="72">which the object of </tspan><tspan x="110.087" y="172.8" font-family="'Gotham-Black'" font-size="72">the game is to learn </tspan><tspan x="562.674" y="259.2" font-family="'Gotham-Black'" font-size="72">the rules.</tspan></text>
	</g>
</g>
<g id="author">
	<g id="outlines">
		<g>
			<path d="M852.524,517.95h2.16l6.6-17.64h-2.49v-1.05h7.5v1.05h-2.49l6.601,17.64h2.189V519h-6.09v-1.05h2.58l-2.31-6.27h-8.49
				l-2.31,6.27h2.64V519h-6.09V517.95z M866.384,510.63l-3.84-10.409l-3.869,10.409H866.384z"/>
			<path d="M882.555,509.79c-0.54,0-0.931-0.42-0.931-0.93c0-0.21,0.061-0.51,0.301-0.78c-0.601-0.569-1.771-0.81-2.851-0.81
				c-2.04,0-3.3,1.08-3.3,2.37c0,1.439,1.561,1.859,3.66,2.399c2.25,0.57,4.439,1.26,4.439,3.69c0,2.1-2.01,3.479-4.709,3.479
				c-1.83,0-3.48-0.63-4.32-1.5c-0.36-0.36-0.57-0.78-0.57-1.29c0-0.569,0.391-1.02,0.9-1.02c0.57,0,0.93,0.39,0.93,0.899
				c0,0.33-0.12,0.601-0.359,0.78c0.39,0.57,1.739,1.17,3.39,1.17c2.279,0,3.659-1.02,3.659-2.49c0-1.649-1.649-2.159-3.6-2.64
				c-2.489-0.6-4.5-1.229-4.5-3.45c0-1.89,1.83-3.359,4.41-3.359c1.77,0,3.09,0.54,3.78,1.26c0.39,0.391,0.569,0.78,0.569,1.23
				C883.454,509.37,883.064,509.79,882.555,509.79z"/>
			<path d="M885.735,498.091v-0.99h3.27v11.91c1.17-1.44,2.97-2.7,4.92-2.7c1.529,0,2.52,0.54,3.149,1.41
				c0.54,0.72,0.75,1.739,0.75,2.88v7.409h2.19V519h-5.46v-0.99h2.16v-7.26c0-1.05-0.181-1.859-0.601-2.43
				c-0.479-0.63-1.29-0.99-2.37-0.99c-1.829,0-3.479,1.23-4.739,2.73v7.949h2.189V519h-5.459v-0.99h2.159v-19.919H885.735z"/>
			<path d="M901.813,518.01h2.311v-19.919h-2.311v-0.99h3.42v20.909h2.37V519h-5.79V518.01z"/>
			<path d="M910.994,512.88c0.12,3.48,2.22,5.34,5.369,5.34c1.681,0,3.03-0.569,4.351-1.439l-0.091,1.14
				c-1.199,0.811-2.76,1.29-4.38,1.29c-3.81,0-6.39-2.55-6.39-6.479c0-3.54,2.46-6.42,5.91-6.42c3.569,0,5.55,2.79,5.55,5.85
				c0,0.3-0.03,0.54-0.09,0.72H910.994z M911.023,511.92h9.15c-0.12-2.579-1.62-4.619-4.5-4.619
				C913.273,507.301,911.294,509.16,911.023,511.92z"/>
			<path d="M923.894,518.01h2.34v-10.499h-2.34v-0.99h3.45v11.489h2.34V519h-5.79V518.01z M925.454,501.211
				c0-0.63,0.479-1.141,1.079-1.141c0.601,0,1.08,0.511,1.08,1.141c0,0.6-0.479,1.109-1.08,1.109
				C925.934,502.32,925.454,501.811,925.454,501.211z"/>
			<path d="M943.813,519.78c0,1.5-0.39,2.64-1.11,3.479c-1.02,1.2-2.67,1.74-4.649,1.74s-3.39-0.63-4.08-1.38
				c-0.359-0.36-0.54-0.811-0.54-1.2c0-0.69,0.48-1.14,1.08-1.14c0.51,0,0.87,0.42,0.87,0.93c0,0.33-0.18,0.66-0.45,0.87
				c0.391,0.45,1.53,0.93,3.24,0.93c1.56,0,2.85-0.42,3.689-1.41c0.54-0.66,0.84-1.529,0.84-2.729v-3.03
				c-1.109,1.2-2.609,2.19-4.68,2.19c-3.39,0-5.999-2.7-5.999-6.3c0-3.45,2.52-6.42,6.239-6.42c1.8,0,3.36,0.81,4.47,1.86v-1.65
				h3.24v0.99h-2.16V519.78z M933.164,512.7c0,3.03,2.01,5.37,4.92,5.37c1.979,0,3.479-1.021,4.619-2.34v-6.57
				c-1.079-1.02-2.55-1.859-4.47-1.859C935.233,507.301,933.164,509.7,933.164,512.7z"/>
			<path d="M947.834,498.091v-0.99h3.27v11.91c1.17-1.44,2.97-2.7,4.92-2.7c1.529,0,2.52,0.54,3.149,1.41
				c0.54,0.72,0.75,1.739,0.75,2.88v7.409h2.19V519h-5.46v-0.99h2.16v-7.26c0-1.05-0.181-1.859-0.601-2.43
				c-0.479-0.63-1.29-0.99-2.37-0.99c-1.829,0-3.479,1.23-4.739,2.73v7.949h2.189V519h-5.459v-0.99h2.159v-19.919H947.834z"/>
			<path d="M971.112,517.95h2.73v-17.64h-2.73v-1.05h7.86c4.409,0,6.239,2.37,6.239,4.92c0,2.399-1.619,4.17-3.989,4.71
				c2.85,0.54,4.56,2.22,4.56,4.77c0,3.18-2.61,5.34-6.6,5.34h-8.07V517.95z M978.763,508.381c3.659,0,5.25-1.83,5.25-4.141
				c0-2.25-1.65-3.93-5.101-3.93h-3.84v8.07H978.763z M979.213,517.95c3.3,0,5.369-1.771,5.369-4.29c0-2.64-2.069-4.229-5.85-4.229
				h-3.66v8.52H979.213z"/>
			<path d="M997.183,507.511c0,0.54-0.39,0.989-0.99,0.989c-0.539,0-1.02-0.449-1.05-0.989c-1.14,0.18-2.31,1.439-3.119,2.909v7.59
				h2.459V519h-5.76v-0.99h2.19v-10.499h-2.19v-0.99h3.24v2.79c0.93-1.65,2.46-3,3.75-3
				C996.673,506.311,997.183,506.881,997.183,507.511z"/>
			<path d="M998.953,518.01h2.34v-10.499h-2.34v-0.99h3.45v11.489h2.34V519h-5.79V518.01z M1000.514,501.211
				c0-0.63,0.479-1.141,1.079-1.141c0.601,0,1.08,0.511,1.08,1.141c0,0.6-0.479,1.109-1.08,1.109
				C1000.993,502.32,1000.514,501.811,1000.514,501.211z"/>
			<path d="M1006.572,518.01h2.311v-19.919h-2.311v-0.99h3.42v20.909h2.37V519h-5.79V518.01z"/>
			<path d="M1014.192,518.01h2.311v-19.919h-2.311v-0.99h3.42v20.909h2.37V519h-5.79V518.01z"/>
			<path d="M1022.143,518.01h2.34v-10.499h-2.34v-0.99h3.45v11.489h2.34V519h-5.79V518.01z M1023.703,501.211
				c0-0.63,0.479-1.141,1.079-1.141c0.601,0,1.08,0.511,1.08,1.141c0,0.6-0.479,1.109-1.08,1.109
				C1024.183,502.32,1023.703,501.811,1023.703,501.211z"/>
			<path d="M1029.913,515.641c0-2.25,1.95-3.75,4.649-3.75c1.44,0,3.091,0.359,3.99,0.72v-2.28c0-0.779-0.21-1.439-0.63-1.949
				c-0.57-0.66-1.56-1.11-2.939-1.11c-1.44,0-2.28,0.479-2.761,0.96c0.181,0.18,0.301,0.479,0.301,0.81c0,0.45-0.36,0.9-0.9,0.9
				c-0.6,0-0.96-0.45-0.96-1.021c0-1.17,1.59-2.609,4.41-2.609c1.649,0,2.939,0.479,3.689,1.35c0.57,0.63,0.87,1.471,0.87,2.49
				v7.859h2.16V519h-3.21v-1.89c-1.021,1.109-2.67,2.1-4.5,2.1C1031.443,519.21,1029.913,517.62,1029.913,515.641z
				 M1038.553,516.061v-2.61c-1.14-0.36-2.58-0.63-3.93-0.63c-2.46,0-3.6,1.29-3.6,2.76c0,1.41,1.02,2.67,3.21,2.67
				C1036.003,518.25,1037.503,517.26,1038.553,516.061z"/>
			<path d="M1047.162,509.04c1.17-1.409,3-2.729,4.95-2.729c1.649,0,2.699,0.66,3.27,1.65c0.39,0.689,0.57,1.619,0.57,2.64v7.409
				h2.189V519h-5.46v-0.99h2.16v-7.26c0-0.84-0.09-1.529-0.36-2.069c-0.42-0.87-1.26-1.351-2.52-1.351c-1.83,0-3.51,1.23-4.739,2.73
				v7.949h2.159V519h-5.46v-0.99h2.19v-10.499h-2.19v-0.99h3.24V509.04z"/>
			<path d="M1062.071,517.83c-0.21-0.45-0.3-0.96-0.3-1.56v-8.76h-2.28v-0.99h2.28v-3.33l1.11-0.39v3.72h4.02v0.99h-4.02v8.64
				c0,0.479,0.06,0.84,0.21,1.17c0.27,0.569,0.779,0.84,1.59,0.84c0.78,0,1.53-0.3,2.279-0.75l-0.18,1.109
				c-0.6,0.36-1.319,0.69-2.34,0.69C1063.271,519.21,1062.491,518.73,1062.071,517.83z"/>
		</g>
	</g>
	<g id="livetype_1_" display="none">
		<text transform="matrix(1 0 0 1 852.0146 519)" display="inline" font-family="'Archer-Light'" font-size="30">Ashleigh Brilliant</text>
	</g>
</g>
</svg>
