<?xml version="1.0" encoding="utf-8"?>
<!-- Generator: Adobe Illustrator 15.0.0, SVG Export Plug-In . SVG Version: 6.00 Build 0)  -->
<!DOCTYPE svg PUBLIC "-//W3C//DTD SVG 1.0//EN" "http://www.w3.org/TR/2001/REC-SVG-20010904/DTD/svg10.dtd">
<svg version="1.0" xmlns="http://www.w3.org/2000/svg" xmlns:xlink="http://www.w3.org/1999/xlink" x="0px" y="0px" width="1280px"
	 height="720px" viewBox="0 0 1280 720" enable-background="new 0 0 1280 720" xml:space="preserve">
<g id="margin">
</g>
<g id="Layer_2">
	<g id="outlines_1_">
		<g>
			<path d="M95.256,157.527h6.6V117.4h-6.6v-8.887h23.319c12.407,0,21.911,7.127,21.911,18.919c0,13.288-9.416,19.8-23.055,19.8
				c-2.729,0-4.4,0-5.633-0.088v10.383h7.217v8.889h-23.76V157.527z M130.191,127.433c0-6.071-5.017-10.032-12.145-10.032h-6.248
				v20.943c1.057,0.088,2.465,0.177,6.512,0.177C125.791,138.521,130.191,134.297,130.191,127.433z"/>
			<path d="M144.888,156.296c0-7.216,6.335-11.616,15.487-11.616c3.96,0,7.656,0.528,9.768,1.057v-3.08
				c0-2.288-0.527-4.048-1.496-5.279c-1.584-2.024-4.136-2.816-7.567-2.816c-1.672,0-2.903,0.264-3.784,0.615
				c0.176,0.529,0.352,1.408,0.352,1.937c0,2.903-2.287,5.017-5.191,5.017s-5.104-2.024-5.104-5.192
				c0-4.752,4.84-9.769,15.312-9.769c6.6,0,11.087,1.849,13.815,5.192c2.023,2.464,2.992,5.808,2.992,9.68v16.456h5.72v7.92h-14.872
				v-4.225c-3.08,2.641-7.743,4.928-12.936,4.928C150.783,167.119,144.888,163.512,144.888,156.296z M170.143,156.736v-6.072
				c-2.199-0.527-4.928-0.88-7.92-0.88c-4.664,0-7.479,2.112-7.479,5.632c0,3.08,2.288,4.752,5.72,4.752
				S167.238,158.848,170.143,156.736z"/>
			<path d="M195.487,183.928c-5.104,0-8.272-2.992-8.272-6.072c0-3.256,2.201-4.928,4.752-4.928c2.289,0,3.608,1.408,4.225,2.903
				c0.968-0.264,2.023-0.88,3.08-2.288c0.615-0.791,1.144-1.76,1.76-2.992l2.904-6.071l-13.729-28.511h-4.752v-8.096h19.889v7.655
				h-5.633l8.889,20.327l8.975-20.327h-5.983v-7.655h19.8v8.096h-4.664l-18.039,38.278c-0.881,1.761-1.849,3.345-2.992,4.664
				C202.879,182.167,199.359,183.928,195.487,183.928z"/>
			<path d="M234.646,158.496h5.896v-22.527h-5.896v-8.096h15.488v30.623h5.72v7.92h-21.208V158.496z M237.99,115.641
				c0-3.52,3.08-6.336,6.513-6.336c3.432,0,6.335,2.816,6.335,6.336c0,3.521-3.079,6.336-6.512,6.336
				C240.895,121.977,237.99,119.161,237.99,115.641z"/>
			<path d="M276.358,134.032c3.696-3.607,7.831-6.864,13.464-6.864c4.576,0,7.92,1.849,9.943,4.929
				c1.32,2.112,2.023,4.752,2.023,7.919v18.48h5.721v7.92h-20.592v-7.92h5.279v-16.104c0-1.584-0.264-2.992-0.791-3.961
				c-0.881-1.672-2.465-2.551-4.752-2.551c-3.344,0-6.864,1.936-9.943,4.487v18.128h5.279v7.92h-20.592v-7.92h5.721v-22.527h-5.721
				v-8.096h14.96V134.032z"/>
			<path d="M349.574,166.504c0,4.752-1.231,8.711-3.607,11.615c-3.168,3.872-8.184,5.896-14.432,5.896
				c-6.688,0-12.408-2.112-15.136-4.84c-1.496-1.496-2.112-3.168-2.112-5.017c0-2.728,2.024-5.368,5.192-5.368
				c2.991,0,5.368,2.112,5.368,5.016c0,0.44-0.088,1.145-0.176,1.496c1.584,0.528,3.432,0.969,5.719,0.969
				c3.432,0,6.16-1.057,7.832-3.344c1.145-1.584,1.76-3.784,1.76-6.688v-5.545c-2.903,2.904-5.983,4.928-11.088,4.928
				c-9.768,0-17.6-7.479-17.6-18.919c0-10.999,8.008-19.536,18.04-19.536c4.929,0,8.448,1.937,11,4.137v-3.432h14.96v8.096h-5.721
				V166.504z M321.151,146.616c0,7.04,4.312,10.911,10.208,10.911c3.256,0,6.16-1.496,8.623-3.783v-15.312
				c-2.287-1.76-5.191-2.991-8.623-2.991C325.463,135.44,321.151,139.312,321.151,146.616z"/>
			<path d="M379.67,147.32c0-11.176,8.096-20.152,18.479-20.152c4.929,0,8.537,1.849,10.736,3.697v-20.768h-5.808v-8.096h15.399
				v56.494h5.72v7.92h-15.312v-4.225c-2.816,2.729-6.424,4.928-11.352,4.928C387.325,167.119,379.67,158.936,379.67,147.32z
				 M408.885,154.977v-16.545c-2.552-1.76-5.544-2.991-9.152-2.991c-5.367,0-10.207,4.136-10.207,11.792
				c0,7.392,4.576,11.615,10.207,11.615C403.341,158.848,406.245,157.264,408.885,154.977z"/>
			<path d="M439.068,150.4c1.32,5.983,6.248,8.623,12.672,8.623c4.664,0,9.504-1.496,13.992-4.047l-0.793,8.623
				c-4.047,2.376-8.976,3.52-14.607,3.52c-12.584,0-21.295-7.92-21.295-19.887c0-10.912,7.655-20.064,19.535-20.064
				c12.32,0,18.744,8.272,18.744,18.48c0,1.496-0.177,3.432-0.44,4.752H439.068z M438.98,143.713h18.744
				c-0.177-5.281-3.608-8.801-9.24-8.801C444.26,134.912,440.037,137.377,438.98,143.713z"/>
			<path d="M485.092,162.72l-2.111,3.872h-6.512v-56.494h-5.808v-8.096h15.399v30.095c2.816-2.728,6.424-4.929,11.352-4.929
				c10.207,0,17.863,8.185,17.863,19.801c0,11.175-8.096,20.15-18.479,20.15C491.868,167.119,488.349,165.359,485.092,162.72z
				 M505.42,147.057c0-7.393-4.576-11.616-10.207-11.616c-3.608,0-6.513,1.584-9.152,3.872v16.543
				c2.552,1.76,5.544,2.992,9.152,2.992C500.58,158.848,505.42,154.712,505.42,147.057z"/>
			<path d="M527.859,161.84c-0.879-1.584-1.319-3.607-1.319-6.072v-19.799h-7.479v-8.096h7.479v-8.096l9.503-4.137v12.232h11.704
				v8.096h-11.704v17.951c0,1.232,0.177,2.023,0.617,2.816c0.703,1.231,2.111,1.848,4.047,1.848c2.465,0,5.28-0.969,7.568-2.024
				l-0.792,8.272c-2.64,1.319-5.72,2.287-9.239,2.287C533.58,167.119,529.796,165.535,527.859,161.84z"/>
			<path d="M581.714,141.6c-3.08,0-5.192-1.848-5.192-4.751c0-0.616,0-1.144,0.177-1.673c-1.584-0.615-3.521-0.967-5.456-0.967
				c-4.312,0-6.424,1.936-6.424,3.959c0,2.2,2.199,3.344,8.096,4.928c9.24,2.465,14.607,4.752,14.607,11.704
				c0,8.096-7.567,12.407-16.279,12.407c-5.896,0-12.231-2.111-14.783-4.664c-1.584-1.584-2.2-3.167-2.2-5.191
				c0-2.816,2.112-5.191,5.104-5.191c2.64,0,5.192,1.76,5.192,5.104c0,0.528-0.088,1.057-0.176,1.584
				c1.76,0.704,4.223,1.232,6.951,1.232c3.872,0,7.04-1.32,7.04-4.137c0-1.936-1.672-3.08-7.567-4.664
				c-10.648-2.815-15.137-5.367-15.137-11.967c0-5.984,4.929-12.232,15.752-12.232c4.664,0,10.296,1.761,12.936,4.4
				c1.408,1.408,2.112,3.08,2.112,4.928C586.466,139.488,584.529,141.6,581.714,141.6z"/>
			<path d="M613.217,158.496h5.896v-22.527h-5.896v-8.096h15.487v30.623h5.72v7.92h-21.207V158.496z M616.561,115.641
				c0-3.52,3.08-6.336,6.512-6.336s6.336,2.816,6.336,6.336c0,3.521-3.08,6.336-6.512,6.336S616.561,119.161,616.561,115.641z"/>
			<path d="M667.6,141.6c-3.079,0-5.191-1.848-5.191-4.751c0-0.616,0-1.144,0.176-1.673c-1.584-0.615-3.52-0.967-5.456-0.967
				c-4.312,0-6.423,1.936-6.423,3.959c0,2.2,2.199,3.344,8.096,4.928c9.239,2.465,14.607,4.752,14.607,11.704
				c0,8.096-7.568,12.407-16.28,12.407c-5.896,0-12.231-2.111-14.783-4.664c-1.584-1.584-2.2-3.167-2.2-5.191
				c0-2.816,2.112-5.191,5.104-5.191c2.64,0,5.191,1.76,5.191,5.104c0,0.528-0.088,1.057-0.176,1.584
				c1.76,0.704,4.224,1.232,6.952,1.232c3.871,0,7.039-1.32,7.039-4.137c0-1.936-1.672-3.08-7.567-4.664
				c-10.647-2.815-15.136-5.367-15.136-11.967c0-5.984,4.928-12.232,15.752-12.232c4.664,0,10.295,1.761,12.936,4.4
				c1.408,1.408,2.111,3.08,2.111,4.928C672.352,139.488,670.416,141.6,667.6,141.6z"/>
			<path d="M699.367,156.296c0-7.216,6.336-11.616,15.487-11.616c3.96,0,7.656,0.528,9.768,1.057v-3.08
				c0-2.288-0.527-4.048-1.496-5.279c-1.584-2.024-4.136-2.816-7.567-2.816c-1.672,0-2.904,0.264-3.784,0.615
				c0.176,0.529,0.353,1.408,0.353,1.937c0,2.903-2.288,5.017-5.192,5.017c-2.903,0-5.104-2.024-5.104-5.192
				c0-4.752,4.84-9.769,15.312-9.769c6.6,0,11.088,1.849,13.815,5.192c2.024,2.464,2.992,5.808,2.992,9.68v16.456h5.72v7.92h-14.872
				v-4.225c-3.079,2.641-7.743,4.928-12.936,4.928C705.263,167.119,699.367,163.512,699.367,156.296z M724.622,156.736v-6.072
				c-2.2-0.527-4.928-0.88-7.92-0.88c-4.663,0-7.479,2.112-7.479,5.632c0,3.08,2.288,4.752,5.72,4.752
				S721.719,158.848,724.622,156.736z"/>
			<path d="M762.725,158.496h5.983v-48.398h-5.983v-8.096H778.3v56.494h5.72v7.92h-21.295V158.496z"/>
			<path d="M794.58,162.016c-1.231-2.023-1.936-4.664-1.936-7.744v-18.303h-5.72v-8.096h15.312v24.023
				c0,1.672,0.264,2.903,0.792,3.959c0.88,1.672,2.464,2.553,4.752,2.553c3.344,0,6.863-1.937,9.943-4.488v-17.951h-5.983v-8.096
				h15.575v30.623h5.72v7.92h-14.96v-6.16c-3.695,3.607-7.831,6.863-13.463,6.863C799.948,167.119,796.517,165.184,794.58,162.016z"
				/>
			<path d="M835.765,158.32h5.104l11.968-11.352l-11.616-11h-4.576v-8.096h19.448v7.567h-4.84l7.127,7.479l7.04-7.479h-4.928v-7.567
				h19.096v8.096h-4.752l-11.264,10.735l12.231,11.616h4.928v8.096h-19.447v-7.568h4.488l-7.832-8.184l-7.656,8.184h4.576v7.568
				h-19.096V158.32z"/>
			<path d="M890.852,162.016c-1.231-2.023-1.936-4.664-1.936-7.744v-18.303h-5.72v-8.096h15.312v24.023
				c0,1.672,0.264,2.903,0.792,3.959c0.88,1.672,2.464,2.553,4.752,2.553c3.344,0,6.863-1.937,9.943-4.488v-17.951h-5.983v-8.096
				h15.575v30.623h5.72v7.92h-14.96v-6.16c-3.695,3.607-7.831,6.863-13.463,6.863C896.22,167.119,892.788,165.184,890.852,162.016z"
				/>
			<path d="M968.643,133.504c0,3.256-2.552,5.984-5.72,5.984c-2.904,0-4.84-1.672-5.632-3.432c-2.728,0.968-5.896,3.959-7.656,7.304
				v15.136h6.688v7.92h-22v-7.92h5.72v-22.527h-5.72v-8.096h14.96v8.711c3.256-5.191,7.304-9.416,12.231-9.416
				C966.267,127.168,968.643,130.072,968.643,133.504z"/>
			<path d="M980.348,183.928c-5.104,0-8.271-2.992-8.271-6.072c0-3.256,2.199-4.928,4.752-4.928c2.287,0,3.607,1.408,4.224,2.903
				c0.968-0.264,2.023-0.88,3.08-2.288c0.615-0.791,1.144-1.76,1.76-2.992l2.904-6.071l-13.729-28.511h-4.751v-8.096h19.887v7.655
				h-5.632l8.888,20.327l8.976-20.327h-5.983v-7.655h19.8v8.096h-4.664l-18.04,38.278c-0.88,1.761-1.848,3.345-2.991,4.664
				C987.739,182.167,984.22,183.928,980.348,183.928z"/>
			<path d="M98.072,241.568h-5.633v-8.096h19.8v7.92h-5.456l5.28,18.92l9.063-22.88h6.6l8.977,22.88l5.279-18.92h-6.336v-7.92h19.8
				v8.096h-5.632l-9.504,31.943h-6.775l-9.592-23.584l-9.592,23.584h-6.775L98.072,241.568z"/>
			<path d="M157.912,215.697v-8.096h15.312v31.68c3.607-3.433,7.655-6.513,13.111-6.513c4.136,0,7.392,1.496,9.416,4.136
				c1.672,2.2,2.551,5.192,2.551,8.712v18.479h5.721v7.92h-20.592v-7.92h5.279v-16.104c0-2.111-0.439-3.607-1.231-4.664
				c-0.968-1.231-2.464-1.848-4.312-1.848c-3.344,0-6.864,1.936-9.943,4.488v18.127h5.279v7.92h-20.592v-7.92h5.721v-48.398H157.912
				z"/>
			<path d="M208.248,264.096h5.896v-22.527h-5.896v-8.096h15.487v30.623h5.72v7.92h-21.207V264.096z M211.592,221.241
				c0-3.521,3.08-6.336,6.512-6.336s6.336,2.815,6.336,6.336s-3.08,6.336-6.512,6.336S211.592,224.762,211.592,221.241z"/>
			<path d="M235.264,252.393c0-10.032,8.096-19.624,19.535-19.624c10.56,0,17.512,6.864,17.512,12.937
				c0,4.047-2.729,6.512-6.16,6.512c-3.168,0-5.808-2.641-5.808-5.809c0-1.144,0.528-2.464,1.231-3.256
				c-0.703-0.968-3.08-2.64-6.863-2.64c-4.4,0-9.855,3.608-9.855,12.056c0,7.392,5.631,12.056,12.495,12.056
				c4.664,0,8.712-1.32,13.728-4.048l-0.792,8.623c-4.136,2.377-8.096,3.521-13.728,3.521
				C244.415,272.72,235.264,264.8,235.264,252.393z"/>
			<path d="M278.471,215.697v-8.096h15.312v31.68c3.607-3.433,7.655-6.513,13.111-6.513c4.136,0,7.392,1.496,9.416,4.136
				c1.672,2.2,2.551,5.192,2.551,8.712v18.479h5.721v7.92H303.99v-7.92h5.279v-16.104c0-2.111-0.439-3.607-1.231-4.664
				c-0.968-1.231-2.464-1.848-4.312-1.848c-3.344,0-6.864,1.936-9.943,4.488v18.127h5.279v7.92h-20.592v-7.92h5.721v-48.398H278.471
				z"/>
			<path d="M351.422,241.568h-5.633v-8.096h19.8v7.92h-5.456l5.28,18.92l9.063-22.88h6.6l8.977,22.88l5.279-18.92h-6.336v-7.92h19.8
				v8.096h-5.632l-9.504,31.943h-6.775l-9.592-23.584l-9.592,23.584h-6.775L351.422,241.568z"/>
			<path d="M421.998,256c1.32,5.984,6.248,8.624,12.672,8.624c4.663,0,9.503-1.496,13.991-4.048l-0.792,8.623
				c-4.048,2.377-8.977,3.521-14.607,3.521c-12.584,0-21.296-7.92-21.296-19.888c0-10.912,7.655-20.063,19.536-20.063
				c12.319,0,18.743,8.272,18.743,18.479c0,1.496-0.177,3.432-0.44,4.752H421.998z M421.91,249.312h18.743
				c-0.177-5.28-3.608-8.8-9.239-8.8C427.189,240.513,422.966,242.977,421.91,249.312z"/>
			<path d="M475.324,252.393c0-10.032,8.097-19.624,19.536-19.624c10.56,0,17.512,6.864,17.512,12.937
				c0,4.047-2.728,6.512-6.16,6.512c-3.168,0-5.808-2.641-5.808-5.809c0-1.144,0.527-2.464,1.232-3.256
				c-0.705-0.968-3.08-2.64-6.864-2.64c-4.399,0-9.856,3.608-9.856,12.056c0,7.392,5.633,12.056,12.496,12.056
				c4.664,0,8.712-1.32,13.728-4.048l-0.792,8.623c-4.136,2.377-8.096,3.521-13.728,3.521
				C484.477,272.72,475.324,264.8,475.324,252.393z"/>
			<path d="M518.709,261.896c0-7.217,6.336-11.616,15.487-11.616c3.96,0,7.655,0.528,9.768,1.056v-3.08
				c0-2.287-0.528-4.047-1.495-5.279c-1.584-2.023-4.137-2.816-7.568-2.816c-1.672,0-2.904,0.264-3.784,0.616
				c0.177,0.528,0.353,1.408,0.353,1.937c0,2.903-2.288,5.016-5.192,5.016c-2.903,0-5.104-2.023-5.104-5.191
				c0-4.752,4.84-9.769,15.312-9.769c6.6,0,11.088,1.849,13.815,5.192c2.024,2.463,2.992,5.808,2.992,9.68v16.455h5.72v7.92h-14.871
				v-4.224c-3.08,2.64-7.744,4.928-12.936,4.928C524.604,272.72,518.709,269.111,518.709,261.896z M543.964,262.336v-6.072
				c-2.2-0.527-4.928-0.879-7.919-0.879c-4.664,0-7.48,2.111-7.48,5.631c0,3.08,2.288,4.752,5.72,4.752
				C537.717,265.768,541.061,264.447,543.964,262.336z"/>
			<path d="M578.107,239.633c3.695-3.607,7.832-6.864,13.463-6.864c4.576,0,7.92,1.849,9.944,4.929
				c1.319,2.111,2.024,4.751,2.024,7.919v18.479h5.719v7.92h-20.591v-7.92h5.28v-16.104c0-1.584-0.264-2.992-0.793-3.96
				c-0.879-1.672-2.463-2.552-4.751-2.552c-3.345,0-6.864,1.936-9.944,4.488v18.127h5.28v7.92h-20.591v-7.92h5.719v-22.527h-5.719
				v-8.096h14.959V239.633z"/>
			<path d="M628.355,239.633c3.695-3.607,7.832-6.864,13.464-6.864c4.575,0,7.92,1.849,9.943,4.929
				c1.32,2.111,2.024,4.751,2.024,7.919v18.479h5.72v7.92h-20.592v-7.92h5.28v-16.104c0-1.584-0.265-2.992-0.792-3.96
				c-0.88-1.672-2.464-2.552-4.752-2.552c-3.345,0-6.864,1.936-9.944,4.488v18.127h5.28v7.92h-20.591v-7.92h5.719v-22.527h-5.719
				v-8.096h14.959V239.633z"/>
			<path d="M663.293,252.744c0-10.56,7.92-19.976,20.503-19.976c12.76,0,20.504,9.239,20.504,19.976
				c0,10.56-7.92,19.976-20.504,19.976C671.036,272.72,663.293,263.48,663.293,252.744z M694.443,252.744
				c0-7.039-4.399-11.968-10.647-11.968s-10.647,4.929-10.647,11.968c0,7.04,4.399,11.968,10.647,11.968
				S694.443,259.784,694.443,252.744z"/>
			<path d="M716.885,267.439c-0.88-1.584-1.32-3.607-1.32-6.071v-19.8h-7.479v-8.096h7.479v-8.096l9.504-4.136v12.231h11.704v8.096
				h-11.704v17.951c0,1.232,0.176,2.024,0.616,2.816c0.704,1.232,2.111,1.848,4.048,1.848c2.464,0,5.279-0.968,7.567-2.023
				l-0.792,8.271c-2.64,1.32-5.72,2.288-9.239,2.288C722.604,272.72,718.82,271.136,716.885,267.439z"/>
			<path d="M762.201,261.896c0-7.217,6.336-11.616,15.487-11.616c3.96,0,7.656,0.528,9.768,1.056v-3.08
				c0-2.287-0.527-4.047-1.496-5.279c-1.584-2.023-4.136-2.816-7.567-2.816c-1.672,0-2.904,0.264-3.784,0.616
				c0.176,0.528,0.353,1.408,0.353,1.937c0,2.903-2.288,5.016-5.192,5.016c-2.903,0-5.104-2.023-5.104-5.191
				c0-4.752,4.84-9.769,15.312-9.769c6.6,0,11.088,1.849,13.815,5.192c2.024,2.463,2.992,5.808,2.992,9.68v16.455h5.72v7.92h-14.872
				v-4.224c-3.079,2.64-7.743,4.928-12.936,4.928C768.097,272.72,762.201,269.111,762.201,261.896z M787.456,262.336v-6.072
				c-2.2-0.527-4.928-0.879-7.92-0.879c-4.663,0-7.479,2.111-7.479,5.631c0,3.08,2.288,4.752,5.72,4.752
				S784.553,264.447,787.456,262.336z"/>
			<path d="M805.586,264.096h5.983v-48.398h-5.983v-8.096h15.575v56.494h5.72v7.92h-21.295V264.096z"/>
			<path d="M831.546,264.096h5.983v-48.398h-5.983v-8.096h15.575v56.494h5.72v7.92h-21.295V264.096z"/>
			<path d="M94.992,358.344c0-10.56,7.92-19.976,20.503-19.976c12.76,0,20.503,9.239,20.503,19.976
				c0,10.56-7.919,19.976-20.503,19.976C102.736,378.319,94.992,369.079,94.992,358.344z M126.143,358.344
				c0-7.039-4.399-11.968-10.647-11.968c-6.247,0-10.647,4.929-10.647,11.968c0,7.04,4.4,11.968,10.647,11.968
				C121.743,370.312,126.143,365.384,126.143,358.344z"/>
			<path d="M161.52,320.857c-0.793,0.352-1.584,0.879-2.024,1.584c-1.144,1.672-1.76,4.047-1.76,7.743v8.888h10.032v8.096h-10.032
				v22.527h7.479v7.92h-22.791v-7.92h5.808v-22.527h-6.6v-8.096h6.6v-7.479c0-7.04,1.231-11.44,4.928-15.048
				c2.728-2.64,6.248-4.048,10.56-4.048c5.016,0,8.536,2.64,8.536,6.512c0,3.433-2.464,5.456-5.192,5.456
				C164.07,324.465,162.575,322.881,161.52,320.857z"/>
			<path d="M197.51,373.216c-1.232-2.024-1.936-4.664-1.936-7.744v-18.304h-5.72v-8.096h15.312v24.023
				c0,1.672,0.264,2.904,0.792,3.96c0.88,1.672,2.464,2.552,4.751,2.552c3.345,0,6.864-1.936,9.944-4.488v-17.951h-5.983v-8.096
				h15.575v30.623h5.72v7.92h-14.959v-6.16c-3.696,3.608-7.832,6.864-13.465,6.864C202.878,378.319,199.445,376.383,197.51,373.216z
				"/>
			<path d="M269.229,352.8c-3.08,0-5.191-1.848-5.191-4.752c0-0.616,0-1.144,0.176-1.672c-1.584-0.616-3.52-0.968-5.455-0.968
				c-4.312,0-6.424,1.936-6.424,3.96c0,2.2,2.199,3.344,8.096,4.928c9.239,2.464,14.607,4.752,14.607,11.704
				c0,8.096-7.568,12.407-16.279,12.407c-5.896,0-12.232-2.112-14.784-4.664c-1.584-1.584-2.2-3.168-2.2-5.191
				c0-2.816,2.112-5.192,5.104-5.192c2.641,0,5.192,1.76,5.192,5.104c0,0.527-0.088,1.056-0.176,1.584
				c1.76,0.703,4.224,1.231,6.952,1.231c3.871,0,7.039-1.32,7.039-4.136c0-1.936-1.672-3.08-7.567-4.664
				c-10.647-2.815-15.136-5.368-15.136-11.968c0-5.983,4.928-12.231,15.752-12.231c4.664,0,10.295,1.761,12.936,4.399
				c1.408,1.408,2.111,3.08,2.111,4.928C273.98,350.688,272.045,352.8,269.229,352.8z"/>
			<path d="M300.996,367.495c0-7.216,6.336-11.615,15.487-11.615c3.96,0,7.655,0.528,9.768,1.056v-3.08
				c0-2.287-0.528-4.047-1.495-5.279c-1.584-2.023-4.137-2.816-7.568-2.816c-1.672,0-2.904,0.264-3.784,0.616
				c0.177,0.528,0.353,1.408,0.353,1.937c0,2.903-2.288,5.016-5.192,5.016c-2.903,0-5.104-2.023-5.104-5.191
				c0-4.752,4.84-9.769,15.312-9.769c6.6,0,11.088,1.849,13.815,5.192c2.024,2.463,2.992,5.808,2.992,9.68v16.455h5.72v7.92h-14.871
				v-4.224c-3.08,2.64-7.744,4.928-12.936,4.928C306.892,378.319,300.996,374.711,300.996,367.495z M326.251,367.936v-6.072
				c-2.2-0.527-4.928-0.879-7.919-0.879c-4.664,0-7.48,2.111-7.48,5.631c0,3.08,2.288,4.752,5.72,4.752
				C320.004,371.367,323.348,370.048,326.251,367.936z"/>
			<path d="M378.082,339.072v-7.479c0-7.04,1.232-11.44,4.928-15.048c2.729-2.64,6.248-4.048,10.56-4.048
				c5.017,0,8.536,2.64,8.536,6.512c0,3.433-2.464,5.456-5.191,5.456c-2.992,0-4.488-1.584-5.545-3.607
				c-0.791,0.352-1.584,0.879-2.023,1.584c-1.145,1.672-1.76,4.047-1.76,7.743v8.888h10.031v8.096h-10.031v22.527h7.479v7.92
				h-22.351v-7.92h5.367v-22.527h-16.896v22.527h7.04v7.92h-22.352v-7.92h5.808v-22.527h-6.6v-8.096h6.6v-5.72
				c0-6.776,1.849-12.319,4.929-15.399c2.551-2.553,5.543-3.696,9.68-3.696c5.016,0,8.535,2.64,8.535,6.513
				c0,3.432-2.464,5.455-5.191,5.455c-2.904,0-4.488-1.408-5.545-3.607c-0.439,0.264-0.879,0.615-1.231,1.144
				c-1.144,1.672-1.672,4.487-1.672,8.184v7.128H378.082z"/>
			<path d="M400.435,358.344c0-10.56,7.92-19.976,20.503-19.976c12.76,0,20.504,9.239,20.504,19.976
				c0,10.56-7.92,19.976-20.504,19.976C408.179,378.319,400.435,369.079,400.435,358.344z M431.586,358.344
				c0-7.039-4.4-11.968-10.648-11.968c-6.247,0-10.646,4.929-10.646,11.968c0,7.04,4.399,11.968,10.646,11.968
				C427.186,370.312,431.586,365.384,431.586,358.344z"/>
			<path d="M481.481,344.704c0,3.256-2.552,5.983-5.72,5.983c-2.904,0-4.84-1.672-5.632-3.432c-2.728,0.969-5.896,3.96-7.655,7.305
				v15.135h6.688v7.92h-22v-7.92h5.721v-22.527h-5.721v-8.096h14.96v8.712c3.256-5.192,7.304-9.416,12.231-9.416
				C479.105,338.368,481.481,341.272,481.481,344.704z"/>
			<path d="M484.387,358.52c0-11.176,8.096-20.151,18.479-20.151c4.929,0,8.537,1.849,10.736,3.696v-20.768h-5.808v-8.096h15.399
				v56.494h5.72v7.92h-15.312v-4.224c-2.816,2.728-6.424,4.928-11.352,4.928C492.042,378.319,484.387,370.136,484.387,358.52z
				 M513.602,366.176v-16.544c-2.552-1.76-5.544-2.991-9.152-2.991c-5.367,0-10.207,4.135-10.207,11.791
				c0,7.392,4.576,11.616,10.207,11.616C508.058,370.048,510.962,368.464,513.602,366.176z"/>
			<path d="M534.81,371.104c0-4.048,3.256-7.304,7.216-7.304s7.216,3.256,7.216,7.304c0,3.96-3.256,7.216-7.216,7.216
				S534.81,375.063,534.81,371.104z"/>
		</g>
	</g>
	<g id="livetype" display="none">
		<rect x="92" y="102" display="inline" fill="none" width="1040" height="499"/>
		<text transform="matrix(1 0 0 1 92 166.416)" display="inline"><tspan x="0" y="0" font-family="'Archer-Bold'" font-size="88">Paying debts is a luxury </tspan><tspan x="0" y="105.6" font-family="'Archer-Bold'" font-size="88">which we cannot all  </tspan><tspan x="0" y="211.199" font-family="'Archer-Bold'" font-size="88">of us afford.</tspan></text>
	</g>
</g>
<g id="author">
	<g id="outlines">
		<g>
			<path d="M93.8,515.43c0-0.84,0.48-1.38,1.11-1.38c0.54,0,1.02,0.45,1.02,1.021c0,0.479-0.27,0.899-0.66,1.14
				c0.601,1.05,2.34,2.01,4.71,2.01c3,0,4.89-1.71,4.89-4.17c0-2.489-2.279-3.569-4.739-4.56c-2.97-1.17-5.61-2.399-5.61-5.58
				c0-2.88,2.37-4.949,5.73-4.949c3.029,0,5.459,1.859,5.459,3.66c0,0.779-0.51,1.26-1.079,1.26c-0.57,0-1.051-0.45-1.051-1.05
				c0-0.45,0.24-0.811,0.57-1.08c-0.51-0.96-2.31-1.71-3.96-1.71c-2.64,0-4.47,1.62-4.47,3.779c0,2.521,2.25,3.51,4.89,4.561
				c2.88,1.14,5.46,2.43,5.46,5.579c0,3.24-2.609,5.34-6.149,5.34C96.2,519.3,93.8,517.14,93.8,515.43z"/>
			<path d="M108.65,515.641c0-2.25,1.95-3.75,4.649-3.75c1.44,0,3.091,0.359,3.99,0.72v-2.28c0-0.779-0.21-1.439-0.63-1.949
				c-0.57-0.66-1.56-1.11-2.939-1.11c-1.44,0-2.28,0.479-2.761,0.96c0.181,0.18,0.301,0.479,0.301,0.81c0,0.45-0.36,0.9-0.9,0.9
				c-0.6,0-0.96-0.45-0.96-1.021c0-1.17,1.59-2.609,4.41-2.609c1.649,0,2.939,0.479,3.689,1.35c0.57,0.63,0.87,1.471,0.87,2.49
				v7.859h2.16V519h-3.21v-1.89c-1.021,1.109-2.67,2.1-4.5,2.1C110.181,519.21,108.65,517.62,108.65,515.641z M117.29,516.061v-2.61
				c-1.14-0.36-2.58-0.63-3.93-0.63c-2.46,0-3.6,1.29-3.6,2.76c0,1.41,1.02,2.67,3.21,2.67
				C114.74,518.25,116.24,517.26,117.29,516.061z"/>
			<path d="M122.659,518.01h2.19v-10.499h-2.19v-0.99h3.24v2.52c1.14-1.409,2.94-2.729,4.83-2.729c1.56,0,2.58,0.6,3.12,1.59
				c0.18,0.36,0.3,0.75,0.39,1.14c1.38-1.56,3.149-2.729,4.92-2.729c1.739,0,2.729,0.689,3.239,1.83
				c0.33,0.689,0.45,1.529,0.45,2.46v7.409h2.19V519h-5.46v-0.99h2.16v-7.26c0-0.84-0.12-1.529-0.33-2.01
				c-0.391-0.93-1.17-1.41-2.4-1.41c-1.71,0-3.3,1.17-4.62,2.67v8.01h2.19V519h-5.46v-0.99h2.16v-7.26c0-0.81-0.09-1.5-0.3-2.01
				c-0.391-0.93-1.17-1.41-2.4-1.41c-1.77,0-3.359,1.23-4.619,2.7v7.979h2.159V519h-5.46V518.01z"/>
			<path d="M149.509,517.53c-0.39-0.72-0.54-1.59-0.54-2.61v-7.409h-2.189v-0.99h3.3v8.279c0,0.841,0.12,1.561,0.39,2.101
				c0.45,0.84,1.26,1.29,2.49,1.29c1.83,0,3.45-1.32,4.739-2.82v-7.859h-2.159v-0.99h3.27v11.489h2.19V519h-3.271v-2.64
				c-1.14,1.47-2.97,2.85-4.92,2.85C151.129,519.21,150.079,518.55,149.509,517.53z"/>
			<path d="M164.449,512.88c0.12,3.48,2.22,5.34,5.369,5.34c1.681,0,3.03-0.569,4.351-1.439l-0.091,1.14
				c-1.199,0.811-2.76,1.29-4.38,1.29c-3.81,0-6.39-2.55-6.39-6.479c0-3.54,2.46-6.42,5.91-6.42c3.569,0,5.55,2.79,5.55,5.85
				c0,0.3-0.03,0.54-0.09,0.72H164.449z M164.479,511.92h9.15c-0.12-2.579-1.62-4.619-4.5-4.619
				C166.729,507.301,164.749,509.16,164.479,511.92z"/>
			<path d="M177.019,518.01h2.311v-19.919h-2.311v-0.99h3.42v20.909h2.37V519h-5.79V518.01z"/>
			<path d="M191.838,517.95h2.73v-17.64h-2.73v-1.05h7.86c4.409,0,6.239,2.37,6.239,4.92c0,2.399-1.619,4.17-3.989,4.71
				c2.85,0.54,4.56,2.22,4.56,4.77c0,3.18-2.61,5.34-6.6,5.34h-8.07V517.95z M199.488,508.381c3.659,0,5.25-1.83,5.25-4.141
				c0-2.25-1.65-3.93-5.101-3.93h-3.84v8.07H199.488z M199.938,517.95c3.3,0,5.369-1.771,5.369-4.29c0-2.64-2.069-4.229-5.85-4.229
				h-3.66v8.52H199.938z"/>
			<path d="M211.519,517.53c-0.39-0.72-0.54-1.59-0.54-2.61v-7.409h-2.189v-0.99h3.3v8.279c0,0.841,0.12,1.561,0.39,2.101
				c0.45,0.84,1.26,1.29,2.49,1.29c1.83,0,3.45-1.32,4.739-2.82v-7.859h-2.159v-0.99h3.27v11.489h2.19V519h-3.271v-2.64
				c-1.14,1.47-2.97,2.85-4.92,2.85C213.139,519.21,212.089,518.55,211.519,517.53z"/>
			<path d="M227.027,517.83c-0.21-0.45-0.3-0.96-0.3-1.56v-8.76h-2.28v-0.99h2.28v-3.33l1.11-0.39v3.72h4.02v0.99h-4.02v8.64
				c0,0.479,0.06,0.84,0.21,1.17c0.27,0.569,0.779,0.84,1.59,0.84c0.78,0,1.53-0.3,2.279-0.75l-0.18,1.109
				c-0.6,0.36-1.319,0.69-2.34,0.69C228.228,519.21,227.447,518.73,227.027,517.83z"/>
			<path d="M233.418,518.01h2.311v-19.919h-2.311v-0.99h3.42v20.909h2.37V519h-5.79V518.01z"/>
			<path d="M242.599,512.88c0.12,3.48,2.22,5.34,5.369,5.34c1.681,0,3.03-0.569,4.351-1.439l-0.091,1.14
				c-1.199,0.811-2.76,1.29-4.38,1.29c-3.81,0-6.39-2.55-6.39-6.479c0-3.54,2.46-6.42,5.91-6.42c3.569,0,5.55,2.79,5.55,5.85
				c0,0.3-0.03,0.54-0.09,0.72H242.599z M242.628,511.92h9.15c-0.12-2.579-1.62-4.619-4.5-4.619
				C244.878,507.301,242.898,509.16,242.628,511.92z"/>
			<path d="M263.928,507.511c0,0.54-0.39,0.989-0.99,0.989c-0.539,0-1.02-0.449-1.05-0.989c-1.14,0.18-2.31,1.439-3.119,2.909v7.59
				h2.459V519h-5.76v-0.99h2.19v-10.499h-2.19v-0.99h3.24v2.79c0.93-1.65,2.46-3,3.75-3
				C263.418,506.311,263.928,506.881,263.928,507.511z"/>
		</g>
	</g>
	<g id="livetype_1_" display="none">
		<text transform="matrix(1 0 0 1 92 519)" display="inline" font-family="'Archer-Light'" font-size="30">Samuel Butler </text>
	</g>
</g>
</svg>
