<?xml version="1.0" encoding="utf-8"?>
<!-- Generator: Adobe Illustrator 15.0.1, SVG Export Plug-In . SVG Version: 6.00 Build 0)  -->
<!DOCTYPE svg PUBLIC "-//W3C//DTD SVG 1.0//EN" "http://www.w3.org/TR/2001/REC-SVG-20010904/DTD/svg10.dtd">
<svg version="1.0" xmlns="http://www.w3.org/2000/svg" xmlns:xlink="http://www.w3.org/1999/xlink" x="0px" y="0px" width="1280px"
	 height="720px" viewBox="0 0 1280 720" enable-background="new 0 0 1280 720" xml:space="preserve">
<g id="margin">
</g>
<g id="Layer_2">
	<g id="outlines_1_">
		<g>
			<path d="M123.392,217.198l-12.672-61.487v61.487H95.888V102h20.592l9.937,62.495V102h14.831v115.198H123.392z"/>
			<path d="M169.613,218.638c-11.663,0-21.167-9.504-21.167-21.167v-75.743c0-11.664,9.504-21.167,21.167-21.167
				c11.664,0,21.168,9.504,21.168,21.167v75.743C190.781,209.134,181.277,218.638,169.613,218.638z M173.07,122.16
				c0-1.872-1.584-3.456-3.457-3.456c-1.871,0-3.455,1.584-3.455,3.456v74.878c0,1.872,1.584,3.456,3.455,3.456
				c1.873,0,3.457-1.584,3.457-3.456V122.16z"/>
			<path d="M238.443,170.543h-4.031v46.655H216.7V102h21.743c8.496,0,19.008,4.896,19.008,19.583v29.375
				C257.451,165.647,246.939,170.543,238.443,170.543z M240.027,124.176c0-3.312-1.151-4.608-3.023-4.608h-2.592v33.551h2.592
				c1.872,0,3.023-1.296,3.023-4.608V124.176z"/>
			<path d="M283.383,217.198l-1.008-19.439h-8.064l-1.584,19.439h-15.983L268.406,102h21.168l11.951,115.198H283.383z
				 M279.062,140.88l-3.312,39.311h5.617L279.062,140.88z"/>
			<path d="M331.908,217.198c-1.297-5.04-2.16-11.808-2.16-17.855v-25.632c0-2.592-1.296-4.608-3.744-4.608H323.7v48.095h-17.712
				V102h21.744c8.496,0,19.008,4.896,19.008,19.583v27.936c0,5.472-3.024,8.928-7.633,11.952c4.608,3.024,7.92,6.48,7.92,11.952
				v24.48c0,7.344,1.152,13.68,2.305,19.295H331.908z M329.316,124.176c0-3.312-1.152-4.608-3.024-4.608H323.7v33.551h2.592
				c1.872,0,3.024-1.296,3.024-4.608V124.176z"/>
			<path d="M376.834,217.198l-1.008-19.439h-8.064l-1.584,19.439h-15.982L361.858,102h21.167l11.952,115.198H376.834z
				 M372.514,140.88l-3.312,39.311h5.616L372.514,140.88z"/>
			<path d="M422.624,217.198H399.44V102h23.184c8.496,0,18.144,4.896,18.144,19.583v76.031
				C440.768,212.302,431.12,217.198,422.624,217.198z M424.208,124.176c0-3.312-1.151-4.608-3.168-4.608h-3.888v80.206h3.888
				c2.017,0,3.168-1.296,3.168-4.608V124.176z"/>
			<path d="M448.398,217.198V102h17.713v115.198H448.398z"/>
			<path d="M493.758,218.638c-13.535,0-22.463-9.504-22.463-21.167v-16.848h16.271v15.12c0,3.168,1.872,6.192,5.328,6.192
				c3.455,0,5.039-2.304,5.039-6.192c0-10.656-6.479-20.592-12.672-31.823c-6.336-11.808-12.814-24.912-12.814-36.719
				c0-15.696,7.487-26.64,21.743-26.64c11.663,0,20.159,9.504,20.159,21.167v16.848h-16.271v-16.127
				c0-3.456-1.584-5.184-3.888-5.184s-4.752,1.728-4.752,5.184c0,11.664,3.888,19.728,11.231,33.551
				c6.624,12.384,14.256,24.912,14.256,35.999C514.926,206.687,507.294,218.638,493.758,218.638z"/>
			<path d="M520.397,217.198V102h34.991v16.127h-17.135v30.528h11.231v17.567h-11.231v33.407h17.135v17.568H520.397z"/>
			<path d="M581.02,217.198V102h17.711v115.198H581.02z"/>
			<path d="M626.379,218.638c-13.536,0-22.465-9.504-22.465-21.167v-16.848h16.272v15.12c0,3.168,1.872,6.192,5.327,6.192
				c3.457,0,5.041-2.304,5.041-6.192c0-10.656-6.48-20.592-12.672-31.823c-6.336-11.808-12.816-24.912-12.816-36.719
				c0-15.696,7.488-26.64,21.744-26.64c11.664,0,20.159,9.504,20.159,21.167v16.848h-16.271v-16.127
				c0-3.456-1.584-5.184-3.888-5.184c-2.305,0-4.752,1.728-4.752,5.184c0,11.664,3.888,19.728,11.231,33.551
				c6.624,12.384,14.256,24.912,14.256,35.999C647.546,206.687,639.914,218.638,626.379,218.638z"/>
			<path d="M691.608,218.638c-11.664,0-20.448-9.504-20.448-21.167v-75.743c0-11.664,8.784-21.167,20.448-21.167
				c11.663,0,20.447,9.504,20.447,21.167v23.616h-16.991V122.16c0-1.872-1.584-3.456-3.456-3.456s-3.456,1.584-3.456,3.456v74.878
				c0,1.872,1.584,3.456,3.456,3.456s3.456-1.584,3.456-3.456v-23.184h16.991v23.616
				C712.056,209.134,703.271,218.638,691.608,218.638z"/>
			<path d="M738.982,218.638c-11.664,0-21.168-9.504-21.168-21.167v-75.743c0-11.664,9.504-21.167,21.168-21.167
				s21.168,9.504,21.168,21.167v75.743C760.15,209.134,750.646,218.638,738.982,218.638z M742.438,122.16
				c0-1.872-1.584-3.456-3.456-3.456s-3.456,1.584-3.456,3.456v74.878c0,1.872,1.584,3.456,3.456,3.456s3.456-1.584,3.456-3.456
				V122.16z"/>
			<path d="M817.174,217.198V139.44l-11.664,77.758h-11.663l-10.512-77.758v77.758h-15.984V102h27.647l6.48,53.999L808.39,102
				h26.496v115.198H817.174z"/>
			<path d="M864.406,170.543h-4.032v46.655h-17.712V102h21.744c8.495,0,19.007,4.896,19.007,19.583v29.375
				C883.413,165.647,872.901,170.543,864.406,170.543z M865.99,124.176c0-3.312-1.152-4.608-3.024-4.608h-2.592v33.551h2.592
				c1.872,0,3.024-1.296,3.024-4.608V124.176z"/>
			<path d="M889.462,217.198V102h17.712v97.63h17.279v17.568H889.462z"/>
			<path d="M930.5,217.198V102h34.991v16.127h-17.136v30.528h11.232v17.567h-11.232v33.407h17.136v17.568H930.5z"/>
			<path d="M998.611,119.568v97.63h-17.712v-97.63h-11.808V102h40.607v17.568H998.611z"/>
			<path d="M1014.595,217.198V102h34.991v16.127h-17.136v30.528h11.232v17.567h-11.232v33.407h17.136v17.568H1014.595z"/>
			<path d="M145.999,389.998h-14.256l-5.472-51.551l-5.473,51.551h-14.975L92,274.8h17.568l5.471,59.183l5.328-59.183h11.809
				l5.184,59.183l6.336-59.183h15.983L145.999,389.998z"/>
			<path d="M163.855,389.998V274.8h17.711v115.198H163.855z"/>
			<path d="M216.414,292.368v97.63h-17.711v-97.63h-11.809V274.8h40.607v17.568H216.414z"/>
			<path d="M257.021,389.998v-48.095h-6.911v48.095h-17.713V274.8h17.713v49.679h6.911V274.8h17.712v115.198H257.021z"/>
			<path d="M303.1,391.438c-11.664,0-21.168-9.504-21.168-21.168v-75.743c0-11.664,9.504-21.167,21.168-21.167
				s21.168,9.504,21.168,21.167v75.743C324.268,381.935,314.764,391.438,303.1,391.438z M306.556,294.96
				c0-1.872-1.584-3.456-3.456-3.456s-3.456,1.584-3.456,3.456v74.879c0,1.871,1.584,3.455,3.456,3.455s3.456-1.584,3.456-3.455
				V294.96z"/>
			<path d="M351.627,391.438c-11.664,0-20.447-9.504-20.447-21.168V274.8h16.992v95.039c0,1.871,1.584,3.455,3.455,3.455
				c2.016,0,3.456-1.584,3.456-3.455V274.8h16.271v95.47C371.354,381.935,363.436,391.438,351.627,391.438z"/>
			<path d="M405.482,292.368v97.63h-17.711v-97.63h-11.809V274.8h40.607v17.568H405.482z"/>
			<path d="M463.512,389.998l-1.008-19.439h-8.064l-1.584,19.439h-15.983L448.535,274.8h21.168l11.951,115.198H463.512z
				 M459.191,313.68l-3.312,39.311h5.617L459.191,313.68z"/>
			<path d="M524.275,391.438c-13.535,0-22.463-9.504-22.463-21.168v-16.848h16.271v15.119c0,3.168,1.872,6.192,5.328,6.192
				c3.455,0,5.039-2.304,5.039-6.192c0-10.655-6.479-20.591-12.672-31.823c-6.336-11.808-12.814-24.912-12.814-36.719
				c0-15.696,7.487-26.64,21.743-26.64c11.663,0,20.159,9.504,20.159,21.167v16.848h-16.271v-16.127
				c0-3.456-1.584-5.184-3.888-5.184s-4.752,1.728-4.752,5.184c0,11.664,3.888,19.728,11.231,33.551
				c6.624,12.384,14.256,24.912,14.256,36C545.443,379.486,537.812,391.438,524.275,391.438z"/>
			<path d="M550.915,389.998V274.8h34.991v16.127h-17.135v30.528h11.231v17.567h-11.231v33.408h17.135v17.567H550.915z"/>
			<path d="M618.307,389.998c-1.297-5.04-2.16-11.808-2.16-17.855v-25.632c0-2.592-1.297-4.608-3.744-4.608h-2.305v48.095h-17.711
				V274.8h21.743c8.496,0,19.008,4.896,19.008,19.583v27.936c0,5.472-3.024,8.928-7.632,11.952c4.607,3.024,7.92,6.48,7.92,11.952
				v24.479c0,7.344,1.152,13.68,2.304,19.296H618.307z M615.714,296.976c0-3.312-1.151-4.608-3.024-4.608h-2.592v33.551h2.592
				c1.873,0,3.024-1.296,3.024-4.608V296.976z"/>
			<path d="M661.648,343.343h-4.032v46.655h-17.712V274.8h21.744c8.495,0,19.007,4.896,19.007,19.583v29.375
				C680.655,338.447,670.144,343.343,661.648,343.343z M663.232,296.976c0-3.312-1.152-4.608-3.024-4.608h-2.592v33.551h2.592
				c1.872,0,3.024-1.296,3.024-4.608V296.976z"/>
			<path d="M686.704,389.998V274.8h34.991v16.127H704.56v30.528h11.232v17.567H704.56v33.408h17.136v17.567H686.704z"/>
			<path d="M755.679,389.998l-12.672-61.487v61.487h-14.832V274.8h20.592l9.936,62.495V274.8h14.832v115.198H755.679z"/>
			<path d="M807.949,292.368v97.63h-17.712v-97.63H778.43V274.8h40.607v17.568H807.949z"/>
			<path d="M817.323,389.998v-17.424h16.271v17.424H817.323z"/>
		</g>
	</g>
	<g id="livetype" display="none">
		<rect x="92" y="102" display="inline" fill="none" width="1040" height="499"/>
		<text transform="matrix(1 0 0 1 92 217.1982)" display="inline"><tspan x="0" y="0" font-family="'Champion-HTF-Featherweight'" font-size="144">No paradise is complete </tspan><tspan x="0" y="172.8" font-family="'Champion-HTF-Featherweight'" font-size="144">without a serpent.</tspan></text>
	</g>
</g>
<g id="author">
	<g id="outlines">
		<g>
			<path d="M93.439,517.95h2.73v-17.64h-2.73v-1.05h6.75v1.05h-2.79v7.979h12.24v-7.979h-2.761v-1.05h6.75v1.05h-2.76v17.64h2.76
				V519h-6.75v-1.05h2.761v-8.55h-12.24v8.55h2.79V519h-6.75V517.95z"/>
			<path d="M115.851,515.641c0-2.25,1.95-3.75,4.649-3.75c1.44,0,3.09,0.359,3.99,0.72v-2.28c0-0.779-0.21-1.439-0.63-1.949
				c-0.57-0.66-1.56-1.11-2.939-1.11c-1.44,0-2.28,0.479-2.761,0.96c0.181,0.18,0.301,0.479,0.301,0.81c0,0.45-0.36,0.9-0.9,0.9
				c-0.6,0-0.96-0.45-0.96-1.021c0-1.17,1.59-2.609,4.41-2.609c1.649,0,2.939,0.479,3.689,1.35c0.57,0.63,0.87,1.471,0.87,2.49
				v7.859h2.16V519h-3.21v-1.89c-1.021,1.109-2.67,2.1-4.5,2.1C117.381,519.21,115.851,517.62,115.851,515.641z M124.49,516.061
				v-2.61c-1.14-0.36-2.58-0.63-3.93-0.63c-2.46,0-3.6,1.29-3.6,2.76c0,1.41,1.02,2.67,3.21,2.67
				C121.94,518.25,123.44,517.26,124.49,516.061z"/>
			<path d="M133.1,509.04c1.17-1.409,3-2.729,4.95-2.729c1.649,0,2.699,0.66,3.27,1.65c0.39,0.689,0.57,1.619,0.57,2.64v7.409h2.189
				V519h-5.46v-0.99h2.16v-7.26c0-0.84-0.09-1.529-0.36-2.069c-0.42-0.87-1.26-1.351-2.52-1.351c-1.83,0-3.51,1.23-4.739,2.73v7.949
				h2.159V519h-5.46v-0.99h2.19v-10.499h-2.19v-0.99h3.24V509.04z"/>
			<path d="M154.279,509.79c-0.54,0-0.931-0.42-0.931-0.93c0-0.21,0.061-0.51,0.301-0.78c-0.601-0.569-1.771-0.81-2.851-0.81
				c-2.04,0-3.3,1.08-3.3,2.37c0,1.439,1.561,1.859,3.66,2.399c2.25,0.57,4.439,1.26,4.439,3.69c0,2.1-2.01,3.479-4.71,3.479
				c-1.829,0-3.479-0.63-4.319-1.5c-0.36-0.36-0.57-0.78-0.57-1.29c0-0.569,0.391-1.02,0.9-1.02c0.57,0,0.93,0.39,0.93,0.899
				c0,0.33-0.12,0.601-0.359,0.78c0.39,0.57,1.739,1.17,3.39,1.17c2.279,0,3.659-1.02,3.659-2.49c0-1.649-1.649-2.159-3.6-2.64
				c-2.489-0.6-4.5-1.229-4.5-3.45c0-1.89,1.83-3.359,4.41-3.359c1.77,0,3.09,0.54,3.78,1.26c0.39,0.391,0.569,0.78,0.569,1.23
				C155.179,509.37,154.789,509.79,154.279,509.79z"/>
			<path d="M165.139,517.95h2.73v-17.64h-2.73v-1.05h6.75v1.05h-2.79v10.41l10.14-10.41h-3v-1.05h6.811v1.05h-2.34l-7.17,7.35
				l7.14,10.29h2.55V519h-3.33l-7.229-10.529l-3.57,3.63v5.85h2.79V519h-6.75V517.95z"/>
			<path d="M186.408,517.53c-0.39-0.72-0.54-1.59-0.54-2.61v-7.409h-2.189v-0.99h3.3v8.279c0,0.841,0.12,1.561,0.39,2.101
				c0.45,0.84,1.26,1.29,2.49,1.29c1.83,0,3.45-1.32,4.739-2.82v-7.859h-2.159v-0.99h3.27v11.489h2.19V519h-3.271v-2.64
				c-1.14,1.47-2.97,2.85-4.92,2.85C188.028,519.21,186.979,518.55,186.408,517.53z"/>
			<path d="M200.238,512.82c0-3.63,2.55-6.51,6.24-6.51c1.68,0,3.329,0.72,4.47,1.8v-10.02h-2.61v-0.99h3.72v20.909h2.16V519h-3.24
				v-2.07c-1.14,1.32-2.729,2.28-4.739,2.28C202.878,519.21,200.238,516.57,200.238,512.82z M210.948,515.91v-6.779
				c-1.11-0.99-2.641-1.83-4.5-1.83c-2.94,0-5.04,2.369-5.04,5.489c-0.03,3.18,2.04,5.43,4.89,5.43
				C208.248,518.22,209.778,517.26,210.948,515.91z"/>
			<path d="M224.358,509.79c-0.54,0-0.931-0.42-0.931-0.93c0-0.21,0.061-0.51,0.301-0.78c-0.601-0.569-1.771-0.81-2.851-0.81
				c-2.04,0-3.3,1.08-3.3,2.37c0,1.439,1.561,1.859,3.66,2.399c2.25,0.57,4.439,1.26,4.439,3.69c0,2.1-2.01,3.479-4.709,3.479
				c-1.83,0-3.48-0.63-4.32-1.5c-0.36-0.36-0.57-0.78-0.57-1.29c0-0.569,0.391-1.02,0.9-1.02c0.57,0,0.93,0.39,0.93,0.899
				c0,0.33-0.12,0.601-0.359,0.78c0.39,0.57,1.739,1.17,3.39,1.17c2.279,0,3.659-1.02,3.659-2.49c0-1.649-1.649-2.159-3.6-2.64
				c-2.489-0.6-4.5-1.229-4.5-3.45c0-1.89,1.83-3.359,4.41-3.359c1.77,0,3.09,0.54,3.78,1.26c0.39,0.391,0.569,0.78,0.569,1.23
				C225.258,509.37,224.868,509.79,224.358,509.79z"/>
			<path d="M227.808,518.61l8.49-11.13h-6.899v2.55h-1.051v-3.51h9.66v0.42l-8.49,11.1h7.561v-2.55h1.05V519h-10.32V518.61z"/>
			<path d="M242.447,517.53c-0.39-0.72-0.54-1.59-0.54-2.61v-7.409h-2.189v-0.99h3.3v8.279c0,0.841,0.12,1.561,0.39,2.101
				c0.45,0.84,1.26,1.29,2.49,1.29c1.83,0,3.45-1.32,4.739-2.82v-7.859h-2.159v-0.99h3.27v11.489h2.19V519h-3.271v-2.64
				c-1.14,1.47-2.97,2.85-4.92,2.85C244.067,519.21,243.018,518.55,242.447,517.53z"/>
			<path d="M264.527,509.79c-0.54,0-0.931-0.42-0.931-0.93c0-0.21,0.061-0.51,0.301-0.78c-0.601-0.569-1.771-0.81-2.851-0.81
				c-2.04,0-3.3,1.08-3.3,2.37c0,1.439,1.561,1.859,3.66,2.399c2.25,0.57,4.439,1.26,4.439,3.69c0,2.1-2.01,3.479-4.71,3.479
				c-1.829,0-3.479-0.63-4.319-1.5c-0.36-0.36-0.57-0.78-0.57-1.29c0-0.569,0.391-1.02,0.9-1.02c0.57,0,0.93,0.39,0.93,0.899
				c0,0.33-0.12,0.601-0.359,0.78c0.39,0.57,1.739,1.17,3.39,1.17c2.279,0,3.659-1.02,3.659-2.49c0-1.649-1.649-2.159-3.6-2.64
				c-2.489-0.6-4.5-1.229-4.5-3.45c0-1.89,1.83-3.359,4.41-3.359c1.77,0,3.09,0.54,3.78,1.26c0.39,0.391,0.569,0.78,0.569,1.23
				C265.427,509.37,265.037,509.79,264.527,509.79z"/>
		</g>
	</g>
	<g id="livetype_1_" display="none">
		<text transform="matrix(1 0 0 1 92 519)" display="inline" font-family="'Archer-Light'" font-size="30">Hans Kudszus</text>
	</g>
</g>
</svg>
