<?xml version="1.0" encoding="utf-8"?>
<!-- Generator: Adobe Illustrator 15.0.0, SVG Export Plug-In . SVG Version: 6.00 Build 0)  -->
<!DOCTYPE svg PUBLIC "-//W3C//DTD SVG 1.0//EN" "http://www.w3.org/TR/2001/REC-SVG-20010904/DTD/svg10.dtd">
<svg version="1.0" xmlns="http://www.w3.org/2000/svg" xmlns:xlink="http://www.w3.org/1999/xlink" x="0px" y="0px" width="1280px"
	 height="720px" viewBox="0 0 1280 720" enable-background="new 0 0 1280 720" xml:space="preserve">
<g id="margin">
</g>
<g id="Layer_2">
	<g id="outlines_1_">
		<g>
			<path d="M371.732,116.396h-15.121v-12.241h44.212v12.241h-15.122v38.163h-13.969V116.396z"/>
			<path d="M406.938,104.155h13.969v18.866h17.93v-18.866h13.969v50.404h-13.969v-19.153h-17.93v19.153h-13.969V104.155z"/>
			<path d="M461.729,104.155h40.54v11.881h-26.714v7.633h24.194v11.017h-24.194v7.993h27.074v11.881h-40.899V104.155z"/>
			<path d="M529.696,104.155h19.442c18.001,0,28.442,10.368,28.442,24.914v0.144c0,14.546-10.585,25.347-28.73,25.347h-19.154
				V104.155z M549.354,142.174c8.353,0,13.897-4.607,13.897-12.744v-0.145c0-8.064-5.544-12.745-13.897-12.745h-5.688v25.634
				H549.354z"/>
			<path d="M584.776,104.155h40.54v11.881h-26.714v7.633h24.194v11.017h-24.194v7.993h27.074v11.881h-40.899V104.155z"/>
			<path d="M628.983,147.07l7.777-9.288c4.968,3.96,10.513,6.048,16.345,6.048c3.745,0,5.761-1.295,5.761-3.455v-0.145
				c0-2.088-1.656-3.24-8.497-4.824c-10.729-2.449-19.009-5.473-19.009-15.842v-0.145c0-9.36,7.417-16.129,19.514-16.129
				c8.569,0,15.265,2.305,20.738,6.697l-6.985,9.864c-4.608-3.24-9.649-4.968-14.113-4.968c-3.384,0-5.04,1.439-5.04,3.24v0.144
				c0,2.304,1.728,3.312,8.712,4.896c11.593,2.521,18.794,6.265,18.794,15.697v0.144c0,10.297-8.137,16.418-20.378,16.418
				C643.673,155.424,635.176,152.615,628.983,147.07z"/>
			<path d="M680.031,104.155h14.042v50.404h-14.042V104.155z"/>
			<path d="M703.288,104.155h23.834c7.704,0,13.033,2.017,16.417,5.473c2.952,2.88,4.465,6.769,4.465,11.737v0.144
				c0,7.704-4.104,12.817-10.369,15.481l12.024,17.569H733.53l-10.153-15.265h-6.12v15.265h-13.969V104.155z M726.474,128.35
				c4.752,0,7.488-2.305,7.488-5.977v-0.145c0-3.96-2.88-5.977-7.561-5.977h-9.145v12.098H726.474z"/>
			<path d="M755.056,104.155h40.539v11.881h-26.714v7.633h24.193v11.017h-24.193v7.993h27.074v11.881h-40.899V104.155z"/>
			<path d="M821.294,129.502v-0.145c0-14.473,11.665-26.211,27.218-26.211c15.554,0,27.075,11.594,27.075,26.066v0.145
				c0,14.473-11.665,26.211-27.219,26.211S821.294,143.975,821.294,129.502z M861.329,129.502v-0.145
				c0-7.272-5.256-13.609-12.961-13.609c-7.633,0-12.745,6.193-12.745,13.465v0.145c0,7.272,5.257,13.609,12.889,13.609
				C856.217,142.967,861.329,136.773,861.329,129.502z"/>
			<path d="M882.854,104.155h40.323v12.241h-26.354v8.568h23.834v11.594h-23.834v18.001h-13.969V104.155z"/>
			<path d="M349.197,202.797h-15.121v-12.242h44.212v12.242h-15.122v38.162h-13.969V202.797z"/>
			<path d="M384.403,190.555h13.969v18.866h17.93v-18.866h13.969v50.404h-13.969v-19.153h-17.93v19.153h-13.969V190.555z"/>
			<path d="M439.194,190.555h40.54v11.881h-26.714v7.633h24.194v11.018h-24.194v7.992h27.074v11.881h-40.899V190.555z"/>
			<path d="M507.161,190.555h14.761l12.025,19.514l12.025-19.514h14.761v50.404h-13.897v-28.945l-12.889,19.729h-0.288
				l-12.817-19.585v28.802h-13.681V190.555z"/>
			<path d="M587.082,190.195h13.465l21.458,50.764h-14.978l-3.672-9h-19.441l-3.601,9h-14.689L587.082,190.195z M599.323,221.086
				l-5.616-14.33l-5.688,14.33H599.323z"/>
			<path d="M626.896,190.555h13.033l20.738,26.643v-26.643h13.825v50.404h-12.241l-21.53-27.65v27.65h-13.825V190.555z"/>
			<path d="M703.646,190.555h14.042v50.404h-14.042V190.555z"/>
			<path d="M723.087,233.471l7.776-9.289c4.969,3.961,10.513,6.049,16.346,6.049c3.744,0,5.76-1.296,5.76-3.456v-0.144
				c0-2.089-1.656-3.24-8.496-4.825c-10.729-2.448-19.01-5.472-19.01-15.841v-0.145c0-9.361,7.416-16.129,19.514-16.129
				c8.568,0,15.266,2.304,20.737,6.696l-6.984,9.864c-4.608-3.24-9.648-4.968-14.113-4.968c-3.384,0-5.04,1.44-5.04,3.24v0.144
				c0,2.305,1.728,3.312,8.713,4.896c11.593,2.521,18.793,6.265,18.793,15.697v0.145c0,10.297-8.137,16.418-20.378,16.418
				C737.775,241.824,729.279,239.016,723.087,233.471z"/>
			<path d="M793.79,190.555h40.323v12.242h-26.354v8.568h23.834v11.593h-23.834v18.001H793.79V190.555z"/>
			<path d="M838.717,215.901v-0.144c0-14.474,11.665-26.211,27.219-26.211c15.553,0,27.074,11.594,27.074,26.066v0.145
				c0,14.473-11.665,26.21-27.219,26.21S838.717,230.375,838.717,215.901z M878.752,215.901v-0.144
				c0-7.273-5.256-13.609-12.961-13.609c-7.633,0-12.745,6.192-12.745,13.465v0.145c0,7.271,5.257,13.609,12.89,13.609
				C873.64,229.367,878.752,223.174,878.752,215.901z"/>
			<path d="M900.277,190.555h23.834c7.704,0,13.033,2.017,16.417,5.473c2.952,2.881,4.465,6.77,4.465,11.737v0.144
				c0,7.705-4.104,12.817-10.369,15.482l12.024,17.568H930.52l-10.153-15.265h-6.12v15.265h-13.969V190.555z M923.463,214.749
				c4.752,0,7.488-2.304,7.488-5.977v-0.144c0-3.961-2.88-5.977-7.561-5.977h-9.145v12.097H923.463z"/>
			<path d="M327.812,289.197h-15.121v-12.242h44.212v12.242h-15.122v38.162h-13.969V289.197z"/>
			<path d="M363.019,276.955h13.969v18.866h17.93v-18.866h13.969v50.404h-13.969v-19.153h-17.93v19.153h-13.969V276.955z"/>
			<path d="M417.81,276.955h40.54v11.881h-26.714v7.633h24.194v11.018h-24.194v7.992h27.074v11.881H417.81V276.955z"/>
			<path d="M482.392,276.955h14.761l8.785,29.163l9.721-29.307h12.025l9.721,29.307l8.785-29.163h14.474l-16.85,50.765h-12.169
				l-10.153-29.019l-10.081,29.019h-12.169L482.392,276.955z"/>
			<path d="M561.592,302.302v-0.144c0-14.474,11.665-26.211,27.218-26.211s27.074,11.594,27.074,26.066v0.145
				c0,14.473-11.665,26.21-27.218,26.21S561.592,316.775,561.592,302.302z M601.627,302.302v-0.144
				c0-7.273-5.256-13.609-12.961-13.609c-7.633,0-12.745,6.192-12.745,13.465v0.145c0,7.271,5.256,13.609,12.889,13.609
				C596.515,315.768,601.627,309.574,601.627,302.302z"/>
			<path d="M623.152,276.955h14.761l12.025,19.514l12.025-19.514h14.761v50.404h-13.897v-28.945l-12.889,19.729h-0.288
				l-12.817-19.585v28.802h-13.681V276.955z"/>
			<path d="M703.072,276.596h13.466l21.457,50.764h-14.977l-3.673-9h-19.441l-3.601,9h-14.689L703.072,276.596z M715.313,307.486
				l-5.616-14.33l-5.688,14.33H715.313z"/>
			<path d="M742.888,276.955h13.032l20.738,26.643v-26.643h13.825v50.404h-12.241l-21.529-27.65v27.65h-13.825V276.955z"/>
			<path d="M796.383,333.984c4.824-0.576,7.345-2.881,7.2-6.769h-5.544v-14.041h14.257v11.448c0,10.658-5.833,14.33-14.833,14.617
				L796.383,333.984z"/>
			<path d="M839.798,276.955h25.85c6.337,0,10.801,1.584,13.753,4.537c2.017,2.016,3.24,4.68,3.24,8.137v0.144
				c0,5.833-3.312,9.289-7.776,11.233c6.121,2.016,10.009,5.473,10.009,12.312v0.145c0,8.641-7.057,13.896-19.081,13.896h-25.994
				V276.955z M862.191,297.045c4.248,0,6.624-1.439,6.624-4.393v-0.144c0-2.736-2.16-4.32-6.336-4.32h-9.073v8.856H862.191z
				 M864.207,316.127c4.249,0,6.697-1.656,6.697-4.608v-0.144c0-2.736-2.16-4.537-6.841-4.537h-10.657v9.289H864.207z"/>
			<path d="M890.629,305.254v-28.299h14.186v28.011c0,7.272,3.672,10.729,9.288,10.729c5.617,0,9.289-3.312,9.289-10.369v-28.371
				h14.186v27.939c0,16.273-9.289,23.401-23.618,23.401S890.629,321.023,890.629,305.254z"/>
			<path d="M958.165,289.197h-15.121v-12.242h44.212v12.242h-15.121v38.162h-13.97V289.197z"/>
			<path d="M286.594,375.597h-15.121v-12.241h44.212v12.241h-15.122v38.163h-13.969V375.597z"/>
			<path d="M321.8,363.355h13.969v18.865h17.93v-18.865h13.969v50.404h-13.969v-19.153h-17.93v19.153H321.8V363.355z"/>
			<path d="M376.591,363.355h40.54v11.881h-26.714v7.633h24.194v11.017h-24.194v7.993h27.074v11.881h-40.899V363.355z"/>
			<path d="M444.558,363.355H464c18.001,0,28.442,10.369,28.442,24.914v0.145c0,14.545-10.585,25.346-28.73,25.346h-19.154V363.355z
				 M464.216,401.375c8.353,0,13.897-4.608,13.897-12.745v-0.145c0-8.064-5.545-12.745-13.897-12.745h-5.688v25.635H464.216z"/>
			<path d="M499.638,363.355h40.54v11.881h-26.714v7.633h24.194v11.017h-24.194v7.993h27.074v11.881h-40.899V363.355z"/>
			<path d="M543.845,406.271l7.777-9.289c4.968,3.96,10.513,6.049,16.345,6.049c3.745,0,5.761-1.297,5.761-3.457v-0.144
				c0-2.088-1.656-3.24-8.497-4.824c-10.729-2.448-19.009-5.473-19.009-15.842v-0.144c0-9.361,7.417-16.13,19.514-16.13
				c8.568,0,15.265,2.305,20.738,6.696l-6.985,9.865c-4.608-3.24-9.649-4.969-14.113-4.969c-3.384,0-5.04,1.44-5.04,3.24v0.145
				c0,2.304,1.728,3.312,8.712,4.896c11.593,2.521,18.794,6.265,18.794,15.697v0.144c0,10.297-8.137,16.418-20.378,16.418
				C558.535,414.624,550.038,411.815,543.845,406.271z"/>
			<path d="M594.893,363.355h14.041v50.404h-14.041V363.355z"/>
			<path d="M618.149,363.355h23.834c7.705,0,13.033,2.016,16.417,5.473c2.952,2.88,4.464,6.769,4.464,11.736v0.145
				c0,7.705-4.104,12.817-10.369,15.481l12.025,17.569h-16.129l-10.153-15.266h-6.121v15.266h-13.969V363.355z M641.335,387.55
				c4.752,0,7.489-2.305,7.489-5.977v-0.145c0-3.96-2.88-5.977-7.561-5.977h-9.145v12.098H641.335z"/>
			<path d="M669.917,363.355h40.539v11.881h-26.714v7.633h24.193v11.017h-24.193v7.993h27.074v11.881h-40.899V363.355z"/>
			<path d="M736.155,388.701v-0.144c0-14.474,11.665-26.21,27.218-26.21c15.554,0,27.075,11.593,27.075,26.066v0.144
				c0,14.474-11.665,26.21-27.219,26.21S736.155,403.175,736.155,388.701z M776.19,388.701v-0.144
				c0-7.272-5.256-13.609-12.961-13.609c-7.633,0-12.745,6.192-12.745,13.466v0.144c0,7.272,5.257,13.609,12.889,13.609
				C771.078,402.167,776.19,395.975,776.19,388.701z"/>
			<path d="M797.715,363.355h40.323v12.241h-26.354v8.568h23.834v11.593h-23.834v18.002h-13.969V363.355z"/>
			<path d="M876.626,375.597h-15.121v-12.241h44.212v12.241h-15.121v38.163h-13.97V375.597z"/>
			<path d="M911.833,363.355h13.969v18.865h17.93v-18.865H957.7v50.404h-13.969v-19.153h-17.93v19.153h-13.969V363.355z"/>
			<path d="M966.624,363.355h40.539v11.881h-26.714v7.633h24.193v11.017h-24.193v7.993h27.074v11.881h-40.899V363.355z"/>
			<path d="M264.812,449.756h14.761l8.785,29.162l9.721-29.307h12.025l9.721,29.307l8.785-29.162h14.474l-16.85,50.765h-12.169
				l-10.153-29.019l-10.081,29.019h-12.169L264.812,449.756z"/>
			<path d="M344.012,475.102v-0.144c0-14.474,11.665-26.21,27.218-26.21s27.074,11.593,27.074,26.066v0.144
				c0,14.474-11.665,26.21-27.218,26.21S344.012,489.575,344.012,475.102z M384.047,475.102v-0.144
				c0-7.272-5.256-13.609-12.961-13.609c-7.633,0-12.745,6.192-12.745,13.466v0.144c0,7.272,5.256,13.609,12.889,13.609
				C378.935,488.567,384.047,482.375,384.047,475.102z"/>
			<path d="M405.572,449.756h14.761l12.025,19.514l12.025-19.514h14.761v50.404h-13.897v-28.946l-12.889,19.729h-0.288
				l-12.817-19.586v28.803h-13.681V449.756z"/>
			<path d="M485.493,449.396h13.465l21.458,50.765h-14.978l-3.672-9.001h-19.441l-3.601,9.001h-14.689L485.493,449.396z
				 M497.734,480.286l-5.616-14.329l-5.688,14.329H497.734z"/>
			<path d="M525.307,449.756h13.033l20.738,26.643v-26.643h13.825v50.404h-12.241l-21.53-27.65v27.65h-13.825V449.756z"/>
			<path d="M602.058,449.756h14.041v50.404h-14.041V449.756z"/>
			<path d="M621.497,492.672l7.777-9.289c4.968,3.96,10.513,6.049,16.345,6.049c3.745,0,5.761-1.297,5.761-3.457v-0.144
				c0-2.088-1.656-3.24-8.497-4.824c-10.729-2.448-19.009-5.473-19.009-15.842v-0.144c0-9.361,7.417-16.13,19.514-16.13
				c8.569,0,15.265,2.305,20.738,6.696l-6.985,9.865c-4.608-3.24-9.649-4.969-14.113-4.969c-3.384,0-5.04,1.44-5.04,3.24v0.145
				c0,2.304,1.728,3.312,8.712,4.896c11.593,2.521,18.794,6.265,18.794,15.697v0.144c0,10.297-8.137,16.418-20.378,16.418
				C636.187,501.024,627.69,498.216,621.497,492.672z"/>
			<path d="M692.2,449.756h40.323v12.241h-26.354v8.568h23.834v11.593h-23.834v18.002H692.2V449.756z"/>
			<path d="M737.127,475.102v-0.144c0-14.474,11.665-26.21,27.219-26.21c15.553,0,27.074,11.593,27.074,26.066v0.144
				c0,14.474-11.665,26.21-27.219,26.21S737.127,489.575,737.127,475.102z M777.162,475.102v-0.144
				c0-7.272-5.256-13.609-12.961-13.609c-7.633,0-12.745,6.192-12.745,13.466v0.144c0,7.272,5.257,13.609,12.89,13.609
				C772.05,488.567,777.162,482.375,777.162,475.102z"/>
			<path d="M798.687,449.756h23.834c7.704,0,13.033,2.016,16.417,5.473c2.952,2.88,4.465,6.769,4.465,11.736v0.145
				c0,7.705-4.104,12.817-10.369,15.481l12.024,17.569h-16.129l-10.153-15.266h-6.12v15.266h-13.969V449.756z M821.872,473.95
				c4.752,0,7.488-2.305,7.488-5.977v-0.145c0-3.96-2.88-5.977-7.561-5.977h-9.145v12.098H821.872z"/>
			<path d="M882.71,461.997h-15.121v-12.241h44.212v12.241H896.68v38.163h-13.97V461.997z"/>
			<path d="M917.917,449.756h13.969v18.865h17.93v-18.865h13.969v50.404h-13.969v-19.153h-17.93v19.153h-13.969V449.756z"/>
			<path d="M972.708,449.756h40.539v11.881h-26.714v7.633h24.193v11.017h-24.193v7.993h27.074v11.881h-40.899V449.756z"/>
			<path d="M251.097,536.155h19.442c18.001,0,28.442,10.369,28.442,24.914v0.144c0,14.546-10.585,25.347-28.73,25.347h-19.154
				V536.155z M270.754,574.175c8.353,0,13.897-4.608,13.897-12.745v-0.145c0-8.064-5.544-12.745-13.897-12.745h-5.688v25.635
				H270.754z"/>
			<path d="M306.177,536.155h40.54v11.881h-26.714v7.633h24.194v11.017h-24.194v7.993h27.074v11.881h-40.899V536.155z"/>
			<path d="M350.384,579.071l7.777-9.289c4.968,3.96,10.513,6.049,16.345,6.049c3.745,0,5.761-1.297,5.761-3.457v-0.144
				c0-2.088-1.656-3.24-8.497-4.824c-10.729-2.448-19.009-5.473-19.009-15.842v-0.144c0-9.361,7.417-16.13,19.514-16.13
				c8.569,0,15.265,2.305,20.738,6.696l-6.985,9.865c-4.608-3.24-9.649-4.969-14.113-4.969c-3.384,0-5.04,1.44-5.04,3.24v0.145
				c0,2.304,1.728,3.312,8.712,4.896c11.593,2.521,18.794,6.265,18.794,15.697v0.144c0,10.297-8.137,16.418-20.378,16.418
				C365.073,587.424,356.577,584.615,350.384,579.071z"/>
			<path d="M401.432,536.155h14.041v50.404h-14.041V536.155z"/>
			<path d="M424.687,536.155h23.834c7.705,0,13.033,2.017,16.417,5.473c2.952,2.88,4.464,6.769,4.464,11.736v0.145
				c0,7.704-4.104,12.817-10.369,15.481l12.025,17.569H454.93l-10.153-15.266h-6.121v15.266h-13.969V536.155z M447.873,560.35
				c4.752,0,7.489-2.305,7.489-5.977v-0.145c0-3.96-2.88-5.977-7.561-5.977h-9.145v12.098H447.873z"/>
			<path d="M476.455,536.155h40.54v11.881H490.28v7.633h24.194v11.017H490.28v7.993h27.074v11.881h-40.899V536.155z"/>
			<path d="M542.693,561.501v-0.144c0-14.474,11.665-26.21,27.218-26.21s27.074,11.593,27.074,26.065v0.145
				c0,14.474-11.665,26.21-27.218,26.21S542.693,575.975,542.693,561.501z M582.729,561.501v-0.144
				c0-7.272-5.256-13.609-12.961-13.609c-7.633,0-12.745,6.192-12.745,13.465v0.145c0,7.272,5.256,13.609,12.889,13.609
				C577.616,574.967,582.729,568.774,582.729,561.501z"/>
			<path d="M604.253,536.155h40.324v12.241h-26.354v8.568h23.834v11.593h-23.834v18.002h-13.969V536.155z"/>
			<path d="M683.165,548.396h-15.121v-12.241h44.212v12.241h-15.121v38.163h-13.97V548.396z"/>
			<path d="M718.372,536.155h13.969v18.865h17.93v-18.865h13.969v50.404h-13.969v-19.153h-17.93v19.153h-13.969V536.155z"/>
			<path d="M773.163,536.155h40.539v11.881h-26.714v7.633h24.193v11.017h-24.193v7.993h27.074v11.881h-40.899V536.155z"/>
			<path d="M841.13,536.155h14.761l12.025,19.514l12.024-19.514h14.762v50.404h-13.897v-28.946l-12.889,19.729h-0.288
				l-12.817-19.586v28.803H841.13V536.155z"/>
			<path d="M921.051,535.795h13.466l21.457,50.765h-14.977l-3.673-9.001h-19.441l-3.601,9.001h-14.689L921.051,535.795z
				 M933.292,566.686l-5.616-14.329l-5.688,14.329H933.292z"/>
			<path d="M960.866,536.155h13.032l20.738,26.643v-26.643h13.825v50.404h-12.241l-21.529-27.65v27.65h-13.825V536.155z"/>
			<path d="M1016.018,572.519h14.257v14.041h-14.257V572.519z"/>
		</g>
	</g>
	<g id="livetype" display="none">
		<rect x="120" y="102" display="inline" fill="none" width="1040" height="499"/>
		<text transform="matrix(1 0 0 1 354.9551 154.5596)" display="inline"><tspan x="0" y="0" font-family="'Gotham-Black'" font-size="72">The desire of  </tspan><tspan x="-22.536" y="86.399" font-family="'Gotham-Black'" font-size="72">the man is for </tspan><tspan x="-65.303" y="172.8" font-family="'Gotham-Black'" font-size="72"> the woman, but  </tspan><tspan x="-85.138" y="259.2" font-family="'Gotham-Black'" font-size="72">the desire of the </tspan><tspan x="-92.663" y="345.601" font-family="'Gotham-Black'" font-size="72">woman is for the </tspan><tspan x="-108.322" y="432" font-family="'Gotham-Black'" font-size="72">desire of the man.</tspan></text>
	</g>
</g>
<g id="author">
	<g id="outlines">
		<g>
			<path d="M449.142,647.218h2.16l6.6-17.64h-2.49v-1.05h7.5v1.05h-2.49l6.601,17.64h2.189v1.05h-6.09v-1.05h2.58l-2.31-6.27h-8.49
				l-2.31,6.27h2.64v1.05h-6.09V647.218z M463.001,639.897l-3.84-10.409l-3.869,10.409H463.001z"/>
			<path d="M474.162,638.308c1.17-1.409,3-2.729,4.95-2.729c1.649,0,2.699,0.66,3.27,1.65c0.39,0.689,0.57,1.619,0.57,2.64v7.409
				h2.189v0.99h-5.46v-0.99h2.16v-7.26c0-0.84-0.09-1.529-0.36-2.069c-0.42-0.87-1.26-1.351-2.52-1.351
				c-1.83,0-3.51,1.23-4.739,2.73v7.949h2.159v0.99h-5.46v-0.99h2.19v-10.499h-2.19v-0.99h3.24V638.308z"/>
			<path d="M490.482,638.308c1.17-1.409,3-2.729,4.95-2.729c1.649,0,2.699,0.66,3.27,1.65c0.39,0.689,0.57,1.619,0.57,2.64v7.409
				h2.189v0.99h-5.46v-0.99h2.16v-7.26c0-0.84-0.09-1.529-0.36-2.069c-0.42-0.87-1.26-1.351-2.52-1.351
				c-1.83,0-3.51,1.23-4.739,2.73v7.949h2.159v0.99h-5.46v-0.99h2.19v-10.499h-2.19v-0.99h3.24V638.308z"/>
			<path d="M504.522,642.147c0.12,3.48,2.22,5.34,5.369,5.34c1.681,0,3.03-0.569,4.351-1.439l-0.091,1.14
				c-1.199,0.811-2.76,1.29-4.38,1.29c-3.81,0-6.39-2.55-6.39-6.479c0-3.54,2.46-6.42,5.91-6.42c3.569,0,5.55,2.79,5.55,5.85
				c0,0.3-0.03,0.54-0.09,0.72H504.522z M504.551,641.188h9.15c-0.12-2.579-1.62-4.619-4.5-4.619
				C506.801,636.568,504.822,638.428,504.551,641.188z"/>
			<path d="M517.211,639.508h5.76v1.14h-5.76V639.508z"/>
			<path d="M525.46,647.218h2.73v-17.64h-2.73v-1.05h6.811v1.05h-2.851v17.64h8.01v-3.48h1.17v4.53h-13.14V647.218z"/>
			<path d="M541.242,642.027c0-3.6,2.64-6.449,6.3-6.449c3.72,0,6.3,2.82,6.3,6.449c0,3.601-2.61,6.45-6.3,6.45
				S541.242,645.657,541.242,642.027z M552.671,642.027c0-3.119-2.1-5.459-5.13-5.459c-3,0-5.13,2.34-5.13,5.459
				c0,3.15,2.13,5.46,5.13,5.46C550.572,647.487,552.671,645.178,552.671,642.027z"/>
			<path d="M558.55,646.798c-0.39-0.72-0.54-1.59-0.54-2.61v-7.409h-2.189v-0.99h3.3v8.279c0,0.841,0.12,1.561,0.39,2.101
				c0.45,0.84,1.26,1.29,2.49,1.29c1.83,0,3.45-1.32,4.739-2.82v-7.859h-2.159v-0.99h3.27v11.489h2.19v0.99h-3.271v-2.64
				c-1.14,1.47-2.97,2.85-4.92,2.85C560.17,648.478,559.121,647.817,558.55,646.798z"/>
			<path d="M572.26,647.277h2.34v-10.499h-2.34v-0.99h3.45v11.489h2.34v0.99h-5.79V647.277z M573.821,630.479
				c0-0.63,0.479-1.141,1.079-1.141c0.601,0,1.08,0.511,1.08,1.141c0,0.6-0.479,1.109-1.08,1.109
				C574.3,631.588,573.821,631.078,573.821,630.479z"/>
			<path d="M588.281,639.058c-0.54,0-0.931-0.42-0.931-0.93c0-0.21,0.061-0.51,0.301-0.78c-0.601-0.569-1.771-0.81-2.851-0.81
				c-2.04,0-3.3,1.08-3.3,2.37c0,1.439,1.561,1.859,3.66,2.399c2.25,0.57,4.439,1.26,4.439,3.69c0,2.1-2.01,3.479-4.71,3.479
				c-1.829,0-3.479-0.63-4.319-1.5c-0.36-0.36-0.57-0.78-0.57-1.29c0-0.569,0.391-1.02,0.9-1.02c0.57,0,0.93,0.39,0.93,0.899
				c0,0.33-0.12,0.601-0.359,0.78c0.39,0.57,1.739,1.17,3.39,1.17c2.279,0,3.659-1.02,3.659-2.49c0-1.649-1.649-2.159-3.6-2.64
				c-2.489-0.6-4.5-1.229-4.5-3.45c0-1.89,1.83-3.359,4.41-3.359c1.77,0,3.09,0.54,3.78,1.26c0.39,0.391,0.569,0.78,0.569,1.23
				C589.18,638.638,588.791,639.058,588.281,639.058z"/>
			<path d="M593.351,642.147c0.12,3.48,2.22,5.34,5.369,5.34c1.681,0,3.03-0.569,4.351-1.439l-0.091,1.14
				c-1.199,0.811-2.76,1.29-4.38,1.29c-3.81,0-6.39-2.55-6.39-6.479c0-3.54,2.46-6.42,5.91-6.42c3.569,0,5.55,2.79,5.55,5.85
				c0,0.3-0.03,0.54-0.09,0.72H593.351z M593.38,641.188h9.15c-0.12-2.579-1.62-4.619-4.5-4.619
				C595.63,636.568,593.651,638.428,593.38,641.188z"/>
			<path d="M606.041,639.508h5.76v1.14h-5.76V639.508z"/>
			<path d="M614.62,638.638c0-6.3,4.74-10.439,10.05-10.439c4.35,0,7.29,2.521,7.29,4.47c0,0.78-0.48,1.29-1.14,1.29
				c-0.601,0-1.051-0.479-1.051-1.08c0-0.45,0.21-0.84,0.66-1.05c-0.72-1.229-2.91-2.55-5.79-2.55c-5.31,0-8.759,4.26-8.759,9.359
				c0,5.28,3.749,8.82,8.399,8.82c2.399,0,4.649-0.78,6.779-2.4v-4.83H625v-1.05h7.26v9.09h-1.17v-2.1
				c-2.04,1.529-4.17,2.34-6.87,2.34C619.18,648.508,614.62,644.788,614.62,638.638z"/>
			<path d="M637.331,642.147c0.12,3.48,2.22,5.34,5.369,5.34c1.681,0,3.03-0.569,4.351-1.439l-0.091,1.14
				c-1.199,0.811-2.76,1.29-4.38,1.29c-3.81,0-6.39-2.55-6.39-6.479c0-3.54,2.46-6.42,5.91-6.42c3.569,0,5.55,2.79,5.55,5.85
				c0,0.3-0.03,0.54-0.09,0.72H637.331z M637.36,641.188h9.15c-0.12-2.579-1.62-4.619-4.5-4.619
				C639.61,636.568,637.63,638.428,637.36,641.188z"/>
			<path d="M658.66,636.778c0,0.54-0.39,0.989-0.99,0.989c-0.539,0-1.02-0.449-1.05-0.989c-1.14,0.18-2.31,1.439-3.119,2.909v7.59
				h2.459v0.99h-5.76v-0.99h2.19v-10.499h-2.19v-0.99h3.24v2.79c0.93-1.65,2.46-3,3.75-3
				C658.15,635.578,658.66,636.148,658.66,636.778z"/>
			<path d="M660.399,647.277h2.19v-10.499h-2.19v-0.99h3.24v2.52c1.14-1.409,2.94-2.729,4.83-2.729c1.56,0,2.58,0.6,3.12,1.59
				c0.18,0.36,0.3,0.75,0.39,1.14c1.38-1.56,3.149-2.729,4.92-2.729c1.739,0,2.729,0.689,3.239,1.83
				c0.33,0.689,0.45,1.529,0.45,2.46v7.409h2.19v0.99h-5.46v-0.99h2.16v-7.26c0-0.84-0.12-1.529-0.33-2.01
				c-0.391-0.93-1.17-1.41-2.4-1.41c-1.71,0-3.3,1.17-4.62,2.67v8.01h2.19v0.99h-5.46v-0.99h2.16v-7.26c0-0.81-0.09-1.5-0.3-2.01
				c-0.391-0.93-1.17-1.41-2.4-1.41c-1.77,0-3.359,1.23-4.619,2.7v7.979h2.159v0.99h-5.46V647.277z"/>
			<path d="M684.73,644.908c0-2.25,1.95-3.75,4.649-3.75c1.44,0,3.091,0.359,3.99,0.72v-2.28c0-0.779-0.21-1.439-0.63-1.949
				c-0.57-0.66-1.56-1.11-2.939-1.11c-1.44,0-2.28,0.479-2.761,0.96c0.181,0.18,0.301,0.479,0.301,0.81c0,0.45-0.36,0.9-0.9,0.9
				c-0.6,0-0.96-0.45-0.96-1.021c0-1.17,1.59-2.609,4.41-2.609c1.649,0,2.939,0.479,3.689,1.35c0.57,0.63,0.87,1.471,0.87,2.49
				v7.859h2.16v0.99h-3.21v-1.89c-1.021,1.109-2.67,2.1-4.5,2.1C686.26,648.478,684.73,646.888,684.73,644.908z M693.37,645.328
				v-2.61c-1.14-0.36-2.58-0.63-3.93-0.63c-2.46,0-3.6,1.29-3.6,2.76c0,1.41,1.02,2.67,3.21,2.67
				C690.82,647.518,692.32,646.527,693.37,645.328z"/>
			<path d="M698.769,647.277h2.34v-10.499h-2.34v-0.99h3.45v11.489h2.34v0.99h-5.79V647.277z M700.33,630.479
				c0-0.63,0.479-1.141,1.079-1.141c0.601,0,1.08,0.511,1.08,1.141c0,0.6-0.479,1.109-1.08,1.109
				C700.809,631.588,700.33,631.078,700.33,630.479z"/>
			<path d="M709.929,638.308c1.17-1.409,3-2.729,4.95-2.729c1.649,0,2.699,0.66,3.27,1.65c0.39,0.689,0.57,1.619,0.57,2.64v7.409
				h2.189v0.99h-5.46v-0.99h2.16v-7.26c0-0.84-0.09-1.529-0.36-2.069c-0.42-0.87-1.26-1.351-2.52-1.351
				c-1.83,0-3.51,1.23-4.739,2.73v7.949h2.159v0.99h-5.46v-0.99h2.19v-10.499h-2.19v-0.99h3.24V638.308z"/>
			<path d="M723.969,642.147c0.12,3.48,2.22,5.34,5.369,5.34c1.681,0,3.03-0.569,4.351-1.439l-0.091,1.14
				c-1.199,0.811-2.76,1.29-4.38,1.29c-3.81,0-6.39-2.55-6.39-6.479c0-3.54,2.46-6.42,5.91-6.42c3.569,0,5.55,2.79,5.55,5.85
				c0,0.3-0.03,0.54-0.09,0.72H723.969z M723.999,641.188h9.15c-0.12-2.579-1.62-4.619-4.5-4.619
				C726.249,636.568,724.269,638.428,723.999,641.188z"/>
			<path d="M747.638,630.658v16.56h2.82v1.05h-6.721v-1.05h2.73v-17.64h-2.73v-1.05h3.78l12.659,17.31v-16.26h-2.789v-1.05h6.659
				v1.05h-2.729v18.779h-0.721L747.638,630.658z"/>
			<path d="M767.079,642.147c0.12,3.48,2.22,5.34,5.369,5.34c1.681,0,3.03-0.569,4.351-1.439l-0.091,1.14
				c-1.199,0.811-2.76,1.29-4.38,1.29c-3.81,0-6.39-2.55-6.39-6.479c0-3.54,2.46-6.42,5.91-6.42c3.569,0,5.55,2.79,5.55,5.85
				c0,0.3-0.03,0.54-0.09,0.72H767.079z M767.108,641.188h9.15c-0.12-2.579-1.62-4.619-4.5-4.619
				C769.358,636.568,767.378,638.428,767.108,641.188z"/>
			<path d="M780.068,642.147c0-3.72,2.82-6.569,6.15-6.569c2.64,0,4.77,1.74,4.77,3.479c0,0.66-0.45,1.23-1.11,1.23
				c-0.42,0-0.869-0.271-0.869-0.9c0-0.42,0.239-0.75,0.72-0.96c-0.36-1.08-1.891-1.859-3.51-1.859c-2.49,0-5.01,2.13-5.01,5.609
				c0,3.15,2.279,5.31,5.459,5.31c1.381,0,2.7-0.42,4.051-1.319l-0.091,1.109c-1.17,0.811-2.76,1.2-4.079,1.2
				C782.858,648.478,780.068,645.897,780.068,642.147z"/>
			<path d="M793.239,647.277h2.159v-19.919h-2.159v-0.99h3.27v16.29l6.54-5.91h-2.971v-0.96h6.63v0.99h-2.22l-4.529,4.079
				l4.499,6.42h2.25v0.99h-2.909l-4.65-6.81l-2.64,2.399v3.42h2.25v0.99h-5.52V647.277z"/>
			<path d="M809.529,642.147c0.12,3.48,2.22,5.34,5.369,5.34c1.681,0,3.03-0.569,4.351-1.439l-0.091,1.14
				c-1.199,0.811-2.76,1.29-4.38,1.29c-3.81,0-6.39-2.55-6.39-6.479c0-3.54,2.46-6.42,5.91-6.42c3.569,0,5.55,2.79,5.55,5.85
				c0,0.3-0.03,0.54-0.09,0.72H809.529z M809.558,641.188h9.15c-0.12-2.579-1.62-4.619-4.5-4.619
				C811.808,636.568,809.829,638.428,809.558,641.188z"/>
			<path d="M830.858,636.778c0,0.54-0.39,0.989-0.99,0.989c-0.54,0-1.02-0.449-1.05-0.989c-1.14,0.18-2.31,1.439-3.119,2.909v7.59
				h2.459v0.99h-5.76v-0.99h2.19v-10.499h-2.19v-0.99h3.24v2.79c0.93-1.65,2.46-3,3.75-3
				C830.348,635.578,830.858,636.148,830.858,636.778z"/>
		</g>
	</g>
	<g id="livetype_1_" display="none">
		<text transform="matrix(1 0 0 1 448.6328 648.2676)" display="inline" font-family="'Archer-Light'" font-size="30">Anne-Louise-Germaine Necker</text>
	</g>
</g>
</svg>
