<?xml version="1.0" encoding="utf-8"?>
<!-- Generator: Adobe Illustrator 15.0.1, SVG Export Plug-In . SVG Version: 6.00 Build 0)  -->
<!DOCTYPE svg PUBLIC "-//W3C//DTD SVG 1.0//EN" "http://www.w3.org/TR/2001/REC-SVG-20010904/DTD/svg10.dtd">
<svg version="1.0" xmlns="http://www.w3.org/2000/svg" xmlns:xlink="http://www.w3.org/1999/xlink" x="0px" y="0px" width="1280px"
	 height="720px" viewBox="0 0 1280 720" enable-background="new 0 0 1280 720" xml:space="preserve">
<g id="margin">
</g>
<g id="Layer_2">
	<g id="outlines_1_">
		<g>
			<path d="M133.836,119.419v40.18h-22.754v-40.18H93.439v-17.425h57.966v17.425H133.836z"/>
			<path d="M187.258,159.599v-24.986c0-2.448-2.448-4.32-5.545-4.32c-3.023,0-5.544,1.872-5.544,4.32v24.986h-20.737v-57.605h20.737
				v20.162c2.593-2.952,7.993-5.904,14.689-5.904c10.368,0,16.777,4.824,17.065,12.673v30.675H187.258z"/>
			<path d="M264.011,140.95h-30.963c0.433,4.608,2.232,6.192,5.112,6.192c2.16,0,3.744-0.864,4.608-3.24h20.594
				c-2.88,9.505-12.745,16.562-25.202,16.562c-14.762,0-25.922-9.937-25.922-22.106s11.16-22.106,25.922-22.106
				c14.834,0,25.994,9.937,25.994,22.106C264.154,139.221,264.082,140.085,264.011,140.95z M238.16,129.645
				c-2.592,0-4.32,1.296-4.969,5.041h10.01C242.553,130.94,240.824,129.645,238.16,129.645z"/>
			<path d="M342.994,159.599h-15.77l-4.68-16.777l-5.185,16.777h-15.77l-16.417-42.484h20.09l4.752,18.794l5.545-18.794h13.753
				l5.544,18.794l5.473-18.794h18.074L342.994,159.599z"/>
			<path d="M382.812,160.463c-14.834,0-25.994-9.937-25.994-22.106s11.16-22.106,25.994-22.106c14.761,0,25.922,9.937,25.922,22.106
				S397.573,160.463,382.812,160.463z M382.812,129.645c-3.385,0-5.257,2.16-5.257,8.713c0,6.625,1.872,8.785,5.257,8.785
				c3.312,0,5.256-2.16,5.256-8.785C388.068,131.805,386.124,129.645,382.812,129.645z"/>
			<path d="M433.931,138.646v20.954h-20.665v-42.484h19.801l1.008,5.041c3.025-3.528,6.553-5.904,16.273-5.904v14.041
				C437.963,130.292,433.931,131.805,433.931,138.646z"/>
			<path d="M453.656,159.599v-57.605h20.666v57.605H453.656z"/>
			<path d="M511.69,159.599l-1.008-5.041c-2.593,2.952-5.833,5.833-12.601,5.833c-11.738,0-19.227-9.865-19.227-22.034
				s9.506-22.106,21.242-22.106c3.889,0,7.561,1.08,10.656,3.024v-17.281h20.738v57.605H511.69z M505.643,129.573
				c-3.385,0-6.121,2.16-6.121,8.785c0,6.552,2.736,8.712,6.121,8.712c3.384,0,6.12-2.16,6.12-8.712
				C511.763,131.733,509.026,129.573,505.643,129.573z"/>
			<path d="M556.471,113.587v-11.593h20.738v11.593H556.471z M556.471,159.599v-42.484h20.738v42.484H556.471z"/>
			<path d="M606.368,160.463c-14.113,0-25.418-6.193-25.418-14.833h17.642c0.504,2.88,3.168,4.608,6.984,4.608
				c4.104,0,5.904-1.08,5.904-2.592c0-4.896-29.738-1.008-29.738-16.706c0-7.057,7.849-14.689,24.266-14.689
				c13.609,0,23.187,6.625,23.187,14.041h-16.706c-0.504-3.456-3.816-4.608-6.553-4.608c-3.312,0-5.04,0.72-5.04,2.304
				c0,5.4,29.954,2.088,29.954,17.714C630.85,153.839,623.938,160.463,606.368,160.463z"/>
			<path d="M686.793,159.599l-1.009-5.041c-2.592,2.952-5.832,5.833-12.601,5.833c-11.737,0-19.226-9.865-19.226-22.034
				s9.505-22.106,21.241-22.106c3.889,0,7.562,1.08,10.657,3.024v-17.281h20.738v57.605H686.793z M680.744,129.573
				c-3.385,0-6.12,2.16-6.12,8.785c0,6.552,2.735,8.712,6.12,8.712s6.12-2.16,6.12-8.712
				C686.864,131.733,684.129,129.573,680.744,129.573z"/>
			<path d="M711.772,113.587v-11.593h20.738v11.593H711.772z M711.772,159.599v-42.484h20.738v42.484H711.772z"/>
			<path d="M770.238,159.599h-15.985l-19.873-42.484h21.529l8.425,22.106l8.064-22.106h17.498L770.238,159.599z"/>
			<path d="M791.763,113.587v-11.593h20.738v11.593H791.763z M791.763,159.599v-42.484h20.738v42.484H791.763z"/>
			<path d="M849.869,159.599l-1.009-5.041c-2.592,2.952-5.832,5.833-12.601,5.833c-11.737,0-19.226-9.865-19.226-22.034
				s9.505-22.106,21.241-22.106c3.889,0,7.562,1.08,10.657,3.024v-17.281h20.738v57.605H849.869z M843.82,129.573
				c-3.385,0-6.12,2.16-6.12,8.785c0,6.552,2.735,8.712,6.12,8.712s6.12-2.16,6.12-8.712
				C849.94,131.733,847.205,129.573,843.82,129.573z"/>
			<path d="M925.974,140.95h-30.963c0.432,4.608,2.232,6.192,5.112,6.192c2.16,0,3.744-0.864,4.608-3.24h20.594
				c-2.88,9.505-12.745,16.562-25.202,16.562c-14.761,0-25.922-9.937-25.922-22.106s11.161-22.106,25.922-22.106
				c14.833,0,25.994,9.937,25.994,22.106C926.117,139.221,926.046,140.085,925.974,140.95z M900.123,129.645
				c-2.592,0-4.32,1.296-4.968,5.041h10.009C904.516,130.94,902.787,129.645,900.123,129.645z"/>
			<path d="M962.836,159.599l-1.009-5.041c-2.592,2.952-5.832,5.833-12.601,5.833c-11.737,0-19.226-9.865-19.226-22.034
				s9.505-22.106,21.241-22.106c3.889,0,7.562,1.08,10.657,3.024v-17.281h20.738v57.605H962.836z M956.787,129.573
				c-3.385,0-6.12,2.16-6.12,8.785c0,6.552,2.735,8.712,6.12,8.712s6.12-2.16,6.12-8.712
				C962.907,131.733,960.172,129.573,956.787,129.573z"/>
			<path d="M94.592,199.987v-11.593h20.738v11.593H94.592z M94.592,245.999v-42.484h20.738v42.484H94.592z"/>
			<path d="M152.338,245.999v-24.986c0-2.448-2.448-4.32-5.545-4.32c-3.023,0-5.544,1.872-5.544,4.32v24.986h-20.737v-42.484h19.873
				l1.008,5.041c2.521-2.952,7.85-5.904,14.546-5.904c10.368,0,16.777,4.824,17.065,12.673v30.675H152.338z"/>
			<path d="M204.32,245.999c-12.816,0-19.082-5.977-19.082-14.617v-16.633h-8.424v-11.233h8.424v-8.064h20.738v8.064h10.081v11.233
				h-10.081v15.553c0,1.8,1.944,3.672,4.32,3.672h5.761v12.025H204.32z"/>
			<path d="M245.792,246.863c-14.833,0-25.994-9.937-25.994-22.106c0-12.169,11.161-22.106,25.994-22.106
				c14.761,0,25.923,9.937,25.923,22.106C271.715,236.926,260.553,246.863,245.792,246.863z M245.792,216.044
				c-3.384,0-5.257,2.16-5.257,8.713c0,6.625,1.873,8.785,5.257,8.785c3.312,0,5.257-2.16,5.257-8.785
				C251.049,218.205,249.104,216.044,245.792,216.044z"/>
			<path d="M322.399,245.999c-12.817,0-19.081-5.977-19.081-14.617v-16.633h-8.426v-11.233h8.426v-8.064h20.737v8.064h10.081v11.233
				h-10.081v15.553c0,1.8,1.944,3.672,4.32,3.672h5.761v12.025H322.399z"/>
			<path d="M393.033,245.999h-15.77l-4.68-16.777l-5.185,16.777h-15.77l-16.417-42.484h20.09l4.752,18.794l5.545-18.794h13.753
				l5.544,18.794l5.473-18.794h18.074L393.033,245.999z"/>
			<path d="M432.852,246.863c-14.834,0-25.994-9.937-25.994-22.106c0-12.169,11.16-22.106,25.994-22.106
				c14.761,0,25.922,9.937,25.922,22.106C458.773,236.926,447.612,246.863,432.852,246.863z M432.852,216.044
				c-3.385,0-5.257,2.16-5.257,8.713c0,6.625,1.872,8.785,5.257,8.785c3.312,0,5.256-2.16,5.256-8.785
				C438.107,218.205,436.163,216.044,432.852,216.044z"/>
			<path d="M508.378,246.791c-14.761,0-25.922-9.865-25.922-22.034c0-12.169,11.161-22.106,25.922-22.106
				c13.609,0,24.122,8.281,25.778,19.082H513.49c-0.504-4.249-2.304-5.76-5.112-5.76c-3.312,0-5.257,2.16-5.257,8.785
				s1.945,8.785,5.257,8.785c2.809,0,4.608-1.512,5.112-5.761h20.666C532.428,238.51,521.987,246.791,508.378,246.791z"/>
			<path d="M567.346,245.999l-1.224-3.672c-1.872,1.728-6.049,4.537-12.457,4.537c-9.865,0-17.282-4.969-17.282-11.809
				c0-10.009,11.81-12.025,29.523-14.761v-3.024c0-1.44-0.793-2.448-3.24-2.448c-2.305,0-3.024,1.008-3.024,2.448v1.44h-20.737v-1.8
				c0-7.417,10.584-14.257,24.481-14.257c13.825,0,23.258,7.561,23.258,14.977v18.578c0,4.393,0.72,7.849,1.944,9.793H567.346z
				 M565.906,227.637c-5.904,1.081-8.785,2.232-8.785,4.752c0,1.656,1.44,3.312,4.393,3.312s4.393-1.656,4.393-3.312V227.637z"/>
			<path d="M617.961,245.999c-12.816,0-19.082-5.977-19.082-14.617v-16.633h-8.424v-11.233h8.424v-8.064h20.738v8.064h10.081v11.233
				h-10.081v15.553c0,1.8,1.944,3.672,4.32,3.672h5.761v12.025H617.961z"/>
			<path d="M685.211,227.35h-30.963c0.432,4.608,2.232,6.192,5.112,6.192c2.16,0,3.744-0.864,4.608-3.24h20.594
				c-2.88,9.505-12.745,16.562-25.202,16.562c-14.761,0-25.922-9.937-25.922-22.106c0-12.169,11.161-22.106,25.922-22.106
				c14.833,0,25.994,9.937,25.994,22.106C685.354,225.621,685.283,226.485,685.211,227.35z M659.36,216.044
				c-2.592,0-4.32,1.296-4.968,5.041h10.009C663.753,217.34,662.024,216.044,659.36,216.044z"/>
			<path d="M740.723,209.132c-1.225,0-2.376-0.144-3.673-0.288c2.953,2.736,4.104,4.608,4.104,8.857
				c0,7.489-7.992,13.177-25.994,13.177h-3.528c-1.872,0-2.664,0.792-2.664,2.088c0,1.08,1.44,1.944,5.473,1.944
				c23.258,0,28.586,5.544,28.586,12.745c0,8.064-9.072,14.833-27.866,14.833c-17.93,0-27.146-4.392-27.146-12.313
				c0-3.816,2.881-6.84,7.489-7.92c-3.673-0.576-5.833-3.312-5.833-6.481c0-3.6,3.528-6.913,9.649-6.913
				c-6.337-1.008-10.081-5.833-10.081-10.729c0-9.793,10.369-15.481,25.922-15.481c2.305,0,5.041,0.216,6.48,0.216
				c7.921,0,9.505-1.224,9.505-3.024h17.714c0.432,0.936,0.648,2.448,0.648,3.24C749.508,206.251,745.763,209.132,740.723,209.132z
				 M715.448,243.767c-5.473,0-6.769,1.944-6.769,4.321c0,2.448,1.296,4.392,6.769,4.392s6.769-1.944,6.769-4.392
				C722.217,245.711,720.921,243.767,715.448,243.767z M715.16,212.588c-3.312,0-5.256,1.584-5.256,4.681s1.943,4.68,5.256,4.68
				c3.385,0,5.257-1.584,5.257-4.68S718.545,212.588,715.16,212.588z"/>
			<path d="M771.032,246.863c-14.833,0-25.994-9.937-25.994-22.106c0-12.169,11.161-22.106,25.994-22.106
				c14.761,0,25.922,9.937,25.922,22.106C796.954,236.926,785.793,246.863,771.032,246.863z M771.032,216.044
				c-3.385,0-5.257,2.16-5.257,8.713c0,6.625,1.872,8.785,5.257,8.785c3.312,0,5.257-2.16,5.257-8.785
				C776.289,218.205,774.345,216.044,771.032,216.044z"/>
			<path d="M822.151,225.045v20.954h-20.666v-42.484h19.802l1.009,5.041c3.024-3.528,6.552-5.904,16.273-5.904v14.041
				C826.184,216.692,822.151,218.205,822.151,225.045z"/>
			<path d="M841.877,199.987v-11.593h20.738v11.593H841.877z M841.877,245.999v-42.484h20.738v42.484H841.877z"/>
			<path d="M918.921,227.35h-30.963c0.432,4.608,2.232,6.192,5.112,6.192c2.16,0,3.744-0.864,4.608-3.24h20.594
				c-2.88,9.505-12.745,16.562-25.202,16.562c-14.761,0-25.922-9.937-25.922-22.106c0-12.169,11.161-22.106,25.922-22.106
				c14.833,0,25.994,9.937,25.994,22.106C919.064,225.621,918.993,226.485,918.921,227.35z M893.07,216.044
				c-2.592,0-4.32,1.296-4.968,5.041h10.009C897.463,217.34,895.734,216.044,893.07,216.044z"/>
			<path d="M947.574,246.863c-14.113,0-25.418-6.193-25.418-14.833h17.642c0.504,2.88,3.168,4.608,6.984,4.608
				c4.104,0,5.904-1.08,5.904-2.592c0-4.896-29.738-1.008-29.738-16.706c0-7.056,7.849-14.689,24.266-14.689
				c13.609,0,23.187,6.625,23.187,14.041h-16.706c-0.504-3.456-3.816-4.608-6.552-4.608c-3.312,0-5.041,0.72-5.041,2.304
				c0,5.4,29.955,2.088,29.955,17.714C972.057,240.238,965.144,246.863,947.574,246.863z"/>
			<path d="M976.012,219.213v-15.698h17.354v15.698H976.012z M976.012,245.999v-15.697h17.354v15.697H976.012z"/>
			<path d="M121.811,304.316v28.083h-20.738v-28.083h-7.633v-11.233h7.633v-3.672c0-8.641,6.266-14.617,19.082-14.617h11.305v12.025
				h-5.328c-2.376,0-4.32,1.872-4.32,3.672v2.592h9.648v11.233H121.811z"/>
			<path d="M164.506,332.399l-1.224-3.672c-1.872,1.728-6.049,4.537-12.457,4.537c-9.865,0-17.282-4.969-17.282-11.809
				c0-10.009,11.81-12.025,29.523-14.761v-3.024c0-1.44-0.793-2.448-3.24-2.448c-2.305,0-3.024,1.008-3.024,2.448v1.44h-20.737v-1.8
				c0-7.417,10.584-14.257,24.481-14.257c13.825,0,23.258,7.561,23.258,14.977v18.578c0,4.393,0.72,7.849,1.944,9.793H164.506z
				 M163.066,314.037c-5.904,1.08-8.785,2.232-8.785,4.752c0,1.656,1.44,3.312,4.393,3.312s4.393-1.656,4.393-3.312V314.037z"/>
			<path d="M188.768,286.387v-11.593h20.737v11.593H188.768z M188.768,332.399v-42.484h20.737v42.484H188.768z"/>
			<path d="M214.686,332.399v-57.605h20.666v57.605H214.686z"/>
			<path d="M273.008,332.399L272,327.358c-2.52,2.952-7.848,5.833-14.545,5.833c-10.369,0-16.777-4.752-17.138-12.601v-30.675
				h20.737v24.986c0,2.448,2.449,4.32,5.545,4.32c3.024,0,5.545-1.872,5.545-4.32v-24.986h20.666v42.484H273.008z"/>
			<path d="M318.654,311.445v20.954h-20.666v-42.484h19.803l1.008,5.041c3.023-3.528,6.553-5.904,16.273-5.904v14.041
				C322.688,303.092,318.654,304.604,318.654,311.445z"/>
			<path d="M389.504,313.75h-30.963c0.433,4.608,2.232,6.192,5.113,6.192c2.16,0,3.744-0.864,4.607-3.24h20.594
				c-2.879,9.505-12.744,16.562-25.201,16.562c-14.762,0-25.922-9.937-25.922-22.106s11.16-22.106,25.922-22.106
				c14.833,0,25.994,9.937,25.994,22.106C389.648,312.021,389.576,312.885,389.504,313.75z M363.654,302.444
				c-2.592,0-4.32,1.296-4.969,5.041h10.009C368.047,303.74,366.318,302.444,363.654,302.444z"/>
			<path d="M418.157,333.263c-14.113,0-25.418-6.193-25.418-14.833h17.642c0.504,2.88,3.168,4.608,6.984,4.608
				c4.104,0,5.904-1.08,5.904-2.592c0-4.896-29.738-1.008-29.738-16.706c0-7.057,7.849-14.689,24.266-14.689
				c13.609,0,23.187,6.625,23.187,14.041h-16.706c-0.504-3.456-3.816-4.608-6.553-4.608c-3.312,0-5.04,0.72-5.04,2.304
				c0,5.4,29.954,2.088,29.954,17.714C442.639,326.639,435.727,333.263,418.157,333.263z"/>
			<path d="M495.414,332.399l-1.225-3.672c-1.872,1.728-6.049,4.537-12.457,4.537c-9.865,0-17.281-4.969-17.281-11.809
				c0-10.009,11.809-12.025,29.521-14.761v-3.024c0-1.44-0.791-2.448-3.24-2.448c-2.304,0-3.023,1.008-3.023,2.448v1.44h-20.738
				v-1.8c0-7.417,10.586-14.257,24.482-14.257c13.825,0,23.258,7.561,23.258,14.977v18.578c0,4.393,0.721,7.849,1.944,9.793H495.414
				z M493.973,314.037c-5.904,1.08-8.784,2.232-8.784,4.752c0,1.656,1.44,3.312,4.393,3.312s4.392-1.656,4.392-3.312V314.037z"/>
			<path d="M551.501,332.399v-24.986c0-2.448-2.448-4.32-5.544-4.32c-3.025,0-5.545,1.872-5.545,4.32v24.986h-20.738v-42.484h19.874
				l1.009,5.041c2.52-2.952,7.848-5.904,14.545-5.904c10.369,0,16.777,4.824,17.065,12.673v30.675H551.501z"/>
			<path d="M609.316,332.399l-1.008-5.041c-2.593,2.952-5.833,5.833-12.602,5.833c-11.737,0-19.226-9.865-19.226-22.034
				s9.505-22.106,21.241-22.106c3.889,0,7.561,1.08,10.657,3.024v-17.281h20.737v57.605H609.316z M603.268,302.373
				c-3.385,0-6.121,2.16-6.121,8.785c0,6.552,2.736,8.712,6.121,8.712s6.121-2.16,6.121-8.712
				C609.389,304.533,606.652,302.373,603.268,302.373z"/>
			<path d="M127.066,418.799l-1.008-5.04c-2.52,2.952-7.848,5.832-14.545,5.832c-10.369,0-16.777-4.752-17.138-12.601v-30.675
				h20.737v24.986c0,2.448,2.449,4.32,5.545,4.32c3.024,0,5.545-1.872,5.545-4.32v-24.986h20.666v42.483H127.066z"/>
			<path d="M183.874,418.799v-24.986c0-2.448-2.448-4.32-5.544-4.32c-3.025,0-5.545,1.872-5.545,4.32v24.986h-20.738v-42.483h19.874
				l1.009,5.04c2.52-2.952,7.848-5.904,14.545-5.904c10.369,0,16.777,4.824,17.065,12.673v30.675H183.874z"/>
			<path d="M240.249,418.799l-8.064-13.682l-2.017,2.665v11.017h-20.666v-57.605h20.666v27.003l8.641-11.81h21.602l-13.033,17.138
				l14.906,25.274H240.249z"/>
			<path d="M295.977,418.799v-24.986c0-2.448-2.449-4.32-5.545-4.32c-3.024,0-5.545,1.872-5.545,4.32v24.986h-20.737v-42.483h19.874
				l1.008,5.04c2.52-2.952,7.849-5.904,14.545-5.904c10.369,0,16.777,4.824,17.066,12.673v30.675H295.977z"/>
			<path d="M346.951,419.663c-14.834,0-25.994-9.938-25.994-22.106s11.16-22.105,25.994-22.105c14.761,0,25.922,9.937,25.922,22.105
				S361.712,419.663,346.951,419.663z M346.951,388.844c-3.385,0-5.257,2.161-5.257,8.713c0,6.625,1.872,8.785,5.257,8.785
				c3.312,0,5.256-2.16,5.256-8.785C352.207,391.005,350.263,388.844,346.951,388.844z"/>
			<path d="M429.609,418.799h-15.77l-4.68-16.777l-5.185,16.777h-15.77l-16.417-42.483h20.09l4.752,18.793l5.545-18.793h13.753
				l5.544,18.793l5.473-18.793h18.074L429.609,418.799z"/>
			<path d="M479.072,418.799v-24.986c0-2.448-2.449-4.32-5.545-4.32c-3.024,0-5.545,1.872-5.545,4.32v24.986h-20.737v-42.483h19.874
				l1.008,5.04c2.52-2.952,7.849-5.904,14.545-5.904c10.369,0,16.777,4.824,17.066,12.673v30.675H479.072z"/>
			<path d="M528.678,419.663c-14.113,0-25.418-6.192-25.418-14.833h17.642c0.505,2.88,3.169,4.608,6.985,4.608
				c4.104,0,5.904-1.08,5.904-2.593c0-4.896-29.738-1.008-29.738-16.705c0-7.057,7.848-14.689,24.266-14.689
				c13.609,0,23.186,6.624,23.186,14.041h-16.705c-0.504-3.456-3.816-4.608-6.553-4.608c-3.312,0-5.041,0.72-5.041,2.305
				c0,5.4,29.955,2.088,29.955,17.713C553.16,413.038,546.248,419.663,528.678,419.663z"/>
			<path d="M557.115,418.799v-15.697h17.354v15.697H557.115z"/>
		</g>
	</g>
	<g id="livetype" display="none">
		<rect x="92" y="102" display="inline" fill="none" width="1040" height="499"/>
		<text transform="matrix(1 0 0 1 92 159.5991)" display="inline"><tspan x="0" y="0" font-family="'Champion-HTF-Heavyweight'" font-size="72">The world is divided </tspan><tspan x="0" y="86.4" font-family="'Champion-HTF-Heavyweight'" font-size="72">into two categories: </tspan><tspan x="0" y="172.8" font-family="'Champion-HTF-Heavyweight'" font-size="72">failures and </tspan><tspan x="0" y="259.2" font-family="'Champion-HTF-Heavyweight'" font-size="72">unknowns.</tspan></text>
	</g>
</g>
<g id="author">
	<g id="outlines">
		<g>
			<path d="M93.439,517.95h2.73v-17.64h-2.73v-1.05h13.59v4.38h-1.17v-3.33h-8.46v8.399h6.87v1.051h-6.87v8.189h2.94V519h-6.9
				V517.95z"/>
			<path d="M116.63,507.511c0,0.54-0.39,0.989-0.99,0.989c-0.54,0-1.02-0.449-1.05-0.989c-1.14,0.18-2.31,1.439-3.119,2.909v7.59
				h2.459V519h-5.76v-0.99h2.19v-10.499h-2.19v-0.99h3.24v2.79c0.93-1.65,2.46-3,3.75-3
				C116.12,506.311,116.63,506.881,116.63,507.511z"/>
			<path d="M118.43,515.641c0-2.25,1.95-3.75,4.649-3.75c1.44,0,3.091,0.359,3.99,0.72v-2.28c0-0.779-0.21-1.439-0.63-1.949
				c-0.57-0.66-1.56-1.11-2.939-1.11c-1.44,0-2.28,0.479-2.761,0.96c0.181,0.18,0.301,0.479,0.301,0.81c0,0.45-0.36,0.9-0.9,0.9
				c-0.6,0-0.96-0.45-0.96-1.021c0-1.17,1.59-2.609,4.41-2.609c1.649,0,2.939,0.479,3.689,1.35c0.57,0.63,0.87,1.471,0.87,2.49
				v7.859h2.16V519h-3.21v-1.89c-1.021,1.109-2.67,2.1-4.5,2.1C119.96,519.21,118.43,517.62,118.43,515.641z M127.069,516.061v-2.61
				c-1.14-0.36-2.58-0.63-3.93-0.63c-2.46,0-3.6,1.29-3.6,2.76c0,1.41,1.02,2.67,3.21,2.67
				C124.52,518.25,126.02,517.26,127.069,516.061z"/>
			<path d="M135.68,509.04c1.17-1.409,3-2.729,4.95-2.729c1.649,0,2.699,0.66,3.27,1.65c0.39,0.689,0.57,1.619,0.57,2.64v7.409
				h2.189V519h-5.46v-0.99h2.16v-7.26c0-0.84-0.09-1.529-0.36-2.069c-0.42-0.87-1.26-1.351-2.52-1.351c-1.83,0-3.51,1.23-4.739,2.73
				v7.949h2.159V519h-5.46v-0.99h2.19v-10.499h-2.19v-0.99h3.24V509.04z"/>
			<path d="M148.579,512.88c0-3.72,2.82-6.569,6.15-6.569c2.64,0,4.77,1.74,4.77,3.479c0,0.66-0.45,1.23-1.11,1.23
				c-0.42,0-0.869-0.271-0.869-0.9c0-0.42,0.239-0.75,0.72-0.96c-0.36-1.08-1.89-1.859-3.51-1.859c-2.49,0-5.01,2.13-5.01,5.609
				c0,3.15,2.279,5.31,5.459,5.31c1.381,0,2.7-0.42,4.05-1.319l-0.09,1.109c-1.17,0.811-2.76,1.2-4.079,1.2
				C151.369,519.21,148.579,516.63,148.579,512.88z"/>
			<path d="M162.109,518.01h2.34v-10.499h-2.34v-0.99h3.45v11.489h2.34V519h-5.79V518.01z M163.67,501.211
				c0-0.63,0.479-1.141,1.079-1.141c0.601,0,1.08,0.511,1.08,1.141c0,0.6-0.479,1.109-1.08,1.109
				C164.149,502.32,163.67,501.811,163.67,501.211z"/>
			<path d="M178.13,509.79c-0.54,0-0.931-0.42-0.931-0.93c0-0.21,0.061-0.51,0.301-0.78c-0.601-0.569-1.771-0.81-2.851-0.81
				c-2.04,0-3.3,1.08-3.3,2.37c0,1.439,1.561,1.859,3.66,2.399c2.25,0.57,4.439,1.26,4.439,3.69c0,2.1-2.01,3.479-4.709,3.479
				c-1.83,0-3.48-0.63-4.32-1.5c-0.36-0.36-0.57-0.78-0.57-1.29c0-0.569,0.391-1.02,0.9-1.02c0.57,0,0.93,0.39,0.93,0.899
				c0,0.33-0.12,0.601-0.359,0.78c0.39,0.57,1.739,1.17,3.39,1.17c2.279,0,3.659-1.02,3.659-2.49c0-1.649-1.649-2.159-3.6-2.64
				c-2.489-0.6-4.5-1.229-4.5-3.45c0-1.89,1.83-3.359,4.41-3.359c1.77,0,3.09,0.54,3.78,1.26c0.39,0.391,0.569,0.78,0.569,1.23
				C179.029,509.37,178.64,509.79,178.13,509.79z"/>
			<path d="M188.988,517.95h2.73v-17.64h-2.73v-1.05h7.29c4.11,0,7.08,2.46,7.08,6.03c0,3.749-2.73,6.119-7.02,6.119
				c-1.17,0-2.7-0.03-3.391-0.06v6.6h2.851V519h-6.811V517.95z M202.128,505.32c0-3-2.399-5.01-5.789-5.01h-3.391v9.99
				c0.75,0.029,2.221,0.06,3.42,0.06C200.059,510.36,202.128,508.381,202.128,505.32z"/>
			<path d="M205.309,512.88c0-3.72,2.82-6.569,6.15-6.569c2.64,0,4.77,1.74,4.77,3.479c0,0.66-0.45,1.23-1.11,1.23
				c-0.42,0-0.869-0.271-0.869-0.9c0-0.42,0.239-0.75,0.72-0.96c-0.36-1.08-1.891-1.859-3.51-1.859c-2.49,0-5.01,2.13-5.01,5.609
				c0,3.15,2.279,5.31,5.459,5.31c1.381,0,2.7-0.42,4.051-1.319l-0.091,1.109c-1.17,0.811-2.76,1.2-4.079,1.2
				C208.099,519.21,205.309,516.63,205.309,512.88z"/>
			<path d="M218.659,515.641c0-2.25,1.95-3.75,4.649-3.75c1.44,0,3.09,0.359,3.99,0.72v-2.28c0-0.779-0.21-1.439-0.63-1.949
				c-0.57-0.66-1.56-1.11-2.939-1.11c-1.44,0-2.28,0.479-2.761,0.96c0.181,0.18,0.301,0.479,0.301,0.81c0,0.45-0.36,0.9-0.9,0.9
				c-0.6,0-0.96-0.45-0.96-1.021c0-1.17,1.59-2.609,4.41-2.609c1.649,0,2.939,0.479,3.689,1.35c0.57,0.63,0.87,1.471,0.87,2.49
				v7.859h2.16V519h-3.21v-1.89c-1.021,1.109-2.67,2.1-4.5,2.1C220.189,519.21,218.659,517.62,218.659,515.641z M227.299,516.061
				v-2.61c-1.14-0.36-2.58-0.63-3.93-0.63c-2.46,0-3.6,1.29-3.6,2.76c0,1.41,1.02,2.67,3.21,2.67
				C224.749,518.25,226.249,517.26,227.299,516.061z"/>
			<path d="M234.799,517.44l-0.511,1.56h-0.6v-20.909h-2.189v-0.99h3.3V508.5c1.17-1.229,2.64-2.189,4.8-2.189
				c3.39,0,6.029,2.67,6.029,6.479c0,3.63-2.609,6.42-6.3,6.42C237.559,519.21,235.908,518.46,234.799,517.44z M244.458,512.79
				c0-3.21-2.01-5.489-4.979-5.489c-1.98,0-3.54,0.96-4.68,2.31v6.81c1.08,0.99,2.64,1.8,4.56,1.8
				C242.328,518.22,244.458,515.94,244.458,512.79z"/>
			<path d="M248.328,518.01h2.34v-10.499h-2.34v-0.99h3.45v11.489h2.34V519h-5.79V518.01z M249.889,501.211
				c0-0.63,0.479-1.141,1.079-1.141c0.601,0,1.08,0.511,1.08,1.141c0,0.6-0.479,1.109-1.08,1.109
				C250.368,502.32,249.889,501.811,249.889,501.211z"/>
			<path d="M256.099,515.641c0-2.25,1.95-3.75,4.649-3.75c1.44,0,3.09,0.359,3.99,0.72v-2.28c0-0.779-0.21-1.439-0.63-1.949
				c-0.57-0.66-1.56-1.11-2.939-1.11c-1.44,0-2.28,0.479-2.761,0.96c0.181,0.18,0.301,0.479,0.301,0.81c0,0.45-0.36,0.9-0.9,0.9
				c-0.6,0-0.96-0.45-0.96-1.021c0-1.17,1.59-2.609,4.41-2.609c1.649,0,2.939,0.479,3.689,1.35c0.57,0.63,0.87,1.471,0.87,2.49
				v7.859h2.16V519h-3.21v-1.89c-1.021,1.109-2.67,2.1-4.5,2.1C257.629,519.21,256.099,517.62,256.099,515.641z M264.738,516.061
				v-2.61c-1.14-0.36-2.58-0.63-3.93-0.63c-2.46,0-3.6,1.29-3.6,2.76c0,1.41,1.02,2.67,3.21,2.67
				C262.188,518.25,263.688,517.26,264.738,516.061z"/>
		</g>
	</g>
	<g id="livetype_1_" display="none">
		<text transform="matrix(1 0 0 1 92 519)" display="inline" font-family="'Archer-Light'" font-size="30">Francis Pcabia</text>
	</g>
</g>
</svg>
