<?xml version="1.0" encoding="utf-8"?>
<!-- Generator: Adobe Illustrator 15.0.0, SVG Export Plug-In . SVG Version: 6.00 Build 0)  -->
<!DOCTYPE svg PUBLIC "-//W3C//DTD SVG 1.1//EN" "http://www.w3.org/Graphics/SVG/1.1/DTD/svg11.dtd">
<svg version="1.1" id="Layer_1" xmlns="http://www.w3.org/2000/svg" xmlns:xlink="http://www.w3.org/1999/xlink" x="0px" y="0px"
	 width="1920px" height="1080px" viewBox="0 0 1920 1080" enable-background="new 0 0 1920 1080" xml:space="preserve">
<path d="M230.41,199.432v71.576h-40.533v-71.576h-31.429v-31.04h103.258v31.04H230.41z"/>
<path d="M325.575,271.007v-44.51c0-4.36-4.36-7.695-9.878-7.695c-5.385,0-9.876,3.335-9.876,7.695v44.51h-36.94V168.392h36.94
	v35.916c4.62-5.259,14.239-10.518,26.167-10.518c18.469,0,29.886,8.594,30.399,22.575v54.645L325.575,271.007L325.575,271.007z"/>
<path d="M462.3,237.787h-55.156c0.771,8.208,3.976,11.03,9.107,11.03c3.847,0,6.669-1.54,8.208-5.772h36.685
	c-5.13,16.933-22.703,29.503-44.894,29.503c-26.297,0-46.177-17.702-46.177-39.379c0-21.677,19.88-39.379,46.177-39.379
	c26.425,0,46.304,17.702,46.304,39.379C462.555,234.707,462.427,236.246,462.3,237.787z M416.25,217.647
	c-4.618,0-7.696,2.309-8.852,8.98h17.832C424.076,219.956,420.996,217.647,416.25,217.647z"/>
<path d="M602.999,271.007h-28.093l-8.337-29.887l-9.236,29.887h-28.092l-29.245-75.679h35.789l8.465,33.479l9.877-33.479h24.5
	l9.875,33.479l9.75-33.479h32.196L602.999,271.007z"/>
<path d="M673.929,272.546c-26.424,0-46.305-17.702-46.305-39.379s19.881-39.378,46.305-39.378c26.295,0,46.178,17.701,46.178,39.378
	C720.106,254.844,700.224,272.546,673.929,272.546z M673.929,217.647c-6.03,0-9.364,3.848-9.364,15.521
	c0,11.802,3.335,15.649,9.364,15.649c5.9,0,9.363-3.848,9.363-15.649C683.292,221.497,679.829,217.647,673.929,217.647z"/>
<path d="M764.99,233.683v37.327h-36.812v-75.68h35.276l1.795,8.98c5.386-6.286,11.672-10.518,28.985-10.518v25.013
	C772.173,218.8,764.99,221.497,764.99,233.683z"/>
<path d="M800.129,271.007V168.392h36.813v102.616H800.129z"/>
<path d="M903.509,271.007l-1.798-8.979c-4.619,5.257-10.391,10.39-22.447,10.39c-20.91,0-34.253-17.573-34.253-39.251
	c0-21.677,16.938-39.378,37.84-39.378c6.932,0,13.473,1.923,18.983,5.387v-30.784h36.942v102.615H903.509z M892.736,217.521
	c-6.03,0-10.902,3.847-10.902,15.649c0,11.672,4.873,15.52,10.902,15.52c6.03,0,10.901-3.848,10.901-15.52
	C903.638,221.368,898.763,217.521,892.736,217.521z"/>
<path d="M983.278,189.042v-20.651h36.943v20.651H983.278z M983.278,271.007v-75.679h36.943v75.679H983.278z"/>
<path d="M1072.165,272.546c-25.141,0-45.278-11.032-45.278-26.423h31.426c0.897,5.13,5.645,8.208,12.442,8.208
	c7.311,0,10.518-1.923,10.518-4.617c0-8.722-52.976-1.795-52.976-29.759c0-12.572,13.981-26.167,43.228-26.167
	c24.242,0,41.308,11.801,41.308,25.012h-29.76c-0.897-6.156-6.799-8.209-11.678-8.209c-5.898,0-8.977,1.282-8.977,4.105
	c0,9.619,53.357,3.72,53.357,31.555C1115.775,260.747,1103.463,272.546,1072.165,272.546z"/>
<path d="M1215.432,271.007l-1.797-8.979c-4.617,5.257-10.39,10.39-22.45,10.39c-20.904,0-34.247-17.573-34.247-39.251
	c0-21.677,16.933-39.378,37.839-39.378c6.927,0,13.47,1.923,18.983,5.387v-30.784h36.939v102.615H1215.432z M1204.657,217.521
	c-6.03,0-10.903,3.847-10.903,15.649c0,11.672,4.873,15.52,10.903,15.52c6.027,0,10.9-3.848,10.9-15.52
	C1215.559,221.368,1210.686,217.521,1204.657,217.521z"/>
<path d="M1259.928,189.042v-20.651h36.941v20.651H1259.928z M1259.928,271.007v-75.679h36.941v75.679H1259.928z"/>
<path d="M1364.078,271.007h-28.477l-35.4-75.679h38.353l15.009,39.378l14.363-39.378h31.172L1364.078,271.007z"/>
<path d="M1402.422,189.042v-20.651h36.942v20.651H1402.422z M1402.422,271.007v-75.679h36.942v75.679H1402.422z"/>
<path d="M1505.931,271.007l-1.798-8.979c-4.62,5.257-10.388,10.39-22.449,10.39c-20.905,0-34.248-17.573-34.248-39.251
	c0-21.677,16.933-39.378,37.84-39.378c6.927,0,13.47,1.923,18.98,5.387v-30.784h36.942v102.615H1505.931z M1495.155,217.521
	c-6.031,0-10.901,3.847-10.901,15.649c0,11.672,4.87,15.52,10.901,15.52c6.028,0,10.899-3.848,10.899-15.52
	C1506.056,221.368,1501.186,217.521,1495.155,217.521z"/>
<path d="M1641.501,237.787h-55.157c0.773,8.208,3.979,11.03,9.107,11.03c3.849,0,6.67-1.54,8.207-5.772h36.688
	c-5.13,16.933-22.703,29.503-44.895,29.503c-26.294,0-46.177-17.702-46.177-39.379c0-21.677,19.883-39.379,46.177-39.379
	c26.423,0,46.306,17.702,46.306,39.379C1641.757,234.707,1641.63,236.246,1641.501,237.787z M1595.451,217.647
	c-4.617,0-7.696,2.309-8.85,8.98h17.829C1603.276,219.956,1600.197,217.647,1595.451,217.647z"/>
<path d="M1707.166,271.007l-1.797-8.979c-4.617,5.257-10.389,10.39-22.447,10.39c-20.908,0-34.251-17.573-34.251-39.251
	c0-21.677,16.933-39.378,37.839-39.378c6.928,0,13.471,1.923,18.984,5.387v-30.784h36.938v102.615H1707.166z M1696.392,217.521
	c-6.029,0-10.902,3.847-10.902,15.649c0,11.672,4.873,15.52,10.902,15.52s10.901-3.848,10.901-15.52
	C1707.293,221.368,1702.421,217.521,1696.392,217.521z"/>
<path d="M160.502,342.954v-20.651h36.942v20.651H160.502z M160.502,424.917v-75.679h36.942v75.679H160.502z"/>
<path d="M263.369,424.917v-44.509c0-4.361-4.36-7.696-9.877-7.696c-5.385,0-9.876,3.335-9.876,7.696v44.509h-36.94v-75.679h35.4
	l1.796,8.979c4.491-5.259,13.984-10.518,25.912-10.518c18.47,0,29.886,8.594,30.399,22.576v54.643L263.369,424.917L263.369,424.917z
	"/>
<path d="M355.968,424.917c-22.83,0-33.992-10.647-33.992-26.039V369.25H306.97v-20.01h15.006v-14.365h36.943v14.365h17.958v20.01
	h-17.958v27.705c0,3.207,3.462,6.542,7.695,6.542h10.263v21.421H355.968L355.968,424.917z"/>
<path d="M429.846,426.457c-26.423,0-46.306-17.702-46.306-39.379c0-21.677,19.883-39.379,46.306-39.379
	c26.295,0,46.178,17.702,46.178,39.379C476.024,408.754,456.141,426.457,429.846,426.457z M429.846,371.557
	c-6.028,0-9.365,3.848-9.365,15.521c0,11.802,3.337,15.65,9.365,15.65c5.9,0,9.364-3.848,9.364-15.65
	C439.21,375.407,435.746,371.557,429.846,371.557z"/>
<path d="M566.311,424.917c-22.832,0-33.99-10.647-33.99-26.039V369.25h-15.01v-20.01h15.01v-14.365h36.94v14.365h17.958v20.01
	h-17.958v27.705c0,3.207,3.463,6.542,7.695,6.542h10.262v21.421H566.311L566.311,424.917z"/>
<path d="M692.137,424.917h-28.092l-8.337-29.886l-9.236,29.886H618.38l-29.245-75.679h35.788l8.466,33.479l9.877-33.479h24.5
	l9.875,33.479l9.75-33.479h32.196L692.137,424.917z"/>
<path d="M763.068,426.457c-26.426,0-46.302-17.702-46.302-39.379c0-21.677,19.876-39.379,46.302-39.379
	c26.298,0,46.18,17.702,46.18,39.379C809.244,408.754,789.362,426.457,763.068,426.457z M763.068,371.557
	c-6.03,0-9.364,3.848-9.364,15.521c0,11.802,3.334,15.65,9.364,15.65c5.9,0,9.365-3.848,9.365-15.65
	C772.431,375.407,768.967,371.557,763.068,371.557z"/>
<path d="M897.608,426.329c-26.294,0-46.177-17.573-46.177-39.251c0-21.677,19.883-39.379,46.177-39.379
	c24.243,0,42.971,14.752,45.921,33.993h-36.814c-0.896-7.569-4.106-10.261-9.106-10.261c-5.899,0-9.364,3.847-9.364,15.649
	c0,11.802,3.465,15.649,9.364,15.649c5.005,0,8.21-2.693,9.106-10.262h36.814C940.45,411.577,921.852,426.329,897.608,426.329z"/>
<path d="M1002.652,424.917l-2.182-6.541c-3.334,3.079-10.774,8.083-22.189,8.083c-17.573,0-30.786-8.853-30.786-21.037
	c0-17.83,21.041-21.421,52.593-26.295v-5.387c0-2.565-1.413-4.361-5.771-4.361c-4.105,0-5.387,1.796-5.387,4.361v2.565H951.99V373.1
	c0-13.212,18.854-25.398,43.606-25.398c24.628,0,41.434,13.469,41.434,26.68v33.095c0,7.826,1.284,13.982,3.462,17.445h-37.84
	V424.917L1002.652,424.917z M1000.088,392.208c-10.518,1.925-15.65,3.976-15.65,8.465c0,2.949,2.564,5.9,7.825,5.9
	c5.264,0,7.828-2.951,7.828-5.9L1000.088,392.208L1000.088,392.208z"/>
<path d="M1092.815,424.917c-22.83,0-33.991-10.647-33.991-26.039V369.25h-15.006v-20.01h15.006v-14.365h36.941v14.365h17.958v20.01
	h-17.958v27.705c0,3.207,3.46,6.542,7.696,6.542h10.262v21.421H1092.815L1092.815,424.917z"/>
<path d="M1212.613,391.697h-55.156c0.769,8.209,3.977,11.03,9.107,11.03c3.844,0,6.664-1.539,8.204-5.772h36.687
	c-5.131,16.933-22.7,29.504-44.891,29.504c-26.3,0-46.18-17.704-46.18-39.38c0-21.676,19.88-39.379,46.18-39.379
	c26.422,0,46.301,17.702,46.301,39.379C1212.867,388.617,1212.742,390.156,1212.613,391.697z M1166.564,371.557
	c-4.621,0-7.696,2.309-8.854,8.98h17.832C1174.389,373.866,1171.31,371.557,1166.564,371.557z"/>
<path d="M1311.501,359.244c-2.183,0-4.233-0.257-6.544-0.514c5.261,4.875,7.312,8.21,7.312,15.779
	c0,13.34-14.236,23.472-46.305,23.472h-6.286c-3.335,0-4.745,1.411-4.745,3.72c0,1.924,2.565,3.463,9.752,3.463
	c41.432,0,50.923,9.876,50.923,22.703c0,14.365-16.161,26.423-49.641,26.423c-31.938,0-48.357-7.823-48.357-21.934
	c0-6.797,5.135-12.184,13.342-14.108c-6.544-1.026-10.393-5.9-10.393-11.545c0-6.413,6.285-12.314,17.189-12.314
	c-11.288-1.795-17.958-10.391-17.958-19.112c0-17.445,18.472-27.578,46.177-27.578c4.104,0,8.979,0.386,11.54,0.386
	c14.112,0,16.935-2.181,16.935-5.388h31.557c0.77,1.667,1.152,4.361,1.152,5.771C1327.15,354.111,1320.479,359.244,1311.501,359.244
	z M1266.479,420.941c-9.753,0-12.062,3.462-12.062,7.697c0,4.361,2.31,7.824,12.062,7.824c9.748,0,12.058-3.462,12.058-7.824
	C1278.535,424.404,1276.227,420.941,1266.479,420.941z M1265.965,365.4c-5.9,0-9.364,2.821-9.364,8.338
	c0,5.518,3.459,8.337,9.364,8.337c6.028,0,9.363-2.822,9.363-8.337C1275.328,368.224,1271.993,365.4,1265.965,365.4z"/>
<path d="M1365.492,426.457c-26.422,0-46.306-17.702-46.306-39.379c0-21.677,19.884-39.379,46.306-39.379
	c26.295,0,46.177,17.702,46.177,39.379C1411.669,408.754,1391.787,426.457,1365.492,426.457z M1365.492,371.557
	c-6.03,0-9.364,3.848-9.364,15.521c0,11.802,3.332,15.65,9.364,15.65c5.899,0,9.365-3.848,9.365-15.65
	C1374.857,375.407,1371.395,371.557,1365.492,371.557z"/>
<path d="M1456.555,387.59v37.327h-36.812v-75.679h35.273l1.798,8.979c5.387-6.285,11.672-10.518,28.987-10.518v25.012
	C1463.738,372.71,1456.555,375.407,1456.555,387.59z"/>
<path d="M1491.693,342.954v-20.651h36.941v20.651H1491.693z M1491.693,424.917v-75.679h36.941v75.679H1491.693z"/>
<path d="M1628.938,391.697h-55.155c0.769,8.209,3.975,11.03,9.105,11.03c3.849,0,6.67-1.539,8.206-5.772h36.688
	c-5.132,16.933-22.702,29.504-44.894,29.504c-26.298,0-46.177-17.704-46.177-39.38c0-21.676,19.879-39.379,46.177-39.379
	c26.425,0,46.306,17.702,46.306,39.379C1629.192,388.617,1629.066,390.156,1628.938,391.697z M1582.888,371.557
	c-4.616,0-7.696,2.309-8.853,8.98h17.833C1590.712,373.866,1587.633,371.557,1582.888,371.557z"/>
<path d="M1679.979,426.457c-25.142,0-45.277-11.032-45.277-26.423h31.426c0.898,5.131,5.643,8.209,12.441,8.209
	c7.311,0,10.517-1.924,10.517-4.618c0-8.722-52.974-1.795-52.974-29.759c0-12.569,13.98-26.167,43.227-26.167
	c24.243,0,41.308,11.802,41.308,25.013h-29.761c-0.896-6.157-6.798-8.208-11.674-8.208c-5.899,0-8.979,1.283-8.979,4.104
	c0,9.619,53.359,3.719,53.359,31.555C1723.591,414.654,1711.278,426.457,1679.979,426.457z"/>
<path d="M1730.637,377.202v-27.963h30.915v27.963H1730.637z M1730.637,424.917v-27.962h30.915v27.962H1730.637z"/>
<path d="M208.99,528.801v50.027h-36.942v-50.027H158.45v-20.009h13.598v-6.542c0-15.393,11.161-26.039,33.991-26.039h20.139v21.421
	h-9.491c-4.232,0-7.695,3.334-7.695,6.542v4.617h17.187V528.8L208.99,528.801L208.99,528.801z"/>
<path d="M285.045,578.828l-2.18-6.543c-3.335,3.08-10.776,8.082-22.19,8.082c-17.574,0-30.787-8.854-30.787-21.035
	c0-17.83,21.039-21.422,52.592-26.295v-5.388c0-2.565-1.413-4.36-5.771-4.36c-4.106,0-5.387,1.795-5.387,4.36v2.564h-36.94v-3.206
	c0-13.212,18.854-25.396,43.609-25.396c24.628,0,41.432,13.469,41.432,26.679v33.095c0,7.824,1.282,13.982,3.463,17.445h-37.84
	L285.045,578.828L285.045,578.828z M282.48,546.117c-10.517,1.926-15.65,3.975-15.65,8.467c0,2.949,2.566,5.898,7.826,5.898
	c5.261,0,7.826-2.947,7.826-5.898L282.48,546.117L282.48,546.117z"/>
<path d="M328.265,496.865v-20.652h36.94v20.652H328.265z M328.265,578.828v-75.679h36.94v75.679H328.265z"/>
<path d="M374.435,578.828V476.211h36.814v102.617H374.435z"/>
<path d="M478.327,578.828l-1.795-8.979c-4.489,5.256-13.98,10.391-25.91,10.391c-18.472,0-29.887-8.465-30.529-22.449v-54.643h36.94
	v44.51c0,4.357,4.362,7.691,9.878,7.691c5.386,0,9.877-3.334,9.877-7.691v-44.51h36.814v75.68H478.327L478.327,578.828z"/>
<path d="M559.639,541.502v37.326h-36.813v-75.679h35.277l1.795,8.979c5.385-6.285,11.674-10.518,28.989-10.518v25.012
	C566.826,526.622,559.639,529.315,559.639,541.502z"/>
<path d="M685.85,545.607h-55.156c0.771,8.209,3.976,11.031,9.108,11.031c3.848,0,6.669-1.541,8.207-5.771h36.686
	c-5.129,16.93-22.702,29.502-44.893,29.502c-26.296,0-46.177-17.701-46.177-39.377c0-21.675,19.881-39.379,46.177-39.379
	c26.423,0,46.305,17.702,46.305,39.379C686.106,542.527,685.979,544.066,685.85,545.607z M639.801,525.466
	c-4.617,0-7.695,2.31-8.852,8.982h17.83C647.627,527.776,644.547,525.466,639.801,525.466z"/>
<path d="M736.892,580.367c-25.141,0-45.279-11.029-45.279-26.424h31.426c0.898,5.131,5.644,8.211,12.442,8.211
	c7.31,0,10.516-1.928,10.516-4.619c0-8.723-52.973-1.797-52.973-29.759c0-12.571,13.981-26.167,43.226-26.167
	c24.243,0,41.307,11.802,41.307,25.012h-29.76c-0.896-6.157-6.798-8.208-11.676-8.208c-5.899,0-8.979,1.283-8.979,4.104
	c0,9.617,53.359,3.72,53.359,31.556C780.502,568.566,768.189,580.367,736.892,580.367z"/>
<path d="M874.515,578.828l-2.182-6.543c-3.335,3.08-10.779,8.082-22.19,8.082c-17.573,0-30.784-8.854-30.784-21.035
	c0-17.83,21.035-21.422,52.587-26.295v-5.388c0-2.565-1.409-4.36-5.77-4.36c-4.106,0-5.386,1.795-5.386,4.36v2.564h-36.942v-3.206
	c0-13.212,18.857-25.396,43.612-25.396c24.627,0,41.431,13.469,41.431,26.679v33.095c0,7.824,1.284,13.982,3.463,17.445h-37.838
	L874.515,578.828L874.515,578.828L874.515,578.828z M871.947,546.117c-10.515,1.926-15.646,3.975-15.646,8.467
	c0,2.949,2.562,5.898,7.825,5.898c5.262,0,7.823-2.947,7.823-5.898L871.947,546.117L871.947,546.117z"/>
<path d="M974.427,578.828v-44.509c0-4.361-4.361-7.696-9.877-7.696c-5.389,0-9.877,3.335-9.877,7.696v44.509H917.73v-75.679h35.402
	l1.797,8.979c4.492-5.259,13.983-10.518,25.91-10.518c18.472,0,29.887,8.593,30.399,22.576v54.643L974.427,578.828L974.427,578.828z
	"/>
<path d="M1077.417,578.828l-1.799-8.979c-4.618,5.256-10.392,10.391-22.448,10.391c-20.908,0-34.249-17.574-34.249-39.25
	c0-21.679,16.933-39.38,37.837-39.38c6.932,0,13.472,1.924,18.984,5.387v-30.784h36.939V578.83h-35.265V578.828z M1066.642,525.34
	c-6.028,0-10.899,3.849-10.899,15.65c0,11.672,4.871,15.52,10.899,15.52c6.033,0,10.904-3.848,10.904-15.52
	C1077.546,529.189,1072.671,525.34,1066.642,525.34z"/>
<path d="M218.351,732.737l-1.795-8.979c-4.489,5.258-13.98,10.389-25.91,10.389c-18.471,0-29.887-8.465-30.529-22.445v-54.646h36.94
	v44.51c0,4.359,4.362,7.694,9.878,7.694c5.387,0,9.877-3.335,9.877-7.694v-44.51h36.814v75.677L218.351,732.737L218.351,732.737z"/>
<path d="M319.546,732.737v-44.505c0-4.361-4.361-7.697-9.875-7.697c-5.389,0-9.878,3.336-9.878,7.697v44.505h-36.942v-75.677h35.403
	l1.798,8.98c4.489-5.26,13.979-10.52,25.91-10.52c18.47,0,29.886,8.594,30.399,22.574v54.642H319.546L319.546,732.737z"/>
<path d="M419.972,732.737l-14.365-24.37l-3.593,4.745v19.625H365.2V630.125h36.813v48.102l15.393-21.039h38.481l-23.217,30.529
	l26.553,45.022h-39.251V732.737z"/>
<path d="M519.244,732.737v-44.505c0-4.361-4.363-7.697-9.877-7.697c-5.387,0-9.878,3.336-9.878,7.697v44.505h-36.94v-75.677h35.403
	l1.796,8.98c4.488-5.26,13.981-10.52,25.91-10.52c18.471,0,29.886,8.594,30.401,22.574v54.642H519.244L519.244,732.737z"/>
<path d="M610.047,734.276c-26.425,0-46.305-17.703-46.305-39.378c0-21.678,19.88-39.375,46.305-39.375
	c26.294,0,46.177,17.699,46.177,39.375C656.224,716.573,636.342,734.276,610.047,734.276z M610.047,679.377
	c-6.03,0-9.365,3.852-9.365,15.521c0,11.801,3.335,15.647,9.365,15.647c5.9,0,9.363-3.849,9.363-15.647
	C619.41,683.227,615.947,679.377,610.047,679.377z"/>
<path d="M757.292,732.737h-28.095l-8.336-29.882l-9.239,29.882H683.53l-29.245-75.677h35.787l8.465,33.48l9.877-33.48h24.499
	l9.876,33.48l9.752-33.48h32.193L757.292,732.737z"/>
<path d="M845.404,732.737v-44.505c0-4.361-4.363-7.697-9.877-7.697c-5.389,0-9.877,3.336-9.877,7.697v44.505h-36.94v-75.677h35.403
	l1.795,8.98c4.489-5.26,13.98-10.52,25.91-10.52c18.471,0,29.887,8.594,30.401,22.574v54.642H845.404L845.404,732.737z"/>
<path d="M933.77,734.276c-25.137,0-45.278-11.031-45.278-26.423h31.43c0.9,5.132,5.646,8.206,12.44,8.206
	c7.312,0,10.518-1.92,10.518-4.617c0-8.724-52.975-1.797-52.975-29.759c0-12.57,13.982-26.166,43.229-26.166
	c24.24,0,41.303,11.803,41.303,25.014h-29.76c-0.896-6.156-6.795-8.209-11.673-8.209c-5.899,0-8.979,1.281-8.979,4.109
	c0,9.615,53.36,3.721,53.36,31.555C977.382,722.476,965.069,734.276,933.77,734.276z"/>
<path d="M984.427,732.737v-27.962h30.914v27.962H984.427z"/>
<g id="author">
	<g id="outlines">
		<g>
			<path d="M158.449,909.362h4.863v-31.424h-4.863v-1.869h24.208v7.803h-2.084v-5.934h-15.071v14.963h12.239v1.871h-12.239v14.588
				h5.237v1.873h-12.291L158.449,909.362L158.449,909.362z"/>
			<path d="M199.76,890.767c0,0.961-0.694,1.764-1.763,1.764c-0.962,0-1.817-0.803-1.871-1.764c-2.03,0.324-4.115,2.564-5.555,5.184
				v13.52h4.38v1.766H184.69v-1.766h3.901v-18.701h-3.901v-1.762h5.772v4.967c1.656-2.938,4.382-5.344,6.68-5.344
				C198.852,888.63,199.76,889.644,199.76,890.767z"/>
			<path d="M202.967,905.249c0-4.008,3.473-6.68,8.281-6.68c2.565,0,5.506,0.641,7.107,1.285v-4.062
				c0-1.389-0.375-2.564-1.123-3.473c-1.015-1.178-2.779-1.979-5.235-1.979c-2.565,0-4.061,0.855-4.919,1.713
				c0.323,0.32,0.537,0.854,0.537,1.443c0,0.801-0.641,1.602-1.603,1.602c-1.069,0-1.71-0.801-1.71-1.818
				c0-2.084,2.833-4.646,7.855-4.646c2.938,0,5.235,0.854,6.572,2.406c1.016,1.123,1.55,2.619,1.55,4.438v13.994h3.848v1.762h-5.718
				v-3.367c-1.819,1.973-4.756,3.74-8.016,3.74C205.692,911.606,202.967,908.774,202.967,905.249z M218.356,905.997v-4.646
				c-2.031-0.643-4.596-1.123-7-1.123c-4.382,0-6.413,2.299-6.413,4.916c0,2.514,1.817,4.758,5.718,4.758
				C213.815,909.897,216.487,908.134,218.356,905.997z"/>
			<path d="M233.696,893.491c2.084-2.512,5.344-4.861,8.817-4.861c2.938,0,4.809,1.174,5.825,2.939
				c0.695,1.229,1.016,2.885,1.016,4.701v13.197h3.899v1.766h-9.727v-1.766h3.848v-12.932c0-1.496-0.16-2.727-0.642-3.688
				c-0.748-1.549-2.245-2.404-4.489-2.404c-3.26,0-6.253,2.188-8.441,4.859v14.16h3.846v1.768h-9.727v-1.764h3.901v-18.703h-3.901
				v-1.76h5.772L233.696,893.491L233.696,893.491z"/>
			<path d="M256.673,900.331c0-6.625,5.023-11.701,10.956-11.701c4.703,0,8.497,3.098,8.497,6.197c0,1.176-0.802,2.188-1.977,2.188
				c-0.749,0-1.548-0.48-1.548-1.602c0-0.748,0.425-1.336,1.283-1.709c-0.642-1.924-3.367-3.312-6.253-3.312
				c-4.435,0-8.924,3.795-8.924,9.992c0,5.611,4.06,9.459,9.725,9.459c2.46,0,4.809-0.748,7.214-2.348l-0.16,1.973
				c-2.084,1.447-4.917,2.139-7.266,2.139C261.644,911.606,256.673,907.013,256.673,900.331z"/>
			<path d="M280.775,909.47h4.169v-18.703h-4.169v-1.76h6.146v20.463h4.168v1.766h-10.314V909.47z M283.556,879.546
				c0-1.123,0.854-2.033,1.922-2.033c1.071,0,1.924,0.91,1.924,2.033c0,1.066-0.853,1.977-1.924,1.977
				C284.409,881.521,283.556,880.612,283.556,879.546z"/>
			<path d="M309.314,894.827c-0.962,0-1.658-0.748-1.658-1.656c0-0.373,0.107-0.91,0.535-1.391c-1.07-1.014-3.155-1.445-5.079-1.445
				c-3.634,0-5.878,1.926-5.878,4.221c0,2.566,2.781,3.314,6.52,4.275c4.008,1.018,7.908,2.244,7.908,6.57
				c0,3.744-3.581,6.197-8.389,6.197c-3.259,0-6.199-1.121-7.695-2.672c-0.641-0.641-1.015-1.389-1.015-2.299
				c0-1.012,0.697-1.814,1.603-1.814c1.015,0,1.657,0.693,1.657,1.6c0,0.588-0.214,1.072-0.64,1.391
				c0.695,1.016,3.098,2.084,6.039,2.084c4.06,0,6.519-1.818,6.519-4.438c0-2.936-2.938-3.846-6.414-4.701
				c-4.434-1.072-8.016-2.189-8.016-6.146c0-3.365,3.26-5.982,7.856-5.982c3.155,0,5.504,0.963,6.733,2.248
				c0.695,0.693,1.013,1.385,1.013,2.188C310.916,894.079,310.223,894.827,309.314,894.827z"/>
			<path d="M328.656,909.362h4.863v-31.424h-4.863v-1.869h12.986c7.322,0,12.612,4.381,12.612,10.74c0,6.68-4.863,10.9-12.505,10.9
				c-2.084,0-4.809-0.053-6.041-0.109v11.76h5.079v1.873h-12.133L328.656,909.362L328.656,909.362z M352.064,886.864
				c0-5.344-4.273-8.928-10.312-8.928h-6.04v17.797c1.336,0.053,3.956,0.109,6.092,0.109
				C348.378,895.845,352.064,892.317,352.064,886.864z"/>
			<path d="M357.73,900.331c0-6.625,5.023-11.701,10.955-11.701c4.704,0,8.497,3.098,8.497,6.197c0,1.176-0.802,2.188-1.977,2.188
				c-0.748,0-1.548-0.48-1.548-1.602c0-0.748,0.425-1.336,1.283-1.709c-0.643-1.924-3.369-3.312-6.253-3.312
				c-4.435,0-8.924,3.795-8.924,9.992c0,5.611,4.059,9.459,9.724,9.459c2.46,0,4.809-0.748,7.216-2.348l-0.162,1.973
				c-2.084,1.447-4.917,2.139-7.267,2.139C362.701,911.606,357.73,907.013,357.73,900.331z"/>
			<path d="M381.512,905.249c0-4.008,3.473-6.68,8.281-6.68c2.565,0,5.504,0.641,7.107,1.285v-4.062
				c0-1.389-0.374-2.564-1.123-3.473c-1.015-1.178-2.779-1.979-5.235-1.979c-2.565,0-4.061,0.855-4.919,1.713
				c0.323,0.32,0.537,0.854,0.537,1.443c0,0.801-0.642,1.602-1.604,1.602c-1.069,0-1.71-0.801-1.71-1.818
				c0-2.084,2.832-4.646,7.855-4.646c2.937,0,5.235,0.854,6.571,2.406c1.016,1.123,1.55,2.619,1.55,4.438v13.994h3.848v1.762h-5.718
				v-3.367c-1.819,1.973-4.757,3.74-8.017,3.74C384.237,911.606,381.512,908.774,381.512,905.249z M396.902,905.997v-4.646
				c-2.03-0.643-4.596-1.123-7-1.123c-4.382,0-6.413,2.299-6.413,4.916c0,2.514,1.817,4.758,5.718,4.758
				C392.36,909.897,395.032,908.134,396.902,905.997z"/>
			<path d="M410.263,908.456l-0.91,2.777h-1.069v-37.248h-3.899v-1.764h5.878v20.307c2.084-2.188,4.703-3.898,8.551-3.898
				c6.038,0,10.739,4.758,10.739,11.541c0,6.467-4.647,11.438-11.222,11.438C415.18,911.606,412.239,910.271,410.263,908.456z
				 M427.469,900.171c0-5.717-3.58-9.779-8.869-9.779c-3.527,0-6.306,1.711-8.337,4.117v12.131c1.924,1.768,4.703,3.207,8.123,3.207
				C423.675,909.845,427.469,905.782,427.469,900.171z"/>
			<path d="M434.363,909.47h4.168v-18.703h-4.168v-1.76h6.146v20.463h4.168v1.766h-10.314V909.47z M437.144,879.546
				c0-1.123,0.854-2.033,1.921-2.033c1.071,0,1.924,0.91,1.924,2.033c0,1.066-0.853,1.977-1.924,1.977
				C437.998,881.521,437.144,880.612,437.144,879.546z"/>
			<path d="M448.206,905.249c0-4.008,3.474-6.68,8.282-6.68c2.565,0,5.504,0.641,7.107,1.285v-4.062
				c0-1.389-0.374-2.564-1.122-3.473c-1.015-1.178-2.779-1.979-5.236-1.979c-2.564,0-4.061,0.855-4.917,1.713
				c0.322,0.32,0.536,0.854,0.536,1.443c0,0.801-0.641,1.602-1.603,1.602c-1.069,0-1.71-0.801-1.71-1.818
				c0-2.084,2.832-4.646,7.855-4.646c2.938,0,5.236,0.854,6.572,2.406c1.016,1.123,1.55,2.619,1.55,4.438v13.994h3.848v1.762h-5.718
				v-3.367c-1.818,1.973-4.756,3.74-8.016,3.74C450.932,911.606,448.206,908.774,448.206,905.249z M463.595,905.997v-4.646
				c-2.03-0.643-4.596-1.123-7-1.123c-4.382,0-6.413,2.299-6.413,4.916c0,2.514,1.817,4.758,5.718,4.758
				C459.053,909.897,461.725,908.134,463.595,905.997z"/>
		</g>
	</g>
</g>
</svg>
