<?xml version="1.0" encoding="utf-8"?>
<!-- Generator: Adobe Illustrator 15.0.0, SVG Export Plug-In . SVG Version: 6.00 Build 0)  -->
<!DOCTYPE svg PUBLIC "-//W3C//DTD SVG 1.1//EN" "http://www.w3.org/Graphics/SVG/1.1/DTD/svg11.dtd">
<svg version="1.1" id="Layer_1" xmlns="http://www.w3.org/2000/svg" xmlns:xlink="http://www.w3.org/1999/xlink" x="0px" y="0px"
	 width="1920px" height="1080px" viewBox="0 0 1920 1080" enable-background="new 0 0 1920 1080" xml:space="preserve">
<path d="M139.096,282.197H114.95v-72.439H94.992v-20.45h64.062v20.45h-19.958V282.197L139.096,282.197z"/>
<path d="M226.806,225.157v-35.85h24.146v92.889h-24.146v-38.068H191.94v38.067h-24.146v-92.888h24.146v35.851L226.806,225.157
	L226.806,225.157z"/>
<path d="M290.857,209.758v15.522h27.226v20.451h-27.226v16.016h28.704v20.45h-52.853v-92.889h52.853v20.45L290.857,209.758
	L290.857,209.758z"/>
<path d="M427.715,213.208c-4.434-3.697-10.101-6.161-16.016-6.161c-4.434,0-10.347,2.587-10.347,7.764
	c0,5.421,6.53,7.515,10.72,8.87l6.158,1.847c12.937,3.819,22.915,10.35,22.915,25.378c0,9.24-2.217,18.727-9.608,25.01
	c-7.27,6.161-17.001,8.746-26.366,8.746c-11.702,0-23.161-3.942-32.647-10.595l10.348-19.465c6.037,5.297,13.182,9.609,21.437,9.609
	c5.667,0,11.705-2.834,11.705-9.363c0-6.775-9.488-9.117-14.661-10.595c-15.156-4.312-25.134-8.256-25.134-26.239
	c0-18.851,13.429-31.171,32.032-31.171c9.363,0,20.82,2.956,29.075,7.639L427.715,213.208z"/>
<path d="M452.596,189.308h36.959c19.958,0,33.754,9.238,33.754,30.553c0,21.929-11.827,31.538-32.894,31.538H476.74v30.798h-24.146
	L452.596,189.308L452.596,189.308z M476.743,231.933h4.065c8.747,0,17.37,0,17.37-11.334c0-11.705-8.006-11.828-17.37-11.828h-4.065
	V231.933L476.743,231.933z"/>
<path d="M558.167,261.747h28.952v20.45h-53.099v-92.889h24.146L558.167,261.747L558.167,261.747z"/>
<path d="M619.146,282.197H595v-92.889h24.146V282.197z"/>
<path d="M634.909,189.308h24.147l44.226,56.795h0.25v-56.795h24.143v92.889h-24.143L659.3,225.28h-0.245v56.916h-24.147V189.308
	L634.909,189.308z"/>
<path d="M780.397,282.197H756.25v-72.439h-19.958v-20.45h64.063v20.45h-19.959L780.397,282.197L780.397,282.197z"/>
<path d="M833.24,209.758v15.522h27.226v20.451H833.24v16.016h28.705v20.45h-52.855v-92.889h52.855v20.45L833.24,209.758
	L833.24,209.758z"/>
<path d="M954.087,282.197H924.03l-22.793-35.728h-0.245v35.729h-24.146v-92.89h36.097c18.357,0,32.278,8.747,32.278,28.581
	c0,12.813-7.144,23.899-20.327,26.24L954.087,282.197z M900.992,230.947h2.338c7.884,0,16.754-1.479,16.754-11.581
	c0-10.104-8.87-11.582-16.754-11.582h-2.338V230.947z"/>
<path d="M1027.008,282.197h-24.145v-92.889h24.145V282.197z"/>
<path d="M1042.771,189.308h24.146l44.23,56.795h0.246v-56.795h24.146v92.889h-24.146l-44.229-56.916h-0.248v56.916h-24.148v-92.889
	H1042.771z"/>
<path d="M1183.326,189.308h28.951l17.371,25.255l17.367-25.255h28.953l-34.252,48.292v44.597h-24.146V237.6L1183.326,189.308z"/>
<path d="M1379.57,234.026c0,30.06-21.562,51.251-51.375,51.251c-29.811,0-51.369-21.19-51.369-51.251
	c0-28.088,24.637-47.8,51.369-47.8C1354.93,186.228,1379.57,205.938,1379.57,234.026z M1301.955,234.149
	c0,16.017,11.826,27.721,26.24,27.721c14.416,0,26.242-11.704,26.242-27.721c0-12.812-11.826-24.517-26.242-24.517
	C1313.781,209.634,1301.955,221.339,1301.955,234.149z"/>
<path d="M1471.34,189.308v52.233c0,11.951-0.492,23.776-9.729,32.771c-7.762,7.638-19.959,10.348-30.799,10.348
	c-10.846,0-23.043-2.71-30.801-10.348c-9.238-8.993-9.732-20.82-9.732-32.771v-52.233h24.146v48.907
	c0,12.074,0.861,25.255,16.385,25.255c15.52,0,16.385-13.183,16.385-25.255v-48.907H1471.34z"/>
<path d="M1563.854,282.197h-30.061l-22.789-35.729h-0.248v35.729h-24.146v-92.889h36.1c18.355,0,32.279,8.747,32.279,28.581
	c0,12.813-7.15,23.899-20.332,26.24L1563.854,282.197z M1510.756,230.947h2.34c7.881,0,16.756-1.479,16.756-11.581
	c0-10.104-8.873-11.582-16.756-11.582h-2.34V230.947z"/>
<path d="M1636.773,209.758v15.522h27.225v20.451h-27.225v16.016h28.699v20.45h-52.85v-92.889h52.852v20.45L1636.773,209.758
	L1636.773,209.758z"/>
<path d="M1670.152,189.308h28.951l17.369,25.255l17.369-25.255h28.951l-34.25,48.292v44.597h-24.146V237.6L1670.152,189.308z"/>
<path d="M1792.479,209.758v15.522h27.227v20.451h-27.227v16.016h28.705v20.45h-52.855v-92.889h52.855v20.45L1792.479,209.758
	L1792.479,209.758z"/>
<path d="M216.333,430.021h-24.146v-92.89h24.146V430.021z"/>
<path d="M283.1,361.032c-4.435-3.698-10.101-6.161-16.016-6.161c-4.436,0-10.348,2.587-10.348,7.763
	c0,5.421,6.529,7.516,10.719,8.869l6.16,1.849c12.936,3.818,22.915,10.349,22.915,25.379c0,9.237-2.218,18.726-9.609,25.008
	c-7.27,6.161-17.001,8.746-26.364,8.746c-11.704,0-23.161-3.941-32.648-10.594l10.347-19.467c6.036,5.299,13.184,9.61,21.436,9.61
	c5.667,0,11.705-2.832,11.705-9.363c0-6.774-9.487-9.116-14.661-10.595c-15.153-4.312-25.132-8.255-25.132-26.239
	c0-18.85,13.429-31.171,32.033-31.171c9.364,0,20.82,2.957,29.076,7.64L283.1,361.032z"/>
<path d="M387.189,430.021h-24.146v-72.44h-19.958v-20.45h64.062v20.45h-19.958V430.021L387.189,430.021z"/>
<path d="M474.898,372.98V337.13h24.146v92.891h-24.146v-38.068h-34.865v38.068h-24.146V337.13h24.146v35.851H474.898z"/>
<path d="M538.952,357.581v15.523h27.227v20.451h-27.227v16.016h28.704v20.45h-52.852v-92.89h52.852v20.449H538.952L538.952,357.581z
	"/>
<path d="M624.808,430.021v-92.89h34.496c16.509,0,27.595,6.404,27.595,24.146c0,8.377-2.709,15.153-10.226,18.973v0.246
	c13.307,1.726,18.973,10.718,18.973,23.653c0,19.466-16.631,25.871-33.634,25.871H624.808z M648.955,373.599h2.71
	c6.407,0,13.059-1.109,13.059-8.994c0-8.499-7.516-8.991-14.045-8.991h-1.724V373.599L648.955,373.599z M648.955,411.542h3.08
	c7.145,0,19.219,0.37,19.219-9.855c0-11.21-11.952-10.103-19.834-10.103h-2.464L648.955,411.542L648.955,411.542z"/>
<path d="M732.35,357.581v15.523h27.228v20.451H732.35v16.016h28.705v20.45H708.2v-92.89h52.854v20.449H732.35L732.35,357.581z"/>
<path d="M826.958,361.032c-4.435-3.698-10.102-6.161-16.017-6.161c-4.435,0-10.348,2.587-10.348,7.763
	c0,5.421,6.53,7.516,10.724,8.869l6.157,1.849c12.937,3.818,22.915,10.349,22.915,25.379c0,9.237-2.218,18.726-9.605,25.008
	c-7.271,6.161-17.004,8.746-26.365,8.746c-11.703,0-23.161-3.941-32.648-10.594l10.348-19.467c6.037,5.299,13.183,9.61,21.437,9.61
	c5.667,0,11.705-2.832,11.705-9.363c0-6.774-9.485-9.116-14.661-10.595c-15.15-4.312-25.129-8.255-25.129-26.239
	c0-18.85,13.429-31.171,32.032-31.171c9.363,0,20.82,2.957,29.075,7.64L826.958,361.032z"/>
<path d="M888.795,430.021h-24.143v-72.44h-19.96v-20.45h64.06v20.45h-19.957V430.021L888.795,430.021z"/>
<path d="M969.973,337.133h23.775l18.85,49.646l19.957-49.646h24.023l14.045,92.89h-24.145l-6.777-53.466h-0.246l-22.299,53.466
	h-9.609l-21.311-53.466h-0.246l-7.764,53.466h-24.023L969.973,337.133z"/>
<path d="M1104.49,413.884l-6.406,16.141h-25.625l35.729-92.891h26.363l34.988,92.891h-25.752l-6.033-16.141H1104.49z
	 M1121.369,365.837h-0.25l-9.979,29.565h20.08L1121.369,365.837z"/>
<path d="M1269.689,378.157c-0.248,13.551-1.234,25.132-9.488,36.713c-9.113,12.689-22.787,18.232-38.314,18.232
	c-29.197,0-49.523-19.834-49.523-49.033c0-30.185,20.449-50.018,50.387-50.018c19.096,0,33.879,8.624,41.887,25.993l-22.916,9.609
	c-3.324-8.87-10.35-14.784-20.082-14.784c-15.891,0-24.143,15.153-24.143,29.321c0,14.413,8.623,29.074,24.516,29.074
	c10.469,0,18.479-5.421,19.465-16.14h-19.713v-18.974h47.928v0.005H1269.689z"/>
<path d="M1280.768,337.133h24.146l44.229,56.793h0.246v-56.793h24.146v92.89h-24.146l-44.229-56.917h-0.246v56.917h-24.146V337.133
	L1280.768,337.133z"/>
<path d="M1413.441,430.021h-24.146v-92.89h24.146V430.021z"/>
<path d="M1453.354,357.581v15.523h26.482v20.451h-26.482v36.466h-24.146v-92.89h53.344v20.449H1453.354L1453.354,357.581z"/>
<path d="M1485.746,337.133h28.953l17.369,25.255l17.371-25.255h28.949l-34.252,48.292v44.598h-24.143v-44.598L1485.746,337.133z"/>
<path d="M1608.072,430.021h-24.146v-92.89h24.146V430.021z"/>
<path d="M1623.836,337.133h24.148l44.227,56.793h0.25v-56.793h24.146v92.89h-24.146l-44.23-56.917h-0.246v56.917h-24.146v-92.89
	H1623.836z"/>
<path d="M1825.008,378.157c-0.246,13.551-1.23,25.132-9.484,36.713c-9.119,12.689-22.789,18.232-38.316,18.232
	c-29.197,0-49.523-19.834-49.523-49.033c0-30.185,20.449-50.018,50.387-50.018c19.096,0,33.881,8.624,41.885,25.993l-22.912,9.609
	c-3.328-8.87-10.35-14.784-20.084-14.784c-15.893,0-24.146,15.153-24.146,29.321c0,14.413,8.627,29.074,24.518,29.074
	c10.471,0,18.482-5.421,19.465-16.14h-19.711v-18.974h47.924v0.003l0,0V378.157z"/>
<path d="M1473.805,525.981c-0.248,13.55-1.232,25.129-9.484,36.713c-9.117,12.688-22.791,18.232-38.318,18.232
	c-29.193,0-49.521-19.838-49.521-49.034c0-30.185,20.447-50.018,50.385-50.018c19.096,0,33.881,8.625,41.887,25.994l-22.916,9.607
	c-3.322-8.868-10.35-14.783-20.078-14.783c-15.895,0-24.146,15.153-24.146,29.323c0,14.412,8.623,29.071,24.516,29.071
	c10.473,0,18.48-5.42,19.465-16.139h-19.711v-18.974L1473.805,525.981L1473.805,525.981z"/>
<path d="M1509.031,557.396h28.951v20.447h-53.1v-92.89h24.146v72.442H1509.031z"/>
<path d="M1569.516,561.707l-6.404,16.139h-25.627l35.727-92.89h26.365l34.988,92.89h-25.75l-6.035-16.139H1569.516z
	 M1586.395,513.66h-0.25l-9.977,29.565h20.076L1586.395,513.66z"/>
<path d="M1693.074,508.854c-4.438-3.693-10.104-6.158-16.016-6.158c-4.438,0-10.35,2.588-10.35,7.763
	c0,5.42,6.527,7.515,10.719,8.869l6.158,1.849c12.939,3.818,22.92,10.351,22.92,25.377c0,9.239-2.219,18.729-9.609,25.011
	c-7.27,6.162-17.002,8.745-26.363,8.745c-11.705,0-23.16-3.941-32.648-10.595l10.352-19.465c6.035,5.3,13.18,9.61,21.436,9.61
	c5.668,0,11.703-2.834,11.703-9.363c0-6.775-9.486-9.117-14.656-10.595c-15.152-4.312-25.133-8.257-25.133-26.24
	c0-18.851,13.432-31.169,32.031-31.169c9.367,0,20.822,2.956,29.074,7.637L1693.074,508.854z"/>
<path d="M1768.953,508.854c-4.434-3.693-10.1-6.158-16.014-6.158c-4.438,0-10.35,2.588-10.35,7.763c0,5.42,6.529,7.515,10.721,8.869
	l6.16,1.849c12.938,3.818,22.914,10.351,22.914,25.377c0,9.239-2.217,18.729-9.604,25.011c-7.271,6.162-17.006,8.745-26.365,8.745
	c-11.703,0-23.16-3.941-32.646-10.595l10.35-19.465c6.035,5.3,13.182,9.61,21.436,9.61c5.666,0,11.703-2.834,11.703-9.363
	c0-6.775-9.484-9.117-14.66-10.595c-15.148-4.312-25.129-8.257-25.129-26.24c0-18.851,13.43-31.169,32.031-31.169
	c9.363,0,20.82,2.956,29.074,7.637L1768.953,508.854z"/>
<path d="M1821.553,565.896c0,7.882-6.406,14.411-14.416,14.411c-8.008,0-14.416-6.527-14.416-14.411
	c0-8.012,6.408-14.414,14.416-14.414C1815.146,551.482,1821.553,557.887,1821.553,565.896z"/>
<g id="author">
	<g id="outlines">
		<g>
			<path d="M1381.393,891.613h5.029v-30.182h-10.623v5.954h-2.055v-7.751h27.41v7.751h-2.055v-5.954h-10.574v30.184h4.979v1.794
				h-12.115v-1.796H1381.393z"/>
			<path d="M1405.053,857.636v-1.693h5.6v20.378c2.002-2.461,5.08-4.619,8.416-4.619c2.615,0,4.312,0.925,5.389,2.411
				c0.922,1.235,1.283,2.977,1.283,4.929v12.677h3.746v1.692h-9.344v-1.692h3.695v-12.422c0-1.796-0.312-3.182-1.029-4.157
				c-0.818-1.078-2.207-1.691-4.055-1.691c-3.127,0-5.951,2.102-8.107,4.666v13.602h3.744v1.696h-9.34v-1.692h3.693v-34.081h-3.691
				V857.636z"/>
			<path d="M1434.721,882.94c0.207,5.953,3.803,9.136,9.188,9.136c2.879,0,5.186-0.973,7.447-2.461l-0.156,1.95
				c-2.051,1.39-4.725,2.208-7.494,2.208c-6.521,0-10.934-4.363-10.934-11.084c0-6.06,4.209-10.986,10.109-10.986
				c6.105,0,9.496,4.771,9.496,10.01c0,0.514-0.053,0.925-0.152,1.232h-17.502v-0.005H1434.721z M1434.771,881.298h15.654
				c-0.205-4.414-2.771-7.905-7.697-7.905C1438.621,873.393,1435.234,876.574,1434.771,881.298z"/>
			<path d="M1456.996,882.734c0-6.16,4.518-11.034,10.779-11.034c6.363,0,10.777,4.825,10.777,11.034
				c0,6.162-4.463,11.033-10.777,11.033C1461.461,893.769,1456.996,888.944,1456.996,882.734z M1476.553,882.734
				c0-5.337-3.594-9.343-8.775-9.343c-5.135,0-8.777,4.006-8.777,9.343c0,5.39,3.645,9.342,8.777,9.342
				C1472.959,892.076,1476.553,888.124,1476.553,882.734z"/>
			<path d="M1483.326,882.836c0-6.209,4.363-11.14,10.678-11.14c2.873,0,5.695,1.234,7.646,3.082v-17.146h-4.463v-1.691h6.363
				v35.772h3.697v1.694h-5.545v-3.541c-1.949,2.258-4.668,3.899-8.107,3.899C1487.844,893.769,1483.326,889.254,1483.326,882.836z
				 M1501.65,888.124v-11.599c-1.896-1.695-4.52-3.134-7.697-3.134c-5.029,0-8.625,4.056-8.625,9.393
				c-0.047,5.44,3.49,9.292,8.369,9.292C1497.029,892.076,1499.648,890.434,1501.65,888.124z"/>
			<path d="M1510.992,882.734c0-6.16,4.52-11.034,10.781-11.034c6.363,0,10.777,4.825,10.777,11.034
				c0,6.162-4.465,11.033-10.777,11.033C1515.459,893.768,1510.992,888.944,1510.992,882.734z M1530.549,882.734
				c0-5.337-3.598-9.343-8.775-9.343c-5.135,0-8.781,4.006-8.781,9.343c0,5.39,3.646,9.342,8.781,9.342
				C1526.955,892.076,1530.549,888.124,1530.549,882.734z"/>
			<path d="M1551.541,873.752c0,0.925-0.668,1.692-1.695,1.692c-0.924,0-1.742-0.769-1.795-1.692
				c-1.949,0.312-3.953,2.464-5.338,4.979v12.985h4.207v1.692h-9.854v-1.692h3.748v-17.965h-3.748v-1.689h5.545v4.771
				c1.59-2.82,4.209-5.132,6.416-5.132C1550.668,871.7,1551.541,872.675,1551.541,873.752z"/>
			<path d="M1564.73,891.613h3.695l11.293-30.185h-4.258v-1.796h12.832v1.796h-4.262l11.293,30.185h3.746v1.796h-10.418v-1.796
				h4.414l-3.955-10.729h-14.527l-3.951,10.729h4.518v1.796h-10.42V891.613L1564.73,891.613z M1588.443,879.09l-6.57-17.809
				l-6.619,17.809H1588.443z"/>
			<path d="M1600.969,882.836c0-6.209,4.365-11.14,10.676-11.14c2.877,0,5.697,1.234,7.65,3.082v-17.146h-4.465v-1.691h6.363v35.772
				h3.697v1.694h-5.547v-3.541c-1.949,2.258-4.668,3.899-8.104,3.899C1605.484,893.769,1600.969,889.254,1600.969,882.836z
				 M1619.291,888.124v-11.599c-1.898-1.695-4.52-3.134-7.699-3.134c-5.029,0-8.621,4.056-8.621,9.393
				c-0.053,5.44,3.488,9.292,8.365,9.292C1614.672,892.076,1617.293,890.434,1619.291,888.124z"/>
			<path d="M1628.635,882.734c0-6.16,4.516-11.034,10.777-11.034c6.363,0,10.779,4.825,10.779,11.034
				c0,6.162-4.469,11.033-10.779,11.033C1633.098,893.769,1628.635,888.944,1628.635,882.734z M1648.189,882.734
				c0-5.337-3.594-9.343-8.777-9.343c-5.133,0-8.777,4.006-8.777,9.343c0,5.39,3.645,9.342,8.777,9.342
				C1644.598,892.076,1648.189,888.124,1648.189,882.734z"/>
			<path d="M1669.182,873.752c0,0.925-0.666,1.692-1.691,1.692c-0.922,0-1.746-0.769-1.799-1.692
				c-1.949,0.312-3.951,2.464-5.334,4.979v12.985h4.207v1.692h-9.857v-1.692h3.748v-17.965h-3.748v-1.689h5.545v4.771
				c1.59-2.82,4.209-5.132,6.416-5.132C1668.311,871.7,1669.182,872.675,1669.182,873.752z"/>
			<path d="M1677.701,876.369c2.002-2.411,5.133-4.669,8.469-4.669c2.818,0,4.615,1.128,5.594,2.822
				c0.67,1.18,0.977,2.771,0.977,4.518v12.677h3.742v1.692h-9.342v-1.692h3.695v-12.422c0-1.437-0.152-2.616-0.611-3.541
				c-0.723-1.488-2.16-2.309-4.314-2.309c-3.131,0-6.004,2.102-8.107,4.666v13.602h3.693v1.696h-9.342v-1.692h3.746v-17.965h-3.746
				v-1.69h5.543L1677.701,876.369L1677.701,876.369z"/>
			<path d="M1699.824,882.734c0-6.16,4.52-11.034,10.779-11.034c6.365,0,10.779,4.825,10.779,11.034
				c0,6.162-4.465,11.033-10.779,11.033C1704.291,893.769,1699.824,888.944,1699.824,882.734z M1719.381,882.734
				c0-5.337-3.598-9.343-8.781-9.343c-5.133,0-8.777,4.006-8.777,9.343c0,5.39,3.646,9.342,8.777,9.342
				C1715.787,892.076,1719.381,888.124,1719.381,882.734z"/>
		</g>
	</g>
</g>
</svg>
