<?xml version="1.0" encoding="utf-8"?>
<!-- Generator: Adobe Illustrator 15.0.1, SVG Export Plug-In . SVG Version: 6.00 Build 0)  -->
<!DOCTYPE svg PUBLIC "-//W3C//DTD SVG 1.0//EN" "http://www.w3.org/TR/2001/REC-SVG-20010904/DTD/svg10.dtd">
<svg version="1.0" id="Layer_1" xmlns="http://www.w3.org/2000/svg" xmlns:xlink="http://www.w3.org/1999/xlink" x="0px" y="0px"
	 width="1280px" height="720px" viewBox="0 0 1280 720" enable-background="new 0 0 1280 720" xml:space="preserve">
<g id="Layer_2">
	<g id="outlines_1_">
		<g>
			<path d="M146.763,104.155h13.969v38.163h24.41v12.241h-38.379V104.155z"/>
			<path d="M191.403,104.155h14.041v50.404h-14.041V104.155z"/>
			<path d="M214.659,104.155h40.324v12.241h-26.354v8.568h23.834v11.593h-23.834v18.001H214.66L214.659,104.155L214.659,104.155z"/>
			<path d="M261.314,104.155h40.54v11.881H275.14v7.633h24.194v11.017H275.14v7.993h27.074v11.881h-40.899L261.314,104.155
				L261.314,104.155z"/>
			<path d="M329.569,104.155h14.041v50.404h-14.041V104.155z"/>
			<path d="M349.008,147.071l7.777-9.289c4.968,3.96,10.513,6.048,16.345,6.048c3.745,0,5.761-1.296,5.761-3.456v-0.144
				c0-2.088-1.656-3.24-8.497-4.825c-10.729-2.448-19.009-5.472-19.009-15.841v-0.144c0-9.361,7.417-16.129,19.514-16.129
				c8.568,0,15.265,2.304,20.738,6.697l-6.985,9.865c-4.608-3.24-9.649-4.968-14.113-4.968c-3.384,0-5.04,1.44-5.04,3.24v0.144
				c0,2.304,1.728,3.312,8.712,4.896c11.593,2.52,18.794,6.264,18.794,15.697v0.144c0,10.297-8.137,16.417-20.378,16.417
				C363.698,155.424,355.201,152.615,349.008,147.071z"/>
			<path d="M432.024,116.396h-15.121v-12.241h44.212v12.241h-15.122v38.163h-13.969V116.396z"/>
			<path d="M467.23,104.155h13.97v18.866h17.93v-18.866h13.969v50.404H499.13v-19.154H481.2v19.154h-13.97V104.155z"/>
			<path d="M522.021,104.155h40.539v11.881h-26.714v7.633h24.194v11.017h-24.194v7.993h27.074v11.881h-40.898L522.021,104.155
				L522.021,104.155z"/>
			<path d="M588.26,129.501v-0.144c0-14.473,11.665-26.21,27.219-26.21c15.553,0,27.073,11.593,27.073,26.066v0.144
				c0,14.473-11.665,26.21-27.218,26.21S588.26,143.975,588.26,129.501z M628.295,129.501v-0.144
				c0-7.272-5.256-13.609-12.961-13.609c-7.633,0-12.745,6.193-12.745,13.465v0.144c0,7.272,5.256,13.609,12.889,13.609
				C623.183,142.967,628.295,136.774,628.295,129.501z"/>
			<path d="M649.82,104.155h13.031l20.738,26.642v-26.642h13.825v50.404h-12.241l-21.529-27.65v27.65H649.82V104.155z"/>
			<path d="M706.34,104.155h13.969v38.163h24.41v12.241H706.34V104.155z"/>
			<path d="M755.877,135.694l-19.153-31.539h15.913l10.369,18.361l10.44-18.361h15.625l-19.153,31.323v19.082h-14.041V135.694z"/>
			<path d="M811.604,129.501v-0.144c0-14.689,11.521-26.21,27.146-26.21c8.856,0,15.121,2.736,20.449,7.345l-8.208,9.865
				c-3.602-3.024-7.201-4.752-12.17-4.752c-7.272,0-12.89,6.121-12.89,13.825v0.144c0,8.137,5.688,13.969,13.683,13.969
				c3.384,0,5.977-0.72,8.063-2.088v-6.121h-9.938v-10.225h23.187v22.682c-5.328,4.393-12.744,7.777-21.89,7.777
				C823.34,155.568,811.604,144.767,811.604,129.501z"/>
			<path d="M886.124,103.795h13.466l21.457,50.764H906.07l-3.674-9.001h-19.44l-3.601,9.001h-14.689L886.124,103.795z
				 M898.365,134.686l-5.616-14.33l-5.688,14.33H898.365z"/>
			<path d="M925.939,104.155H940.7l12.024,19.514l12.024-19.514h14.762v50.404h-13.896v-28.946l-12.89,19.729h-0.287l-12.817-19.586
				v28.803h-13.681V104.155L925.939,104.155z"/>
			<path d="M988.436,104.155h40.539v11.881h-26.714v7.633h24.193v11.017h-24.193v7.993h27.074v11.881h-40.899V104.155z"/>
			<path d="M1056.689,104.155h14.041v50.404h-14.041V104.155z"/>
			<path d="M1079.946,104.155h13.032l20.737,26.642v-26.642h13.825v50.404H1115.3l-21.528-27.65v27.65h-13.825V104.155z"/>
			<path d="M250.658,190.555h14.761l8.785,29.163l9.721-29.307h12.025l9.721,29.307l8.785-29.163h14.474l-16.85,50.764h-12.169
				L289.758,212.3l-10.081,29.019h-12.169L250.658,190.555z"/>
			<path d="M334.466,190.555h13.969v18.866h17.93v-18.866h13.969v50.404h-13.969v-19.154h-17.93v19.154h-13.969V190.555z"/>
			<path d="M389.545,190.555h14.041v50.404h-14.041V190.555L389.545,190.555z"/>
			<path d="M411.072,215.901v-0.144c0-14.689,11.305-26.21,26.569-26.21c10.298,0,16.921,4.32,21.387,10.513l-10.514,8.137
				c-2.88-3.601-6.192-5.905-11.017-5.905c-7.057,0-12.025,5.977-12.025,13.321v0.144c0,7.561,4.969,13.465,12.025,13.465
				c5.256,0,8.353-2.448,11.377-6.121l10.513,7.489c-4.752,6.552-11.161,11.377-22.321,11.377
				C422.665,241.968,411.072,230.951,411.072,215.901z"/>
			<path d="M465.36,190.555h13.969v18.866h17.93v-18.866h13.969v50.404h-13.969v-19.154h-17.93v19.154H465.36V190.555z"/>
			<path d="M552.407,202.796h-15.121v-12.241h44.212v12.241h-15.122v38.163h-13.969V202.796z"/>
			<path d="M587.613,190.555h13.969v18.866h17.93v-18.866h13.969v50.404h-13.969v-19.154h-17.93v19.154h-13.969V190.555z"/>
			<path d="M642.404,190.555h40.539v11.881h-26.715v7.633h24.194v11.017h-24.194v7.993h27.074v11.881h-40.898V190.555z"/>
			<path d="M708.643,215.901v-0.144c0-14.473,11.665-26.21,27.22-26.21c15.553,0,27.073,11.593,27.073,26.066v0.144
				c0,14.473-11.664,26.21-27.219,26.21C720.163,241.967,708.643,230.375,708.643,215.901z M748.678,215.901v-0.144
				c0-7.272-5.256-13.609-12.961-13.609c-7.633,0-12.745,6.193-12.745,13.465v0.144c0,7.272,5.257,13.609,12.891,13.609
				C743.565,229.367,748.678,223.174,748.678,215.901z"/>
			<path d="M770.203,190.555h25.85c6.337,0,10.801,1.584,13.753,4.536c2.018,2.017,3.24,4.681,3.24,8.137v0.144
				c0,5.833-3.312,9.289-7.776,11.233c6.121,2.017,10.01,5.473,10.01,12.313v0.144c0,8.641-7.058,13.897-19.081,13.897h-25.994
				L770.203,190.555L770.203,190.555z M792.597,210.645c4.248,0,6.624-1.44,6.624-4.393v-0.144c0-2.736-2.16-4.32-6.336-4.32h-9.072
				v8.857H792.597L792.597,210.645z M794.612,229.727c4.249,0,6.696-1.656,6.696-4.608v-0.144c0-2.736-2.159-4.537-6.841-4.537
				h-10.657v9.289H794.612z"/>
			<path d="M817.506,233.327l9.001-8.497c2.448,2.952,4.752,4.68,7.849,4.68c3.528,0,5.762-2.376,5.762-7.056v-31.899h13.896v31.971
				c0,6.336-1.584,10.801-4.968,14.185c-3.312,3.312-8.064,5.113-13.825,5.113C826.436,241.824,821.034,238.151,817.506,233.327z"/>
			<path d="M862.29,190.555h40.539v11.881h-26.714v7.633h24.192v11.017h-24.192v7.993h27.074v11.881H862.29V190.555z"/>
			<path d="M908.227,215.901v-0.144c0-14.689,11.305-26.21,26.569-26.21c10.297,0,16.921,4.32,21.386,10.513l-10.513,8.137
				c-2.881-3.601-6.192-5.905-11.018-5.905c-7.058,0-12.024,5.977-12.024,13.321v0.144c0,7.561,4.968,13.465,12.024,13.465
				c5.257,0,8.354-2.448,11.377-6.121l10.514,7.489c-4.753,6.552-11.161,11.377-22.322,11.377
				C919.818,241.968,908.227,230.951,908.227,215.901z"/>
			<path d="M974.826,202.796h-15.121v-12.241h44.212v12.241h-15.121v38.163h-13.97V202.796L974.826,202.796z"/>
			<path d="M1028.248,215.901v-0.144c0-14.473,11.665-26.21,27.219-26.21c15.553,0,27.074,11.593,27.074,26.066v0.144
				c0,14.473-11.665,26.21-27.219,26.21C1039.768,241.967,1028.248,230.375,1028.248,215.901z M1068.283,215.901v-0.144
				c0-7.272-5.256-13.609-12.961-13.609c-7.634,0-12.745,6.193-12.745,13.465v0.144c0,7.272,5.257,13.609,12.89,13.609
				C1063.171,229.367,1068.283,223.174,1068.283,215.901z"/>
			<path d="M1089.809,190.555h40.323v12.241h-26.354v8.568h23.834v11.593h-23.834v18.001h-13.97V190.555z"/>
			<path d="M261.964,289.197h-15.121v-12.241h44.212v12.241h-15.122v38.164h-13.969V289.197z"/>
			<path d="M297.17,276.956h13.969v18.866h17.93v-18.866h13.969v50.404h-13.969v-19.154h-17.93v19.154H297.17V276.956z"/>
			<path d="M351.961,276.956h40.54v11.881h-26.714v7.633h24.194v11.017h-24.194v7.993h27.074v11.881h-40.899L351.961,276.956
				L351.961,276.956z"/>
			<path d="M418.2,302.302v-0.144c0-14.689,11.521-26.21,27.146-26.21c8.856,0,15.121,2.736,20.45,7.345l-8.209,9.865
				c-3.6-3.024-7.201-4.752-12.169-4.752c-7.271,0-12.889,6.121-12.889,13.825v0.144c0,8.137,5.688,13.969,13.681,13.969
				c3.384,0,5.978-0.72,8.065-2.088v-6.121h-9.938V297.91h23.187v22.682c-5.329,4.394-12.745,7.777-21.891,7.777
				C429.938,328.368,418.2,317.567,418.2,302.302z"/>
			<path d="M492.721,276.596h13.465l21.458,50.764h-14.978l-3.672-9.001h-19.441l-3.601,9.001h-14.689L492.721,276.596z
				 M504.962,307.486l-5.616-14.33l-5.688,14.33H504.962z"/>
			<path d="M532.535,276.956h14.761l12.025,19.514l12.024-19.514h14.762v50.404H572.21v-28.946l-12.889,19.729h-0.288
				l-12.817-19.584v28.802h-13.681V276.956L532.535,276.956z"/>
			<path d="M595.031,276.956h40.54v11.881h-26.714v7.633h24.193v11.017h-24.193v7.993h27.073v11.881h-40.898L595.031,276.956
				L595.031,276.956z"/>
			<path d="M663.285,276.956h14.042v50.404h-14.042V276.956z"/>
			<path d="M682.726,319.871l7.776-9.289c4.969,3.96,10.513,6.048,16.346,6.048c3.744,0,5.761-1.296,5.761-3.456v-0.144
				c0-2.088-1.656-3.24-8.496-4.825c-10.729-2.448-19.011-5.472-19.011-15.841v-0.144c0-9.361,7.416-16.129,19.515-16.129
				c8.567,0,15.266,2.304,20.737,6.697l-6.984,9.865c-4.608-3.24-9.648-4.968-14.113-4.968c-3.384,0-5.04,1.44-5.04,3.24v0.144
				c0,2.304,1.729,3.312,8.713,4.896c11.594,2.52,18.793,6.264,18.793,15.697v0.144c0,10.297-8.137,16.417-20.378,16.417
				C697.414,328.224,688.918,325.416,682.726,319.871z"/>
			<path d="M765.741,289.197H750.62v-12.241h44.212v12.241h-15.121v38.164h-13.97V289.197z"/>
			<path d="M797.061,302.302v-0.144c0-14.473,11.664-26.21,27.218-26.21s27.075,11.593,27.075,26.066v0.144
				c0,14.473-11.666,26.21-27.22,26.21S797.061,316.775,797.061,302.302z M837.095,302.302v-0.144
				c0-7.272-5.256-13.609-12.961-13.609c-7.633,0-12.745,6.193-12.745,13.465v0.144c0,7.271,5.258,13.608,12.89,13.608
				C831.982,315.767,837.095,309.574,837.095,302.302z"/>
			<path d="M878.562,276.956h13.969v38.163h24.41v12.241h-38.379V276.956z"/>
			<path d="M922.914,276.956h40.539v11.881h-26.714v7.633h24.192v11.017h-24.192v7.993h27.073v11.881h-40.898V276.956z"/>
			<path d="M988.362,276.596h13.466l21.457,50.764h-14.977l-3.674-9.001h-19.44l-3.602,9.001h-14.688L988.362,276.596z
				 M1000.604,307.486l-5.615-14.33l-5.688,14.33H1000.604z"/>
			<path d="M1028.178,276.956h23.834c7.704,0,13.033,2.016,16.417,5.472c2.952,2.88,4.465,6.769,4.465,11.737v0.144
				c0,7.705-4.104,12.817-10.368,15.481l12.023,17.569h-16.129l-10.153-15.266h-6.12v15.266h-13.969V276.956z M1051.363,301.149
				c4.752,0,7.488-2.304,7.488-5.977v-0.144c0-3.96-2.881-5.977-7.562-5.977h-9.146v12.097L1051.363,301.149L1051.363,301.149z"/>
			<path d="M1079.945,276.956h13.031l20.738,26.642v-26.642h13.825v50.404h-12.24l-21.528-27.65v27.65h-13.825L1079.945,276.956
				L1079.945,276.956z"/>
			<path d="M712.391,375.597H697.27v-12.24h44.213v12.24H726.36v38.163H712.39L712.391,375.597L712.391,375.597z"/>
			<path d="M747.598,363.355h13.97v18.864h17.93v-18.864h13.969v50.403h-13.969v-19.152h-17.93v19.152h-13.97V363.355z"/>
			<path d="M802.389,363.355h40.539v11.881h-26.714v7.633h24.193v11.017h-24.193v7.993h27.074v11.881h-40.899V363.355z"/>
			<path d="M870.355,363.355h23.834c7.703,0,13.032,2.016,16.416,5.473c2.952,2.88,4.466,6.769,4.466,11.736v0.145
				c0,7.705-4.104,12.817-10.369,15.481l12.023,17.568h-16.129l-10.153-15.266h-6.119v15.266h-13.969V363.355z M893.541,387.55
				c4.752,0,7.488-2.305,7.488-5.977v-0.146c0-3.96-2.881-5.977-7.562-5.977h-9.145v12.098L893.541,387.55L893.541,387.55z"/>
			<path d="M921.475,391.654v-28.299h14.187v28.011c0,7.271,3.672,10.729,9.288,10.729c5.617,0,9.289-3.312,9.289-10.369v-28.369
				h14.186v27.938c0,16.273-9.289,23.402-23.618,23.402S921.475,407.423,921.475,391.654z"/>
			<path d="M976.699,363.355h13.969v38.162h24.41v12.241h-38.379V363.355z"/>
			<path d="M1021.051,363.355h40.539v11.881h-26.714v7.633h24.193v11.017h-24.193v7.993h27.074v11.881h-40.899V363.355z"/>
			<path d="M1065.258,406.271l7.776-9.289c4.969,3.96,10.513,6.049,16.346,6.049c3.744,0,5.76-1.297,5.76-3.457v-0.145
				c0-2.088-1.655-3.239-8.495-4.823c-10.729-2.448-19.011-5.474-19.011-15.843v-0.144c0-9.361,7.416-16.13,19.515-16.13
				c8.567,0,15.266,2.305,20.736,6.695l-6.983,9.865c-4.608-3.24-9.648-4.969-14.113-4.969c-3.384,0-5.04,1.439-5.04,3.24v0.145
				c0,2.304,1.728,3.312,8.713,4.896c11.593,2.521,18.793,6.265,18.793,15.696v0.145c0,10.297-8.137,16.418-20.378,16.418
				C1079.946,414.624,1071.45,411.815,1065.258,406.271z"/>
			<path d="M1114.649,399.719h14.257v14.041h-14.257V399.719z"/>
		</g>
	</g>
</g>
<g id="author">
	<g id="outlines">
		<g>
			<path d="M852.523,517.95h2.16l6.601-17.641h-2.49v-1.05h7.5v1.05h-2.49l6.602,17.641h2.188V519h-6.09v-1.05h2.58l-2.311-6.271
				h-8.489l-2.311,6.271h2.641V519h-6.091V517.95z M866.384,510.63l-3.84-10.409l-3.869,10.409H866.384z"/>
			<path d="M882.555,509.79c-0.54,0-0.931-0.42-0.931-0.93c0-0.21,0.061-0.511,0.301-0.78c-0.601-0.569-1.771-0.811-2.851-0.811
				c-2.04,0-3.301,1.08-3.301,2.37c0,1.439,1.562,1.859,3.66,2.399c2.25,0.57,4.439,1.26,4.439,3.689
				c0,2.101-2.01,3.479-4.709,3.479c-1.83,0-3.48-0.63-4.32-1.5c-0.359-0.36-0.57-0.78-0.57-1.29c0-0.569,0.392-1.02,0.9-1.02
				c0.57,0,0.93,0.39,0.93,0.898c0,0.33-0.119,0.602-0.358,0.78c0.39,0.57,1.739,1.17,3.39,1.17c2.279,0,3.659-1.021,3.659-2.49
				c0-1.648-1.649-2.159-3.6-2.64c-2.489-0.601-4.5-1.229-4.5-3.45c0-1.89,1.83-3.359,4.409-3.359c1.771,0,3.091,0.54,3.78,1.261
				c0.391,0.391,0.569,0.779,0.569,1.229C883.454,509.37,883.064,509.79,882.555,509.79z"/>
			<path d="M885.735,498.091v-0.99h3.27v11.91c1.17-1.439,2.97-2.7,4.92-2.7c1.529,0,2.521,0.54,3.149,1.41
				c0.54,0.721,0.75,1.739,0.75,2.88v7.409h2.189V519h-5.46v-0.99h2.16v-7.26c0-1.05-0.181-1.859-0.601-2.43
				c-0.479-0.63-1.29-0.99-2.37-0.99c-1.829,0-3.479,1.229-4.739,2.729v7.949h2.189V519h-5.459v-0.99h2.158v-19.919H885.735z"/>
			<path d="M901.812,518.01h2.312v-19.919h-2.312v-0.99h3.42v20.909h2.371V519h-5.791V518.01z"/>
			<path d="M910.994,512.88c0.12,3.48,2.22,5.34,5.369,5.34c1.681,0,3.029-0.568,4.351-1.438l-0.091,1.14
				c-1.199,0.812-2.76,1.29-4.38,1.29c-3.81,0-6.39-2.55-6.39-6.479c0-3.54,2.459-6.421,5.909-6.421c3.569,0,5.55,2.79,5.55,5.851
				c0,0.3-0.029,0.54-0.09,0.72h-10.229V512.88z M911.023,511.92h9.149c-0.12-2.579-1.62-4.619-4.5-4.619
				C913.273,507.301,911.294,509.16,911.023,511.92z"/>
			<path d="M923.895,518.01h2.34v-10.499h-2.34v-0.989h3.449v11.488h2.34V519h-5.789V518.01z M925.454,501.211
				c0-0.63,0.479-1.141,1.079-1.141s1.08,0.511,1.08,1.141c0,0.6-0.479,1.109-1.08,1.109
				C925.934,502.32,925.454,501.811,925.454,501.211z"/>
			<path d="M943.812,519.78c0,1.5-0.39,2.64-1.109,3.479c-1.021,1.2-2.67,1.74-4.649,1.74c-1.979,0-3.39-0.63-4.08-1.38
				c-0.358-0.36-0.54-0.812-0.54-1.2c0-0.69,0.48-1.14,1.08-1.14c0.511,0,0.87,0.42,0.87,0.93c0,0.33-0.18,0.66-0.45,0.87
				c0.392,0.45,1.53,0.93,3.24,0.93c1.561,0,2.85-0.42,3.689-1.41c0.54-0.659,0.84-1.528,0.84-2.729v-3.03
				c-1.109,1.2-2.609,2.19-4.68,2.19c-3.391,0-5.999-2.7-5.999-6.3c0-3.45,2.52-6.421,6.238-6.421c1.8,0,3.36,0.811,4.471,1.86
				v-1.65h3.239v0.99h-2.16V519.78z M933.164,512.7c0,3.03,2.01,5.37,4.92,5.37c1.979,0,3.479-1.021,4.619-2.34v-6.57
				c-1.079-1.021-2.55-1.859-4.47-1.859C935.232,507.301,933.164,509.7,933.164,512.7z"/>
			<path d="M947.834,498.091v-0.99h3.27v11.91c1.17-1.439,2.971-2.7,4.92-2.7c1.529,0,2.521,0.54,3.149,1.41
				c0.54,0.721,0.75,1.739,0.75,2.88v7.409h2.19V519h-5.46v-0.99h2.159v-7.26c0-1.05-0.181-1.859-0.601-2.43
				c-0.479-0.63-1.29-0.99-2.37-0.99c-1.829,0-3.479,1.229-4.739,2.729v7.949h2.189V519h-5.459v-0.99h2.159v-19.919H947.834z"/>
			<path d="M971.112,517.95h2.729V500.31h-2.729v-1.05h7.859c4.409,0,6.239,2.37,6.239,4.92c0,2.399-1.619,4.17-3.989,4.71
				c2.851,0.54,4.561,2.221,4.561,4.771c0,3.18-2.61,5.34-6.601,5.34h-8.069V517.95z M978.763,508.381c3.659,0,5.25-1.83,5.25-4.141
				c0-2.25-1.649-3.931-5.101-3.931h-3.84v8.07L978.763,508.381L978.763,508.381z M979.213,517.95c3.3,0,5.369-1.771,5.369-4.29
				c0-2.641-2.069-4.229-5.85-4.229h-3.66v8.521L979.213,517.95L979.213,517.95z"/>
			<path d="M997.183,507.511c0,0.54-0.39,0.989-0.989,0.989c-0.539,0-1.021-0.449-1.051-0.989c-1.14,0.181-2.31,1.439-3.119,2.909
				v7.59h2.459V519h-5.76v-0.99h2.19v-10.499h-2.19v-0.989h3.24v2.789c0.93-1.649,2.46-3,3.75-3
				C996.673,506.311,997.183,506.881,997.183,507.511z"/>
			<path d="M998.953,518.01h2.34v-10.499h-2.34v-0.989h3.45v11.488h2.34V519h-5.79V518.01L998.953,518.01z M1000.514,501.211
				c0-0.63,0.479-1.141,1.079-1.141c0.602,0,1.08,0.511,1.08,1.141c0,0.6-0.479,1.109-1.08,1.109
				C1000.993,502.32,1000.514,501.811,1000.514,501.211z"/>
			<path d="M1006.572,518.01h2.311v-19.919h-2.311v-0.99h3.42v20.909h2.37V519h-5.79V518.01z"/>
			<path d="M1014.192,518.01h2.311v-19.919h-2.311v-0.99h3.42v20.909h2.37V519h-5.79V518.01z"/>
			<path d="M1022.143,518.01h2.341v-10.499h-2.341v-0.989h3.45v11.488h2.34V519h-5.79V518.01z M1023.703,501.211
				c0-0.63,0.479-1.141,1.079-1.141s1.08,0.511,1.08,1.141c0,0.6-0.479,1.109-1.08,1.109
				C1024.183,502.32,1023.703,501.811,1023.703,501.211z"/>
			<path d="M1029.913,515.641c0-2.25,1.95-3.75,4.649-3.75c1.439,0,3.091,0.359,3.989,0.721v-2.28c0-0.779-0.21-1.439-0.63-1.949
				c-0.57-0.66-1.56-1.11-2.938-1.11c-1.44,0-2.28,0.479-2.762,0.961c0.182,0.18,0.302,0.479,0.302,0.81c0,0.45-0.36,0.9-0.9,0.9
				c-0.6,0-0.96-0.45-0.96-1.021c0-1.17,1.59-2.609,4.41-2.609c1.649,0,2.938,0.479,3.688,1.351c0.57,0.63,0.87,1.471,0.87,2.49
				v7.858h2.16V519h-3.21v-1.89c-1.021,1.108-2.67,2.1-4.5,2.1C1031.443,519.21,1029.913,517.62,1029.913,515.641z
				 M1038.553,516.061v-2.609c-1.14-0.36-2.58-0.63-3.93-0.63c-2.46,0-3.6,1.29-3.6,2.76c0,1.41,1.02,2.67,3.209,2.67
				C1036.003,518.25,1037.503,517.26,1038.553,516.061z"/>
			<path d="M1047.162,509.04c1.17-1.409,3-2.729,4.95-2.729c1.648,0,2.698,0.66,3.27,1.65c0.39,0.689,0.57,1.619,0.57,2.64v7.409
				h2.188V519h-5.46v-0.99h2.16v-7.26c0-0.84-0.09-1.529-0.36-2.069c-0.42-0.87-1.26-1.351-2.52-1.351
				c-1.83,0-3.51,1.229-4.739,2.729v7.949h2.159V519h-5.46v-0.99h2.19v-10.499h-2.19v-0.989h3.24L1047.162,509.04L1047.162,509.04z"
				/>
			<path d="M1062.071,517.83c-0.21-0.45-0.3-0.96-0.3-1.561v-8.76h-2.28v-0.99h2.28v-3.329l1.109-0.391v3.72h4.021v0.99h-4.021
				v8.641c0,0.479,0.061,0.84,0.21,1.17c0.271,0.568,0.779,0.84,1.59,0.84c0.78,0,1.53-0.3,2.279-0.75l-0.18,1.109
				c-0.601,0.359-1.319,0.689-2.341,0.689C1063.271,519.21,1062.491,518.73,1062.071,517.83z"/>
		</g>
	</g>
</g>
</svg>
