<?xml version="1.0" encoding="utf-8"?>
<!-- Generator: Adobe Illustrator 15.0.0, SVG Export Plug-In . SVG Version: 6.00 Build 0)  -->
<!DOCTYPE svg PUBLIC "-//W3C//DTD SVG 1.1//EN" "http://www.w3.org/Graphics/SVG/1.1/DTD/svg11.dtd">
<svg version="1.1" id="Layer_1" xmlns="http://www.w3.org/2000/svg" xmlns:xlink="http://www.w3.org/1999/xlink" x="0px" y="0px"
	 width="1920px" height="1080px" viewBox="0 0 1920 1080" enable-background="new 0 0 1920 1080" xml:space="preserve">
<g id="Layer_2">
	<g id="outlines_1_">
		<g>
			<path d="M167.055,256.232v-68.845c0-5.42,4.285-9.708,9.708-9.708h48.922c4.79,0,8.7,3.906,8.7,8.7
				c0,4.792-3.908,8.573-8.7,8.573h-39.34v17.906h33.666c4.79,0,8.7,3.907,8.7,8.7c0,4.792-3.908,8.573-8.7,8.573h-33.666v18.536
				h39.97c4.791,0,8.699,3.907,8.699,8.7c0,4.792-3.907,8.573-8.699,8.573h-49.554C171.34,265.94,167.055,261.653,167.055,256.232z"
				/>
			<path d="M251.523,186.885c0-5.423,4.286-9.709,9.708-9.709h2.018c4.665,0,7.439,2.27,10.088,5.673l37.448,49.173v-45.517
				c0-5.293,4.287-9.584,9.583-9.584s9.584,4.289,9.584,9.584v70.229c0,5.423-4.287,9.709-9.709,9.709h-0.631
				c-4.665,0-7.438-2.271-10.087-5.673l-38.835-50.939v47.284c0,5.293-4.286,9.583-9.583,9.583c-5.298,0-9.584-4.288-9.584-9.583
				V186.885L251.523,186.885z"/>
			<path d="M371.674,195.584h-18.658c-4.919,0-8.954-4.035-8.954-8.951c0-4.917,4.036-8.952,8.954-8.952h56.737
				c4.918,0,8.953,4.035,8.953,8.952c0,4.916-4.036,8.951-8.953,8.951h-18.659v61.404c0,5.421-4.289,9.709-9.709,9.709
				c-5.422,0-9.711-4.288-9.711-9.709V195.584L371.674,195.584z"/>
			<path d="M432.818,186.631c0-5.421,4.286-9.71,9.708-9.71c5.425,0,9.71,4.289,9.71,9.71v25.975h35.809v-25.975
				c0-5.421,4.287-9.71,9.709-9.71c5.423,0,9.709,4.289,9.709,9.71v70.357c0,5.421-4.286,9.709-9.709,9.709
				c-5.422,0-9.709-4.288-9.709-9.709V230.51h-35.809v26.478c0,5.421-4.285,9.709-9.71,9.709c-5.422,0-9.708-4.288-9.708-9.709
				V186.631L432.818,186.631z"/>
			<path d="M527.25,228.114v-41.481c0-5.422,4.287-9.71,9.708-9.71c5.423,0,9.709,4.289,9.709,9.71v40.978
				c0,14.375,7.187,21.813,19.039,21.813c11.854,0,19.039-7.187,19.039-21.185v-41.608c0-5.421,4.286-9.71,9.71-9.71
				c5.422,0,9.708,4.289,9.708,9.71v40.852c0,26.731-15.005,39.844-38.709,39.844C541.751,267.327,527.25,254.089,527.25,228.114z"
				/>
			<path d="M622.185,256.608c-2.145-1.512-3.656-4.285-3.656-7.312c0-5.045,4.035-8.951,9.078-8.951
				c2.521,0,4.288,0.882,5.549,1.765c6.681,4.919,13.996,7.943,22.569,7.943c7.943,0,12.733-3.151,12.733-8.321v-0.254
				c0-4.917-3.025-7.438-17.776-11.221c-17.777-4.539-29.251-9.456-29.251-26.981v-0.252c0-16.014,12.859-26.604,30.89-26.604
				c10.719,0,20.049,2.773,27.992,7.816c2.145,1.26,4.285,3.908,4.285,7.692c0,5.043-4.034,8.951-9.078,8.951
				c-1.891,0-3.404-0.504-4.918-1.387c-6.431-3.782-12.482-5.925-18.534-5.925c-7.439,0-11.348,3.402-11.348,7.691v0.25
				c0,5.8,3.782,7.693,19.039,11.601c17.904,4.665,27.991,11.097,27.991,26.478v0.254c0,17.527-13.366,27.36-32.406,27.36
				C643.743,267.2,632.019,263.67,622.185,256.608z"/>
			<path d="M705.521,186.631c0-5.421,4.288-9.71,9.709-9.71c5.425,0,9.714,4.289,9.714,9.71v70.357c0,5.421-4.289,9.709-9.714,9.709
				c-5.421,0-9.709-4.288-9.709-9.709V186.631L705.521,186.631z"/>
			<path d="M742.08,253.458l30.765-69.475c2.148-4.791,6.055-7.692,11.349-7.692h1.132c5.296,0,9.082,2.9,11.222,7.692
				l30.767,69.475c0.627,1.385,1.008,2.648,1.008,3.905c0,5.169-4.037,9.332-9.206,9.332c-4.541,0-7.563-2.649-9.33-6.682
				l-5.927-13.872h-38.833l-6.178,14.5c-1.64,3.783-4.918,6.054-8.95,6.054c-5.046,0-8.949-4.036-8.949-9.081
				C740.948,256.232,741.451,254.843,742.08,253.458z M796.678,228.998l-12.229-29.128l-12.228,29.128H796.678z"/>
			<path d="M841.179,256.608c-2.146-1.512-3.656-4.285-3.656-7.312c0-5.045,4.032-8.951,9.077-8.951
				c2.521,0,4.287,0.882,5.548,1.765c6.683,4.919,13.996,7.943,22.571,7.943c7.941,0,12.732-3.151,12.732-8.321v-0.254
				c0-4.917-3.028-7.438-17.776-11.221c-17.775-4.539-29.254-9.456-29.254-26.981v-0.252c0-16.014,12.865-26.604,30.896-26.604
				c10.718,0,20.048,2.773,27.986,7.816c2.146,1.26,4.287,3.908,4.287,7.692c0,5.043-4.036,8.951-9.078,8.951
				c-1.892,0-3.404-0.504-4.92-1.387c-6.432-3.782-12.482-5.925-18.537-5.925c-7.438,0-11.344,3.402-11.344,7.691v0.25
				c0,5.8,3.782,7.693,19.039,11.601c17.904,4.665,27.989,11.097,27.989,26.478v0.254c0,17.527-13.365,27.36-32.404,27.36
				C862.738,267.2,851.012,263.67,841.179,256.608z"/>
			<path d="M923.632,186.885c0-5.423,4.285-9.709,9.708-9.709h2.144c4.161,0,7.062,2.145,8.826,5.045l23.454,38.202l23.58-38.331
				c2.019-3.28,4.791-4.919,8.698-4.919h2.148c5.422,0,9.709,4.287,9.709,9.709v70.104c0,5.422-4.287,9.709-9.709,9.709
				c-5.295,0-9.588-4.415-9.588-9.709v-44.005l-17.021,26.229c-2.019,3.026-4.538,4.917-8.069,4.917
				c-3.528,0-6.052-1.891-8.065-4.917l-16.77-25.85v43.88c0,5.293-4.288,9.456-9.582,9.456c-5.296,0-9.457-4.162-9.457-9.456
				v-70.355H923.632z"/>
			<path d="M1071.769,186.631c0-5.421,4.287-9.71,9.708-9.71c5.427,0,9.709,4.289,9.709,9.71v70.357
				c0,5.421-4.282,9.709-9.709,9.709c-5.421,0-9.708-4.288-9.708-9.709V186.631z"/>
			<path d="M1111.479,256.608c-2.145-1.512-3.658-4.285-3.658-7.312c0-5.045,4.039-8.951,9.083-8.951
				c2.518,0,4.284,0.882,5.548,1.765c6.679,4.919,13.994,7.943,22.567,7.943c7.944,0,12.734-3.151,12.734-8.321v-0.254
				c0-4.917-3.028-7.438-17.777-11.221c-17.778-4.539-29.253-9.456-29.253-26.981v-0.252c0-16.014,12.861-26.604,30.896-26.604
				c10.717,0,20.045,2.773,27.988,7.816c2.146,1.26,4.285,3.908,4.285,7.692c0,5.043-4.032,8.951-9.077,8.951
				c-1.891,0-3.402-0.504-4.92-1.387c-6.432-3.782-12.482-5.925-18.534-5.925c-7.438,0-11.346,3.402-11.346,7.691v0.25
				c0,5.8,3.779,7.693,19.036,11.601c17.907,4.665,27.991,11.097,27.991,26.478v0.254c0,17.527-13.365,27.36-32.404,27.36
				C1133.042,267.2,1121.316,263.67,1111.479,256.608z"/>
			<path d="M1226.838,253.458l30.761-69.475c2.148-4.791,6.053-7.692,11.349-7.692h1.133c5.296,0,9.081,2.9,11.221,7.692
				l30.766,69.475c0.628,1.385,1.009,2.648,1.009,3.905c0,5.169-4.037,9.332-9.206,9.332c-4.54,0-7.562-2.649-9.33-6.682
				l-5.927-13.872h-38.835l-6.179,14.5c-1.64,3.783-4.918,6.054-8.947,6.054c-5.045,0-8.954-4.036-8.954-9.081
				C1225.702,256.232,1226.207,254.843,1226.838,253.458z M1281.434,228.998l-12.229-29.128l-12.228,29.128H1281.434z"/>
			<path d="M1328.328,186.631c0-5.421,4.284-9.71,9.708-9.71c5.423,0,9.71,4.289,9.71,9.71v61.656h35.932
				c4.922,0,8.826,3.908,8.826,8.827c0,4.916-3.904,8.825-8.826,8.825h-45.64c-5.424,0-9.708-4.287-9.708-9.708v-69.6H1328.328z"/>
			<path d="M1389.474,190.037c-0.38-1.133-0.76-2.521-0.76-3.658c0-5.422,4.542-9.457,9.961-9.457c4.538,0,8.196,2.9,9.455,6.937
				l17.527,54.091l17.651-53.587c1.511-4.54,4.918-7.692,9.831-7.692h1.514c4.92,0,8.322,3.028,9.835,7.692l17.651,53.587
				l17.526-54.091c1.262-3.782,4.539-6.937,9.331-6.937c5.291,0,9.581,4.037,9.581,9.332c0,1.133-0.378,2.65-0.756,3.783
				l-24.713,69.349c-1.766,4.917-5.423,7.943-10.089,7.943h-2.016c-4.667,0-8.196-2.9-9.959-7.943l-17.402-50.56l-17.399,50.56
				c-1.765,5.042-5.295,7.943-9.96,7.943h-2.016c-4.664,0-8.32-3.028-10.091-7.943L1389.474,190.037z"/>
			<path d="M1520.97,253.458l30.766-69.475c2.145-4.791,6.052-7.692,11.345-7.692h1.135c5.293,0,9.079,2.9,11.22,7.692
				l30.764,69.475c0.631,1.385,1.01,2.648,1.01,3.905c0,5.169-4.034,9.332-9.204,9.332c-4.541,0-7.563-2.649-9.331-6.682
				l-5.926-13.872h-38.834l-6.178,14.5c-1.645,3.783-4.922,6.054-8.952,6.054c-5.045,0-8.954-4.036-8.954-9.081
				C1519.834,256.232,1520.339,254.843,1520.97,253.458z M1575.565,228.998l-12.228-29.128l-12.229,29.128H1575.565z"/>
			<path d="M1636.079,231.896l-28.496-38.707c-1.387-1.891-2.396-4.161-2.396-6.934c0-5.168,4.287-9.332,9.711-9.332
				c4.414,0,7.187,2.397,9.586,5.928l21.43,30.892l21.812-31.144c2.396-3.531,5.297-5.8,9.332-5.8c5.926,0,9.457,4.161,9.457,9.456
				c0,2.65-1.264,5.043-2.522,6.809l-28.492,38.458v25.468c0,5.422-4.287,9.709-9.708,9.709c-5.426,0-9.709-4.288-9.709-9.709
				L1636.079,231.896L1636.079,231.896z"/>
			<path d="M1695.456,256.608c-2.146-1.512-3.658-4.285-3.658-7.312c0-5.045,4.039-8.951,9.082-8.951
				c2.52,0,4.285,0.882,5.547,1.765c6.683,4.919,13.997,7.943,22.571,7.943c7.942,0,12.734-3.151,12.734-8.321v-0.254
				c0-4.917-3.028-7.438-17.779-11.221c-17.775-4.539-29.251-9.456-29.251-26.981v-0.252c0-16.014,12.859-26.604,30.893-26.604
				c10.717,0,20.047,2.773,27.989,7.816c2.146,1.26,4.287,3.908,4.287,7.692c0,5.043-4.035,8.951-9.08,8.951
				c-1.892,0-3.403-0.504-4.92-1.387c-6.431-3.782-12.481-5.925-18.534-5.925c-7.439,0-11.345,3.402-11.345,7.691v0.25
				c0,5.8,3.778,7.693,19.038,11.601c17.906,4.665,27.988,11.097,27.988,26.478v0.254c0,17.527-13.364,27.36-32.402,27.36
				C1717.019,267.2,1705.294,263.67,1695.456,256.608z"/>
			<path d="M167.055,338.679c0-5.421,4.285-9.708,9.708-9.708h30.639c11.224,0,19.921,3.152,25.722,8.952
				c4.919,4.919,7.564,11.853,7.564,20.174v0.252c0,13.87-6.935,22.443-17.65,26.856l13.491,16.391
				c1.893,2.396,3.15,4.413,3.15,7.438c0,5.423-4.539,8.954-9.204,8.954c-4.412,0-7.312-2.145-9.583-5.045l-18.913-23.958h-15.507
				v19.293c0,5.422-4.287,9.71-9.711,9.71c-5.422,0-9.707-4.289-9.707-9.71L167.055,338.679L167.055,338.679z M206.143,371.839
				c9.455,0,14.877-5.043,14.877-12.481v-0.252c0-8.322-5.8-12.608-15.258-12.608h-19.29v25.342L206.143,371.839L206.143,371.839z"
				/>
			<path d="M259.089,337.924c0-5.422,4.287-9.709,9.707-9.709c5.424,0,9.71,4.288,9.71,9.709v70.356c0,5.422-4.286,9.71-9.71,9.71
				c-5.42,0-9.707-4.289-9.707-9.71V337.924z"/>
			<path d="M296.659,373.354V373.1c0-25.091,19.542-45.643,46.272-45.643c13.366,0,22.191,3.028,30.134,8.573
				c1.892,1.387,4.036,4.037,4.036,7.818c0,5.293-4.286,9.583-9.584,9.583c-2.772,0-4.538-1.009-5.927-2.017
				c-5.293-3.783-10.969-6.054-19.29-6.054c-14.122,0-25.347,12.483-25.347,27.486v0.254c0,16.14,11.099,27.99,26.731,27.99
				c7.062,0,13.366-1.766,18.282-5.295v-12.609h-13.11c-4.665,0-8.448-3.657-8.448-8.321c0-4.665,3.783-8.447,8.448-8.447h22.188
				c5.426,0,9.71,4.287,9.71,9.709v21.433c0,5.673-2.144,9.583-6.811,12.356c-7.187,4.415-17.649,8.827-30.891,8.827
				C315.572,418.745,296.659,399.452,296.659,373.354z"/>
			<path d="M399.411,337.924c0-5.422,4.283-9.709,9.708-9.709c5.422,0,9.709,4.288,9.709,9.709v25.975h35.81v-25.975
				c0-5.422,4.284-9.709,9.708-9.709c5.422,0,9.707,4.288,9.707,9.709v70.356c0,5.422-4.285,9.71-9.707,9.71
				c-5.424,0-9.708-4.289-9.708-9.71v-26.477h-35.81v26.477c0,5.422-4.286,9.71-9.709,9.71c-5.425,0-9.708-4.289-9.708-9.71V337.924
				L399.411,337.924z"/>
			<path d="M515.78,346.875h-18.662c-4.918,0-8.949-4.034-8.949-8.951s4.033-8.952,8.949-8.952h56.737
				c4.919,0,8.952,4.035,8.952,8.952s-4.034,8.951-8.952,8.951h-18.66v61.404c0,5.421-4.284,9.71-9.708,9.71
				c-5.423,0-9.707-4.289-9.707-9.71V346.875L515.78,346.875z"/>
			<path d="M559.904,429.209c6.431-1.513,9.961-5.927,9.708-11.979c-4.415-1.133-8.825-4.917-8.825-10.338v-0.252
				c0-5.927,4.16-10.339,10.467-10.339c7.059,0,11.221,5.423,11.221,14.122v0.502c0,9.205-2.772,16.014-7.438,20.679
				c-3.782,3.783-9.455,6.053-14.12,6.053c-3.406,0-4.791-2.018-4.791-4.287S557.762,429.714,559.904,429.209z"/>
			<path d="M638.195,407.524V338.68c0-5.422,4.285-9.709,9.708-9.709h48.922c4.791,0,8.701,3.907,8.701,8.7
				c0,4.792-3.906,8.573-8.701,8.573h-39.34v17.906h33.666c4.79,0,8.702,3.907,8.702,8.699c0,4.793-3.908,8.573-8.702,8.573h-33.666
				v18.537h39.971c4.791,0,8.697,3.907,8.697,8.7c0,4.792-3.904,8.573-8.697,8.573h-49.555
				C642.482,417.232,638.195,412.944,638.195,407.524z"/>
			<path d="M746.246,410.927l-28.626-68.466c-0.628-1.511-1.132-3.026-1.132-4.665c0-5.42,4.282-9.583,9.709-9.583
				c5.043,0,8.32,2.899,9.835,6.809l22.063,57.118l22.318-57.748c1.261-3.153,4.665-6.179,9.33-6.179
				c5.291,0,9.583,4.035,9.583,9.331c0,1.513-0.505,3.152-1.009,4.287l-28.872,69.095c-2.018,4.791-5.675,7.693-10.973,7.693h-1.262
				C751.92,418.619,748.264,415.717,746.246,410.927z"/>
			<path d="M814.198,407.524V338.68c0-5.422,4.285-9.709,9.708-9.709h48.922c4.787,0,8.7,3.907,8.7,8.7
				c0,4.792-3.909,8.573-8.7,8.573h-39.339v17.906h33.668c4.788,0,8.7,3.907,8.7,8.699c0,4.793-3.905,8.573-8.7,8.573h-33.668
				v18.537h39.97c4.791,0,8.698,3.907,8.698,8.7c0,4.792-3.903,8.573-8.698,8.573h-49.553
				C818.483,417.232,814.198,412.944,814.198,407.524z"/>
			<path d="M898.668,338.176c0-5.423,4.283-9.709,9.707-9.709h2.015c4.665,0,7.44,2.269,10.092,5.673l37.446,49.173v-45.517
				c0-5.293,4.289-9.583,9.583-9.583c5.296,0,9.587,4.288,9.587,9.583v70.229c0,5.423-4.287,9.71-9.71,9.71h-0.629
				c-4.665,0-7.438-2.272-10.088-5.674l-38.838-50.94v47.284c0,5.293-4.283,9.584-9.582,9.584c-5.3,0-9.583-4.289-9.583-9.584
				V338.176L898.668,338.176z"/>
			<path d="M1036.972,337.924c0-5.422,4.285-9.709,9.708-9.709c5.427,0,9.708,4.288,9.708,9.709v70.356
				c0,5.422-4.281,9.71-9.708,9.71c-5.423,0-9.708-4.289-9.708-9.71V337.924z"/>
			<path d="M1078.45,338.176c0-5.423,4.285-9.709,9.707-9.709h2.017c4.663,0,7.441,2.269,10.089,5.673l37.447,49.173v-45.517
				c0-5.293,4.287-9.583,9.583-9.583c5.298,0,9.585,4.288,9.585,9.583v70.229c0,5.423-4.285,9.71-9.708,9.71h-0.631
				c-4.665,0-7.438-2.272-10.086-5.674l-38.836-50.94v47.284c0,5.293-4.287,9.584-9.585,9.584c-5.295,0-9.582-4.289-9.582-9.584
				V338.176L1078.45,338.176z"/>
			<path d="M1236.421,346.875h-18.66c-4.918,0-8.95-4.034-8.95-8.951s4.036-8.952,8.95-8.952h56.738c4.918,0,8.95,4.035,8.95,8.952
				s-4.035,8.951-8.95,8.951h-18.661v61.404c0,5.421-4.285,9.71-9.708,9.71c-5.422,0-9.709-4.289-9.709-9.71V346.875z"/>
			<path d="M1297.565,337.924c0-5.422,4.286-9.709,9.708-9.709s9.709,4.288,9.709,9.709v25.975h35.808v-25.975
				c0-5.422,4.287-9.709,9.71-9.709c5.421,0,9.707,4.288,9.707,9.709v70.356c0,5.422-4.286,9.71-9.707,9.71
				c-5.423,0-9.71-4.289-9.71-9.71v-26.477h-35.808v26.477c0,5.422-4.287,9.71-9.709,9.71c-5.421,0-9.708-4.289-9.708-9.71V337.924
				L1297.565,337.924z"/>
			<path d="M1393.383,407.524V338.68c0-5.422,4.286-9.709,9.707-9.709h48.922c4.792,0,8.7,3.907,8.7,8.7
				c0,4.792-3.907,8.573-8.7,8.573h-39.339v17.906h33.665c4.792,0,8.7,3.907,8.7,8.699c0,4.793-3.905,8.573-8.7,8.573h-33.665
				v18.537h39.969c4.789,0,8.702,3.907,8.702,8.7c0,4.792-3.909,8.573-8.702,8.573h-49.553
				C1397.669,417.232,1393.383,412.944,1393.383,407.524z"/>
			<path d="M161.508,492.616c-0.38-1.133-0.758-2.521-0.758-3.656c0-5.421,4.54-9.456,9.96-9.456c4.538,0,8.193,2.899,9.456,6.937
				l17.524,54.09l17.652-53.588c1.514-4.54,4.919-7.692,9.835-7.692h1.512c4.919,0,8.321,3.028,9.836,7.692l17.651,53.588
				l17.525-54.09c1.262-3.783,4.54-6.937,9.332-6.937c5.293,0,9.583,4.036,9.583,9.33c0,1.134-0.381,2.648-0.759,3.781
				l-24.713,69.349c-1.765,4.922-5.423,7.945-10.088,7.945h-2.018c-4.664,0-8.194-2.9-9.96-7.945l-17.402-50.56l-17.399,50.56
				c-1.767,5.045-5.295,7.945-9.96,7.945h-2.018c-4.665,0-8.32-3.027-10.085-7.945L161.508,492.616z"/>
			<path d="M305.483,489.971c0-5.422,4.289-9.708,9.71-9.708h30.641c11.221,0,19.922,3.153,25.721,8.953
				c4.918,4.917,7.565,11.852,7.565,20.174v0.252c0,13.872-6.938,22.445-17.652,26.857l13.489,16.393
				c1.892,2.395,3.153,4.411,3.153,7.438c0,5.422-4.541,8.949-9.205,8.949c-4.414,0-7.313-2.144-9.581-5.043l-18.915-23.958H324.9
				v19.292c0,5.425-4.286,9.708-9.709,9.708c-5.422,0-9.71-4.283-9.71-9.708L305.483,489.971L305.483,489.971z M344.57,523.131
				c9.456,0,14.88-5.044,14.88-12.482v-0.252c0-8.324-5.801-12.608-15.258-12.608H324.9v25.343H344.57L344.57,523.131z"/>
			<path d="M392.729,524.643v-0.252c0-25.093,19.795-45.643,47.029-45.643c27.233,0,46.777,20.301,46.777,45.391v0.254
				c0,25.091-19.797,45.645-47.027,45.645C412.271,570.036,392.729,549.735,392.729,524.643z M466.235,524.643v-0.252
				c0-15.13-11.097-27.739-26.729-27.739c-15.638,0-26.479,12.356-26.479,27.485v0.254c0,15.131,11.097,27.738,26.731,27.738
				S466.235,539.774,466.235,524.643z"/>
			<path d="M503.8,489.467c0-5.423,4.285-9.708,9.708-9.708h2.018c4.665,0,7.44,2.268,10.087,5.673l37.448,49.173v-45.517
				c0-5.296,4.286-9.584,9.582-9.584c5.297,0,9.583,4.286,9.583,9.584v70.229c0,5.42-4.284,9.709-9.707,9.709h-0.631
				c-4.665,0-7.438-2.271-10.086-5.675l-38.835-50.94v47.283c0,5.297-4.288,9.584-9.583,9.584c-5.297,0-9.584-4.284-9.584-9.584
				V489.467z"/>
			<path d="M599.488,524.643v-0.252c0-25.093,19.545-45.643,46.275-45.643c13.365,0,22.19,3.026,30.136,8.573
				c1.893,1.385,4.034,4.035,4.034,7.815c0,5.295-4.286,9.584-9.583,9.584c-2.773,0-4.541-1.009-5.927-2.017
				c-5.295-3.783-10.971-6.052-19.293-6.052c-14.12,0-25.342,12.482-25.342,27.485v0.254c0,16.14,11.094,27.99,26.73,27.99
				c7.059,0,13.363-1.766,18.281-5.295v-12.609h-13.114c-4.665,0-8.447-3.655-8.447-8.317c0-4.665,3.782-8.448,8.447-8.448h22.193
				c5.421,0,9.707,4.285,9.707,9.708v21.434c0,5.675-2.144,9.588-6.809,12.36c-7.188,4.411-17.651,8.826-30.895,8.826
				C618.402,570.036,599.488,550.744,599.488,524.643z"/>
			<path d="M740.063,489.971c0-5.422,4.286-9.708,9.709-9.708h26.352c21.058,0,33.792,12.483,33.792,30.513v0.254
				c0,20.424-15.887,31.016-35.684,31.016h-14.75v17.527c0,5.425-4.289,9.708-9.71,9.708c-5.423,0-9.709-4.283-9.709-9.708V489.971z
				 M774.863,524.77c9.707,0,15.381-5.799,15.381-13.363v-0.252c0-8.7-6.052-13.365-15.759-13.365h-15.004v26.979L774.863,524.77
				L774.863,524.77z"/>
			<path d="M824.28,489.214c0-5.423,4.289-9.709,9.71-9.709c5.426,0,9.709,4.286,9.709,9.709v61.657h35.935
				c4.918,0,8.827,3.908,8.827,8.824c0,4.917-3.909,8.826-8.827,8.826H833.99c-5.421,0-9.71-4.285-9.71-9.709V489.214
				L824.28,489.214z"/>
			<path d="M897.404,556.04l30.765-69.475c2.143-4.792,6.052-7.69,11.35-7.69h1.131c5.296,0,9.082,2.897,11.223,7.69l30.76,69.475
				c0.631,1.387,1.009,2.647,1.009,3.903c0,5.172-4.033,9.332-9.202,9.332c-4.538,0-7.565-2.648-9.33-6.681l-5.928-13.869h-38.834
				l-6.181,14.497c-1.638,3.782-4.916,6.053-8.95,6.053c-5.044,0-8.95-4.034-8.95-9.078
				C896.269,558.812,896.774,557.427,897.404,556.04z M951.999,531.578l-12.229-29.125l-12.23,29.125H951.999z"/>
			<path d="M991.834,524.643v-0.252c0-25.093,18.913-45.643,46.019-45.643c13.242,0,22.194,3.531,29.509,8.951
				c2.013,1.514,3.781,4.287,3.781,7.69c0,5.297-4.286,9.456-9.586,9.456c-2.647,0-4.413-1.006-5.799-1.891
				c-5.426-4.035-11.097-6.304-18.03-6.304c-14.879,0-25.596,12.356-25.596,27.485v0.254c0,15.131,10.466,27.738,25.596,27.738
				c8.196,0,13.613-2.519,19.162-6.934c1.515-1.263,3.535-2.146,5.801-2.146c4.919,0,9.08,4.035,9.08,8.953
				c0,3.025-1.515,5.421-3.278,6.933c-7.943,6.938-17.271,11.1-31.396,11.1C1011.127,570.036,991.834,549.988,991.834,524.643z"/>
			<path d="M1088.785,558.812v-68.842c0-5.422,4.289-9.709,9.709-9.709h48.922c4.792,0,8.701,3.908,8.701,8.7
				s-3.906,8.573-8.701,8.573h-39.339v17.905h33.665c4.792,0,8.702,3.907,8.702,8.7s-3.907,8.573-8.702,8.573h-33.665v18.534h39.97
				c4.788,0,8.701,3.908,8.701,8.699c0,4.793-3.909,8.573-8.701,8.573h-49.553C1093.074,568.521,1088.785,564.236,1088.785,558.812z
				"/>
			<path d="M1180.694,547.591c6.309,0,10.974,4.667,10.974,10.718v0.254c0,6.051-4.665,10.718-10.974,10.718
				c-6.306,0-10.971-4.667-10.971-10.718v-0.254C1169.725,552.258,1174.39,547.591,1180.694,547.591z"/>
		</g>
	</g>
</g>
<g id="author">
	<g id="outlines">
		<g>
			<path d="M158.981,901.5h4.781v-30.89h-4.781v-1.839h11.82v1.839h-4.886v13.973h21.434V870.61h-4.835v-1.839h11.819v1.839h-4.833
				v30.891h4.833v1.837h-11.819V901.5h4.835v-14.972h-21.434V901.5h4.886v1.838h-11.82V901.5L158.981,901.5z"/>
			<path d="M200.171,892.621c0.211,6.095,3.888,9.351,9.4,9.351c2.944,0,5.307-0.993,7.619-2.518l-0.158,1.996
				c-2.101,1.423-4.833,2.259-7.671,2.259c-6.672,0-11.188-4.465-11.188-11.344c0-6.199,4.308-11.244,10.349-11.244
				c6.25,0,9.72,4.884,9.72,10.245c0,0.524-0.054,0.944-0.157,1.26h-17.912L200.171,892.621L200.171,892.621z M200.223,890.94
				h16.021c-0.21-4.518-2.838-8.09-7.881-8.09C204.162,882.852,200.696,886.107,200.223,890.94z"/>
			<path d="M237.518,883.22c0,0.945-0.683,1.732-1.732,1.732c-0.944,0-1.786-0.787-1.84-1.732c-1.995,0.318-4.045,2.521-5.462,5.095
				v13.289h4.307v1.734h-10.085v-1.734h3.834V883.22h-3.834v-1.729h5.673v4.882c1.629-2.887,4.308-5.253,6.565-5.253
				C236.624,881.118,237.518,882.116,237.518,883.22z"/>
			<path d="M240.563,901.604h3.835V883.22h-3.835v-1.729h5.674v4.412c1.996-2.469,5.147-4.78,8.457-4.78
				c2.732,0,4.52,1.052,5.465,2.786c0.313,0.627,0.523,1.312,0.683,1.995c2.417-2.73,5.514-4.777,8.614-4.777
				c3.046,0,4.778,1.204,5.673,3.201c0.577,1.207,0.787,2.678,0.787,4.308v12.975h3.836v1.729h-9.562v-1.734h3.782v-12.712
				c0-1.471-0.21-2.678-0.578-3.52c-0.684-1.631-2.049-2.469-4.202-2.469c-2.994,0-5.777,2.049-8.089,4.675v14.024h3.834v1.734
				h-9.562v-1.734h3.783v-12.712c0-1.417-0.158-2.626-0.525-3.52c-0.686-1.631-2.049-2.469-4.202-2.469
				c-3.103,0-5.883,2.15-8.089,4.729v13.971h3.78v1.735h-9.562L240.563,901.604L240.563,901.604z"/>
			<path d="M283.167,897.455c0-3.939,3.415-6.566,8.141-6.566c2.522,0,5.413,0.631,6.987,1.265v-3.992
				c0-1.365-0.368-2.521-1.104-3.413c-0.999-1.156-2.731-1.943-5.146-1.943c-2.522,0-3.993,0.838-4.835,1.684
				c0.315,0.314,0.525,0.838,0.525,1.418c0,0.788-0.63,1.577-1.575,1.577c-1.052,0-1.682-0.789-1.682-1.789
				c0-2.05,2.785-4.567,7.724-4.567c2.887,0,5.146,0.838,6.459,2.365c0.998,1.103,1.523,2.575,1.523,4.359v13.76h3.781v1.729h-5.621
				v-3.309c-1.787,1.938-4.675,3.677-7.879,3.677C285.849,903.706,283.167,900.922,283.167,897.455z M298.297,898.19v-4.567
				c-1.997-0.631-4.52-1.104-6.882-1.104c-4.309,0-6.306,2.26-6.306,4.832c0,2.471,1.789,4.677,5.622,4.677
				C293.832,902.024,296.458,900.291,298.297,898.19z"/>
			<path d="M313.373,885.896c2.049-2.468,5.253-4.778,8.668-4.778c2.888,0,4.726,1.156,5.726,2.89
				c0.684,1.207,0.998,2.835,0.998,4.622v12.974h3.833v1.734h-9.561v-1.734h3.781v-12.712c0-1.471-0.156-2.678-0.63-3.622
				c-0.735-1.523-2.207-2.365-4.413-2.365c-3.204,0-6.146,2.15-8.298,4.776v13.92h3.78v1.737h-9.562v-1.734h3.835V883.22h-3.835
				v-1.729h5.674L313.373,885.896L313.373,885.896z"/>
			<path d="M341.95,885.896c2.049-2.468,5.254-4.778,8.668-4.778c2.887,0,4.727,1.156,5.726,2.89
				c0.684,1.207,0.999,2.835,0.999,4.622v12.974h3.833v1.734h-9.562v-1.734h3.782v-12.712c0-1.471-0.157-2.678-0.63-3.622
				c-0.735-1.523-2.207-2.365-4.413-2.365c-3.204,0-6.146,2.15-8.299,4.776v13.92h3.781v1.737h-9.562v-1.734h3.834V883.22h-3.834
				v-1.729h5.674v4.41h0.002L341.95,885.896L341.95,885.896z"/>
			<path d="M376.935,901.5h4.78v-30.89h-4.78v-1.839h13.765c7.72,0,10.924,4.149,10.924,8.614c0,4.201-2.834,7.302-6.984,8.247
				c4.99,0.946,7.985,3.892,7.985,8.355c0,5.566-4.571,9.351-11.559,9.351h-14.131V901.5L376.935,901.5z M390.332,884.743
				c6.405,0,9.192-3.204,9.192-7.25c0-3.94-2.89-6.885-8.933-6.885h-6.724v14.132L390.332,884.743L390.332,884.743z M391.119,901.5
				c5.778,0,9.401-3.104,9.401-7.513c0-4.624-3.623-7.406-10.244-7.406h-6.407v14.922L391.119,901.5L391.119,901.5z"/>
			<path d="M408.033,897.455c0-3.939,3.414-6.566,8.141-6.566c2.521,0,5.413,0.631,6.987,1.265v-3.992
				c0-1.365-0.368-2.521-1.104-3.413c-0.997-1.156-2.729-1.943-5.146-1.943c-2.521,0-3.991,0.838-4.834,1.684
				c0.316,0.314,0.526,0.838,0.526,1.418c0,0.788-0.631,1.577-1.576,1.577c-1.051,0-1.681-0.789-1.681-1.789
				c0-2.05,2.783-4.567,7.722-4.567c2.889,0,5.146,0.838,6.46,2.365c0.998,1.103,1.523,2.575,1.523,4.359v13.76h3.782v1.729h-5.621
				v-3.309c-1.788,1.938-4.675,3.677-7.88,3.677C410.713,903.706,408.033,900.922,408.033,897.455z M423.162,898.19v-4.567
				c-1.996-0.631-4.519-1.104-6.883-1.104c-4.308,0-6.304,2.26-6.304,4.832c0,2.471,1.786,4.677,5.621,4.677
				C418.695,902.024,421.322,900.291,423.162,898.19z"/>
			<path d="M431.464,866.725v-1.732h5.726v20.854c2.049-2.52,5.201-4.729,8.616-4.729c2.677,0,4.412,0.944,5.514,2.469
				c0.945,1.264,1.313,3.046,1.313,5.043v12.974h3.835v1.734h-9.561v-1.734h3.78v-12.712c0-1.838-0.315-3.256-1.053-4.254
				c-0.838-1.104-2.258-1.733-4.149-1.733c-3.201,0-6.092,2.15-8.299,4.776v13.92h3.833v1.737h-9.559v-1.734h3.781v-34.879H431.464
				L431.464,866.725z"/>
			<path d="M474.959,883.22c0,0.945-0.685,1.732-1.734,1.732c-0.945,0-1.786-0.787-1.838-1.732
				c-1.997,0.318-4.045,2.521-5.462,5.095v13.289h4.306v1.734h-10.086v-1.734h3.835V883.22h-3.835v-1.729h5.673v4.882
				c1.629-2.887,4.309-5.253,6.566-5.253C474.064,881.118,474.959,882.116,474.959,883.22z"/>
		</g>
	</g>
</g>
</svg>
