<?xml version="1.0" encoding="utf-8"?>
<!-- Generator: Adobe Illustrator 15.0.0, SVG Export Plug-In . SVG Version: 6.00 Build 0)  -->
<!DOCTYPE svg PUBLIC "-//W3C//DTD SVG 1.1//EN" "http://www.w3.org/Graphics/SVG/1.1/DTD/svg11.dtd">
<svg version="1.1" id="Layer_1" xmlns="http://www.w3.org/2000/svg" xmlns:xlink="http://www.w3.org/1999/xlink" x="0px" y="0px"
	 width="1920px" height="1080px" viewBox="0 0 1920 1080" enable-background="new 0 0 1920 1080" xml:space="preserve">
<g id="outlines_1_">
	<g>
		<path d="M171.919,160.787v24.01h-23.22v63.723h-27.442v-63.722H98.961V160.79h72.958V160.787z"/>
		<path d="M204.499,178.203c10.951,0,32.191,3.3,32.191,34.699c0,24.407-15.173,37.733-34.04,37.733
			c-19.526,0-31.797-11.345-31.797-35.356C170.855,187.439,189.593,178.203,204.499,178.203z M209.251,214.747
			c0-12.532-1.32-17.677-5.674-17.677c-3.825,0-5.409,5.672-5.409,15.307c0,10.686,0.526,19.128,5.54,19.128
			C207.8,231.504,209.251,227.151,209.251,214.747z"/>
		<path d="M270.456,224.378c5.409,3.167,15.039,7.126,20.583,7.126c2.374,0,3.429-0.793,3.429-2.638c0-2.507-2.902-3.43-6.596-4.75
			c-9.764-3.299-21.241-6.859-21.241-21.504c0-15.171,12.931-24.407,28.101-24.407c10.952,0,20.979,3.826,28.103,10.291
			l-11.61,15.04c-6.464-4.485-11.61-6.598-14.776-6.598c-2.902,0-3.826,1.583-3.826,3.035c0,2.507,2.902,3.825,7.256,5.411
			c9.765,3.56,21.109,7.651,21.109,21.769c0,15.435-11.345,23.482-28.629,23.482c-12.798,0-23.748-4.483-28.365-7.651
			L270.456,224.378z"/>
		<path d="M389.456,180.313v54.224l1.582,13.985H368.74l-0.924-5.407h-0.791c-3.826,4.75-9.236,7.124-15.833,7.124
			c-15.437,0-22.956-8.18-22.956-24.541v-45.385h26.65v42.482c0,4.619,0.264,7.39,3.562,7.39c2.77,0,4.354-2.772,4.354-6.334
			v-43.538H389.456L389.456,180.313z"/>
		<path d="M448.157,225.041l9.104,17.943c-6.729,5.013-15.305,7.784-26.122,7.784c-20.055,0-33.381-11.873-33.381-35.227
			c0-25.859,16.889-37.337,34.04-37.337c10.292,0,20.186,3.3,27.046,14.513l-15.963,13.72c-2.639-3.696-5.41-7.387-9.764-7.387
			c-5.937,0-8.707,5.804-8.707,15.307c0,10.288,3.958,15.698,10.819,15.698C439.582,230.053,442.748,228.601,448.157,225.041z"/>
		<path d="M511.214,225.041l9.104,17.943c-6.728,5.013-15.304,7.784-26.122,7.784c-20.055,0-33.381-11.873-33.381-35.227
			c0-25.859,16.889-37.337,34.043-37.337c10.288,0,20.185,3.3,27.045,14.513l-15.962,13.72c-2.64-3.696-5.411-7.387-9.765-7.387
			c-5.937,0-8.706,5.804-8.706,15.307c0,10.288,3.957,15.698,10.814,15.698C502.64,230.053,505.806,228.601,511.214,225.041z"/>
		<path d="M583.642,200.5c0,18.075-18.997,22.824-32.587,24.143c1.053,3.958,4.749,6.466,10.421,6.466
			c5.409,0,11.216-2.245,16.097-5.411l6.728,17.417c0.266-0.132-10.553,7.52-26.911,7.52c-24.146,0-33.512-13.985-33.512-34.037
			c0-19.129,11.611-38.393,35.227-38.393C573.482,178.203,583.642,185.062,583.642,200.5z M557.518,196.674
			c-3.692,0-7.384,3.562-7.785,12.269c7.129-0.658,11.216-4.881,11.216-8.707C560.948,198.125,559.629,196.674,557.518,196.674z"/>
		<path d="M647.491,200.5c0,18.075-18.999,22.824-32.589,24.143c1.056,3.958,4.749,6.466,10.421,6.466
			c5.409,0,11.216-2.245,16.097-5.411l6.728,17.417c0.267-0.132-10.553,7.52-26.911,7.52c-24.143,0-33.512-13.985-33.512-34.037
			c0-19.129,11.611-38.393,35.227-38.393C637.332,178.203,647.491,185.062,647.491,200.5z M621.367,196.674
			c-3.696,0-7.388,3.562-7.785,12.269c7.125-0.658,11.216-4.881,11.216-8.707C624.798,198.125,623.477,196.674,621.367,196.674z"/>
		<path d="M689.175,178.334V156.83h26.255v76.39l1.713,15.303h-22.03l-1.454-5.673h-0.791c-1.584,3.562-6.989,7.916-14.772,7.916
			c-23.224,0-26.523-18.208-26.523-32.455c0-23.089,11.743-40.109,34.04-40.109C687.459,178.203,688.647,178.334,689.175,178.334z
			 M689.175,196.937c-10.029-1.581-11.215,10.292-11.215,19.397c0,8.838,1.318,15.435,6.334,15.435c2.77,0,4.881-2.375,4.881-4.618
			V196.937L689.175,196.937z"/>
		<path d="M735.872,274.249l-13.987-4.617c2.246-20.58,4.091-29.288,5.148-32.19c1.317-4.354,3.825-7.256,9.499-7.256
			c6.332,0,13.457,5.536,15.964,8.309L735.872,274.249z"/>
		<path d="M815.949,178.203c10.954,0,32.189,3.3,32.189,34.699c0,24.407-15.173,37.733-34.039,37.733
			c-19.524,0-31.796-11.345-31.796-35.356C782.307,187.439,801.04,178.203,815.949,178.203z M820.699,214.747
			c0-12.532-1.322-17.677-5.676-17.677c-3.825,0-5.41,5.672-5.41,15.307c0,10.686,0.526,19.128,5.541,19.128
			C819.248,231.504,820.699,227.151,820.699,214.747z"/>
		<path d="M856.051,248.522v-53.3l-1.849-14.909h21.898l1.451,6.203c3.829-5.014,9.501-8.313,18.472-8.313
			c12.667,0,21.109,6.992,21.109,23.484v46.836h-26.648v-42.747c0-4.617-0.268-7.255-3.169-7.255c-3.432,0-4.883,2.507-4.883,7.255
			v42.747L856.051,248.522L856.051,248.522z"/>
		<path d="M984.281,200.5c0,18.075-18.996,22.824-32.587,24.143c1.056,3.958,4.752,6.466,10.423,6.466
			c5.408,0,11.213-2.245,16.096-5.411l6.729,17.417c0.263-0.132-10.557,7.52-26.915,7.52c-24.144,0-33.511-13.985-33.511-34.037
			c0-19.129,11.61-38.393,35.229-38.393C974.123,178.203,984.281,185.062,984.281,200.5z M958.159,196.674
			c-3.695,0-7.39,3.562-7.784,12.269c7.127-0.658,11.214-4.881,11.214-8.707C961.589,198.125,960.271,196.674,958.159,196.674z"/>
		<path d="M1016.594,248.522v-53.3l-1.718-14.909h21.901l1.45,6.203c3.958-5.014,8.441-8.313,17.415-8.313
			c7.389,0,13.325,2.376,16.889,7.258c3.824-4.224,8.707-7.258,17.149-7.258c12.797,0,20.713,6.992,20.713,23.484v46.836h-26.649
			v-42.747c0-4.617-0.132-7.255-3.034-7.255c-3.559,0-3.954,2.638-3.954,7.388v42.614h-26.65v-42.747
			c0-4.749-0.269-7.255-3.033-7.255c-3.562,0-3.958,2.507-3.958,7.255v42.747L1016.594,248.522L1016.594,248.522z"/>
		<path d="M1181.765,180.313v54.224l1.583,13.985h-22.296l-0.926-5.407h-0.794c-3.825,4.75-9.234,7.124-15.832,7.124
			c-15.438,0-22.957-8.18-22.957-24.541v-45.385h26.65v42.482c0,4.619,0.269,7.39,3.562,7.39c2.771,0,4.355-2.772,4.355-6.334
			v-43.538H1181.765L1181.765,180.313z"/>
		<path d="M1194.159,224.378c5.409,3.167,15.041,7.126,20.58,7.126c2.375,0,3.431-0.793,3.431-2.638c0-2.507-2.902-3.43-6.598-4.75
			c-9.764-3.299-21.244-6.859-21.244-21.504c0-15.171,12.933-24.407,28.103-24.407c10.954,0,20.978,3.826,28.104,10.291
			l-11.614,15.04c-6.461-4.485-11.607-6.598-14.771-6.598c-2.902,0-3.825,1.583-3.825,3.035c0,2.507,2.901,3.825,7.256,5.411
			c9.764,3.56,21.107,7.651,21.107,21.769c0,15.435-11.343,23.482-28.631,23.482c-12.794,0-23.748-4.483-28.361-7.651
			L1194.159,224.378z"/>
		<path d="M1278.986,156.83v23.483h15.694v20.58h-15.694v21.109c0,6.596,3.427,8.707,7.256,8.707c1.846,0,3.954-0.658,6.066-1.847
			l5.541,16.888c-4.226,2.638-12.139,4.881-20.316,4.881c-23.88,0-25.331-14.248-25.331-27.31v-66.494L1278.986,156.83
			L1278.986,156.83z"/>
		<path d="M1389.402,276.228h-26.65v-27.969h-0.396c-1.718,1.185-5.147,2.374-9.763,2.374c-16.228,0-27.178-10.817-27.178-34.301
			c0-21.639,13.321-38.131,35.754-38.131c7.783,0,19.396,2.11,28.233,5.541V276.228L1389.402,276.228z M1362.883,196.937
			c-10.029-1.581-11.213,6.86-11.213,19.397c0,8.838,1.318,15.435,6.332,15.435c3.298,0,4.881-2.375,4.881-4.618V196.937z"/>
		<path d="M1461.562,180.313v54.224l1.584,13.985h-22.297l-0.926-5.407h-0.794c-3.826,4.75-9.233,7.124-15.832,7.124
			c-15.437,0-22.957-8.18-22.957-24.541v-45.385h26.65v42.482c0,4.619,0.269,7.39,3.562,7.39c2.771,0,4.355-2.772,4.355-6.334
			v-43.538H1461.562L1461.562,180.313z"/>
		<path d="M1529.632,200.5c0,18.075-18.997,22.824-32.587,24.143c1.056,3.958,4.749,6.466,10.421,6.466
			c5.409,0,11.214-2.245,16.097-5.411l6.729,17.417c0.267-0.132-10.555,7.52-26.911,7.52c-24.143,0-33.51-13.985-33.51-34.037
			c0-19.129,11.608-38.393,35.226-38.393C1519.474,178.203,1529.632,185.062,1529.632,200.5z M1503.508,196.674
			c-3.695,0-7.386,3.562-7.783,12.269c7.125-0.658,11.215-4.881,11.215-8.707C1506.939,198.125,1505.621,196.674,1503.508,196.674z"
			/>
		<path d="M1537.806,224.378c5.411,3.167,15.041,7.126,20.578,7.126c2.377,0,3.432-0.793,3.432-2.638c0-2.507-2.902-3.43-6.599-4.75
			c-9.762-3.299-21.242-6.859-21.242-21.504c0-15.171,12.933-24.407,28.104-24.407c10.95,0,20.975,3.826,28.101,10.291
			l-11.609,15.04c-6.465-4.485-11.609-6.598-14.776-6.598c-2.901,0-3.825,1.583-3.825,3.035c0,2.507,2.902,3.825,7.256,5.411
			c9.765,3.56,21.11,7.651,21.11,21.769c0,15.435-11.347,23.482-28.635,23.482c-12.793,0-23.748-4.483-28.362-7.651
			L1537.806,224.378z"/>
		<path d="M1622.635,156.83v23.483h15.699v20.58h-15.699v21.109c0,6.596,3.431,8.707,7.256,8.707c1.847,0,3.957-0.658,6.068-1.847
			l5.538,16.888c-4.224,2.638-12.14,4.881-20.317,4.881c-23.88,0-25.331-14.248-25.331-27.31v-66.494L1622.635,156.83
			L1622.635,156.83z"/>
		<path d="M1660.491,148.121c8.312,0,13.72,5.806,13.72,12.666c0,7.126-5.407,12.535-13.588,12.535
			c-8.443,0-13.588-5.409-13.588-12.535C1647.035,153.927,1652.18,148.121,1660.491,148.121z M1647.298,248.522v-68.209h26.782
			v68.209H1647.298z"/>
		<path d="M1714.975,178.203c10.955,0,32.191,3.3,32.191,34.699c0,24.407-15.171,37.733-34.037,37.733
			c-19.525,0-31.796-11.345-31.796-35.356C1681.333,187.439,1700.066,178.203,1714.975,178.203z M1719.724,214.747
			c0-12.532-1.321-17.677-5.676-17.677c-3.825,0-5.409,5.672-5.409,15.307c0,10.686,0.528,19.128,5.542,19.128
			C1718.271,231.504,1719.724,227.151,1719.724,214.747z"/>
		<path d="M1755.077,248.522v-53.3l-1.847-14.909h21.896l1.451,6.203c3.827-5.014,9.503-8.313,18.471-8.313
			c12.665,0,21.11,6.992,21.11,23.484v46.836h-26.65v-42.747c0-4.617-0.268-7.255-3.168-7.255c-3.431,0-4.882,2.507-4.882,7.255
			v42.747L1755.077,248.522L1755.077,248.522z"/>
		<path d="M216.114,315.136v23.485h15.7v20.58h-15.7v21.109c0,6.596,3.432,8.707,7.256,8.707c1.847,0,3.957-0.659,6.068-1.846
			l5.54,16.887c-4.222,2.638-12.139,4.881-20.317,4.881c-23.88,0-25.331-14.249-25.331-27.311v-66.494L216.114,315.136
			L216.114,315.136z"/>
		<path d="M239.856,406.828v-91.694h26.65v24.541c3.033-1.717,7.387-3.166,12.796-3.166c13.985,0,21.637,7.783,21.637,24.143v46.176
			H274.29v-43.274c0-4.619-0.792-6.729-3.166-6.729c-3.299,0-4.617,2.376-4.617,6.6v43.404L239.856,406.828L239.856,406.828z"/>
		<path d="M368.088,358.805c0,18.075-18.999,22.825-32.589,24.146c1.056,3.957,4.75,6.464,10.422,6.464
			c5.409,0,11.216-2.243,16.097-5.409l6.728,17.415c0.265-0.131-10.553,7.52-26.913,7.52c-24.144,0-33.513-13.985-33.513-34.039
			c0-19.128,11.611-38.391,35.228-38.391C357.93,336.511,368.088,343.371,368.088,358.805z M341.966,354.979
			c-3.694,0-7.388,3.562-7.785,12.271c7.125-0.66,11.215-4.881,11.215-8.708C345.396,356.433,344.076,354.979,341.966,354.979z"/>
		<path d="M457.134,338.621c2.638,9.103,4.484,21.769,4.484,31.265c0,26.256-12.402,38.657-34.83,38.657
			c-18.472,0-26.782-8.179-26.782-24.405v-45.517h26.782v43.272c0,5.013,0.791,6.334,3.033,6.334c4.882,0,5.673-8.708,5.673-18.075
			c0-9.236-2.11-22.166-4.485-31.531H457.134z"/>
		<path d="M531.142,391.525l1.714,15.305H510.56l-1.185-5.541l-0.795-0.13c-3.432,5.145-8.576,7.915-15.304,7.915
			c-20.582,0-25.858-16.362-25.858-33.382c0-23.087,12.533-39.182,36.81-39.182c4.883,0,15.568,1.185,26.914,5.673V391.525
			L531.142,391.525z M504.886,355.375c-1.188-0.397-2.242-0.529-3.298-0.529c-5.937,0-7.916,9.369-7.916,18.603
			c0,9.632,1.318,16.624,6.596,16.624c2.773,0,4.62-2.245,4.62-4.619v-30.078L504.886,355.375L504.886,355.375z"/>
		<path d="M568.867,315.136v66.232c0,4.352,1.451,6.86,4.616,6.86c1.718,0,4.091-0.793,7.391-2.111l5.541,17.415
			c-5.409,3.957-14.248,5.41-20.317,5.41c-22.429,0-23.88-14.513-23.88-27.837v-65.968h26.649V315.136z"/>
		<path d="M651.583,338.621v54.224l1.584,13.985H630.87l-0.925-5.411h-0.791c-3.825,4.751-9.236,7.124-15.835,7.124
			c-15.437,0-22.953-8.179-22.953-24.54v-45.385h26.649V381.1c0,4.618,0.264,7.388,3.56,7.388c2.773,0,4.353-2.772,4.353-6.333
			v-43.538L651.583,338.621L651.583,338.621z"/>
		<path d="M719.652,358.805c0,18.075-19,22.825-32.589,24.146c1.056,3.957,4.749,6.464,10.423,6.464
			c5.409,0,11.215-2.243,16.095-5.409l6.729,17.415c0.264-0.131-10.557,7.52-26.915,7.52c-24.143,0-33.512-13.985-33.512-34.039
			c0-19.128,11.611-38.391,35.229-38.391C709.494,336.511,719.652,343.371,719.652,358.805z M693.53,354.979
			c-3.693,0-7.389,3.562-7.785,12.271c7.125-0.66,11.215-4.881,11.215-8.708C696.96,356.433,695.642,354.979,693.53,354.979z"/>
		<path d="M782.44,336.511c10.953,0,32.19,3.297,32.19,34.699c0,24.405-15.173,37.733-34.04,37.733
			c-19.525,0-31.796-11.347-31.796-35.358C748.8,345.745,767.534,336.511,782.44,336.511z M787.192,373.054
			c0-12.534-1.322-17.677-5.676-17.677c-3.825,0-5.406,5.673-5.406,15.305c0,10.688,0.522,19.129,5.536,19.129
			C785.742,389.809,787.192,385.455,787.192,373.054z"/>
		<path d="M849.062,434.536h-26.519v-98.291c0-13.324,2.507-27.706,26.122-27.706c6.729,0,16.359,2.637,22.692,6.203l-5.675,16.756
			c-4.749-2.509-9.631-3.696-11.741-3.696c-2.64,0-4.884,0.794-4.884,5.408v5.411h17.152v20.714H849.06L849.062,434.536
			L849.062,434.536z"/>
		<path d="M927.553,336.511c10.954,0,32.191,3.297,32.191,34.699c0,24.405-15.172,37.733-34.038,37.733
			c-19.526,0-31.796-11.347-31.796-35.358C893.91,345.745,912.645,336.511,927.553,336.511z M932.302,373.054
			c0-12.534-1.317-17.677-5.672-17.677c-3.826,0-5.411,5.673-5.411,15.305c0,10.688,0.529,19.129,5.543,19.129
			C930.854,389.809,932.302,385.455,932.302,373.054z"/>
		<path d="M967.654,406.828v-53.299l-1.851-14.91h21.9l1.451,6.201c3.826-5.014,9.504-8.312,18.472-8.312
			c12.664,0,21.11,6.992,21.11,23.482v46.836h-26.65V364.08c0-4.617-0.269-7.257-3.169-7.257c-3.43,0-4.881,2.508-4.881,7.257
			v42.747L967.654,406.828L967.654,406.828z"/>
		<path d="M1095.885,358.805c0,18.075-18.997,22.825-32.587,24.146c1.057,3.957,4.753,6.464,10.423,6.464
			c5.409,0,11.214-2.243,16.098-5.409l6.728,17.415c0.267-0.131-10.555,7.52-26.914,7.52c-24.144,0-33.511-13.985-33.511-34.039
			c0-19.128,11.609-38.391,35.229-38.391C1085.729,336.511,1095.885,343.371,1095.885,358.805z M1069.763,354.979
			c-3.693,0-7.388,3.562-7.782,12.271c7.122-0.66,11.214-4.881,11.214-8.708C1073.193,356.433,1071.874,354.979,1069.763,354.979z"
			/>
		<path d="M1118.704,319.093l-1.451,31.797h-13.721l-1.32-31.797H1118.704z"/>
		<path d="M1130.31,382.686c5.411,3.168,15.041,7.125,20.582,7.125c2.375,0,3.432-0.792,3.432-2.637c0-2.509-2.902-3.432-6.603-4.75
			c-9.762-3.299-21.239-6.86-21.239-21.506c0-15.17,12.93-24.405,28.103-24.405c10.954,0,20.977,3.826,28.102,10.291l-11.61,15.039
			c-6.465-4.484-11.608-6.596-14.772-6.596c-2.901,0-3.829,1.581-3.829,3.034c0,2.505,2.902,3.826,7.259,5.409
			c9.762,3.562,21.107,7.653,21.107,21.769c0,15.437-11.347,23.483-28.631,23.483c-12.797,0-23.748-4.485-28.366-7.653
			L1130.31,382.686z"/>
		<path d="M1302.737,338.621c2.505,8.971,4.221,21.769,4.221,31.265c0,24.804-10.555,38.657-30.607,38.657
			c-9.632,0-14.381-3.428-18.206-7.651c-5.279,5.146-11.613,7.651-19.922,7.651c-16.097,0-25.071-8.179-25.071-24.54v-45.385h26.649
			v45.251c0,3.168,0.66,4.485,2.904,4.485c2.377,0,3.43-1.847,3.43-5.409v-44.327h26.388v44.855c0,3.034,0,4.881,2.636,4.881
			c3.829,0,5.54-7.783,5.54-18.073c0-9.236-1.979-22.298-4.223-31.664L1302.737,338.621L1302.737,338.621z"/>
		<path d="M1346.393,336.511c10.953,0,32.189,3.297,32.189,34.699c0,24.405-15.171,37.733-34.037,37.733
			c-19.523,0-31.796-11.347-31.796-35.358C1312.752,345.745,1331.486,336.511,1346.393,336.511z M1351.145,373.054
			c0-12.534-1.318-17.677-5.677-17.677c-3.825,0-5.405,5.673-5.405,15.305c0,10.688,0.525,19.129,5.538,19.129
			C1349.692,389.809,1351.145,385.455,1351.145,373.054z"/>
		<path d="M1413.277,406.828h-26.65v-53.961l-1.979-14.246h21.239l2.108,9.103c3.827-8.971,10.423-11.213,15.041-11.213
			c3.43,0,7.783,0.657,10.952,2.505l-3.298,22.298c-2.902-1.321-6.2-2.377-9.633-2.377c-4.619,0-7.782,1.848-7.782,6.993
			L1413.277,406.828L1413.277,406.828z"/>
		<path d="M1466.439,377.408h-0.659v29.422h-26.778v-91.694h26.778v35.754h0.797c4.616-8.971,11.081-14.379,21.636-14.379
			c8.578,0,16.625,4.881,16.625,16.622c0,10.16-7.258,17.02-12.799,20.45l16.096,33.248h-30.74L1466.439,377.408z M1474.752,355.375
			c-4.221,0-7.916,5.539-8.443,12.007c6.069-0.398,12.14-4.09,12.14-8.313C1478.447,356.825,1476.861,355.375,1474.752,355.375z"/>
		<path d="M1515.246,382.686c5.41,3.168,15.041,7.125,20.582,7.125c2.375,0,3.43-0.792,3.43-2.637c0-2.509-2.9-3.432-6.601-4.75
			c-9.762-3.299-21.24-6.86-21.24-21.506c0-15.17,12.931-24.405,28.104-24.405c10.954,0,20.977,3.826,28.102,10.291l-11.61,15.039
			c-6.464-4.484-11.609-6.596-14.772-6.596c-2.902,0-3.825,1.581-3.825,3.034c0,2.505,2.902,3.826,7.254,5.409
			c9.767,3.562,21.108,7.653,21.108,21.769c0,15.437-11.343,23.483-28.631,23.483c-12.794,0-23.748-4.485-28.364-7.653
			L1515.246,382.686z"/>
		<path d="M1582.395,432.555l-13.983-4.618c2.243-20.581,4.086-29.29,5.146-32.192c1.318-4.354,3.825-7.256,9.501-7.256
			c6.331,0,13.459,5.541,15.966,8.311L1582.395,432.555z"/>
		<path d="M1631.599,315.136h26.652v23.485c2.505-0.925,6.334-2.11,11.479-2.11c15.568,0,25.729,10.289,25.729,33.51
			c0,25.594-12.534,38.92-35.23,38.92c-10.422,0-22.559-2.506-28.63-5.278V315.136z M1658.249,390.336
			c1.583,0.396,2.775,0.396,3.432,0.396c7.257,0,7.389-8.311,7.389-17.414c0-10.952-1.186-18.209-7.257-18.209
			c-1.979,0-3.562,1.188-3.562,3.694L1658.249,390.336L1658.249,390.336z"/>
		<path d="M1764.054,338.621v54.224l1.584,13.985h-22.297l-0.925-5.409h-0.791c-3.825,4.752-9.234,7.125-15.835,7.125
			c-15.438,0-22.954-8.179-22.954-24.54v-45.385h26.65v42.482c0,4.617,0.265,7.388,3.559,7.388c2.775,0,4.355-2.772,4.355-6.333
			V338.62L1764.054,338.621L1764.054,338.621z"/>
		<path d="M1802.175,315.136v23.485h15.696v20.58h-15.696v21.109c0,6.596,3.429,8.707,7.256,8.707c1.848,0,3.956-0.659,6.067-1.846
			l5.541,16.887c-4.226,2.638-12.138,4.881-20.317,4.881c-23.88,0-25.331-14.249-25.331-27.311v-66.494L1802.175,315.136
			L1802.175,315.136z"/>
		<path d="M121.918,565.137v-53.302l-1.847-14.909h21.9l1.451,6.201c3.826-5.014,9.5-8.312,18.471-8.312
			c12.667,0,21.109,6.991,21.109,23.483v46.836h-26.649v-42.747c0-4.619-0.264-7.257-3.166-7.257c-3.431,0-4.882,2.507-4.882,7.257
			v42.747L121.918,565.137L121.918,565.137z"/>
		<path d="M250.149,517.111c0,18.074-18.998,22.823-32.588,24.145c1.055,3.958,4.749,6.463,10.422,6.463
			c5.408,0,11.215-2.242,16.096-5.407l6.729,17.413c0.264-0.128-10.554,7.521-26.914,7.521c-24.144,0-33.511-13.984-33.511-34.038
			c0-19.13,11.61-38.394,35.226-38.394C239.991,494.814,250.149,501.677,250.149,517.111z M224.027,513.286
			c-3.693,0-7.388,3.56-7.785,12.269c7.126-0.66,11.216-4.88,11.216-8.708C227.458,514.737,226.138,513.286,224.027,513.286z"/>
		<path d="M314.659,496.925c2.64,9.104,4.486,21.771,4.486,31.268c0,26.255-12.403,38.658-34.832,38.658
			c-18.47,0-26.781-8.184-26.781-24.406v-45.519h26.781v43.277c0,5.01,0.792,6.329,3.035,6.329c4.881,0,5.673-8.709,5.673-18.073
			c0-9.236-2.111-22.166-4.486-31.533L314.659,496.925L314.659,496.925z"/>
		<path d="M384.446,517.111c0,18.074-18.998,22.823-32.588,24.145c1.055,3.958,4.748,6.463,10.422,6.463
			c5.408,0,11.215-2.242,16.096-5.407l6.729,17.413c0.264-0.128-10.555,7.521-26.914,7.521c-24.144,0-33.512-13.984-33.512-34.038
			c0-19.13,11.61-38.394,35.227-38.394C374.288,494.814,384.446,501.677,384.446,517.111z M358.323,513.286
			c-3.692,0-7.387,3.56-7.785,12.269c7.126-0.66,11.216-4.88,11.216-8.708C361.754,514.737,360.436,513.286,358.323,513.286z"/>
		<path d="M418.61,565.137h-26.65v-53.961l-1.979-14.249h21.241l2.11,9.104c3.826-8.972,10.422-11.214,15.039-11.214
			c3.431,0,7.785,0.658,10.951,2.507l-3.297,22.296c-2.902-1.319-6.201-2.374-9.631-2.374c-4.619,0-7.785,1.846-7.785,6.992
			L418.61,565.137L418.61,565.137z"/>
		<path d="M496.968,473.441v23.484h15.701v20.582h-15.701v21.109c0,6.597,3.432,8.708,7.256,8.708c1.847,0,3.958-0.662,6.069-1.85
			l5.538,16.889c-4.222,2.636-12.139,4.882-20.318,4.882c-23.879,0-25.33-14.248-25.33-27.312V473.44L496.968,473.441
			L496.968,473.441z"/>
		<path d="M520.71,565.137v-91.695h26.65v24.541c3.034-1.716,7.388-3.167,12.797-3.167c13.985,0,21.636,7.785,21.636,24.144v46.178
			h-26.649v-43.275c0-4.617-0.791-6.729-3.165-6.729c-3.3,0-4.62,2.377-4.62,6.599v43.405L520.71,565.137L520.71,565.137z"/>
		<path d="M648.942,517.111c0,18.074-18.999,22.823-32.589,24.145c1.056,3.958,4.749,6.463,10.421,6.463
			c5.409,0,11.216-2.242,16.097-5.407l6.728,17.413c0.267-0.128-10.553,7.521-26.911,7.521c-24.143,0-33.512-13.984-33.512-34.038
			c0-19.13,11.611-38.394,35.227-38.394C638.784,494.814,648.942,501.677,648.942,517.111z M622.82,513.286
			c-3.696,0-7.388,3.56-7.785,12.269c7.125-0.66,11.215-4.88,11.215-8.708C626.25,514.737,624.93,513.286,622.82,513.286z"/>
		<path d="M737.987,496.925c2.639,9.104,4.484,21.771,4.484,31.268c0,26.255-12.4,38.658-34.83,38.658
			c-18.472,0-26.782-8.184-26.782-24.406v-45.519h26.782v43.277c0,5.01,0.79,6.329,3.03,6.329c4.882,0,5.676-8.709,5.676-18.073
			c0-9.236-2.111-22.166-4.485-31.533L737.987,496.925L737.987,496.925L737.987,496.925z"/>
		<path d="M811.996,549.83l1.714,15.307h-22.296l-1.188-5.54l-0.791-0.131c-3.432,5.145-8.575,7.916-15.304,7.916
			c-20.582,0-25.858-16.363-25.858-33.383c0-23.089,12.533-39.184,36.81-39.184c4.882,0,15.569,1.186,26.915,5.675L811.996,549.83
			L811.996,549.83z M785.742,513.681c-1.188-0.396-2.246-0.527-3.298-0.527c-5.938,0-7.916,9.368-7.916,18.602
			c0,9.634,1.317,16.624,6.596,16.624c2.772,0,4.619-2.245,4.619-4.619L785.742,513.681L785.742,513.681z"/>
		<path d="M849.722,473.441v66.231c0,4.354,1.451,6.857,4.616,6.857c1.718,0,4.091-0.793,7.391-2.107l5.541,17.414
			c-5.408,3.959-14.247,5.41-20.316,5.41c-22.429,0-23.88-14.514-23.88-27.836v-65.968L849.722,473.441L849.722,473.441z"/>
		<path d="M932.438,496.925v54.226l1.584,13.985h-22.297l-0.923-5.412h-0.795c-3.825,4.755-9.235,7.129-15.831,7.129
			c-15.437,0-22.957-8.184-22.957-24.542v-45.386h26.649v42.484c0,4.62,0.267,7.386,3.562,7.386c2.771,0,4.354-2.771,4.354-6.333
			v-43.538L932.438,496.925L932.438,496.925z"/>
		<path d="M1000.506,517.111c0,18.074-18.997,22.823-32.586,24.145c1.056,3.958,4.748,6.463,10.422,6.463
			c5.406,0,11.21-2.242,16.094-5.407l6.729,17.413c0.265-0.128-10.558,7.521-26.913,7.521c-24.144,0-33.51-13.984-33.51-34.038
			c0-19.13,11.607-38.394,35.226-38.394C990.349,494.814,1000.506,501.677,1000.506,517.111z M974.384,513.286
			c-3.698,0-7.388,3.56-7.783,12.269c7.123-0.66,11.214-4.88,11.214-8.708C977.814,514.737,976.495,513.286,974.384,513.286z"/>
		<path d="M1063.298,494.814c10.954,0,32.191,3.298,32.191,34.698c0,24.407-15.171,37.734-34.037,37.734
			c-19.527,0-31.796-11.347-31.796-35.359C1029.656,504.049,1048.39,494.814,1063.298,494.814z M1068.047,531.361
			c0-12.537-1.322-17.681-5.676-17.681c-3.825,0-5.409,5.676-5.409,15.306c0,10.688,0.528,19.13,5.542,19.13
			C1066.596,548.116,1068.047,543.762,1068.047,531.361z"/>
		<path d="M1129.918,592.842h-26.52v-98.291c0-13.326,2.503-27.706,26.121-27.706c6.729,0,16.361,2.637,22.693,6.201l-5.674,16.756
			c-4.749-2.507-9.63-3.695-11.741-3.695c-2.64,0-4.881,0.794-4.881,5.41v5.408h17.15v20.714h-17.15L1129.918,592.842
			L1129.918,592.842z"/>
		<path d="M1208.407,494.814c10.954,0,32.19,3.298,32.19,34.698c0,24.407-15.172,37.734-34.038,37.734
			c-19.525,0-31.798-11.347-31.798-35.359C1174.765,504.049,1193.499,494.814,1208.407,494.814z M1213.156,531.361
			c0-12.537-1.319-17.681-5.672-17.681c-3.826,0-5.409,5.676-5.409,15.306c0,10.688,0.526,19.13,5.541,19.13
			C1211.705,548.116,1213.156,543.762,1213.156,531.361z"/>
		<path d="M1248.507,565.137v-53.302l-1.847-14.909h21.9l1.451,6.201c3.825-5.014,9.5-8.312,18.473-8.312
			c12.664,0,21.108,6.991,21.108,23.483v46.836h-26.65v-42.747c0-4.619-0.268-7.257-3.167-7.257c-3.431,0-4.881,2.507-4.881,7.257
			v42.747L1248.507,565.137L1248.507,565.137z"/>
		<path d="M1376.736,517.111c0,18.074-18.997,22.823-32.588,24.145c1.057,3.958,4.75,6.463,10.424,6.463
			c5.407,0,11.213-2.242,16.093-5.407l6.729,17.413c0.266-0.128-10.557,7.521-26.913,7.521c-24.144,0-33.51-13.984-33.51-34.038
			c0-19.13,11.608-38.394,35.229-38.394C1366.578,494.814,1376.736,501.677,1376.736,517.111z M1350.614,513.286
			c-3.699,0-7.39,3.56-7.784,12.269c7.123-0.66,11.214-4.88,11.214-8.708C1354.044,514.737,1352.727,513.286,1350.614,513.286z"/>
		<path d="M1399.555,477.399l-1.451,31.797h-13.72l-1.321-31.797H1399.555z"/>
		<path d="M1411.162,540.991c5.411,3.167,15.041,7.125,20.579,7.125c2.378,0,3.43-0.791,3.43-2.636c0-2.508-2.901-3.431-6.597-4.755
			c-9.764-3.296-21.241-6.856-21.241-21.5c0-15.173,12.93-24.407,28.103-24.407c10.951,0,20.978,3.826,28.103,10.29l-11.611,15.041
			c-6.465-4.486-11.607-6.597-14.774-6.597c-2.902,0-3.826,1.581-3.826,3.032c0,2.507,2.902,3.829,7.256,5.409
			c9.764,3.562,21.11,7.654,21.11,21.769c0,15.438-11.348,23.485-28.632,23.485c-12.797,0-23.746-4.486-28.365-7.653
			L1411.162,540.991z"/>
		<path d="M1583.59,496.925c2.505,8.972,4.223,21.771,4.223,31.268c0,24.804-10.555,38.658-30.606,38.658
			c-9.632,0-14.383-3.43-18.21-7.653c-5.278,5.147-11.61,7.653-19.92,7.653c-16.096,0-25.07-8.184-25.07-24.541v-45.387h26.65
			v45.252c0,3.169,0.66,4.484,2.902,4.484c2.375,0,3.432-1.849,3.432-5.408v-44.329h26.387v44.855c0,3.033,0,4.882,2.634,4.882
			c3.827,0,5.541-7.784,5.541-18.073c0-9.234-1.979-22.296-4.225-31.664L1583.59,496.925L1583.59,496.925z"/>
		<path d="M1627.249,494.814c10.954,0,32.191,3.298,32.191,34.698c0,24.407-15.173,37.734-34.038,37.734
			c-19.526,0-31.796-11.347-31.796-35.359C1593.605,504.049,1612.341,494.814,1627.249,494.814z M1631.998,531.361
			c0-12.537-1.322-17.681-5.676-17.681c-3.825,0-5.409,5.676-5.409,15.306c0,10.688,0.528,19.13,5.542,19.13
			C1630.545,548.116,1631.998,543.762,1631.998,531.361z"/>
		<path d="M1694.133,565.137h-26.65v-53.961l-1.979-14.249h21.243l2.107,9.104c3.825-8.972,10.423-11.214,15.038-11.214
			c3.434,0,7.786,0.658,10.954,2.507l-3.297,22.296c-2.901-1.319-6.204-2.374-9.634-2.374c-4.618,0-7.784,1.846-7.784,6.992
			L1694.133,565.137L1694.133,565.137z"/>
		<path d="M1747.295,535.713h-0.66v29.424h-26.781v-91.695h26.781v35.755h0.795c4.618-8.972,11.083-14.382,21.639-14.382
			c8.576,0,16.624,4.881,16.624,16.625c0,10.157-7.261,17.019-12.799,20.447l16.097,33.248h-30.74L1747.295,535.713z
			 M1755.605,513.681c-4.225,0-7.916,5.541-8.442,12.007c6.067-0.396,12.139-4.09,12.139-8.312
			C1759.302,515.132,1757.718,513.681,1755.605,513.681z"/>
		<path d="M1804.809,544.422c8.313,0,12.405,4.485,12.405,11.342c0,6.468-3.958,11.741-12.008,11.741
			c-8.44,0-12.401-5.008-12.401-11.607C1792.805,549.567,1797.025,544.422,1804.809,544.422z"/>
	</g>
</g>
<g id="author">
	<g id="outlines">
		<g>
			<path d="M1449.739,914.344c0-1.539,0.881-2.527,2.034-2.527c0.989,0,1.867,0.824,1.867,1.871c0,0.877-0.492,1.645-1.205,2.089
				c1.101,1.923,4.286,3.683,8.63,3.683c5.497,0,8.959-3.134,8.959-7.641c0-4.559-4.177-6.536-8.684-8.354
				c-5.44-2.144-10.275-4.396-10.275-10.224c0-5.277,4.343-9.068,10.495-9.068c5.551,0,10.002,3.406,10.002,6.706
				c0,1.428-0.934,2.31-1.978,2.31c-1.041,0-1.925-0.825-1.925-1.925c0-0.825,0.439-1.484,1.045-1.979
				c-0.938-1.76-4.235-3.134-7.256-3.134c-4.84,0-8.193,2.969-8.193,6.925c0,4.618,4.123,6.431,8.963,8.355
				c5.276,2.093,10.004,4.455,10.004,10.223c0,5.938-4.779,9.784-11.267,9.784C1454.14,921.435,1449.739,917.477,1449.739,914.344z"
				/>
			<path d="M1477.828,919.071h4.287v-19.237h-4.287v-1.811h6.321v21.048h4.286v1.813h-10.607V919.071L1477.828,919.071z
				 M1480.689,888.291c0-1.153,0.875-2.09,1.977-2.09c1.099,0,1.979,0.937,1.979,2.09c0,1.099-0.877,2.033-1.979,2.033
				S1480.689,889.39,1480.689,888.291z"/>
			<path d="M1492.338,919.071h4.013v-19.237h-4.013v-1.811h5.938v4.615c2.088-2.582,5.388-5.001,8.85-5.001
				c2.857,0,4.729,1.102,5.717,2.915c0.329,0.656,0.551,1.374,0.714,2.088c2.528-2.856,5.771-4.999,9.016-4.999
				c3.187,0,5.001,1.261,5.936,3.351c0.604,1.263,0.824,2.802,0.824,4.507v13.575h4.011v1.812h-10.005v-1.813h3.958V905.77
				c0-1.538-0.22-2.802-0.604-3.683c-0.717-1.707-2.145-2.584-4.396-2.584c-3.131,0-6.048,2.145-8.462,4.894v14.676h4.009v1.813
				h-10.004v-1.813h3.958V905.77c0-1.482-0.165-2.747-0.55-3.683c-0.72-1.707-2.145-2.584-4.398-2.584
				c-3.241,0-6.152,2.251-8.463,4.947v14.619h3.956v1.815h-10.004L1492.338,919.071L1492.338,919.071z"/>
			<path d="M1536.918,909.452c0-6.596,4.838-11.817,11.543-11.817c6.817,0,11.543,5.168,11.543,11.817
				c0,6.601-4.779,11.817-11.543,11.817C1541.701,921.271,1536.918,916.104,1536.918,909.452z M1557.859,909.452
				c0-5.716-3.848-10.003-9.398-10.003c-5.497,0-9.398,4.287-9.398,10.003c0,5.771,3.901,10.004,9.398,10.004
				C1554.013,919.456,1557.859,915.224,1557.859,909.452z"/>
			<path d="M1570.778,902.637c2.144-2.582,5.497-5.002,9.065-5.002c3.022,0,4.946,1.21,5.994,3.024
				c0.714,1.263,1.045,2.967,1.045,4.837v13.575h4.01v1.813h-10.005v-1.813h3.957V905.77c0-1.538-0.163-2.802-0.659-3.791
				c-0.771-1.595-2.309-2.476-4.616-2.476c-3.354,0-6.434,2.251-8.685,5v14.564h3.956v1.817h-10.004v-1.813h4.013v-19.237h-4.013
				v-1.811h5.938L1570.778,902.637L1570.778,902.637z"/>
			<path d="M1606.891,918.962h5.222l1.319-32.324h-5.163v-1.923h7.641l12.532,27.702l12.531-27.702h7.529v1.923h-5.165l1.318,32.324
				h5.225v1.924h-12.149v-1.924h4.781l-1.101-30.45l-12.586,27.537h-0.878l-12.587-27.597l-1.103,30.506h4.783v1.928h-12.149
				L1606.891,918.962L1606.891,918.962L1606.891,918.962z"/>
			<path d="M1654.162,914.73c0-4.123,3.573-6.871,8.519-6.871c2.637,0,5.661,0.657,7.309,1.321v-4.178
				c0-1.428-0.386-2.638-1.154-3.572c-1.043-1.209-2.857-2.031-5.382-2.031c-2.641,0-4.178,0.877-5.062,1.761
				c0.334,0.329,0.556,0.877,0.556,1.482c0,0.825-0.661,1.649-1.65,1.649c-1.099,0-1.759-0.824-1.759-1.871
				c0-2.144,2.913-4.779,8.081-4.779c3.021,0,5.382,0.878,6.756,2.476c1.045,1.154,1.595,2.693,1.595,4.562v14.396h3.958v1.81
				h-5.882v-3.463c-1.87,2.029-4.892,3.848-8.245,3.848C1656.966,921.271,1654.162,918.357,1654.162,914.73z M1669.99,915.5v-4.779
				c-2.088-0.66-4.729-1.153-7.2-1.153c-4.507,0-6.597,2.362-6.597,5.057c0,2.584,1.869,4.892,5.883,4.892
				C1665.318,919.512,1668.066,917.697,1669.99,915.5z"/>
			<path d="M1680.876,931.879c-1.759,0-3.083-0.934-3.083-2.309c0-0.989,0.72-1.708,1.709-1.708c1.208,0,1.979,1.156,1.868,2.197
				c1.265-0.163,2.477-0.934,3.851-3.133c0.656-1.045,1.374-2.473,2.145-4.178l1.319-2.913l-8.85-20.006h-3.405v-1.814h9.784v1.814
				h-4.069l7.529,17.862l7.694-17.862h-4.176v-1.814h9.616v1.814h-3.406l-10.719,24.128c-0.716,1.595-1.374,2.805-2.09,3.958
				C1684.886,930.614,1683.127,931.879,1680.876,931.879z"/>
		</g>
	</g>
</g>
</svg>
