<?xml version="1.0" encoding="utf-8"?>
<!-- Generator: Adobe Illustrator 15.0.1, SVG Export Plug-In . SVG Version: 6.00 Build 0)  -->
<!DOCTYPE svg PUBLIC "-//W3C//DTD SVG 1.0//EN" "http://www.w3.org/TR/2001/REC-SVG-20010904/DTD/svg10.dtd">
<svg version="1.0" id="Layer_1" xmlns="http://www.w3.org/2000/svg" xmlns:xlink="http://www.w3.org/1999/xlink" x="0px" y="0px"
	 width="1280px" height="720px" viewBox="0 0 1280 720" enable-background="new 0 0 1280 720" xml:space="preserve">
<g id="Layer_2">
	<g id="outlines_1_">
		<g>
			<path d="M232.019,104.155v13.104h-12.673v34.778h-14.977V117.26H192.2v-13.104H232.019z"/>
			<path d="M249.801,113.66c5.977,0,17.569,1.801,17.569,18.938c0,13.321-8.281,20.594-18.578,20.594
				c-10.657,0-17.354-6.192-17.354-19.297C231.439,118.701,241.665,113.66,249.801,113.66z M252.394,133.605
				c0-6.84-0.72-9.648-3.096-9.648c-2.088,0-2.953,3.096-2.953,8.354c0,5.832,0.288,10.44,3.024,10.44
				C251.602,142.751,252.394,140.375,252.394,133.605z"/>
			<path d="M285.799,138.862c2.952,1.728,8.208,3.889,11.233,3.889c1.296,0,1.872-0.433,1.872-1.44c0-1.368-1.584-1.872-3.6-2.592
				c-5.329-1.801-11.593-3.744-11.593-11.737c0-8.28,7.057-13.321,15.337-13.321c5.977,0,11.449,2.088,15.337,5.617l-6.336,8.208
				c-3.528-2.448-6.337-3.601-8.065-3.601c-1.584,0-2.088,0.864-2.088,1.656c0,1.368,1.584,2.088,3.96,2.953
				c5.329,1.943,11.521,4.176,11.521,11.881c0,8.424-6.192,12.816-15.625,12.816c-6.985,0-12.961-2.447-15.481-4.176
				L285.799,138.862z"/>
			<path d="M350.746,114.812v29.594l0.864,7.633h-12.17l-0.504-2.951h-0.432c-2.088,2.592-5.041,3.888-8.641,3.888
				c-8.425,0-12.529-4.464-12.529-13.394v-24.77h14.545v23.186c0,2.521,0.144,4.033,1.944,4.033c1.512,0,2.376-1.513,2.376-3.457
				v-23.762H350.746z"/>
			<path d="M382.784,139.223l4.969,9.793c-3.672,2.736-8.353,4.248-14.257,4.248c-10.945,0-18.218-6.48-18.218-19.226
				c0-14.113,9.217-20.378,18.578-20.378c5.617,0,11.017,1.801,14.761,7.921l-8.712,7.488c-1.44-2.017-2.953-4.032-5.329-4.032
				c-3.24,0-4.752,3.168-4.752,8.354c0,5.615,2.16,8.568,5.905,8.568C378.104,141.959,379.832,141.166,382.784,139.223z"/>
			<path d="M417.199,139.223l4.969,9.793c-3.672,2.736-8.353,4.248-14.257,4.248c-10.945,0-18.218-6.48-18.218-19.226
				c0-14.113,9.217-20.378,18.579-20.378c5.616,0,11.017,1.801,14.761,7.921l-8.712,7.488c-1.44-2.017-2.953-4.032-5.329-4.032
				c-3.24,0-4.752,3.168-4.752,8.354c0,5.615,2.16,8.568,5.903,8.568C412.52,141.959,414.247,141.166,417.199,139.223z"/>
			<path d="M456.729,125.829c0,9.865-10.369,12.457-17.786,13.177c0.575,2.16,2.592,3.529,5.688,3.529
				c2.952,0,6.121-1.225,8.785-2.953l3.672,9.506c0.144-0.072-5.76,4.104-14.688,4.104c-13.178,0-18.29-7.633-18.29-18.577
				c0-10.44,6.337-20.954,19.226-20.954C451.184,113.66,456.729,117.404,456.729,125.829z M442.471,123.741
				c-2.016,0-4.031,1.944-4.249,6.696c3.89-0.359,6.121-2.664,6.121-4.752C444.343,124.533,443.623,123.741,442.471,123.741z"/>
			<path d="M491.576,125.829c0,9.865-10.369,12.457-17.786,13.177c0.576,2.16,2.592,3.529,5.688,3.529
				c2.952,0,6.121-1.225,8.785-2.953l3.672,9.506c0.145-0.072-5.76,4.104-14.688,4.104c-13.177,0-18.29-7.633-18.29-18.577
				c0-10.44,6.337-20.954,19.226-20.954C486.031,113.66,491.576,117.404,491.576,125.829z M477.318,123.741
				c-2.017,0-4.032,1.944-4.249,6.696c3.889-0.359,6.121-2.664,6.121-4.752C479.19,124.533,478.47,123.741,477.318,123.741z"/>
			<path d="M514.326,113.732v-11.737h14.329v41.692l0.936,8.352h-12.024l-0.793-3.096h-0.432c-0.864,1.944-3.815,4.32-8.063,4.32
				c-12.674,0-14.475-9.938-14.475-17.713c0-12.602,6.409-21.891,18.578-21.891C513.39,113.66,514.038,113.732,514.326,113.732z
				 M514.326,123.885c-5.473-0.863-6.121,5.617-6.121,10.586c0,4.824,0.72,8.424,3.457,8.424c1.512,0,2.664-1.296,2.664-2.52
				V123.885z"/>
			<path d="M539.812,166.08l-7.633-2.52c1.225-11.232,2.232-15.985,2.809-17.569c0.72-2.376,2.088-3.96,5.185-3.96
				c3.456,0,7.345,3.022,8.713,4.535L539.812,166.08z"/>
			<path d="M583.517,113.66c5.978,0,17.569,1.801,17.569,18.938c0,13.321-8.281,20.594-18.578,20.594
				c-10.656,0-17.354-6.192-17.354-19.297C565.155,118.701,575.38,113.66,583.517,113.66z M586.109,133.605
				c0-6.84-0.721-9.648-3.097-9.648c-2.088,0-2.953,3.096-2.953,8.354c0,5.832,0.288,10.44,3.024,10.44
				C585.317,142.751,586.109,140.375,586.109,133.605z"/>
			<path d="M605.403,152.039v-29.09l-1.009-8.137h11.953l0.792,3.385c2.089-2.736,5.185-4.537,10.081-4.537
				c6.913,0,11.521,3.816,11.521,12.817v25.562h-14.545v-23.33c0-2.52-0.145-3.96-1.729-3.96c-1.872,0-2.664,1.368-2.664,3.96v23.33
				H605.403z"/>
			<path d="M675.389,125.829c0,9.865-10.367,12.457-17.785,13.177c0.576,2.16,2.593,3.529,5.688,3.529
				c2.952,0,6.12-1.225,8.785-2.953l3.672,9.506c0.144-0.072-5.761,4.104-14.689,4.104c-13.177,0-18.289-7.633-18.289-18.577
				c0-10.44,6.337-20.954,19.227-20.954C669.845,113.66,675.389,117.404,675.389,125.829z M661.132,123.741
				c-2.017,0-4.032,1.944-4.248,6.696c3.889-0.359,6.12-2.664,6.12-4.752C663.004,124.533,662.284,123.741,661.132,123.741z"/>
			<path d="M693.024,152.039v-29.09l-0.937-8.137h11.953l0.792,3.385c2.16-2.736,4.608-4.537,9.505-4.537
				c4.032,0,7.272,1.297,9.217,3.961c2.088-2.305,4.752-3.961,9.36-3.961c6.984,0,11.305,3.816,11.305,12.817v25.562h-14.545v-23.33
				c0-2.52-0.072-3.96-1.656-3.96c-1.943,0-2.159,1.44-2.159,4.032v23.258h-14.545v-23.33c0-2.592-0.146-3.96-1.656-3.96
				c-1.944,0-2.16,1.368-2.16,3.96v23.33H693.024z"/>
			<path d="M783.171,114.812v29.594l0.864,7.633h-12.169l-0.505-2.951h-0.433c-2.088,2.592-5.04,3.888-8.641,3.888
				c-8.425,0-12.529-4.464-12.529-13.394v-24.77h14.545v23.186c0,2.521,0.146,4.033,1.944,4.033c1.513,0,2.377-1.513,2.377-3.457
				v-23.762H783.171z"/>
			<path d="M789.936,138.862c2.952,1.728,8.209,3.889,11.232,3.889c1.296,0,1.872-0.433,1.872-1.44c0-1.368-1.584-1.872-3.601-2.592
				c-5.328-1.801-11.594-3.744-11.594-11.737c0-8.28,7.058-13.321,15.338-13.321c5.978,0,11.448,2.088,15.338,5.617l-6.338,8.208
				c-3.527-2.448-6.336-3.601-8.063-3.601c-1.584,0-2.088,0.864-2.088,1.656c0,1.368,1.584,2.088,3.96,2.953
				c5.329,1.943,11.521,4.176,11.521,11.881c0,8.424-6.191,12.816-15.626,12.816c-6.983,0-12.961-2.447-15.48-4.176L789.936,138.862
				z"/>
			<path d="M836.232,101.995v12.817h8.567v11.232h-8.567v11.521c0,3.6,1.871,4.752,3.96,4.752c1.008,0,2.159-0.359,3.312-1.008
				l3.024,9.217c-2.306,1.44-6.625,2.664-11.089,2.664c-13.033,0-13.825-7.776-13.825-14.905v-36.291L836.232,101.995
				L836.232,101.995z"/>
			<path d="M896.495,167.16H881.95v-15.265h-0.217c-0.937,0.647-2.809,1.296-5.328,1.296c-8.856,0-14.833-5.904-14.833-18.721
				c0-11.81,7.271-20.811,19.514-20.811c4.248,0,10.585,1.152,15.409,3.024V167.16z M882.021,123.885
				c-5.474-0.863-6.12,3.744-6.12,10.586c0,4.824,0.72,8.424,3.456,8.424c1.8,0,2.664-1.296,2.664-2.52V123.885z"/>
			<path d="M935.879,114.812v29.594l0.864,7.633h-12.169l-0.505-2.951h-0.433c-2.088,2.592-5.04,3.888-8.641,3.888
				c-8.425,0-12.529-4.464-12.529-13.394v-24.77h14.545v23.186c0,2.521,0.146,4.033,1.944,4.033c1.513,0,2.377-1.513,2.377-3.457
				v-23.762H935.879z"/>
			<path d="M973.029,125.829c0,9.865-10.368,12.457-17.785,13.177c0.576,2.16,2.592,3.529,5.688,3.529
				c2.952,0,6.12-1.225,8.785-2.953l3.672,9.506c0.145-0.072-5.761,4.104-14.688,4.104c-13.177,0-18.289-7.633-18.289-18.577
				c0-10.44,6.336-20.954,19.226-20.954C967.485,113.66,973.029,117.404,973.029,125.829z M958.771,123.741
				c-2.017,0-4.031,1.944-4.248,6.696c3.889-0.359,6.121-2.664,6.121-4.752C960.645,124.533,959.925,123.741,958.771,123.741z"/>
			<path d="M977.49,138.862c2.953,1.728,8.209,3.889,11.232,3.889c1.297,0,1.872-0.433,1.872-1.44c0-1.368-1.584-1.872-3.601-2.592
				c-5.328-1.801-11.594-3.744-11.594-11.737c0-8.28,7.058-13.321,15.339-13.321c5.977,0,11.448,2.088,15.337,5.617l-6.337,8.208
				c-3.528-2.448-6.336-3.601-8.064-3.601c-1.584,0-2.088,0.864-2.088,1.656c0,1.368,1.584,2.088,3.96,2.953
				c5.329,1.943,11.521,4.176,11.521,11.881c0,8.424-6.192,12.816-15.627,12.816c-6.983,0-12.961-2.447-15.48-4.176L977.49,138.862z
				"/>
			<path d="M1023.788,101.995v12.817h8.568v11.232h-8.568v11.521c0,3.6,1.872,4.752,3.96,4.752c1.008,0,2.16-0.359,3.312-1.008
				l3.023,9.217c-2.305,1.44-6.625,2.664-11.089,2.664c-13.033,0-13.825-7.776-13.825-14.905v-36.291L1023.788,101.995
				L1023.788,101.995z"/>
			<path d="M1044.449,97.242c4.537,0,7.488,3.169,7.488,6.913c0,3.889-2.951,6.841-7.416,6.841c-4.608,0-7.416-2.952-7.416-6.841
				C1037.105,100.411,1039.913,97.242,1044.449,97.242z M1037.249,152.039v-37.227h14.617v37.227H1037.249z"/>
			<path d="M1074.186,113.66c5.978,0,17.569,1.801,17.569,18.938c0,13.321-8.28,20.594-18.577,20.594
				c-10.656,0-17.354-6.192-17.354-19.297C1055.824,118.701,1066.049,113.66,1074.186,113.66z M1076.777,133.605
				c0-6.84-0.721-9.648-3.097-9.648c-2.088,0-2.952,3.096-2.952,8.354c0,5.832,0.288,10.44,3.024,10.44
				C1075.985,142.751,1076.777,140.375,1076.777,133.605z"/>
			<path d="M1096.072,152.039v-29.09l-1.008-8.137h11.952l0.792,3.385c2.088-2.736,5.186-4.537,10.081-4.537
				c6.912,0,11.521,3.816,11.521,12.817v25.562h-14.545v-23.33c0-2.52-0.146-3.96-1.729-3.96c-1.872,0-2.664,1.368-2.664,3.96v23.33
				H1096.072z"/>
			<path d="M256.14,188.395v12.818h8.569v11.232h-8.569v11.521c0,3.6,1.873,4.752,3.96,4.752c1.008,0,2.16-0.36,3.312-1.008
				l3.024,9.217c-2.304,1.439-6.625,2.664-11.089,2.664c-13.033,0-13.825-7.777-13.825-14.906v-36.291L256.14,188.395
				L256.14,188.395z"/>
			<path d="M269.098,238.439v-50.045h14.545v13.394c1.656-0.937,4.032-1.728,6.984-1.728c7.633,0,11.809,4.248,11.809,13.177v25.202
				h-14.545v-23.618c0-2.521-0.432-3.673-1.728-3.673c-1.8,0-2.52,1.297-2.52,3.602v23.689H269.098z"/>
			<path d="M339.084,212.229c0,9.865-10.369,12.457-17.786,13.178c0.576,2.16,2.592,3.528,5.688,3.528
				c2.952,0,6.121-1.224,8.785-2.952l3.672,9.505c0.144-0.072-5.76,4.104-14.689,4.104c-13.177,0-18.29-7.633-18.29-18.578
				c0-10.44,6.337-20.953,19.226-20.953C333.54,200.061,339.084,203.805,339.084,212.229z M324.827,210.141
				c-2.016,0-4.032,1.944-4.249,6.697c3.889-0.36,6.121-2.664,6.121-4.753C326.699,210.934,325.979,210.141,324.827,210.141z"/>
			<path d="M387.683,201.213c1.44,4.968,2.448,11.881,2.448,17.064c0,14.33-6.769,21.098-19.01,21.098
				c-10.081,0-14.617-4.464-14.617-13.32v-24.842h14.617v23.617c0,2.736,0.432,3.457,1.656,3.457c2.664,0,3.096-4.753,3.096-9.865
				c0-5.041-1.152-12.098-2.448-17.209H387.683z"/>
			<path d="M428.075,230.087l0.936,8.353h-12.169l-0.647-3.024l-0.433-0.071c-1.873,2.808-4.681,4.32-8.353,4.32
				c-11.233,0-14.113-8.93-14.113-18.219c0-12.601,6.841-21.385,20.09-21.385c2.665,0,8.497,0.647,14.689,3.096V230.087
				L428.075,230.087z M413.745,210.357c-0.648-0.217-1.224-0.289-1.8-0.289c-3.24,0-4.32,5.113-4.32,10.153
				c0,5.257,0.72,9.073,3.6,9.073c1.513,0,2.521-1.225,2.521-2.521V210.357z"/>
			<path d="M448.665,188.395v36.148c0,2.375,0.792,3.744,2.52,3.744c0.937,0,2.232-0.433,4.033-1.152l3.024,9.504
				c-2.952,2.16-7.776,2.953-11.089,2.953c-12.241,0-13.033-7.921-13.033-15.193v-36.004H448.665z"/>
			<path d="M493.81,201.213v29.594l0.864,7.633h-12.169L482,235.487h-0.432c-2.088,2.593-5.041,3.888-8.642,3.888
				c-8.425,0-12.528-4.464-12.528-13.393v-24.77h14.545v23.186c0,2.52,0.144,4.032,1.943,4.032c1.513,0,2.376-1.513,2.376-3.456
				v-23.762L493.81,201.213L493.81,201.213z"/>
			<path d="M530.96,212.229c0,9.865-10.369,12.457-17.786,13.178c0.576,2.16,2.592,3.528,5.688,3.528
				c2.952,0,6.121-1.224,8.784-2.952l3.673,9.505c0.144-0.072-5.761,4.104-14.689,4.104c-13.177,0-18.29-7.633-18.29-18.578
				c0-10.44,6.337-20.953,19.227-20.953C525.416,200.061,530.96,203.805,530.96,212.229z M516.703,210.141
				c-2.016,0-4.032,1.944-4.249,6.697c3.889-0.36,6.121-2.664,6.121-4.753C518.575,210.934,517.855,210.141,516.703,210.141z"/>
			<path d="M565.229,200.061c5.978,0,17.569,1.8,17.569,18.938c0,13.32-8.281,20.594-18.578,20.594
				c-10.657,0-17.354-6.193-17.354-19.298C546.868,205.101,557.093,200.061,565.229,200.061z M567.822,220.006
				c0-6.841-0.721-9.648-3.097-9.648c-2.088,0-2.952,3.096-2.952,8.353c0,5.833,0.287,10.44,3.023,10.44
				C567.03,229.15,567.822,226.774,567.822,220.006z"/>
			<path d="M601.589,253.561h-14.473v-53.645c0-7.272,1.368-15.121,14.257-15.121c3.672,0,8.929,1.439,12.385,3.385l-3.097,9.145
				c-2.592-1.369-5.256-2.017-6.408-2.017c-1.44,0-2.665,0.433-2.665,2.952v2.953h9.361v11.305h-9.361L601.589,253.561
				L601.589,253.561z"/>
			<path d="M644.428,200.061c5.978,0,17.569,1.8,17.569,18.938c0,13.32-8.28,20.594-18.577,20.594
				c-10.657,0-17.354-6.193-17.354-19.298C626.066,205.101,636.291,200.061,644.428,200.061z M647.02,220.006
				c0-6.841-0.72-9.648-3.096-9.648c-2.088,0-2.953,3.096-2.953,8.353c0,5.833,0.289,10.44,3.025,10.44
				C646.229,229.15,647.02,226.774,647.02,220.006z"/>
			<path d="M666.314,238.439v-29.09l-1.009-8.137h11.953l0.792,3.384c2.088-2.736,5.186-4.536,10.081-4.536
				c6.912,0,11.521,3.816,11.521,12.816v25.562h-14.545v-23.33c0-2.52-0.146-3.961-1.729-3.961c-1.872,0-2.664,1.369-2.664,3.961
				v23.33L666.314,238.439L666.314,238.439z"/>
			<path d="M736.3,212.229c0,9.865-10.368,12.457-17.785,13.178c0.576,2.16,2.593,3.528,5.688,3.528c2.952,0,6.12-1.224,8.785-2.952
				l3.672,9.505c0.145-0.072-5.761,4.104-14.689,4.104c-13.177,0-18.289-7.633-18.289-18.578c0-10.44,6.336-20.953,19.227-20.953
				C730.756,200.061,736.3,203.805,736.3,212.229z M722.043,210.141c-2.017,0-4.032,1.944-4.248,6.697
				c3.888-0.36,6.12-2.664,6.12-4.753C723.915,210.934,723.195,210.141,722.043,210.141z"/>
			<path d="M748.754,190.555l-0.792,17.354h-7.488l-0.721-17.354H748.754z"/>
			<path d="M755.088,225.262c2.953,1.729,8.209,3.889,11.233,3.889c1.296,0,1.872-0.432,1.872-1.439
				c0-1.369-1.584-1.873-3.602-2.593c-5.328-1.8-11.593-3.744-11.593-11.737c0-8.28,7.057-13.32,15.338-13.32
				c5.978,0,11.448,2.088,15.337,5.616l-6.337,8.208c-3.528-2.447-6.336-3.6-8.063-3.6c-1.584,0-2.089,0.863-2.089,1.656
				c0,1.367,1.584,2.088,3.96,2.952c5.329,1.944,11.521,4.177,11.521,11.881c0,8.425-6.192,12.817-15.626,12.817
				c-6.984,0-12.961-2.448-15.481-4.177L755.088,225.262z"/>
			<path d="M849.195,201.213c1.367,4.896,2.304,11.881,2.304,17.064c0,13.537-5.761,21.098-16.705,21.098
				c-5.257,0-7.849-1.871-9.937-4.176c-2.881,2.809-6.338,4.176-10.873,4.176c-8.785,0-13.683-4.464-13.683-13.393v-24.77h14.545
				v24.697c0,1.729,0.36,2.448,1.585,2.448c1.297,0,1.872-1.008,1.872-2.952v-24.193h14.401v24.481c0,1.656,0,2.664,1.439,2.664
				c2.089,0,3.023-4.248,3.023-9.864c0-5.041-1.08-12.17-2.304-17.281L849.195,201.213L849.195,201.213z"/>
			<path d="M873.021,200.061c5.978,0,17.569,1.8,17.569,18.938c0,13.32-8.28,20.594-18.577,20.594
				c-10.656,0-17.354-6.193-17.354-19.298C854.661,205.101,864.886,200.061,873.021,200.061z M875.614,220.006
				c0-6.841-0.72-9.648-3.097-9.648c-2.088,0-2.951,3.096-2.951,8.353c0,5.833,0.287,10.44,3.023,10.44
				C874.822,229.15,875.614,226.774,875.614,220.006z"/>
			<path d="M909.525,238.439H894.98v-29.451l-1.08-7.775h11.593l1.151,4.968c2.088-4.896,5.688-6.12,8.209-6.12
				c1.872,0,4.248,0.359,5.977,1.367l-1.8,12.17c-1.584-0.721-3.384-1.297-5.257-1.297c-2.521,0-4.248,1.008-4.248,3.816V238.439
				L909.525,238.439z"/>
			<path d="M938.541,222.382h-0.36v16.058h-14.616v-50.045h14.616v19.514h0.434c2.52-4.896,6.048-7.848,11.809-7.848
				c4.681,0,9.073,2.664,9.073,9.072c0,5.545-3.961,9.289-6.985,11.161l8.785,18.146H944.52L938.541,222.382z M943.077,210.357
				c-2.304,0-4.32,3.023-4.608,6.553c3.312-0.217,6.625-2.232,6.625-4.537C945.094,211.148,944.229,210.357,943.077,210.357z"/>
			<path d="M965.178,225.262c2.953,1.729,8.209,3.889,11.233,3.889c1.296,0,1.872-0.432,1.872-1.439
				c0-1.369-1.584-1.873-3.602-2.593c-5.328-1.8-11.593-3.744-11.593-11.737c0-8.28,7.058-13.32,15.338-13.32
				c5.978,0,11.448,2.088,15.337,5.616l-6.337,8.208c-3.528-2.447-6.336-3.6-8.063-3.6c-1.584,0-2.088,0.863-2.088,1.656
				c0,1.367,1.584,2.088,3.959,2.952c5.33,1.944,11.521,4.177,11.521,11.881c0,8.425-6.191,12.817-15.626,12.817
				c-6.983,0-12.961-2.448-15.481-4.177L965.178,225.262z"/>
			<path d="M1001.826,252.48l-7.633-2.52c1.225-11.233,2.231-15.986,2.809-17.57c0.72-2.376,2.088-3.96,5.186-3.96
				c3.455,0,7.345,3.024,8.713,4.536L1001.826,252.48z"/>
			<path d="M1028.681,188.395h14.546v12.818c1.367-0.505,3.457-1.152,6.265-1.152c8.497,0,14.042,5.616,14.042,18.289
				c0,13.969-6.841,21.242-19.228,21.242c-5.688,0-12.312-1.368-15.625-2.881V188.395z M1043.226,229.438
				c0.864,0.216,1.514,0.216,1.873,0.216c3.96,0,4.032-4.536,4.032-9.504c0-5.977-0.647-9.938-3.961-9.938
				c-1.08,0-1.944,0.648-1.944,2.016V229.438z"/>
			<path d="M1100.972,201.213v29.594l0.864,7.633h-12.169l-0.505-2.952h-0.432c-2.088,2.593-5.04,3.888-8.642,3.888
				c-8.425,0-12.528-4.464-12.528-13.393v-24.77h14.545v23.186c0,2.52,0.145,4.032,1.943,4.032c1.514,0,2.377-1.513,2.377-3.456
				v-23.762H1100.972z"/>
			<path d="M1121.777,188.395v12.818h8.567v11.232h-8.567v11.521c0,3.6,1.871,4.752,3.96,4.752c1.008,0,2.159-0.36,3.312-1.008
				l3.024,9.217c-2.306,1.439-6.625,2.664-11.089,2.664c-13.033,0-13.825-7.777-13.825-14.906v-36.291L1121.777,188.395
				L1121.777,188.395z"/>
			<path d="M204.73,324.84v-29.091l-1.008-8.137h11.953l0.792,3.384c2.088-2.736,5.185-4.536,10.081-4.536
				c6.913,0,11.521,3.816,11.521,12.817v25.562h-14.545v-23.33c0-2.521-0.144-3.961-1.728-3.961c-1.872,0-2.664,1.368-2.664,3.961
				v23.33L204.73,324.84L204.73,324.84z"/>
			<path d="M274.716,298.629c0,9.865-10.369,12.457-17.786,13.178c0.576,2.16,2.592,3.527,5.688,3.527
				c2.952,0,6.121-1.224,8.785-2.951l3.672,9.504c0.144-0.071-5.76,4.104-14.689,4.104c-13.177,0-18.29-7.632-18.29-18.577
				c0-10.441,6.337-20.954,19.226-20.954C269.172,286.46,274.716,290.205,274.716,298.629z M260.459,296.541
				c-2.016,0-4.032,1.943-4.249,6.696c3.889-0.36,6.121-2.664,6.121-4.753C262.331,297.333,261.611,296.541,260.459,296.541z"/>
			<path d="M309.924,287.612c1.44,4.968,2.448,11.881,2.448,17.065c0,14.329-6.769,21.099-19.01,21.099
				c-10.081,0-14.617-4.466-14.617-13.321v-24.842h14.617v23.619c0,2.735,0.432,3.455,1.656,3.455c2.664,0,3.096-4.753,3.096-9.864
				c0-5.041-1.152-12.098-2.448-17.21H309.924L309.924,287.612z"/>
			<path d="M348.012,298.629c0,9.865-10.369,12.457-17.786,13.178c0.576,2.16,2.592,3.527,5.688,3.527
				c2.952,0,6.121-1.224,8.785-2.951l3.672,9.504c0.144-0.071-5.76,4.104-14.689,4.104c-13.177,0-18.29-7.632-18.29-18.577
				c0-10.441,6.337-20.954,19.226-20.954C342.468,286.46,348.012,290.205,348.012,298.629z M333.755,296.541
				c-2.016,0-4.032,1.943-4.249,6.696c3.889-0.36,6.121-2.664,6.121-4.753C335.627,297.333,334.907,296.541,333.755,296.541z"/>
			<path d="M366.658,324.84h-14.545v-29.451l-1.08-7.776h11.593l1.152,4.968c2.088-4.896,5.688-6.12,8.208-6.12
				c1.872,0,4.249,0.36,5.977,1.368l-1.8,12.169c-1.584-0.72-3.384-1.296-5.256-1.296c-2.521,0-4.249,1.008-4.249,3.816V324.84z"/>
			<path d="M409.424,274.795v12.817h8.569v11.233h-8.569v11.521c0,3.601,1.873,4.753,3.96,4.753c1.008,0,2.16-0.361,3.312-1.009
				l3.023,9.217c-2.304,1.439-6.625,2.664-11.089,2.664c-13.033,0-13.825-7.776-13.825-14.905v-36.291H409.424L409.424,274.795z"/>
			<path d="M422.382,324.84v-50.045h14.545v13.393c1.656-0.936,4.032-1.728,6.984-1.728c7.633,0,11.809,4.249,11.809,13.177v25.203
				h-14.545v-23.619c0-2.52-0.432-3.672-1.728-3.672c-1.801,0-2.521,1.297-2.521,3.601v23.69H422.382L422.382,324.84z"/>
			<path d="M492.368,298.629c0,9.865-10.369,12.457-17.786,13.178c0.576,2.16,2.592,3.527,5.688,3.527
				c2.952,0,6.121-1.224,8.785-2.951l3.672,9.504c0.145-0.071-5.76,4.104-14.688,4.104c-13.177,0-18.29-7.632-18.29-18.577
				c0-10.441,6.337-20.954,19.226-20.954C486.824,286.46,492.368,290.205,492.368,298.629z M478.111,296.541
				c-2.017,0-4.032,1.943-4.249,6.696c3.889-0.36,6.121-2.664,6.121-4.753C479.983,297.333,479.263,296.541,478.111,296.541z"/>
			<path d="M540.967,287.612c1.44,4.968,2.448,11.881,2.448,17.065c0,14.329-6.769,21.099-19.01,21.099
				c-10.081,0-14.617-4.466-14.617-13.321v-24.842h14.617v23.619c0,2.735,0.432,3.455,1.655,3.455c2.664,0,3.097-4.753,3.097-9.864
				c0-5.041-1.152-12.098-2.448-17.21H540.967L540.967,287.612z"/>
			<path d="M581.359,316.486l0.936,8.354h-12.169l-0.648-3.024l-0.432-0.071c-1.873,2.808-4.681,4.32-8.353,4.32
				c-11.233,0-14.113-8.93-14.113-18.219c0-12.602,6.841-21.386,20.09-21.386c2.664,0,8.497,0.647,14.689,3.097V316.486z
				 M567.03,296.757c-0.648-0.216-1.225-0.288-1.8-0.288c-3.24,0-4.32,5.113-4.32,10.152c0,5.258,0.72,9.073,3.6,9.073
				c1.513,0,2.521-1.225,2.521-2.521L567.03,296.757L567.03,296.757z"/>
			<path d="M601.949,274.795v36.147c0,2.376,0.792,3.743,2.52,3.743c0.937,0,2.232-0.433,4.033-1.151l3.024,9.505
				c-2.952,2.16-7.776,2.952-11.089,2.952c-12.241,0-13.033-7.921-13.033-15.192v-36.004H601.949z"/>
			<path d="M647.094,287.612v29.595l0.864,7.633h-12.169l-0.504-2.953h-0.433c-2.088,2.594-5.041,3.89-8.641,3.89
				c-8.425,0-12.529-4.466-12.529-13.394v-24.771h14.545v23.187c0,2.521,0.145,4.031,1.944,4.031c1.512,0,2.376-1.512,2.376-3.456
				v-23.762H647.094L647.094,287.612z"/>
			<path d="M684.244,298.629c0,9.865-10.368,12.457-17.785,13.178c0.576,2.16,2.592,3.527,5.688,3.527
				c2.951,0,6.119-1.224,8.784-2.951l3.672,9.504c0.145-0.071-5.761,4.104-14.688,4.104c-13.177,0-18.289-7.632-18.289-18.577
				c0-10.441,6.336-20.954,19.226-20.954C678.7,286.46,684.244,290.205,684.244,298.629z M669.987,296.541
				c-2.018,0-4.032,1.943-4.248,6.696c3.888-0.36,6.12-2.664,6.12-4.753C671.859,297.333,671.14,296.541,669.987,296.541z"/>
			<path d="M718.515,286.46c5.978,0,17.569,1.8,17.569,18.938c0,13.321-8.28,20.594-18.577,20.594
				c-10.657,0-17.354-6.192-17.354-19.298C700.153,291.5,710.378,286.46,718.515,286.46z M721.106,306.406
				c0-6.842-0.721-9.649-3.097-9.649c-2.088,0-2.952,3.097-2.952,8.353c0,5.833,0.288,10.441,3.024,10.441
				C720.314,315.551,721.106,313.174,721.106,306.406z"/>
			<path d="M754.874,339.961H740.4v-53.645c0-7.273,1.367-15.121,14.257-15.121c3.673,0,8.93,1.439,12.386,3.384l-3.097,9.145
				c-2.592-1.368-5.256-2.017-6.408-2.017c-1.44,0-2.664,0.433-2.664,2.953v2.952h9.36v11.305h-9.36V339.961z"/>
			<path d="M797.712,286.46c5.978,0,17.569,1.8,17.569,18.938c0,13.321-8.28,20.594-18.577,20.594
				c-10.657,0-17.354-6.192-17.354-19.298C779.351,291.5,789.575,286.46,797.712,286.46z M800.304,306.406
				c0-6.842-0.72-9.649-3.096-9.649c-2.088,0-2.952,3.097-2.952,8.353c0,5.833,0.288,10.441,3.024,10.441
				C799.512,315.551,800.304,313.174,800.304,306.406z"/>
			<path d="M819.598,324.84v-29.091l-1.008-8.137h11.953l0.792,3.384c2.088-2.736,5.185-4.536,10.081-4.536
				c6.912,0,11.521,3.816,11.521,12.817v25.562h-14.545v-23.33c0-2.521-0.146-3.961-1.729-3.961c-1.872,0-2.664,1.368-2.664,3.961
				v23.33L819.598,324.84L819.598,324.84z"/>
			<path d="M889.582,298.629c0,9.865-10.368,12.457-17.785,13.178c0.576,2.16,2.592,3.527,5.688,3.527
				c2.952,0,6.12-1.224,8.784-2.951l3.672,9.504c0.145-0.071-5.761,4.104-14.688,4.104c-13.177,0-18.289-7.632-18.289-18.577
				c0-10.441,6.336-20.954,19.226-20.954C884.038,286.46,889.582,290.205,889.582,298.629z M875.325,296.541
				c-2.018,0-4.032,1.943-4.248,6.696c3.888-0.36,6.12-2.664,6.12-4.753C877.197,297.333,876.479,296.541,875.325,296.541z"/>
			<path d="M902.036,276.955l-0.792,17.354h-7.488l-0.721-17.354H902.036z"/>
			<path d="M908.371,311.662c2.953,1.729,8.209,3.889,11.232,3.889c1.297,0,1.872-0.432,1.872-1.439
				c0-1.368-1.584-1.872-3.601-2.594c-5.328-1.799-11.593-3.743-11.593-11.735c0-8.281,7.057-13.321,15.338-13.321
				c5.977,0,11.448,2.089,15.337,5.616l-6.337,8.209c-3.528-2.448-6.336-3.6-8.064-3.6c-1.584,0-2.088,0.863-2.088,1.655
				c0,1.368,1.584,2.089,3.96,2.952c5.329,1.944,11.521,4.177,11.521,11.881c0,8.426-6.192,12.817-15.626,12.817
				c-6.984,0-12.961-2.448-15.481-4.177L908.371,311.662z"/>
			<path d="M1002.479,287.612c1.367,4.896,2.304,11.881,2.304,17.065c0,13.537-5.761,21.099-16.705,21.099
				c-5.257,0-7.849-1.872-9.938-4.177c-2.881,2.809-6.337,4.177-10.872,4.177c-8.785,0-13.683-4.466-13.683-13.394v-24.771h14.545
				v24.698c0,1.729,0.36,2.447,1.585,2.447c1.296,0,1.872-1.008,1.872-2.951v-24.194h14.401v24.481c0,1.656,0,2.664,1.438,2.664
				c2.089,0,3.024-4.248,3.024-9.864c0-5.04-1.08-12.169-2.305-17.281L1002.479,287.612L1002.479,287.612z"/>
			<path d="M1026.307,286.46c5.978,0,17.569,1.8,17.569,18.938c0,13.321-8.28,20.594-18.577,20.594
				c-10.657,0-17.354-6.192-17.354-19.298C1007.945,291.5,1018.17,286.46,1026.307,286.46z M1028.898,306.406
				c0-6.842-0.721-9.649-3.097-9.649c-2.088,0-2.952,3.097-2.952,8.353c0,5.833,0.288,10.441,3.024,10.441
				C1028.105,315.551,1028.898,313.174,1028.898,306.406z"/>
			<path d="M1062.811,324.84h-14.546v-29.451l-1.079-7.776h11.593l1.151,4.968c2.088-4.896,5.688-6.12,8.208-6.12
				c1.873,0,4.249,0.36,5.978,1.368l-1.8,12.169c-1.584-0.72-3.385-1.296-5.257-1.296c-2.521,0-4.248,1.008-4.248,3.816V324.84z"/>
			<path d="M1091.825,308.781h-0.36v16.059h-14.617v-50.045h14.617v19.514h0.434c2.52-4.896,6.048-7.849,11.809-7.849
				c4.681,0,9.073,2.664,9.073,9.073c0,5.544-3.962,9.289-6.985,11.16l8.785,18.146h-16.777L1091.825,308.781z M1096.361,296.757
				c-2.305,0-4.32,3.024-4.608,6.553c3.312-0.216,6.625-2.232,6.625-4.536C1098.378,297.549,1097.514,296.757,1096.361,296.757z"/>
			<path d="M1123.215,313.534c4.537,0,6.77,2.448,6.77,6.191c0,3.529-2.16,6.408-6.553,6.408c-4.607,0-6.769-2.734-6.769-6.336
				C1116.663,316.343,1118.967,313.534,1123.215,313.534z"/>
		</g>
	</g>
</g>
<g id="author">
	<g id="outlines">
		<g>
			<path d="M929.426,515.43c0-0.84,0.48-1.38,1.11-1.38c0.54,0,1.02,0.45,1.02,1.021c0,0.479-0.27,0.898-0.659,1.14
				c0.601,1.05,2.34,2.01,4.71,2.01c3,0,4.89-1.71,4.89-4.17c0-2.488-2.279-3.568-4.739-4.56c-2.97-1.17-5.609-2.399-5.609-5.58
				c0-2.88,2.37-4.949,5.729-4.949c3.029,0,5.459,1.859,5.459,3.66c0,0.779-0.51,1.26-1.079,1.26s-1.051-0.45-1.051-1.05
				c0-0.45,0.24-0.811,0.57-1.08c-0.511-0.96-2.311-1.71-3.96-1.71c-2.641,0-4.471,1.62-4.471,3.779c0,2.521,2.25,3.51,4.891,4.561
				c2.88,1.141,5.46,2.431,5.46,5.579c0,3.24-2.609,5.34-6.149,5.34C931.827,519.3,929.426,517.14,929.426,515.43z"/>
			<path d="M944.756,518.01h2.34v-10.499h-2.34v-0.989h3.45v11.488h2.34V519h-5.79V518.01L944.756,518.01z M946.317,501.211
				c0-0.63,0.479-1.141,1.079-1.141s1.08,0.511,1.08,1.141c0,0.6-0.479,1.109-1.08,1.109S946.317,501.811,946.317,501.211z"/>
			<path d="M952.675,518.01h2.19v-10.499h-2.19v-0.989h3.24v2.52c1.14-1.409,2.94-2.729,4.83-2.729c1.56,0,2.58,0.6,3.12,1.59
				c0.18,0.359,0.3,0.75,0.39,1.14c1.38-1.56,3.149-2.729,4.92-2.729c1.739,0,2.729,0.688,3.239,1.829
				c0.33,0.689,0.45,1.529,0.45,2.46v7.409h2.189V519h-5.46v-0.99h2.16v-7.26c0-0.84-0.12-1.529-0.33-2.01
				c-0.391-0.931-1.17-1.41-2.4-1.41c-1.709,0-3.3,1.17-4.618,2.67v8.01h2.188V519h-5.46v-0.99h2.16v-7.26c0-0.81-0.09-1.5-0.3-2.01
				c-0.392-0.931-1.17-1.41-2.4-1.41c-1.77,0-3.359,1.229-4.619,2.7v7.979h2.159V519h-5.46L952.675,518.01L952.675,518.01z"/>
			<path d="M977.006,512.76c0-3.6,2.641-6.449,6.3-6.449c3.72,0,6.3,2.82,6.3,6.449c0,3.602-2.609,6.45-6.3,6.45
				C979.616,519.21,977.006,516.39,977.006,512.76z M988.436,512.76c0-3.119-2.1-5.459-5.13-5.459c-3,0-5.13,2.34-5.13,5.459
				c0,3.15,2.13,5.46,5.13,5.46C986.336,518.22,988.436,515.91,988.436,512.76z"/>
			<path d="M995.486,509.04c1.17-1.409,3-2.729,4.949-2.729c1.649,0,2.699,0.66,3.271,1.65c0.39,0.689,0.57,1.619,0.57,2.64v7.409
				h2.188V519h-5.46v-0.99h2.16v-7.26c0-0.84-0.09-1.529-0.36-2.069c-0.42-0.87-1.26-1.351-2.52-1.351
				c-1.83,0-3.51,1.229-4.739,2.729v7.949h2.159V519h-5.46v-0.99h2.19v-10.499h-2.19v-0.989h3.24L995.486,509.04L995.486,509.04z"/>
			<path d="M1015.195,517.95h2.85l0.721-17.641h-2.819v-1.05h4.17l6.84,15.119l6.84-15.119h4.109v1.05h-2.819l0.72,17.641h2.851V519
				h-6.631v-1.05h2.61l-0.601-16.619l-6.869,15.029h-0.48l-6.869-15.061l-0.601,16.649h2.61V519h-6.631V517.95L1015.195,517.95z"/>
			<path d="M1040.995,515.641c0-2.25,1.95-3.75,4.649-3.75c1.439,0,3.09,0.359,3.989,0.721v-2.28c0-0.779-0.21-1.439-0.63-1.949
				c-0.57-0.66-1.56-1.11-2.938-1.11c-1.44,0-2.28,0.479-2.762,0.961c0.182,0.18,0.302,0.479,0.302,0.81c0,0.45-0.36,0.9-0.9,0.9
				c-0.6,0-0.96-0.45-0.96-1.021c0-1.17,1.59-2.609,4.41-2.609c1.649,0,2.938,0.479,3.688,1.351c0.57,0.63,0.87,1.471,0.87,2.49
				v7.858h2.16V519h-3.21v-1.89c-1.021,1.108-2.67,2.1-4.5,2.1C1042.525,519.21,1040.995,517.62,1040.995,515.641z
				 M1049.634,516.061v-2.609c-1.14-0.36-2.58-0.63-3.93-0.63c-2.46,0-3.601,1.29-3.601,2.76c0,1.41,1.021,2.67,3.211,2.67
				C1047.084,518.25,1048.584,517.26,1049.634,516.061z"/>
			<path d="M1055.575,525c-0.96,0-1.682-0.51-1.682-1.26c0-0.54,0.392-0.932,0.932-0.932c0.659,0,1.08,0.631,1.02,1.2
				c0.69-0.09,1.351-0.51,2.101-1.71c0.359-0.57,0.75-1.35,1.17-2.28l0.721-1.59l-4.83-10.919h-1.859v-0.99h5.34v0.99h-2.221
				l4.11,9.749l4.199-9.749h-2.279v-0.99h5.249v0.99h-1.859l-5.85,13.169c-0.391,0.87-0.75,1.53-1.141,2.16
				C1057.764,524.31,1056.804,525,1055.575,525z"/>
		</g>
	</g>
</g>
</svg>
