<?xml version="1.0" encoding="utf-8"?>
<!-- Generator: Adobe Illustrator 15.0.0, SVG Export Plug-In . SVG Version: 6.00 Build 0)  -->
<!DOCTYPE svg PUBLIC "-//W3C//DTD SVG 1.1//EN" "http://www.w3.org/Graphics/SVG/1.1/DTD/svg11.dtd">
<svg version="1.1" id="Layer_1" xmlns="http://www.w3.org/2000/svg" xmlns:xlink="http://www.w3.org/1999/xlink" x="0px" y="0px"
	 width="1920px" height="1080px" viewBox="0 0 1920 1080" enable-background="new 0 0 1920 1080" xml:space="preserve">
<path d="M199.521,391.079h-34.935V205.987h34.937c13.649,0,30.31,7.867,30.31,31.466v40.258c0,8.792-4.857,14.345-12.03,19.203
	c7.173,4.858,12.03,10.41,12.03,19.202v43.497C229.83,383.212,213.172,391.079,199.521,391.079z M202.065,241.619
	c0-5.321-1.852-7.402-4.858-7.402h-4.162v49.281h4.164c3.008,0,4.858-2.084,4.858-7.404L202.065,241.619L202.065,241.619z
	 M202.065,318.894c0-5.321-1.852-7.403-4.858-7.403h-4.162v51.593h4.164c3.008,0,4.858-2.082,4.858-7.403L202.065,318.894
	L202.065,318.894z"/>
<path d="M240.473,391.079V205.987h56.222V231.9h-27.532v49.051h18.046v28.223h-18.046v53.677h27.532v28.226L240.473,391.079
	L240.473,391.079z"/>
<path d="M346.667,391.079v-77.275h-11.105v77.275h-28.458V205.987h28.458v79.822h11.105v-79.822h28.457v185.091H346.667z"/>
<path d="M388.312,391.079V205.987h28.459v185.091H388.312z"/>
<path d="M474.148,391.079l-20.361-98.793v98.793h-23.83V205.987h33.085l15.965,100.412V205.987h23.831v185.091H474.148z"/>
<path d="M552.578,391.079h-37.25V205.987h37.25c13.65,0,29.152,7.867,29.152,31.466v122.16
	C581.73,383.212,566.229,391.079,552.578,391.079z M555.123,241.619c0-5.321-1.852-7.402-5.09-7.402h-6.247v128.868h6.247
	c3.238,0,5.09-2.083,5.09-7.404V241.619z"/>
<path d="M623.373,391.079V205.987h56.222V231.9h-27.531v49.051h18.044v28.223h-18.044v53.677h27.531v28.226L623.373,391.079
	L623.373,391.079z"/>
<path d="M733.27,391.079h-26.374l-23.139-185.091h28.229l8.791,108.047l9.948-108.047h25.912L733.27,391.079z"/>
<path d="M762.189,391.079V205.987h56.222V231.9h-27.535v49.051h18.048v28.223h-18.048v53.677h27.535v28.226L762.189,391.079
	L762.189,391.079z"/>
<path d="M870.467,391.079c-2.083-8.099-3.471-18.973-3.471-28.688v-41.184c0-4.164-2.083-7.401-6.013-7.401h-3.705v77.274H828.82
	V205.987h34.937c13.651,0,30.54,7.867,30.54,31.466v44.886c0,8.792-4.855,14.345-12.262,19.202
	c7.404,4.858,12.725,10.411,12.725,19.202v39.331c0,11.8,1.853,21.979,3.701,31.004H870.467z M866.302,241.619
	c0-5.321-1.852-7.402-4.854-7.402h-4.168v53.907h4.168c3.004,0,4.854-2.081,4.854-7.402V241.619z"/>
<path d="M950.748,308.944v82.134h-27.533v-82.134L900.31,205.987h27.532l10.644,59.461l9.719-59.461h26.144L950.748,308.944z"/>
<path d="M1059.485,391.079l-2.314-3.702c-4.627,3.931-11.104,6.016-18.276,6.016c-18.044,0-29.613-13.189-29.613-34.011V237.686
	c0-18.74,14.113-34.011,32.854-34.011c18.739,0,32.851,15.271,32.851,34.011v40.257h-27.298v-39.563
	c0-3.008-2.545-5.553-5.553-5.553s-5.553,2.545-5.553,5.553V361c0,3.008,2.545,5.553,5.553,5.553s5.553-2.545,5.553-5.553v-35.86
	h-5.553v-24.524h34.01v90.463L1059.485,391.079L1059.485,391.079z"/>
<path d="M1128.66,391.079c-2.082-8.099-3.471-18.973-3.471-28.688v-41.184c0-4.164-2.082-7.401-6.017-7.401h-3.701v77.274h-28.458
	V205.987h34.938c13.648,0,30.538,7.867,30.538,31.466v44.886c0,8.792-4.854,14.345-12.263,19.202
	c7.401,4.858,12.726,10.411,12.726,19.202v39.331c0,11.8,1.852,21.979,3.703,31.004H1128.66z M1124.496,241.619
	c0-5.321-1.853-7.402-4.859-7.402h-4.164v53.907h4.164c3.008,0,4.859-2.081,4.859-7.402V241.619z"/>
<path d="M1163.363,391.079V205.987h56.221V231.9h-27.532v49.051h18.047v28.223h-18.047v53.677h27.532v28.226L1163.363,391.079
	L1163.363,391.079z"/>
<path d="M1267.476,391.079l-1.624-31.234H1252.9l-2.545,31.234h-25.682l18.741-185.091h34.009l19.203,185.091H1267.476z
	 M1260.534,268.457l-5.322,63.163h9.022L1260.534,268.457z"/>
<path d="M1340.837,234.214v156.864h-28.458V234.214h-18.971v-28.227h65.244v28.227H1340.837z"/>
<path d="M193.276,509.541v52.75h20.358v26.838h-20.358v79.588h-28.689V483.628h56.223v25.912H193.276L193.276,509.541z"/>
<path d="M264.305,671.031c-18.74,0-34.01-15.271-34.01-34.012V515.323c0-18.739,15.271-34.009,34.01-34.009
	c18.737,0,34.01,15.27,34.01,34.009V637.02C298.313,655.762,283.042,671.031,264.305,671.031z M269.856,516.019
	c0-3.008-2.545-5.553-5.553-5.553c-3.009,0-5.554,2.545-5.554,5.553v120.309c0,3.006,2.545,5.551,5.554,5.551
	c3.008,0,5.553-2.545,5.553-5.551V516.019z"/>
<path d="M351.526,668.717c-2.082-8.098-3.47-18.971-3.47-28.688v-41.184c0-4.164-2.082-7.4-6.017-7.4h-3.702v77.275H309.88V483.628
	h34.938c13.649,0,30.54,7.867,30.54,31.465v44.887c0,8.791-4.858,14.346-12.262,19.203c7.402,4.855,12.725,10.41,12.725,19.199
	v39.332c0,11.799,1.851,21.979,3.702,31.002H351.526L351.526,668.717z M347.362,519.259c0-5.321-1.851-7.402-4.858-7.402h-4.165
	v53.907h4.165c3.009,0,4.858-2.084,4.858-7.402V519.259z"/>
<path d="M429.031,511.854v156.863h-28.456V511.854h-18.971v-28.227h65.243v28.227H429.031z"/>
<path d="M487.104,671.031c-18.74,0-32.854-15.271-32.854-34.012V483.627h27.302v152.699c0,3.006,2.546,5.551,5.554,5.551
	c3.237,0,5.553-2.545,5.553-5.551V483.627h26.146V637.02C518.8,655.762,506.074,671.031,487.104,671.031z"/>
<path d="M575.021,668.717l-20.36-98.791v98.791H530.83V483.628h33.085l15.965,100.411V483.628h23.83v185.088H575.021
	L575.021,668.717z"/>
<path d="M616.2,668.717V483.628h56.222v25.912h-27.531v49.047h18.045v28.229h-18.045v53.674h27.531v28.225L616.2,668.717
	L616.2,668.717z"/>
<path d="M755.711,511.854v156.863h-28.457V511.854h-18.971v-28.227h65.241v28.227H755.711z"/>
<path d="M820.953,668.717v-77.273h-11.105v77.273H781.39V483.628h28.458v79.823h11.105v-79.823h28.458v185.088H820.953
	L820.953,668.717z"/>
<path d="M861.904,668.717V483.628h56.222v25.912h-27.532v49.047h18.048v28.229h-18.048v53.674h27.532v28.225L861.904,668.717
	L861.904,668.717z"/>
<path d="M970.183,668.717c-2.082-8.098-3.471-18.971-3.471-28.688v-41.184c0-4.164-2.082-7.4-6.016-7.4h-3.701v77.275h-28.458
	V483.628h34.937c13.65,0,30.54,7.867,30.54,31.465v44.887c0,8.791-4.858,14.346-12.263,19.203
	c7.401,4.855,12.726,10.41,12.726,19.199v39.332c0,11.799,1.85,21.979,3.701,31.002H970.183L970.183,668.717z M966.017,519.259
	c0-5.321-1.852-7.402-4.858-7.402h-4.164v53.907h4.164c3.008,0,4.858-2.084,4.858-7.402V519.259z"/>
<path d="M1004.884,668.717V483.628h56.222v25.912h-27.53v49.047h18.044v28.229h-18.044v53.674h27.53v28.225L1004.884,668.717
	L1004.884,668.717z"/>
<path d="M1102.288,668.717V483.628h28.456v185.088H1102.288L1102.288,668.717z"/>
<path d="M1175.166,671.031c-21.748,0-36.092-15.271-36.092-34.012v-27.068h26.142v24.291c0,5.09,3.008,9.949,8.562,9.949
	c5.553,0,8.098-3.705,8.098-9.949c0-17.119-10.412-33.084-20.36-51.131c-10.18-18.973-20.592-40.025-20.592-58.997
	c0-25.218,12.031-42.803,34.938-42.803c18.739,0,32.39,15.271,32.39,34.01v27.069h-26.144v-25.912c0-5.553-2.545-8.328-6.246-8.328
	c-3.702,0-7.636,2.775-7.636,8.328c0,18.741,6.247,31.697,18.046,53.906c10.643,19.898,22.904,40.027,22.904,57.842
	C1209.177,651.828,1196.914,671.031,1175.166,671.031z"/>
<path d="M1285.524,668.717l-1.62-31.232h-12.956l-2.545,31.232h-25.68l18.74-185.088h34.01l19.203,185.088H1285.524
	L1285.524,668.717z M1278.583,546.096l-5.32,63.164h9.022L1278.583,546.096z"/>
<path d="M1383.85,671.031c-18.74,0-32.854-15.271-32.854-34.012V515.323c0-18.739,14.113-34.009,32.854-34.009
	c18.739,0,32.854,15.27,32.854,34.009v37.943h-27.3v-37.248c0-3.008-2.546-5.553-5.554-5.553s-5.553,2.545-5.553,5.553v120.31
	c0,3.006,2.545,5.551,5.553,5.551s5.554-2.545,5.554-5.551v-37.252h27.3v37.941C1416.702,655.762,1402.589,671.031,1383.85,671.031z
	"/>
<path d="M1468.526,668.717c-2.082-8.098-3.472-18.971-3.472-28.688v-41.184c0-4.164-2.082-7.4-6.016-7.4h-3.701v77.275h-28.458
	V483.628h34.938c13.646,0,30.538,7.867,30.538,31.465v44.887c0,8.791-4.857,14.346-12.263,19.203
	c7.401,4.855,12.726,10.41,12.726,19.199v39.332c0,11.799,1.849,21.979,3.703,31.002H1468.526L1468.526,668.717z M1464.362,519.259
	c0-5.321-1.853-7.402-4.859-7.402h-4.164v53.907h4.164c3.008,0,4.859-2.084,4.859-7.402V519.259z"/>
<path d="M1503.924,668.717V483.628h28.46v185.088H1503.924L1503.924,668.717z"/>
<path d="M1625.62,668.717V543.783l-18.741,124.934h-18.739l-16.889-124.934v124.934h-25.68V483.628h44.419l10.412,86.76
	l11.101-86.76h42.571v185.088H1625.62L1625.62,668.717z"/>
<path d="M1666.572,668.717V483.628h56.221v25.912h-27.532v49.047h18.044v28.229h-18.044v53.674h27.532v28.225L1666.572,668.717
	L1666.572,668.717z"/>
<path d="M1733.205,668.717v-27.994h26.144v27.994H1733.205z"/>
<path d="M160.651,874.299h4.387v-28.342h-4.387v-1.689h10.846v1.689h-4.482v12.82h19.667v-12.82h-4.438v-1.689h10.845v1.689h-4.434
	v28.344h4.434v1.686h-10.845v-1.688h4.438v-13.736h-19.667v13.736h4.482v1.688h-10.846V874.299L160.651,874.299z"/>
<path d="M196.661,865.961c0-5.785,4.242-10.363,10.122-10.363c5.979,0,10.123,4.531,10.123,10.363
	c0,5.787-4.194,10.363-10.123,10.363S196.661,871.793,196.661,865.961z M215.023,865.961c0-5.012-3.373-8.771-8.242-8.771
	c-4.819,0-8.242,3.76-8.242,8.771c0,5.062,3.423,8.771,8.242,8.771C211.652,874.732,215.023,871.021,215.023,865.961z"/>
<path d="M226.351,859.984c1.88-2.266,4.819-4.387,7.953-4.387c2.649,0,4.337,1.061,5.254,2.65c0.627,1.107,0.916,2.602,0.916,4.242
	v11.902h3.518v1.592h-8.772v-1.592h3.471V862.73c0-1.35-0.146-2.457-0.578-3.324c-0.675-1.398-2.024-2.17-4.049-2.17
	c-2.94,0-5.641,1.973-7.614,4.383v12.771h3.469v1.596h-8.771v-1.592h3.519v-16.869h-3.519v-1.588h5.206L226.351,859.984
	L226.351,859.984z"/>
<path d="M247.126,865.961c0-5.785,4.242-10.363,10.123-10.363c5.978,0,10.121,4.531,10.121,10.363
	c0,5.787-4.191,10.363-10.121,10.363C251.32,876.324,247.126,871.793,247.126,865.961z M265.489,865.961
	c0-5.012-3.374-8.771-8.242-8.771c-4.82,0-8.242,3.76-8.242,8.771c0,5.062,3.422,8.771,8.242,8.771
	C262.116,874.732,265.489,871.021,265.489,865.961z"/>
<path d="M285.204,857.525c0,0.867-0.627,1.59-1.592,1.59c-0.865,0-1.638-0.723-1.688-1.59c-1.832,0.293-3.712,2.312-5.012,4.676
	v12.193h3.951v1.592h-9.254v-1.592h3.519v-16.869h-3.519v-1.588h5.205v4.48c1.494-2.65,3.953-4.82,6.024-4.82
	C284.385,855.598,285.204,856.514,285.204,857.525z"/>
<path d="M289.542,866.152c0.192,5.592,3.566,8.58,8.626,8.58c2.701,0,4.869-0.912,6.991-2.311l-0.146,1.832
	c-1.928,1.305-4.436,2.072-7.037,2.072c-6.121,0-10.268-4.098-10.268-10.41c0-5.688,3.952-10.316,9.495-10.316
	c5.734,0,8.917,4.482,8.917,9.4c0,0.482-0.048,0.867-0.144,1.156h-16.437L289.542,866.152L289.542,866.152z M289.588,864.611h14.702
	c-0.192-4.146-2.604-7.424-7.229-7.424C293.203,857.188,290.023,860.176,289.588,864.611z"/>
<path d="M321.31,874.299h4.385v-28.342h-4.385v-1.689h12.627c7.083,0,10.022,3.811,10.022,7.906c0,3.855-2.603,6.699-6.408,7.566
	c4.579,0.869,7.326,3.568,7.326,7.666c0,5.109-4.193,8.58-10.604,8.58H321.31V874.299L321.31,874.299z M333.599,858.924
	c5.879,0,8.436-2.939,8.436-6.65c0-3.615-2.651-6.318-8.196-6.318h-6.17v12.967L333.599,858.924L333.599,858.924z M334.32,874.299
	c5.303,0,8.627-2.846,8.627-6.893c0-4.242-3.324-6.795-9.399-6.795h-5.88v13.689L334.32,874.299L334.32,874.299z"/>
<path d="M349.84,870.588c0-3.615,3.135-6.023,7.471-6.023c2.312,0,4.964,0.576,6.411,1.158v-3.664c0-1.252-0.339-2.311-1.014-3.131
	c-0.916-1.061-2.506-1.783-4.723-1.783c-2.313,0-3.663,0.77-4.437,1.545c0.291,0.289,0.483,0.77,0.483,1.301
	c0,0.725-0.578,1.445-1.446,1.445c-0.964,0-1.542-0.723-1.542-1.641c0-1.879,2.556-4.189,7.086-4.189
	c2.649,0,4.723,0.768,5.928,2.17c0.916,1.012,1.397,2.361,1.397,4V874.4h3.47v1.586h-5.156v-3.035
	c-1.642,1.777-4.29,3.373-7.23,3.373C352.3,876.324,349.84,873.77,349.84,870.588z M363.723,871.264v-4.189
	c-1.831-0.58-4.146-1.014-6.314-1.014c-3.952,0-5.784,2.072-5.784,4.436c0,2.266,1.64,4.289,5.157,4.289
	C359.625,874.781,362.034,873.189,363.723,871.264z"/>
<path d="M371.387,874.395h3.714v-32.004h-3.714v-1.59h5.494v33.594h3.81v1.592h-9.304V874.395z"/>
<path d="M383.291,875.359l13.643-17.883h-11.085v4.098h-1.688v-5.643h15.521v0.678l-13.642,17.834h12.148v-4.098h1.688v5.641
	h-16.582L383.291,875.359L383.291,875.359z"/>
<path d="M403.395,870.588c0-3.615,3.133-6.023,7.469-6.023c2.313,0,4.965,0.576,6.411,1.158v-3.664c0-1.252-0.337-2.311-1.013-3.131
	c-0.915-1.061-2.507-1.783-4.723-1.783c-2.312,0-3.663,0.77-4.436,1.545c0.29,0.289,0.482,0.77,0.482,1.301
	c0,0.725-0.578,1.445-1.445,1.445c-0.965,0-1.542-0.723-1.542-1.641c0-1.879,2.554-4.189,7.086-4.189
	c2.647,0,4.722,0.768,5.927,2.17c0.915,1.012,1.396,2.361,1.396,4V874.4h3.472v1.586h-5.158v-3.035
	c-1.64,1.777-4.289,3.373-7.229,3.373C405.853,876.324,403.395,873.77,403.395,870.588z M417.273,871.264v-4.189
	c-1.831-0.58-4.146-1.014-6.314-1.014c-3.952,0-5.784,2.072-5.784,4.436c0,2.266,1.64,4.289,5.157,4.289
	C413.177,874.781,415.586,873.189,417.273,871.264z"/>
<path d="M425.612,866.152c0-5.977,4.531-10.555,9.882-10.555c4.241,0,7.664,2.795,7.664,5.59c0,1.062-0.724,1.975-1.783,1.975
	c-0.676,0-1.396-0.436-1.396-1.443c0-0.674,0.383-1.205,1.155-1.543c-0.577-1.734-3.037-2.986-5.64-2.986
	c-4.001,0-8.05,3.422-8.05,9.014c0,5.061,3.662,8.531,8.771,8.531c2.22,0,4.339-0.676,6.51-2.117l-0.146,1.777
	c-1.88,1.307-4.435,1.93-6.554,1.93C430.097,876.324,425.612,872.178,425.612,866.152z"/>
</svg>
