<?xml version="1.0" encoding="utf-8"?>
<!-- Generator: Adobe Illustrator 15.0.0, SVG Export Plug-In . SVG Version: 6.00 Build 0)  -->
<!DOCTYPE svg PUBLIC "-//W3C//DTD SVG 1.1//EN" "http://www.w3.org/Graphics/SVG/1.1/DTD/svg11.dtd">
<svg version="1.1" id="Layer_1" xmlns="http://www.w3.org/2000/svg" xmlns:xlink="http://www.w3.org/1999/xlink" x="0px" y="0px"
	 width="1920px" height="1080px" viewBox="0 0 1920 1080" enable-background="new 0 0 1920 1080" xml:space="preserve">
<path d="M153.523,372.923l-22.842-110.836v110.836h-26.736V165.27h37.118l17.913,112.652V165.27h26.734v207.654H153.523z"/>
<path d="M236.841,375.52c-21.022,0-38.155-17.133-38.155-38.155V200.831c0-21.025,17.133-38.155,38.155-38.155
	c21.025,0,38.158,17.131,38.158,38.155v136.533C274.999,358.387,257.866,375.52,236.841,375.52z M243.071,201.608
	c0-3.374-2.854-6.229-6.23-6.229c-3.372,0-6.228,2.855-6.228,6.229v134.974c0,3.375,2.855,6.23,6.228,6.23
	c3.376,0,6.23-2.855,6.23-6.23V201.608z"/>
<path d="M360.913,288.823h-7.267v84.101H321.72V165.27h39.193c15.314,0,34.264,8.825,34.264,35.3v52.951
	C395.177,279.998,376.228,288.823,360.913,288.823z M363.768,205.243c0-5.97-2.075-8.307-5.449-8.307h-4.672v60.479h4.672
	c3.375,0,5.449-2.336,5.449-8.308V205.243z"/>
<path d="M441.921,372.923l-1.817-35.041h-14.536l-2.854,35.041h-28.812l21.022-207.654h38.157l21.542,207.654H441.921z
	 M434.132,235.354l-5.97,70.861h10.125L434.132,235.354z"/>
<path d="M529.392,372.923c-2.338-9.085-3.894-21.285-3.894-32.187v-46.203c0-4.672-2.336-8.306-6.75-8.306h-4.152v86.695h-31.928
	V165.27h39.195c15.315,0,34.265,8.825,34.265,35.3v50.357c0,9.863-5.452,16.093-13.759,21.544
	c8.306,5.451,14.275,11.681,14.275,21.544v44.127c0,13.239,2.077,24.66,4.155,34.782H529.392z M524.719,205.243
	c0-5.97-2.076-8.307-5.451-8.307h-4.672v60.479h4.672c3.375,0,5.451-2.336,5.451-8.308V205.243z"/>
<path d="M610.374,372.923l-1.816-35.041h-14.536l-2.854,35.041h-28.808l21.019-207.654h38.155l21.545,207.654H610.374z
	 M602.587,235.354l-5.97,70.861h10.122L602.587,235.354z"/>
<path d="M692.915,372.923h-41.791V165.27h41.791c15.314,0,32.705,8.825,32.705,35.3v137.053
	C725.62,364.098,708.229,372.923,692.915,372.923z M695.77,205.243c0-5.97-2.075-8.307-5.71-8.307h-7.008v144.578h7.008
	c3.635,0,5.71-2.336,5.71-8.306V205.243z"/>
<path d="M739.375,372.923V165.27h31.929v207.654H739.375z"/>
<path d="M821.139,375.52c-24.397,0-40.49-17.133-40.49-38.155v-30.37h29.33v27.255c0,5.711,3.371,11.161,9.602,11.161
	c6.228,0,9.083-4.153,9.083-11.161c0-19.209-11.678-37.119-22.842-57.364c-11.421-21.285-23.097-44.906-23.097-66.188
	c0-28.294,13.493-48.021,39.194-48.021c21.022,0,36.335,17.131,36.335,38.155v30.37h-29.329v-29.07c0-6.229-2.854-9.345-7.008-9.345
	c-4.156,0-8.569,3.115-8.569,9.345c0,21.025,7.012,35.561,20.246,60.478c11.94,22.323,25.697,44.906,25.697,64.892
	C859.296,353.977,845.539,375.52,821.139,375.52z"/>
<path d="M869.157,372.923V165.27h63.072v29.07h-30.887v55.028h20.246v31.667h-20.246v60.219h30.887v31.667h-63.072V372.923z"/>
<path d="M978.435,372.923V165.27h31.931v207.654H978.435z"/>
<path d="M1060.199,375.52c-24.4,0-40.495-17.133-40.495-38.155v-30.37h29.329v27.255c0,5.711,3.375,11.161,9.603,11.161
	c6.231,0,9.087-4.153,9.087-11.161c0-19.209-11.678-37.119-22.842-57.364c-11.421-21.285-23.099-44.906-23.099-66.188
	c0-28.294,13.494-48.021,39.194-48.021c21.021,0,36.335,17.131,36.335,38.155v30.37h-29.328v-29.07c0-6.229-2.855-9.345-7.011-9.345
	s-8.566,3.115-8.566,9.345c0,21.025,7.012,35.561,20.245,60.478c11.939,22.323,25.697,44.906,25.697,64.892
	C1098.354,353.977,1084.598,375.52,1060.199,375.52z"/>
<path d="M1177.78,375.52c-21.025,0-36.859-17.133-36.859-38.155V200.831c0-21.025,15.834-38.155,36.859-38.155
	c21.023,0,36.854,17.131,36.854,38.155v42.569h-30.623v-41.791c0-3.374-2.854-6.229-6.229-6.229c-3.374,0-6.229,2.855-6.229,6.229
	v134.974c0,3.375,2.855,6.23,6.229,6.23c3.375,0,6.229-2.855,6.229-6.23v-41.791h30.624v42.569
	C1214.639,358.387,1198.805,375.52,1177.78,375.52z"/>
<path d="M1263.177,375.52c-21.025,0-38.156-17.133-38.156-38.155V200.831c0-21.025,17.131-38.155,38.156-38.155
	c21.021,0,38.156,17.131,38.156,38.155v136.533C1301.333,358.387,1284.202,375.52,1263.177,375.52z M1269.404,201.608
	c0-3.374-2.855-6.229-6.228-6.229c-3.374,0-6.229,2.855-6.229,6.229v134.974c0,3.375,2.854,6.23,6.229,6.23
	c3.371,0,6.228-2.855,6.228-6.23V201.608z"/>
<path d="M1404.123,372.923V232.757l-21.025,140.166h-21.023l-18.948-140.166v140.166h-28.812V165.27h49.838l11.678,97.338
	l12.461-97.338h47.762v207.654H1404.123z"/>
<path d="M1489.263,288.823h-7.269v84.101h-31.927V165.27h39.194c15.313,0,34.262,8.825,34.262,35.3v52.951
	C1523.524,279.998,1504.576,288.823,1489.263,288.823z M1492.118,205.243c0-5.97-2.077-8.307-5.452-8.307h-4.672v60.479h4.672
	c3.375,0,5.452-2.336,5.452-8.308V205.243z"/>
<path d="M1534.428,372.923V165.27h31.929v175.985h31.146v31.669H1534.428z"/>
<path d="M1608.402,372.923V165.27h63.073v29.07h-30.889v55.028h20.244v31.667h-20.244v60.219h30.889v31.667h-63.073V372.923z"/>
<path d="M1731.179,196.937v175.987h-31.928V196.937h-21.287V165.27h73.198v31.667H1731.179z"/>
<path d="M1759.99,372.923V165.27h63.073v29.07h-30.889v55.028h20.244v31.667h-20.244v60.219h30.889v31.667h-63.073V372.923
	L1759.99,372.923z"/>
<path d="M194.274,684.408h-25.697l-9.864-92.924l-9.866,92.924h-26.993L96.937,476.754h31.667l9.862,106.687l9.604-106.687h21.286
	l9.346,106.687l11.421-106.687h28.811L194.274,684.408z"/>
<path d="M226.462,684.408V476.754h31.925v207.654H226.462z"/>
<path d="M321.204,508.423v175.985h-31.926V508.423h-21.286v-31.669h73.196v31.669H321.204L321.204,508.423z"/>
<path d="M394.4,684.408v-86.693h-12.458v86.693h-31.928V476.754h31.929v89.55H394.4v-89.55h31.928v207.654H394.4z"/>
<path d="M477.463,687.004c-21.025,0-38.157-17.133-38.157-38.158V512.314c0-21.025,17.132-38.155,38.157-38.155
	c21.024,0,38.157,17.132,38.157,38.155v136.532C515.62,669.873,498.487,687.004,477.463,687.004z M483.691,513.095
	c0-3.375-2.854-6.229-6.229-6.229s-6.23,2.854-6.23,6.229V648.07c0,3.373,2.855,6.229,6.23,6.229s6.229-2.855,6.229-6.229V513.095z"
	/>
<path d="M564.937,687.004c-21.024,0-36.856-17.133-36.856-38.158V476.754h30.629V648.07c0,3.373,2.854,6.229,6.228,6.229
	c3.634,0,6.229-2.855,6.229-6.229V476.754h29.33v172.091C600.496,669.873,586.223,687.004,564.937,687.004z"/>
<path d="M662.015,508.423v175.985h-31.926V508.423h-21.287v-31.669h73.199v31.669H662.015L662.015,508.423z"/>
<path d="M766.618,684.408l-1.816-35.041h-14.534l-2.856,35.041h-28.811l21.021-207.654h38.157l21.543,207.654H766.618z
	 M758.83,546.838l-5.971,70.865h10.125L758.83,546.838z"/>
<path d="M876.149,687.004c-24.398,0-40.491-17.133-40.491-38.158v-30.369h29.329v27.256c0,5.709,3.375,11.16,9.604,11.16
	s9.083-4.154,9.083-11.16c0-19.207-11.68-37.117-22.842-57.365c-11.421-21.283-23.099-44.906-23.099-66.188
	c0-28.294,13.496-48.021,39.193-48.021c21.024,0,36.338,17.131,36.338,38.153v30.372h-29.331v-29.07c0-6.23-2.854-9.346-7.008-9.346
	c-4.151,0-8.565,3.114-8.565,9.346c0,21.024,7.008,35.56,20.242,60.478c11.941,22.322,25.7,44.906,25.7,64.893
	C914.306,665.461,900.551,687.004,876.149,687.004z"/>
<path d="M924.169,684.408V476.754h63.075v29.07h-30.887v55.031h20.241v31.666h-20.241v60.217h30.887v31.666L924.169,684.408
	L924.169,684.408z"/>
<path d="M1045.647,684.408c-2.338-9.084-3.891-21.283-3.891-32.186V606.02c0-4.672-2.341-8.305-6.749-8.305h-4.158v86.695h-31.926
	V476.754h39.194c15.314,0,34.264,8.825,34.264,35.3v50.36c0,9.863-5.448,16.094-13.757,21.545
	c8.305,5.447,14.274,11.678,14.274,21.541v44.127c0,13.236,2.077,24.658,4.154,34.781H1045.647L1045.647,684.408z M1040.975,516.728
	c0-5.97-2.074-8.306-5.447-8.306h-4.677V568.9h4.677c3.373,0,5.447-2.336,5.447-8.307V516.728z"/>
<path d="M1123.775,600.309h-7.27v84.102h-31.927V476.754h39.195c15.312,0,34.262,8.825,34.262,35.3v52.952
	C1158.037,591.484,1139.089,600.309,1123.775,600.309z M1126.631,516.728c0-5.97-2.077-8.306-5.452-8.306h-4.672V568.9h4.672
	c3.375,0,5.452-2.336,5.452-8.307V516.728z"/>
<path d="M1168.94,684.408V476.754h63.073v29.07h-30.889v55.031h20.248v31.666h-20.248v60.217h30.893v31.666L1168.94,684.408
	L1168.94,684.408z"/>
<path d="M1293.272,684.408l-22.842-110.836v110.836h-26.735V476.754h37.118l17.913,112.652V476.754h26.735v207.654H1293.272z"/>
<path d="M1387.494,508.423v175.985h-31.927V508.423h-21.284v-31.669h73.198v31.669H1387.494L1387.494,508.423z"/>
<path d="M1404.392,684.408V653h29.329v31.408H1404.392z"/>
<g id="author">
	<g id="outlines">
		<g>
			<path d="M99.53,915.053h4.922v-31.799H99.53v-1.893h12.167v1.893h-5.028v14.385h22.063v-14.385h-4.977v-1.893h12.167v1.893
				h-4.976v31.801h4.976v1.891h-12.167v-1.893h4.977v-15.412h-22.063v15.412h5.028v1.893H99.53V915.053z"/>
			<path d="M139.931,910.891c0-4.057,3.514-6.76,8.38-6.76c2.596,0,5.57,0.646,7.193,1.301v-4.109c0-1.406-0.379-2.596-1.136-3.516
				c-1.027-1.189-2.812-2-5.299-2c-2.596,0-4.108,0.863-4.977,1.732c0.326,0.324,0.542,0.863,0.542,1.459
				c0,0.812-0.649,1.623-1.623,1.623c-1.082,0-1.73-0.812-1.73-1.84c0-2.109,2.866-4.703,7.949-4.703
				c2.974,0,5.298,0.863,6.65,2.436c1.027,1.137,1.566,2.65,1.566,4.488v14.164h3.895v1.779h-5.786v-3.406
				c-1.84,1.996-4.812,3.785-8.112,3.785C142.688,917.324,139.931,914.457,139.931,910.891z M155.504,911.646v-4.701
				c-2.055-0.65-4.651-1.137-7.084-1.137c-4.436,0-6.49,2.326-6.49,4.975c0,2.543,1.839,4.812,5.787,4.812
				C150.907,915.594,153.609,913.809,155.504,911.646z"/>
			<path d="M171.023,898.992c2.109-2.541,5.408-4.92,8.922-4.92c2.974,0,4.865,1.188,5.895,2.975
				c0.704,1.242,1.028,2.918,1.028,4.758v13.355h3.945v1.785h-9.842v-1.785h3.893v-13.086c0-1.514-0.161-2.758-0.647-3.73
				c-0.757-1.568-2.271-2.434-4.543-2.434c-3.299,0-6.326,2.213-8.542,4.918v14.328h3.892v1.789h-9.842v-1.785h3.948v-18.926h-3.948
				v-1.781h5.841L171.023,898.992L171.023,898.992z"/>
			<path d="M209.2,900.344c-0.974,0-1.679-0.758-1.679-1.676c0-0.379,0.11-0.922,0.542-1.406c-1.083-1.025-3.191-1.463-5.14-1.463
				c-3.677,0-5.948,1.947-5.948,4.271c0,2.596,2.813,3.352,6.599,4.324c4.056,1.029,8.001,2.271,8.001,6.648
				c0,3.789-3.624,6.273-8.49,6.273c-3.297,0-6.271-1.137-7.786-2.705c-0.649-0.648-1.027-1.406-1.027-2.324
				c0-1.027,0.705-1.838,1.622-1.838c1.027,0,1.677,0.701,1.677,1.617c0,0.596-0.216,1.086-0.647,1.406
				c0.704,1.027,3.135,2.107,6.111,2.107c4.107,0,6.596-1.84,6.596-4.488c0-2.969-2.972-3.893-6.489-4.758
				c-4.486-1.084-8.112-2.217-8.112-6.219c0-3.406,3.3-6.057,7.95-6.057c3.19,0,5.57,0.975,6.813,2.273
				c0.703,0.705,1.024,1.402,1.024,2.215C210.822,899.586,210.12,900.344,209.2,900.344z"/>
			<path d="M228.776,915.053h4.921v-31.799h-4.921v-1.893h12.167v1.893h-5.028v18.766l18.277-18.766h-5.407v-1.893h12.275v1.893
				h-4.217l-12.925,13.252l12.871,18.549h4.596v1.891h-6.003l-13.031-18.979l-6.435,6.543v10.547h5.028v1.891h-12.167v-1.893h-0.002
				V915.053z"/>
			<path d="M267.116,914.297c-0.704-1.299-0.975-2.867-0.975-4.707v-13.354h-3.946v-1.781h5.948v14.92
				c0,1.516,0.216,2.816,0.703,3.789c0.812,1.516,2.271,2.326,4.488,2.326c3.299,0,6.22-2.379,8.543-5.084V896.24h-3.893v-1.783
				h5.896v20.707h3.948v1.781h-5.896v-4.758c-2.054,2.648-5.353,5.137-8.868,5.137C270.036,917.324,268.145,916.133,267.116,914.297
				z"/>
			<path d="M292.045,905.807c0-6.545,4.597-11.738,11.249-11.738c3.028,0,6.001,1.301,8.058,3.248v-18.062h-4.706v-1.785h6.706
				v37.691h3.894v1.785h-5.841v-3.73c-2.055,2.379-4.919,4.109-8.542,4.109C296.804,917.324,292.045,912.566,292.045,905.807z
				 M311.352,911.375v-12.219c-2.001-1.785-4.761-3.301-8.112-3.301c-5.3,0-9.085,4.271-9.085,9.896
				c-0.055,5.73,3.678,9.787,8.814,9.787C306.483,915.539,309.242,913.809,311.352,911.375z"/>
			<path d="M335.522,900.344c-0.974,0-1.678-0.758-1.678-1.676c0-0.379,0.11-0.922,0.543-1.406
				c-1.083-1.025-3.192-1.463-5.139-1.463c-3.679,0-5.948,1.947-5.948,4.271c0,2.596,2.812,3.352,6.597,4.324
				c4.057,1.029,8.001,2.271,8.001,6.648c0,3.789-3.623,6.273-8.487,6.273c-3.299,0-6.273-1.137-7.787-2.705
				c-0.649-0.648-1.027-1.406-1.027-2.324c0-1.027,0.704-1.838,1.622-1.838c1.027,0,1.676,0.701,1.676,1.617
				c0,0.596-0.215,1.086-0.646,1.406c0.703,1.027,3.135,2.107,6.11,2.107c4.107,0,6.597-1.84,6.597-4.488
				c0-2.969-2.974-3.893-6.489-4.758c-4.487-1.084-8.112-2.217-8.112-6.219c0-3.406,3.299-6.057,7.949-6.057
				c3.191,0,5.571,0.975,6.814,2.273c0.702,0.705,1.024,1.402,1.024,2.215C337.146,899.586,336.442,900.344,335.522,900.344z"/>
			<path d="M341.743,916.242l15.304-20.062h-12.438v4.598h-1.894v-6.33h17.412v0.76l-15.303,20.008h13.629v-4.596h1.892v6.326
				h-18.601L341.743,916.242L341.743,916.242z"/>
			<path d="M368.13,914.297c-0.702-1.299-0.972-2.867-0.972-4.707v-13.354h-3.947v-1.781h5.949v14.92
				c0,1.516,0.216,2.816,0.702,3.789c0.812,1.516,2.271,2.326,4.488,2.326c3.299,0,6.219-2.379,8.543-5.084V896.24h-3.892v-1.783
				h5.895v20.707h3.947v1.781h-5.896v-4.758c-2.055,2.648-5.353,5.137-8.868,5.137C371.051,917.324,369.16,916.133,368.13,914.297z"
				/>
			<path d="M407.931,900.344c-0.973,0-1.677-0.758-1.677-1.676c0-0.379,0.109-0.922,0.542-1.406
				c-1.083-1.025-3.192-1.463-5.14-1.463c-3.678,0-5.947,1.947-5.947,4.271c0,2.596,2.813,3.352,6.598,4.324
				c4.056,1.029,8.001,2.271,8.001,6.648c0,3.789-3.624,6.273-8.491,6.273c-3.296,0-6.271-1.137-7.784-2.705
				c-0.649-0.648-1.027-1.406-1.027-2.324c0-1.027,0.705-1.838,1.622-1.838c1.026,0,1.677,0.701,1.677,1.617
				c0,0.596-0.216,1.086-0.646,1.406c0.702,1.027,3.135,2.107,6.11,2.107c4.108,0,6.596-1.84,6.596-4.488
				c0-2.969-2.973-3.893-6.489-4.758c-4.487-1.084-8.111-2.217-8.111-6.219c0-3.406,3.299-6.057,7.949-6.057
				c3.19,0,5.57,0.975,6.812,2.273c0.703,0.705,1.025,1.402,1.025,2.215C409.553,899.586,408.851,900.344,407.931,900.344z"/>
		</g>
	</g>
</g>
</svg>
