<?xml version="1.0" encoding="utf-8"?>
<!-- Generator: Adobe Illustrator 15.0.1, SVG Export Plug-In . SVG Version: 6.00 Build 0)  -->
<!DOCTYPE svg PUBLIC "-//W3C//DTD SVG 1.0//EN" "http://www.w3.org/TR/2001/REC-SVG-20010904/DTD/svg10.dtd">
<svg version="1.0" id="Layer_1" xmlns="http://www.w3.org/2000/svg" xmlns:xlink="http://www.w3.org/1999/xlink" x="0px" y="0px"
	 width="1280px" height="720px" viewBox="0 0 1280 720" enable-background="new 0 0 1280 720" xml:space="preserve">
<g id="Layer_2">
	<g id="outlines_1_">
		<g>
			<path d="M144.753,161.759H130.64v-42.34h-11.665v-11.953h37.443v11.953h-11.665V161.759z"/>
			<path d="M196.018,128.42v-20.954h14.113v54.292h-14.113v-22.25H175.64v22.25h-14.113v-54.292h14.113v20.954H196.018z"/>
			<path d="M233.455,119.419v9.073h15.913v11.953h-15.913v9.361h16.777v11.953h-30.891v-54.292h30.891v11.953L233.455,119.419
				L233.455,119.419z"/>
			<path d="M313.446,121.436c-2.592-2.161-5.904-3.601-9.361-3.601c-2.592,0-6.048,1.512-6.048,4.537
				c0,3.168,3.816,4.392,6.265,5.184l3.6,1.08c7.561,2.232,13.393,6.049,13.393,14.833c0,5.4-1.296,10.945-5.616,14.617
				c-4.249,3.601-9.937,5.112-15.41,5.112c-6.84,0-13.537-2.304-19.082-6.192l6.048-11.377c3.528,3.096,7.705,5.617,12.529,5.617
				c3.312,0,6.841-1.656,6.841-5.473c0-3.96-5.545-5.329-8.569-6.192c-8.857-2.521-14.689-4.825-14.689-15.337
				c0-11.017,7.849-18.218,18.722-18.218c5.473,0,12.169,1.728,16.994,4.464L313.446,121.436z"/>
			<path d="M327.987,107.466h21.602c11.665,0,19.729,5.4,19.729,17.857c0,12.817-6.913,18.434-19.226,18.434h-7.993v18.001h-14.113
				L327.987,107.466L327.987,107.466z M342.101,132.38h2.376c5.113,0,10.153,0,10.153-6.625c0-6.841-4.68-6.913-10.153-6.913h-2.376
				V132.38L342.101,132.38z"/>
			<path d="M389.692,149.806h16.921v11.953h-31.035v-54.292h14.113L389.692,149.806L389.692,149.806z"/>
			<path d="M425.332,161.759h-14.113v-54.292h14.113V161.759z"/>
			<path d="M434.546,107.466h14.113l25.85,33.195h0.145v-33.195h14.112v54.292h-14.112l-25.851-33.267h-0.144v33.267h-14.113
				V107.466z"/>
			<path d="M519.58,161.759h-14.113v-42.34h-11.665v-11.953h37.443v11.953H519.58V161.759z"/>
			<path d="M550.466,119.419v9.073h15.913v11.953h-15.913v9.361h16.777v11.953h-30.892v-54.292h30.892v11.953L550.466,119.419
				L550.466,119.419z"/>
			<path d="M621.1,161.759H603.53l-13.321-20.882h-0.144v20.882h-14.113v-54.292h21.098c10.729,0,18.866,5.112,18.866,16.705
				c0,7.489-4.176,13.969-11.881,15.337L621.1,161.759z M590.065,131.804h1.367c4.608,0,9.793-0.864,9.793-6.769
				c0-5.905-5.185-6.769-9.793-6.769h-1.367V131.804z"/>
			<path d="M663.72,161.759h-14.112v-54.292h14.112V161.759z"/>
			<path d="M672.934,107.466h14.113l25.852,33.195h0.144v-33.195h14.113v54.292h-14.113l-25.851-33.267h-0.145v33.267h-14.113
				V107.466z"/>
			<path d="M755.084,107.466h16.922l10.152,14.761l10.152-14.761h16.922l-20.019,28.226v26.066h-14.113v-26.066L755.084,107.466z"/>
			<path d="M869.785,133.604c0,17.569-12.603,29.955-30.027,29.955s-30.025-12.385-30.025-29.955
				c0-16.417,14.4-27.938,30.025-27.938C855.384,105.666,869.785,117.187,869.785,133.604z M824.421,133.676
				c0,9.361,6.912,16.202,15.337,16.202s15.338-6.841,15.338-16.202c0-7.489-6.913-14.329-15.338-14.329
				S824.421,126.188,824.421,133.676z"/>
			<path d="M923.423,107.466v30.53c0,6.985-0.288,13.897-5.688,19.154c-4.536,4.464-11.665,6.048-18.001,6.048
				c-6.338,0-13.467-1.584-18.002-6.048c-5.4-5.256-5.688-12.169-5.688-19.154v-30.53h14.113v28.586
				c0,7.057,0.504,14.761,9.577,14.761c9.071,0,9.576-7.705,9.576-14.761v-28.586H923.423z"/>
			<path d="M977.494,161.759h-17.569l-13.321-20.882h-0.144v20.882h-14.112v-54.292h21.098c10.729,0,18.866,5.112,18.866,16.705
				c0,7.489-4.178,13.969-11.882,15.337L977.494,161.759z M946.46,131.804h1.368c4.607,0,9.793-0.864,9.793-6.769
				c0-5.905-5.186-6.769-9.793-6.769h-1.368V131.804z"/>
			<path d="M1020.114,119.419v9.073h15.913v11.953h-15.913v9.361h16.776v11.953H1006v-54.292h30.891v11.953L1020.114,119.419
				L1020.114,119.419z"/>
			<path d="M1039.624,107.466h16.922l10.152,14.761l10.152-14.761h16.921l-20.018,28.226v26.066h-14.113v-26.066L1039.624,107.466z"
				/>
			<path d="M1111.121,119.419v9.073h15.913v11.953h-15.913v9.361h16.777v11.953h-30.892v-54.292h30.892v11.953L1111.121,119.419
				L1111.121,119.419z"/>
			<path d="M189.896,248.159h-14.113v-54.292h14.113V248.159z"/>
			<path d="M228.92,207.836c-2.592-2.161-5.904-3.601-9.361-3.601c-2.592,0-6.048,1.512-6.048,4.537
				c0,3.168,3.816,4.392,6.265,5.184l3.6,1.08c7.561,2.232,13.393,6.049,13.393,14.833c0,5.4-1.296,10.945-5.616,14.617
				c-4.249,3.601-9.937,5.112-15.41,5.112c-6.84,0-13.537-2.304-19.082-6.192l6.048-11.377c3.528,3.096,7.705,5.617,12.529,5.617
				c3.312,0,6.841-1.656,6.841-5.473c0-3.96-5.545-5.329-8.569-6.192c-8.857-2.521-14.689-4.825-14.689-15.337
				c0-11.017,7.849-18.218,18.722-18.218c5.473,0,12.169,1.728,16.994,4.464L228.92,207.836z"/>
			<path d="M289.759,248.159h-14.113v-42.34h-11.665v-11.953h37.443v11.953h-11.665V248.159L289.759,248.159z"/>
			<path d="M341.023,214.82v-20.954h14.113v54.292h-14.113v-22.25h-20.378v22.25h-14.113v-54.292h14.113v20.954H341.023z"/>
			<path d="M378.461,205.819v9.073h15.913v11.953h-15.913v9.361h16.777v11.953h-30.891v-54.292h30.891v11.953L378.461,205.819
				L378.461,205.819z"/>
			<path d="M428.642,248.159v-54.292h20.162c9.649,0,16.129,3.744,16.129,14.113c0,4.896-1.584,8.857-5.977,11.089v0.144
				c7.777,1.008,11.089,6.264,11.089,13.825c0,11.377-9.721,15.121-19.658,15.121H428.642z M442.755,215.18h1.584
				c3.745,0,7.633-0.648,7.633-5.256c0-4.968-4.393-5.256-8.209-5.256h-1.008V215.18z M442.755,237.358h1.8
				c4.176,0,11.233,0.216,11.233-5.761c0-6.552-6.985-5.904-11.593-5.904h-1.44V237.358z"/>
			<path d="M491.498,205.819v9.073h15.913v11.953h-15.913v9.361h16.777v11.953h-30.892v-54.292h30.892v11.953L491.498,205.819
				L491.498,205.819z"/>
			<path d="M546.794,207.836c-2.592-2.161-5.904-3.601-9.361-3.601c-2.592,0-6.048,1.512-6.048,4.537
				c0,3.168,3.816,4.392,6.266,5.184l3.6,1.08c7.561,2.232,13.393,6.049,13.393,14.833c0,5.4-1.296,10.945-5.615,14.617
				c-4.249,3.601-9.938,5.112-15.41,5.112c-6.84,0-13.537-2.304-19.082-6.192l6.048-11.377c3.528,3.096,7.705,5.617,12.529,5.617
				c3.312,0,6.841-1.656,6.841-5.473c0-3.96-5.545-5.329-8.569-6.192c-8.856-2.521-14.688-4.825-14.688-15.337
				c0-11.017,7.849-18.218,18.722-18.218c5.473,0,12.169,1.728,16.994,4.464L546.794,207.836z"/>
			<path d="M582.938,248.159h-14.112v-42.34H557.16v-11.953h37.442v11.953h-11.665V248.159z"/>
			<path d="M630.383,193.867h13.897l11.017,29.018l11.665-29.018h14.041l8.209,54.292h-14.113l-3.96-31.25h-0.145l-13.033,31.25
				h-5.616l-12.457-31.25h-0.144l-4.537,31.25h-14.041L630.383,193.867z"/>
			<path d="M709.007,238.727l-3.744,9.433h-14.978l20.882-54.292h15.409l20.45,54.292h-15.051l-3.527-9.433H709.007z
				 M718.872,210.644h-0.146l-5.832,17.281h11.736L718.872,210.644z"/>
			<path d="M805.562,217.845c-0.145,7.92-0.721,14.689-5.545,21.458c-5.328,7.417-13.32,10.657-22.395,10.657
				c-17.065,0-28.946-11.593-28.946-28.659c0-17.642,11.953-29.234,29.45-29.234c11.161,0,19.802,5.041,24.482,15.193l-13.394,5.616
				c-1.944-5.184-6.049-8.641-11.737-8.641c-9.288,0-14.112,8.857-14.112,17.138c0,8.424,5.04,16.993,14.329,16.993
				c6.119,0,10.801-3.168,11.377-9.433h-11.521v-11.089h28.012V217.845z"/>
			<path d="M812.037,193.867h14.113l25.851,33.195h0.144v-33.195h14.113v54.292h-14.113l-25.851-33.267h-0.144v33.267h-14.113
				V193.867z"/>
			<path d="M889.582,248.159h-14.113v-54.292h14.113V248.159z"/>
			<path d="M912.909,205.819v9.073h15.48v11.953h-15.48v21.314h-14.113v-54.292h31.179v11.953L912.909,205.819L912.909,205.819z"/>
			<path d="M931.843,193.867h16.922l10.152,14.761l10.153-14.761h16.921l-20.019,28.226v26.066H951.86v-26.066L931.843,193.867z"/>
			<path d="M1003.34,248.159h-14.113v-54.292h14.113V248.159z"/>
			<path d="M1012.554,193.867h14.113l25.851,33.195h0.145v-33.195h14.113v54.292h-14.113l-25.852-33.267h-0.144v33.267h-14.113
				V193.867z"/>
			<path d="M1130.134,217.845c-0.144,7.92-0.72,14.689-5.544,21.458c-5.329,7.417-13.32,10.657-22.395,10.657
				c-17.065,0-28.946-11.593-28.946-28.659c0-17.642,11.953-29.234,29.45-29.234c11.161,0,19.802,5.041,24.481,15.193l-13.393,5.616
				c-1.944-5.184-6.049-8.641-11.737-8.641c-9.289,0-14.113,8.857-14.113,17.138c0,8.424,5.041,16.993,14.329,16.993
				c6.12,0,10.802-3.168,11.377-9.433h-11.521v-11.089h28.011V217.845z"/>
			<path d="M924.863,304.245c-0.145,7.92-0.721,14.688-5.544,21.458c-5.329,7.417-13.321,10.657-22.396,10.657
				c-17.064,0-28.945-11.594-28.945-28.659c0-17.642,11.952-29.234,29.449-29.234c11.161,0,19.803,5.041,24.482,15.193
				l-13.394,5.616c-1.943-5.184-6.049-8.641-11.736-8.641c-9.289,0-14.113,8.857-14.113,17.139c0,8.424,5.04,16.992,14.329,16.992
				c6.12,0,10.801-3.168,11.377-9.433h-11.521v-11.089L924.863,304.245L924.863,304.245z"/>
			<path d="M945.452,322.606h16.922v11.952h-31.035v-54.292h14.113V322.606z"/>
			<path d="M980.804,325.126l-3.743,9.433h-14.979l20.882-54.292h15.409l20.45,54.292h-15.05l-3.528-9.433H980.804z
				 M990.669,297.044h-0.146l-5.831,17.281h11.735L990.669,297.044z"/>
			<path d="M1053.021,294.235c-2.593-2.16-5.904-3.6-9.36-3.6c-2.593,0-6.049,1.512-6.049,4.537c0,3.168,3.815,4.392,6.265,5.184
				l3.6,1.08c7.562,2.232,13.395,6.049,13.395,14.833c0,5.4-1.296,10.945-5.616,14.617c-4.249,3.602-9.938,5.112-15.409,5.112
				c-6.841,0-13.537-2.304-19.082-6.192l6.049-11.377c3.528,3.097,7.704,5.617,12.529,5.617c3.312,0,6.84-1.656,6.84-5.473
				c0-3.96-5.544-5.329-8.567-6.192c-8.856-2.521-14.689-4.825-14.689-15.337c0-11.017,7.85-18.218,18.722-18.218
				c5.474,0,12.17,1.728,16.993,4.464L1053.021,294.235z"/>
			<path d="M1097.372,294.235c-2.592-2.16-5.904-3.6-9.36-3.6c-2.593,0-6.049,1.512-6.049,4.537c0,3.168,3.816,4.392,6.266,5.184
				l3.6,1.08c7.562,2.232,13.394,6.049,13.394,14.833c0,5.4-1.296,10.945-5.615,14.617c-4.249,3.602-9.938,5.112-15.409,5.112
				c-6.841,0-13.537-2.304-19.082-6.192l6.049-11.377c3.527,3.097,7.704,5.617,12.529,5.617c3.312,0,6.84-1.656,6.84-5.473
				c0-3.96-5.544-5.329-8.568-6.192c-8.855-2.521-14.688-4.825-14.688-15.337c0-11.017,7.849-18.218,18.722-18.218
				c5.473,0,12.169,1.728,16.993,4.464L1097.372,294.235z"/>
			<path d="M1128.114,327.575c0,4.607-3.744,8.424-8.425,8.424s-8.426-3.816-8.426-8.424c0-4.682,3.745-8.425,8.426-8.425
				S1128.114,322.894,1128.114,327.575z"/>
		</g>
	</g>
</g>
<g id="author">
	<g id="outlines">
		<g>
			<path d="M870.85,517.95h2.94V500.31h-6.21v3.48h-1.2v-4.53H882.4v4.53h-1.2v-3.48h-6.181v17.641h2.91V519h-7.08V517.95
				L870.85,517.95z"/>
			<path d="M884.68,498.091v-0.99h3.271v11.91c1.17-1.439,2.97-2.7,4.92-2.7c1.528,0,2.52,0.54,3.149,1.41
				c0.539,0.721,0.75,1.739,0.75,2.88v7.409h2.189V519h-5.46v-0.99h2.16v-7.26c0-1.05-0.182-1.859-0.602-2.43
				c-0.479-0.63-1.29-0.99-2.37-0.99c-1.828,0-3.479,1.229-4.738,2.729v7.949h2.188V519h-5.459v-0.99h2.159v-19.919H884.68z"/>
			<path d="M902.02,512.88c0.12,3.48,2.221,5.34,5.369,5.34c1.682,0,3.03-0.568,4.352-1.438l-0.091,1.14
				c-1.199,0.812-2.761,1.29-4.38,1.29c-3.811,0-6.391-2.55-6.391-6.479c0-3.54,2.46-6.421,5.91-6.421c3.568,0,5.55,2.79,5.55,5.851
				c0,0.3-0.03,0.54-0.09,0.72H902.02V512.88z M902.049,511.92h9.15c-0.12-2.579-1.62-4.619-4.5-4.619
				C904.299,507.301,902.319,509.16,902.049,511.92z"/>
			<path d="M915.039,512.76c0-3.6,2.64-6.449,6.3-6.449c3.72,0,6.3,2.82,6.3,6.449c0,3.602-2.609,6.45-6.3,6.45
				S915.039,516.39,915.039,512.76z M926.469,512.76c0-3.119-2.1-5.459-5.13-5.459c-3,0-5.13,2.34-5.13,5.459
				c0,3.15,2.13,5.46,5.13,5.46C924.369,518.22,926.469,515.91,926.469,512.76z"/>
			<path d="M930.429,512.82c0-3.63,2.55-6.511,6.24-6.511c1.68,0,3.329,0.721,4.47,1.801V498.09h-2.609v-0.99h3.72v20.909h2.16V519
				h-3.24v-2.07c-1.14,1.32-2.729,2.28-4.739,2.28C933.068,519.21,930.429,516.57,930.429,512.82z M941.139,515.91v-6.779
				c-1.109-0.99-2.641-1.83-4.5-1.83c-2.939,0-5.04,2.369-5.04,5.489c-0.029,3.18,2.04,5.43,4.891,5.43
				C938.438,518.22,939.969,517.26,941.139,515.91z"/>
			<path d="M946.599,512.76c0-3.6,2.641-6.449,6.3-6.449c3.721,0,6.301,2.82,6.301,6.449c0,3.602-2.61,6.45-6.301,6.45
				C949.209,519.21,946.599,516.39,946.599,512.76z M958.028,512.76c0-3.119-2.101-5.459-5.13-5.459c-3,0-5.131,2.34-5.131,5.459
				c0,3.15,2.131,5.46,5.131,5.46C955.929,518.22,958.028,515.91,958.028,512.76z"/>
			<path d="M970.298,507.511c0,0.54-0.39,0.989-0.99,0.989c-0.54,0-1.02-0.449-1.05-0.989c-1.14,0.181-2.31,1.439-3.119,2.909v7.59
				h2.459V519h-5.76v-0.99h2.19v-10.499h-2.19v-0.989h3.24v2.789c0.93-1.649,2.46-3,3.75-3
				C969.788,506.311,970.298,506.881,970.298,507.511z"/>
			<path d="M978.008,517.95h2.16l6.6-17.641h-2.489v-1.05h7.5v1.05h-2.49l6.601,17.641h2.189V519h-6.09v-1.05h2.58l-2.311-6.271
				h-8.49l-2.31,6.271h2.64V519h-6.09V517.95z M991.867,510.63l-3.84-10.409l-3.869,10.409H991.867z"/>
			<path d="M999.188,512.82c0-3.63,2.551-6.511,6.24-6.511c1.68,0,3.329,0.721,4.471,1.801V498.09h-2.61v-0.99h3.72v20.909h2.16V519
				h-3.24v-2.07c-1.14,1.32-2.729,2.28-4.738,2.28C1001.827,519.21,999.188,516.57,999.188,512.82z M1009.896,515.91v-6.779
				c-1.109-0.99-2.641-1.83-4.5-1.83c-2.939,0-5.039,2.369-5.039,5.489c-0.03,3.18,2.039,5.43,4.89,5.43
				C1007.197,518.22,1008.729,517.26,1009.896,515.91z"/>
			<path d="M1015.357,512.76c0-3.6,2.64-6.449,6.3-6.449c3.72,0,6.3,2.82,6.3,6.449c0,3.602-2.61,6.45-6.3,6.45
				C1017.967,519.21,1015.357,516.39,1015.357,512.76z M1026.787,512.76c0-3.119-2.1-5.459-5.13-5.459c-3,0-5.13,2.34-5.13,5.459
				c0,3.15,2.13,5.46,5.13,5.46C1024.688,518.22,1026.787,515.91,1026.787,512.76z"/>
			<path d="M1039.057,507.511c0,0.54-0.39,0.989-0.989,0.989c-0.539,0-1.021-0.449-1.051-0.989c-1.14,0.181-2.31,1.439-3.118,2.909
				v7.59h2.459V519h-5.761v-0.99h2.19v-10.499h-2.19v-0.989h3.24v2.789c0.93-1.649,2.46-3,3.75-3
				C1038.547,506.311,1039.057,506.881,1039.057,507.511z"/>
			<path d="M1044.036,509.04c1.17-1.409,3-2.729,4.95-2.729c1.648,0,2.698,0.66,3.27,1.65c0.391,0.689,0.57,1.619,0.57,2.64v7.409
				h2.188V519h-5.46v-0.99h2.16v-7.26c0-0.84-0.09-1.529-0.359-2.069c-0.421-0.87-1.261-1.351-2.521-1.351
				c-1.83,0-3.51,1.229-4.739,2.729v7.949h2.159V519h-5.46v-0.99h2.19v-10.499h-2.19v-0.989h3.24L1044.036,509.04L1044.036,509.04z"
				/>
			<path d="M1056.967,512.76c0-3.6,2.641-6.449,6.301-6.449c3.72,0,6.3,2.82,6.3,6.449c0,3.602-2.61,6.45-6.3,6.45
				C1059.577,519.21,1056.967,516.39,1056.967,512.76z M1068.396,512.76c0-3.119-2.101-5.459-5.131-5.459c-3,0-5.13,2.34-5.13,5.459
				c0,3.15,2.13,5.46,5.13,5.46C1066.297,518.22,1068.396,515.91,1068.396,512.76z"/>
		</g>
	</g>
</g>
</svg>
