<?xml version="1.0" encoding="utf-8"?>
<!-- Generator: Adobe Illustrator 15.0.0, SVG Export Plug-In . SVG Version: 6.00 Build 0)  -->
<!DOCTYPE svg PUBLIC "-//W3C//DTD SVG 1.1//EN" "http://www.w3.org/Graphics/SVG/1.1/DTD/svg11.dtd">
<svg version="1.1" id="Layer_1" xmlns="http://www.w3.org/2000/svg" xmlns:xlink="http://www.w3.org/1999/xlink" x="0px" y="0px"
	 width="1920px" height="1080px" viewBox="0 0 1920 1080" enable-background="new 0 0 1920 1080" xml:space="preserve">
<path d="M158.586,272.698h11.521v-70.049h-11.521v-15.513h40.708c21.658,0,38.249,12.441,38.249,33.026
	c0,23.196-16.437,34.563-40.246,34.563c-4.764,0-7.682,0-9.834-0.153v18.125h12.599v15.518h-41.477L158.586,272.698L158.586,272.698
	z M219.571,220.165c0-10.6-8.758-17.514-21.201-17.514h-10.907v36.561c1.846,0.154,4.304,0.31,11.368,0.31
	C211.891,239.521,219.571,232.146,219.571,220.165z"/>
<path d="M245.228,270.549c0-12.597,11.059-20.277,27.035-20.277c6.913,0,13.365,0.921,17.052,1.845v-5.376
	c0-3.994-0.92-7.067-2.612-9.217c-2.765-3.532-7.22-4.916-13.209-4.916c-2.919,0-5.068,0.461-6.606,1.073
	c0.308,0.924,0.615,2.458,0.615,3.384c0,5.068-3.992,8.758-9.062,8.758c-5.069,0-8.91-3.533-8.91-9.063
	c0-8.295,8.449-17.053,26.729-17.053c11.522,0,19.354,3.228,24.117,9.063c3.531,4.301,5.223,10.139,5.223,16.897v28.727h9.985
	v13.826h-25.961v-7.376c-5.376,4.611-13.516,8.603-22.582,8.603C255.519,289.442,245.228,283.146,245.228,270.549z M289.313,271.316
	v-10.599c-3.839-0.92-8.603-1.536-13.826-1.536c-8.142,0-13.056,3.687-13.056,9.832c0,5.376,3.994,8.295,9.984,8.295
	C278.409,277.309,284.243,275.005,289.313,271.316z"/>
<path d="M333.556,318.785c-8.91,0-14.44-5.224-14.44-10.6c0-5.684,3.843-8.603,8.295-8.603c3.996,0,6.299,2.458,7.375,5.067
	c1.69-0.461,3.531-1.535,5.376-3.993c1.074-1.382,1.998-3.072,3.073-5.224l5.069-10.598l-23.965-49.771h-8.295v-14.132h34.718
	v13.363h-9.833l15.518,35.484l15.667-35.484h-10.445v-13.363h34.564v14.132h-8.142l-31.49,66.821
	c-1.538,3.074-3.228,5.838-5.223,8.142C346.459,315.711,340.314,318.785,333.556,318.785z"/>
<path d="M401.914,274.39h10.293v-39.325h-10.293v-14.132h27.037v53.457h9.986v13.826h-37.023V274.39z M407.751,199.58
	c0-6.146,5.375-11.061,11.369-11.061c5.991,0,11.059,4.916,11.059,11.061c0,6.146-5.375,11.061-11.367,11.061
	C412.822,210.641,407.751,205.725,407.751,199.58z"/>
<path d="M474.729,231.685c6.452-6.298,13.67-11.982,23.503-11.982c7.988,0,13.827,3.228,17.358,8.604
	c2.304,3.688,3.532,8.295,3.532,13.823v32.26h9.986v13.826h-35.946V274.39h9.215v-28.112c0-2.765-0.46-5.223-1.381-6.913
	c-1.538-2.92-4.302-4.454-8.295-4.454c-5.837,0-11.981,3.379-17.357,7.833v31.645h9.215v13.826h-35.946v-13.826h9.987v-39.325
	h-9.987v-14.132h26.115L474.729,231.685L474.729,231.685z"/>
<path d="M602.539,288.369c0,8.295-2.149,15.207-6.297,20.275c-5.53,6.759-14.286,10.292-25.193,10.292
	c-11.675,0-21.661-3.687-26.423-8.449c-2.611-2.61-3.686-5.529-3.686-8.757c0-4.762,3.533-9.371,9.063-9.371
	c5.222,0,9.371,3.688,9.371,8.757c0,0.768-0.154,1.999-0.308,2.61c2.765,0.922,5.991,1.692,9.983,1.692
	c5.991,0,10.753-1.846,13.672-5.838c1.999-2.766,3.072-6.605,3.072-11.674v-9.682c-5.067,5.07-10.444,8.604-19.356,8.604
	c-17.051,0-30.723-13.057-30.723-33.026c0-19.201,13.979-34.103,31.491-34.103c8.605,0,14.748,3.381,19.202,7.222v-5.991h26.115
	v14.132h-9.986L602.539,288.369L602.539,288.369z M552.921,253.651c0,12.29,7.527,19.047,17.819,19.047
	c5.685,0,10.753-2.61,15.053-6.604v-26.729c-3.993-3.073-9.062-5.223-15.053-5.223C560.45,234.142,552.921,240.9,552.921,253.651z"
	/>
<path d="M655.076,254.88c0-19.509,14.133-35.178,32.259-35.178c8.604,0,14.899,3.228,18.738,6.454v-36.255h-10.138v-14.133h26.879
	v98.619h9.987v13.826h-26.73v-7.375c-4.913,4.764-11.214,8.603-19.816,8.603C668.438,289.442,655.076,275.158,655.076,254.88z
	 M706.075,268.247v-28.882c-4.454-3.073-9.678-5.223-15.974-5.223c-9.369,0-17.82,7.22-17.82,20.585
	c0,12.904,7.988,20.276,17.82,20.276C696.396,275.005,701.466,272.239,706.075,268.247z"/>
<path d="M758.764,260.257c2.302,10.444,10.907,15.052,22.121,15.052c8.143,0,16.59-2.611,24.425-7.063l-1.384,15.053
	c-7.067,4.147-15.671,6.145-25.499,6.145c-21.968,0-37.174-13.825-37.174-34.716c0-19.049,13.363-35.024,34.101-35.024
	c21.505,0,32.722,14.439,32.722,32.259c0,2.612-0.312,5.991-0.77,8.296H758.764L758.764,260.257z M758.612,248.583h32.718
	c-0.31-9.218-6.296-15.363-16.127-15.363C767.828,233.22,760.457,237.522,758.612,248.583z"/>
<path d="M839.106,281.764l-3.684,6.758h-11.37v-98.618h-10.138v-14.133h26.878v52.536c4.917-4.763,11.217-8.604,19.819-8.604
	c17.817,0,31.184,14.288,31.184,34.564c0,19.508-14.136,35.176-32.259,35.176C850.935,289.442,844.792,286.37,839.106,281.764z
	 M874.591,254.422c0-12.906-7.987-20.278-17.817-20.278c-6.297,0-11.369,2.766-15.978,6.759v28.88
	c4.458,3.071,9.681,5.223,15.978,5.223C866.143,275.005,874.591,267.785,874.591,254.422z"/>
<path d="M913.763,280.227c-1.534-2.765-2.303-6.296-2.303-10.599v-34.563h-13.057v-14.132h13.057v-14.134l16.589-7.221v21.353
	h20.432v14.132h-20.432v31.337c0,2.15,0.31,3.531,1.077,4.916c1.228,2.148,3.686,3.227,7.064,3.227c4.303,0,9.217-1.69,13.212-3.533
	l-1.384,14.44c-4.61,2.302-9.987,3.992-16.128,3.992C923.75,289.442,917.143,286.678,913.763,280.227z"/>
<path d="M1007.775,244.895c-5.377,0-9.064-3.226-9.064-8.293c0-1.076,0-1.998,0.312-2.921c-2.766-1.073-6.146-1.688-9.523-1.688
	c-7.529,0-11.215,3.379-11.215,6.91c0,3.842,3.836,5.839,14.133,8.604c16.131,4.303,25.496,8.295,25.496,20.43
	c0,14.133-13.207,21.659-28.414,21.659c-10.293,0-21.352-3.685-25.807-8.142c-2.766-2.766-3.842-5.528-3.842-9.062
	c0-4.916,3.688-9.062,8.911-9.062c4.607,0,9.062,3.071,9.062,8.91c0,0.921-0.154,1.845-0.309,2.765
	c3.072,1.229,7.371,2.15,12.135,2.15c6.76,0,12.289-2.306,12.289-7.223c0-3.379-2.918-5.375-13.211-8.142
	c-18.584-4.913-26.424-9.368-26.424-20.891c0-10.445,8.605-21.353,27.498-21.353c8.145,0,17.975,3.073,22.582,7.681
	c2.457,2.458,3.688,5.377,3.688,8.604C1016.07,241.208,1012.689,244.895,1007.775,244.895z"/>
<path d="M1062.768,274.39h10.295v-39.325h-10.295v-14.132h27.037v53.457h9.984v13.826h-37.021V274.39L1062.768,274.39z
	 M1068.604,199.58c0-6.146,5.379-11.061,11.371-11.061c5.99,0,11.062,4.916,11.062,11.061c0,6.146-5.377,11.061-11.371,11.061
	C1073.676,210.641,1068.604,205.725,1068.604,199.58z"/>
<path d="M1157.703,244.895c-5.375,0-9.061-3.226-9.061-8.293c0-1.076,0-1.998,0.307-2.921c-2.766-1.073-6.145-1.688-9.523-1.688
	c-7.527,0-11.211,3.379-11.211,6.91c0,3.842,3.838,5.839,14.131,8.604c16.129,4.303,25.5,8.295,25.5,20.43
	c0,14.133-13.211,21.659-28.42,21.659c-10.291,0-21.348-3.685-25.807-8.142c-2.768-2.766-3.838-5.528-3.838-9.062
	c0-4.916,3.686-9.062,8.908-9.062c4.607,0,9.062,3.071,9.062,8.91c0,0.921-0.156,1.845-0.311,2.765
	c3.076,1.229,7.375,2.15,12.137,2.15c6.758,0,12.287-2.306,12.287-7.223c0-3.379-2.918-5.375-13.207-8.142
	c-18.586-4.913-26.426-9.368-26.426-20.891c0-10.445,8.605-21.353,27.498-21.353c8.143,0,17.973,3.073,22.584,7.681
	c2.459,2.458,3.686,5.377,3.686,8.604C1165.998,241.208,1162.619,244.895,1157.703,244.895z"/>
<path d="M1213.158,270.549c0-12.597,11.061-20.277,27.033-20.277c6.912,0,13.361,0.921,17.053,1.845v-5.376
	c0-3.994-0.92-7.067-2.611-9.217c-2.766-3.532-7.221-4.916-13.211-4.916c-2.918,0-5.066,0.461-6.602,1.073
	c0.307,0.924,0.613,2.458,0.613,3.384c0,5.068-3.994,8.758-9.061,8.758s-8.91-3.533-8.91-9.063c0-8.295,8.447-17.053,26.727-17.053
	c11.523,0,19.357,3.228,24.115,9.063c3.535,4.301,5.225,10.139,5.225,16.897v28.727h9.984v13.826h-25.961v-7.376
	c-5.375,4.611-13.518,8.603-22.582,8.603C1223.449,289.442,1213.158,283.146,1213.158,270.549z M1257.244,271.316v-10.599
	c-3.84-0.92-8.605-1.536-13.826-1.536c-8.139,0-13.057,3.687-13.057,9.832c0,5.376,3.992,8.295,9.986,8.295
	C1246.338,277.309,1252.176,275.005,1257.244,271.316z"/>
<path d="M1323.758,274.39h10.445v-84.486h-10.445v-14.133h27.189v98.619h9.982v13.826h-37.174V274.39H1323.758z"/>
<path d="M1379.367,280.535c-2.15-3.531-3.381-8.143-3.381-13.52v-31.951H1366v-14.132h26.729v41.937
	c0,2.919,0.459,5.067,1.385,6.912c1.535,2.918,4.301,4.457,8.295,4.457c5.836,0,11.977-3.383,17.354-7.836v-31.338h-10.441v-14.132
	h27.189v53.457h9.984v13.826h-26.115v-10.754c-6.451,6.297-13.67,11.98-23.502,11.98
	C1388.736,289.442,1382.746,286.064,1379.367,280.535z"/>
<path d="M1451.262,274.083h8.908l20.893-19.817l-20.277-19.202h-7.988v-14.133h33.949v13.209h-8.449l12.441,13.056l12.289-13.056
	h-8.602v-13.209h33.334v14.132h-8.295l-19.662,18.741l21.348,20.277h8.607v14.133h-33.949v-13.21h7.834l-13.67-14.287
	l-13.365,14.287h7.988v13.21h-33.34L1451.262,274.083L1451.262,274.083z"/>
<path d="M1547.424,280.535c-2.146-3.531-3.379-8.143-3.379-13.52v-31.951h-9.984v-14.132h26.729v41.937
	c0,2.919,0.463,5.067,1.383,6.912c1.535,2.918,4.301,4.457,8.295,4.457c5.84,0,11.98-3.383,17.357-7.836v-31.338h-10.445v-14.132
	h27.189v53.457h9.984v13.826h-26.115v-10.754c-6.447,6.297-13.67,11.98-23.5,11.98
	C1556.795,289.442,1550.805,286.064,1547.424,280.535z"/>
<path d="M1683.221,230.762c0,5.684-4.455,10.446-9.986,10.446c-5.066,0-8.447-2.919-9.83-5.991
	c-4.764,1.689-10.293,6.911-13.365,12.75v26.423h11.676v13.826h-38.404V274.39h9.984v-39.325h-9.984v-14.132h26.115v15.207
	c5.684-9.062,12.75-16.437,21.35-16.437C1679.072,219.702,1683.221,224.771,1683.221,230.762z"/>
<path d="M1703.652,318.785c-8.908,0-14.439-5.224-14.439-10.6c0-5.684,3.84-8.603,8.297-8.603c3.992,0,6.295,2.458,7.371,5.067
	c1.693-0.461,3.533-1.535,5.379-3.993c1.072-1.382,1.998-3.072,3.07-5.224l5.07-10.598l-23.965-49.771h-8.293v-14.132h34.715v13.363
	h-9.832l15.514,35.484l15.674-35.484h-10.445v-13.363h34.562v14.132h-8.143l-31.49,66.821c-1.537,3.074-3.227,5.838-5.219,8.142
	C1716.557,315.711,1710.412,318.785,1703.652,318.785z"/>
<path d="M163.502,419.404h-9.833v-14.132h34.563v13.826h-9.523l9.217,33.027l15.821-39.94h11.521l15.671,39.94l9.215-33.027h-11.06
	v-13.826h34.564v14.132h-9.832l-16.59,55.764H225.41l-16.745-41.171l-16.744,41.171h-11.826L163.502,419.404z"/>
<path d="M267.962,374.244V360.11h26.729v55.303c6.297-5.993,13.363-11.37,22.887-11.37c7.221,0,12.904,2.61,16.438,7.22
	c2.918,3.841,4.453,9.064,4.453,15.208v32.258h9.987v13.826H312.51v-13.825h9.215v-28.111c0-3.687-0.766-6.298-2.149-8.143
	c-1.69-2.147-4.301-3.226-7.527-3.226c-5.837,0-11.981,3.379-17.357,7.834v31.644h9.215v13.826H267.96v-13.826h9.986v-84.485h-9.985
	L267.962,374.244L267.962,374.244z"/>
<path d="M355.833,458.73h10.292v-39.324h-10.292v-14.133h27.035v53.457h9.985v13.826h-37.02V458.73z M361.668,383.921
	c0-6.146,5.377-11.062,11.368-11.062c5.991,0,11.061,4.915,11.061,11.062s-5.377,11.061-11.367,11.061
	C366.738,394.981,361.668,390.067,361.668,383.921z"/>
<path d="M402.993,438.302c0-17.513,14.133-34.257,34.101-34.257c18.434,0,30.57,11.98,30.57,22.583
	c0,7.063-4.764,11.367-10.754,11.367c-5.53,0-10.139-4.609-10.139-10.141c0-1.997,0.922-4.302,2.149-5.684
	c-1.227-1.69-5.376-4.608-11.981-4.608c-7.68,0-17.203,6.298-17.203,21.044c0,12.904,9.83,21.046,21.812,21.046
	c8.142,0,15.208-2.304,23.964-7.064l-1.382,15.053c-7.221,4.149-14.133,6.146-23.964,6.146
	C418.967,473.786,402.993,459.96,402.993,438.302z"/>
<path d="M478.417,374.244V360.11h26.729v55.303c6.296-5.993,13.363-11.37,22.887-11.37c7.22,0,12.904,2.61,16.438,7.22
	c2.918,3.841,4.453,9.064,4.453,15.208v32.258h9.987v13.826h-35.946v-13.825h9.215v-28.111c0-3.687-0.766-6.298-2.148-8.143
	c-1.69-2.147-4.301-3.226-7.527-3.226c-5.838,0-11.982,3.379-17.357,7.834v31.644h9.215v13.826h-35.946v-13.826h9.986v-84.485
	h-9.984v0.002H478.417z"/>
<path d="M605.765,419.404h-9.833v-14.132h34.563v13.826h-9.525l9.218,33.027l15.821-39.94h11.521l15.67,39.94l9.216-33.027h-11.06
	v-13.826h34.563v14.132h-9.831l-16.59,55.764h-11.828l-16.744-41.171l-16.744,41.171h-11.827L605.765,419.404z"/>
<path d="M728.965,444.598c2.305,10.446,10.907,15.055,22.121,15.055c8.141,0,16.589-2.611,24.424-7.065l-1.383,15.053
	c-7.066,4.149-15.673,6.146-25.5,6.146c-21.967,0-37.175-13.825-37.175-34.718c0-19.049,13.363-35.022,34.103-35.022
	c21.505,0,32.72,14.439,32.72,32.258c0,2.611-0.31,5.991-0.77,8.295H728.965L728.965,444.598z M728.813,432.923h32.719
	c-0.312-9.216-6.299-15.361-16.128-15.361C738.029,417.563,730.656,421.865,728.813,432.923z"/>
<path d="M822.055,438.302c0-17.513,14.135-34.257,34.104-34.257c18.434,0,30.568,11.98,30.568,22.583
	c0,7.063-4.764,11.367-10.753,11.367c-5.529,0-10.138-4.609-10.138-10.141c0-1.997,0.917-4.302,2.147-5.684
	c-1.23-1.69-5.376-4.608-11.982-4.608c-7.677,0-17.203,6.298-17.203,21.044c0,12.904,9.833,21.046,21.814,21.046
	c8.142,0,15.208-2.304,23.964-7.064l-1.383,15.053c-7.22,4.149-14.133,6.146-23.963,6.146
	C838.032,473.786,822.055,459.96,822.055,438.302z"/>
<path d="M897.791,454.891c0-12.599,11.06-20.278,27.036-20.278c6.913,0,13.359,0.923,17.051,1.845v-5.377
	c0-3.992-0.923-7.064-2.61-9.215c-2.765-3.531-7.221-4.916-13.208-4.916c-2.922,0-5.069,0.46-6.605,1.074
	c0.308,0.922,0.615,2.458,0.615,3.381c0,5.068-3.994,8.757-9.062,8.757s-8.911-3.531-8.911-9.062
	c0-8.295,8.449-17.053,26.731-17.053c11.521,0,19.354,3.228,24.113,9.062c3.533,4.3,5.223,10.14,5.223,16.898v28.725h9.985v13.826
	H942.19v-7.375c-5.374,4.609-13.517,8.604-22.581,8.604C908.08,473.786,897.791,467.484,897.791,454.891z M941.876,455.659v-10.6
	c-3.841-0.921-8.603-1.535-13.824-1.535c-8.141,0-13.055,3.686-13.055,9.83c0,5.376,3.993,8.295,9.985,8.295
	C930.972,461.649,936.807,459.343,941.876,455.659z"/>
<path d="M1001.479,416.026c6.447-6.296,13.674-11.98,23.504-11.98c7.986,0,13.824,3.228,17.355,8.604
	c2.303,3.686,3.533,8.294,3.533,13.824v32.258h9.98v13.826h-35.943v-13.826h9.219V430.62c0-2.766-0.465-5.225-1.385-6.913
	c-1.535-2.919-4.299-4.456-8.293-4.456c-5.844,0-11.982,3.38-17.359,7.834v31.645h9.217v13.826h-35.943v-13.826h9.982v-39.324
	h-9.982v-14.133h26.111L1001.479,416.026L1001.479,416.026z"/>
<path d="M1089.195,416.026c6.445-6.296,13.67-11.98,23.504-11.98c7.98,0,13.822,3.228,17.354,8.604
	c2.305,3.686,3.535,8.294,3.535,13.824v32.258h9.984v13.826h-35.947v-13.826h9.217V430.62c0-2.766-0.465-5.225-1.383-6.913
	c-1.539-2.919-4.303-4.456-8.295-4.456c-5.84,0-11.98,3.38-17.359,7.834v31.645h9.219v13.826h-35.947v-13.826h9.986v-39.324h-9.986
	v-14.133h26.113v10.754H1089.195L1089.195,416.026z"/>
<path d="M1150.186,438.915c0-18.435,13.824-34.871,35.789-34.871c22.275,0,35.793,16.127,35.793,34.871
	c0,18.435-13.826,34.872-35.793,34.872C1163.701,473.786,1150.186,457.656,1150.186,438.915z M1204.562,438.915
	c0-12.288-7.68-20.893-18.588-20.893c-10.906,0-18.582,8.604-18.582,20.893c0,12.29,7.676,20.892,18.582,20.892
	C1196.883,459.807,1204.562,451.205,1204.562,438.915z"/>
<path d="M1243.736,464.566c-1.535-2.765-2.303-6.296-2.303-10.598v-34.564h-13.057v-14.132h13.057V391.14l16.592-7.219v21.351
	h20.432v14.132h-20.432v31.338c0,2.149,0.307,3.532,1.074,4.916c1.229,2.149,3.684,3.226,7.066,3.226
	c4.301,0,9.213-1.69,13.207-3.531l-1.383,14.438c-4.607,2.304-9.984,3.994-16.125,3.994
	C1253.721,473.786,1247.117,471.02,1243.736,464.566z"/>
<path d="M1322.844,454.891c0-12.599,11.061-20.278,27.033-20.278c6.916,0,13.365,0.923,17.055,1.845v-5.377
	c0-3.992-0.922-7.064-2.613-9.215c-2.766-3.531-7.219-4.916-13.209-4.916c-2.918,0-5.066,0.46-6.604,1.074
	c0.307,0.922,0.615,2.458,0.615,3.381c0,5.068-3.994,8.757-9.062,8.757c-5.066,0-8.91-3.531-8.91-9.062
	c0-8.295,8.449-17.053,26.729-17.053c11.523,0,19.357,3.228,24.115,9.062c3.533,4.3,5.223,10.14,5.223,16.898v28.725h9.986v13.826
	h-25.963v-7.375c-5.375,4.609-13.516,8.604-22.58,8.604C1333.137,473.786,1322.844,467.484,1322.844,454.891z M1366.932,455.659
	v-10.6c-3.842-0.921-8.604-1.535-13.826-1.535c-8.141,0-13.057,3.686-13.057,9.83c0,5.376,3.994,8.295,9.988,8.295
	C1356.025,461.649,1361.861,459.343,1366.932,455.659z"/>
<path d="M1398.58,458.73h10.441v-84.485h-10.441v-14.134h27.188v98.619h9.984v13.826h-37.172V458.73z"/>
<path d="M1443.896,458.73h10.445v-84.485h-10.445v-14.134h27.189v98.619h9.984v13.826h-37.176V458.73H1443.896z"/>
<path d="M158.125,623.256c0-18.434,13.826-34.871,35.791-34.871c22.274,0,35.792,16.129,35.792,34.871
	c0,18.437-13.824,34.873-35.792,34.873C171.645,658.127,158.125,641.996,158.125,623.256z M212.504,623.256
	c0-12.289-7.679-20.893-18.585-20.893c-10.906,0-18.586,8.604-18.586,20.893s7.681,20.892,18.586,20.892
	C204.825,644.148,212.504,635.545,212.504,623.256z"/>
<path d="M274.26,557.816c-1.384,0.613-2.765,1.534-3.533,2.766c-1.998,2.918-3.073,7.064-3.073,13.514v15.52h17.513v14.132h-17.513
	v39.326h13.056v13.824h-39.785v-13.824h10.139v-39.326h-11.521v-14.132h11.521v-13.058c0-12.29,2.149-19.968,8.603-26.269
	c4.762-4.607,10.907-7.066,18.434-7.066c8.756,0,14.9,4.608,14.9,11.367c0,5.996-4.301,9.524-9.063,9.524
	C278.711,564.114,276.104,561.35,274.26,557.816z"/>
<path d="M337.086,649.217c-2.151-3.531-3.379-8.143-3.379-13.518v-31.953h-9.985v-14.132h26.729v41.933
	c0,2.918,0.461,5.07,1.383,6.914c1.536,2.918,4.301,4.457,8.293,4.457c5.84,0,11.982-3.383,17.358-7.836v-31.336h-10.443v-14.132
	h27.189v53.458h9.984v13.824h-26.113v-10.755c-6.451,6.3-13.672,11.984-23.505,11.984
	C346.458,658.127,340.464,654.744,337.086,649.217z"/>
<path d="M462.285,613.578c-5.377,0-9.062-3.228-9.062-8.295c0-1.076,0-1.998,0.306-2.92c-2.765-1.076-6.145-1.688-9.522-1.688
	c-7.527,0-11.214,3.377-11.214,6.912c0,3.84,3.839,5.836,14.133,8.603c16.128,4.301,25.499,8.295,25.499,20.432
	c0,14.131-13.211,21.658-28.418,21.658c-10.292,0-21.353-3.688-25.807-8.144c-2.765-2.764-3.841-5.528-3.841-9.062
	c0-4.912,3.687-9.062,8.91-9.062c4.61,0,9.063,3.072,9.063,8.91c0,0.92-0.153,1.844-0.307,2.766
	c3.072,1.228,7.374,2.148,12.136,2.148c6.757,0,12.288-2.305,12.288-7.223c0-3.379-2.919-5.373-13.21-8.14
	c-18.586-4.914-26.421-9.371-26.421-20.895c0-10.441,8.602-21.351,27.497-21.351c8.142,0,17.972,3.074,22.582,7.679
	c2.457,2.457,3.685,5.375,3.685,8.604C470.578,609.891,467.2,613.578,462.285,613.578z"/>
<path d="M517.738,639.23c0-12.597,11.06-20.275,27.035-20.275c6.913,0,13.363,0.922,17.052,1.842v-5.373
	c0-3.992-0.922-7.067-2.61-9.217c-2.765-3.531-7.221-4.916-13.21-4.916c-2.919,0-5.069,0.465-6.606,1.076
	c0.31,0.922,0.617,2.459,0.617,3.383c0,5.066-3.994,8.756-9.063,8.756c-5.067,0-8.91-3.531-8.91-9.062
	c0-8.295,8.449-17.053,26.729-17.053c11.522,0,19.356,3.229,24.116,9.061c3.534,4.305,5.224,10.143,5.224,16.902v28.725h9.985
	v13.824h-25.959v-7.375c-5.376,4.61-13.519,8.604-22.582,8.604C528.03,658.127,517.738,651.826,517.738,639.23z M561.825,640
	v-10.598c-3.841-0.92-8.603-1.533-13.824-1.533c-8.142,0-13.057,3.682-13.057,9.828c0,5.377,3.994,8.297,9.984,8.297
	C550.919,645.99,556.757,643.688,561.825,640z"/>
<path d="M652.304,589.614v-13.058c0-12.29,2.15-19.968,8.602-26.269c4.765-4.607,10.907-7.066,18.434-7.066
	c8.758,0,14.904,4.608,14.904,11.367c0,5.996-4.305,9.524-9.062,9.524c-5.224,0-7.835-2.766-9.68-6.294
	c-1.381,0.612-2.765,1.533-3.531,2.766c-1.999,2.918-3.073,7.064-3.073,13.514v15.519h17.511v14.133h-17.511v39.324h13.055V656.9
	h-39.017v-13.826h9.369V603.75h-29.494v39.324h12.29V656.9h-39.019v-13.826h10.139V603.75H594.7v-14.133h11.521v-9.988
	c0-11.825,3.228-21.502,8.604-26.879c4.454-4.455,9.676-6.451,16.898-6.451c8.756,0,14.899,4.611,14.899,11.371
	c0,5.991-4.302,9.521-9.062,9.521c-5.069,0-7.834-2.455-9.68-6.293c-0.766,0.46-1.534,1.073-2.148,1.995
	c-1.997,2.921-2.918,7.833-2.918,14.289v12.442h29.493v-0.01H652.304L652.304,589.614z"/>
<path d="M691.324,623.256c0-18.434,13.829-34.871,35.791-34.871c22.276,0,35.796,16.129,35.796,34.871
	c0,18.437-13.827,34.873-35.796,34.873C704.842,658.127,691.324,641.996,691.324,623.256z M745.704,623.256
	c0-12.289-7.682-20.893-18.588-20.893c-10.902,0-18.583,8.604-18.583,20.893s7.68,20.892,18.583,20.892
	C738.022,644.148,745.704,635.545,745.704,623.256z"/>
<path d="M832.803,599.445c0,5.684-4.458,10.444-9.987,10.444c-5.066,0-8.449-2.922-9.832-5.993
	c-4.762,1.69-10.291,6.911-13.363,12.752v26.424h11.675v13.824h-38.404v-13.824h9.986v-39.326h-9.986v-14.132h26.115v15.208
	c5.684-9.064,12.75-16.438,21.349-16.438C828.656,588.385,832.803,593.455,832.803,599.445z"/>
<path d="M837.875,623.562c0-19.511,14.136-35.175,32.259-35.175c8.604,0,14.903,3.228,18.739,6.453v-36.258h-10.138v-14.132h26.882
	v98.62h9.984v13.823h-26.729v-7.377c-4.913,4.767-11.214,8.607-19.816,8.607C851.239,658.127,837.875,643.84,837.875,623.562z
	 M888.875,636.928v-28.881c-4.455-3.072-9.678-5.221-15.973-5.221c-9.369,0-17.818,7.221-17.818,20.582
	c0,12.908,7.989,20.278,17.818,20.278C879.197,643.688,884.266,640.922,888.875,636.928z"/>
<path d="M925.897,645.529c0-7.066,5.688-12.75,12.6-12.75c6.913,0,12.596,5.684,12.596,12.75c0,6.916-5.684,12.6-12.596,12.6
	C931.583,658.129,925.897,652.439,925.897,645.529z"/>
<path d="M156.044,897.473c0-1.467,0.838-2.407,1.938-2.407c0.942,0,1.78,0.784,1.78,1.782c0,0.836-0.472,1.566-1.152,1.99
	c1.049,1.832,4.084,3.508,8.222,3.508c5.236,0,8.536-2.985,8.536-7.278c0-4.343-3.979-6.228-8.273-7.959
	c-5.185-2.043-9.793-4.189-9.793-9.74c0-5.029,4.138-8.642,10.002-8.642c5.287,0,9.53,3.246,9.53,6.39
	c0,1.36-0.89,2.199-1.884,2.199c-0.994,0-1.834-0.785-1.834-1.832c0-0.785,0.418-1.414,0.995-1.886
	c-0.89-1.678-4.033-2.985-6.913-2.985c-4.609,0-7.802,2.828-7.802,6.598c0,4.4,3.927,6.127,8.536,7.961
	c5.028,1.992,9.531,4.246,9.531,9.74c0,5.656-4.554,9.32-10.734,9.32C160.234,904.229,156.044,900.459,156.044,897.473z"/>
<path d="M181.967,897.842c0-3.928,3.404-6.547,8.116-6.547c2.513,0,5.396,0.627,6.965,1.262v-3.981c0-1.359-0.366-2.513-1.1-3.402
	c-0.995-1.151-2.723-1.938-5.13-1.938c-2.515,0-3.98,0.836-4.82,1.678c0.316,0.313,0.525,0.836,0.525,1.414
	c0,0.785-0.628,1.572-1.571,1.572c-1.048,0-1.676-0.787-1.676-1.783c0-2.043,2.776-4.556,7.698-4.556
	c2.879,0,5.131,0.837,6.439,2.357c0.995,1.1,1.52,2.568,1.52,4.348v13.718h3.77v1.723H197.1v-3.299
	c-1.782,1.934-4.661,3.666-7.855,3.666C184.642,904.072,181.967,901.297,181.967,897.842z M197.05,898.574v-4.553
	c-1.99-0.63-4.504-1.101-6.86-1.101c-4.294,0-6.285,2.252-6.285,4.818c0,2.461,1.781,4.66,5.604,4.66
	C192.6,902.396,195.218,900.668,197.05,898.574z"/>
<path d="M206.423,901.977h3.823V883.65h-3.823v-1.728h5.655v4.398c1.99-2.459,5.132-4.765,8.432-4.765
	c2.723,0,4.504,1.048,5.447,2.775c0.313,0.627,0.523,1.311,0.68,1.99c2.41-2.724,5.498-4.764,8.589-4.764
	c3.035,0,4.764,1.2,5.654,3.19c0.576,1.205,0.786,2.67,0.786,4.295v12.935h3.823v1.725h-9.531v-1.729h3.77v-12.672
	c0-1.467-0.208-2.67-0.575-3.508c-0.683-1.627-2.043-2.463-4.19-2.463c-2.985,0-5.761,2.043-8.064,4.66v13.981h3.823v1.729h-9.532
	v-1.729h3.77v-12.672c0-1.414-0.156-2.619-0.523-3.508c-0.683-1.627-2.042-2.463-4.189-2.463c-3.09,0-5.864,2.145-8.063,4.713v13.93
	h3.77v1.729h-9.532V901.977L206.423,901.977z"/>
<path d="M253.293,901.141c-0.68-1.258-0.942-2.774-0.942-4.557V883.65h-3.822v-1.728h5.761v14.449c0,1.469,0.21,2.729,0.681,3.672
	c0.785,1.465,2.199,2.252,4.346,2.252c3.195,0,6.023-2.305,8.273-4.924v-13.721h-3.769v-1.726h5.708v20.053h3.823v1.726h-5.71
	v-4.607c-1.99,2.566-5.185,4.976-8.588,4.976C256.122,904.072,254.29,902.92,253.293,901.141z"/>
<path d="M279.375,893.021c0.209,6.075,3.875,9.321,9.372,9.321c2.935,0,5.29-0.989,7.595-2.51l-0.158,1.99
	c-2.094,1.418-4.818,2.252-7.646,2.252c-6.651,0-11.155-4.451-11.155-11.31c0-6.182,4.294-11.209,10.316-11.209
	c6.231,0,9.689,4.869,9.689,10.213c0,0.523-0.053,0.943-0.157,1.257h-17.856V893.021z M279.426,891.346h15.972
	c-0.21-4.502-2.828-8.062-7.855-8.062C283.354,883.283,279.897,886.529,279.426,891.346z"/>
<path d="M301.316,901.977h4.034v-34.771h-4.034v-1.729h5.97v36.5h4.137v1.729h-10.107V901.977z"/>
<path d="M327.186,901.873h4.766V871.08h-4.766v-1.834h13.721c7.696,0,10.891,4.139,10.891,8.588c0,4.189-2.827,7.279-6.963,8.223
	c4.975,0.943,7.959,3.88,7.959,8.33c0,5.55-4.556,9.32-11.52,9.32h-14.088V901.873L327.186,901.873z M340.54,885.168
	c6.388,0,9.165-3.193,9.165-7.227c0-3.929-2.88-6.863-8.904-6.863h-6.704v14.086L340.54,885.168L340.54,885.168z M341.326,901.873
	c5.76,0,9.373-3.092,9.373-7.488c0-4.608-3.612-7.383-10.212-7.383h-6.389v14.875L341.326,901.873L341.326,901.873z"/>
<path d="M361.542,901.141c-0.681-1.258-0.942-2.774-0.942-4.557V883.65h-3.822v-1.728h5.761v14.449c0,1.469,0.209,2.729,0.681,3.672
	c0.786,1.465,2.2,2.252,4.347,2.252c3.194,0,6.022-2.305,8.272-4.924v-13.721h-3.769v-1.726h5.708v20.053h3.824v1.726h-5.71v-4.607
	c-1.99,2.566-5.185,4.976-8.589,4.976C364.371,904.072,362.538,902.92,361.542,901.141z"/>
<path d="M388.613,901.664c-0.367-0.787-0.523-1.676-0.523-2.725v-15.293h-3.98v-1.728h3.98v-5.812l1.938-0.685v6.496h7.018v1.727
	h-7.018v15.084c0,0.837,0.105,1.468,0.367,2.044c0.471,0.989,1.36,1.467,2.776,1.467c1.361,0,2.671-0.523,3.978-1.312l-0.314,1.938
	c-1.046,0.627-2.302,1.203-4.084,1.203C390.71,904.072,389.347,903.234,388.613,901.664z"/>
<path d="M399.771,901.977h4.034v-34.771h-4.034v-1.729h5.97v36.5h4.137v1.729h-10.107V901.977z"/>
<path d="M415.796,893.021c0.209,6.075,3.875,9.321,9.372,9.321c2.935,0,5.29-0.989,7.595-2.51l-0.159,1.99
	c-2.093,1.418-4.818,2.252-7.645,2.252c-6.651,0-11.155-4.451-11.155-11.31c0-6.182,4.294-11.209,10.317-11.209
	c6.23,0,9.688,4.869,9.688,10.213c0,0.523-0.052,0.943-0.157,1.257h-17.856V893.021z M415.848,891.346h15.973
	c-0.209-4.502-2.828-8.062-7.856-8.062C419.774,883.283,416.318,886.529,415.848,891.346z"/>
<path d="M453.03,883.65c0,0.94-0.682,1.727-1.729,1.727c-0.941,0-1.781-0.785-1.833-1.727c-1.99,0.315-4.033,2.512-5.445,5.078
	v13.247h4.292v1.729H438.26v-1.729h3.823V883.65h-3.823v-1.728h5.655v4.867c1.624-2.877,4.295-5.236,6.546-5.236
	C452.14,881.555,453.03,882.551,453.03,883.65z"/>
</svg>
