<?xml version="1.0" encoding="utf-8"?>
<!-- Generator: Adobe Illustrator 15.0.0, SVG Export Plug-In . SVG Version: 6.00 Build 0)  -->
<!DOCTYPE svg PUBLIC "-//W3C//DTD SVG 1.0//EN" "http://www.w3.org/TR/2001/REC-SVG-20010904/DTD/svg10.dtd">
<svg version="1.0" id="Layer_1" xmlns="http://www.w3.org/2000/svg" xmlns:xlink="http://www.w3.org/1999/xlink" x="0px" y="0px"
	 width="1280px" height="720px" viewBox="0 0 1280 720" enable-background="new 0 0 1280 720" xml:space="preserve">
<path d="M117.631,217.198H95.888V102h21.744c8.496,0,18.864,4.896,18.864,19.584v25.056c0,5.472-3.024,8.928-7.488,11.952
	c4.464,3.023,7.488,6.479,7.488,11.951v27.072C136.495,212.303,126.127,217.198,117.631,217.198z M119.215,124.176
	c0-3.312-1.152-4.607-3.024-4.607H113.6v30.672h2.592c1.872,0,3.024-1.297,3.024-4.608L119.215,124.176L119.215,124.176z
	 M119.215,172.271c0-3.312-1.152-4.608-3.024-4.608H113.6v32.111h2.592c1.872,0,3.024-1.296,3.024-4.608L119.215,172.271
	L119.215,172.271z"/>
<path d="M143.118,217.198V102h34.992v16.128h-17.136v30.528h11.232v17.566h-11.232v33.408h17.136v17.567L143.118,217.198
	L143.118,217.198z"/>
<path d="M209.213,217.198v-48.095h-6.912v48.095h-17.712V102h17.712v49.68h6.912V102h17.712v115.198H209.213z"/>
<path d="M235.132,217.198V102h17.712v115.198H235.132z"/>
<path d="M288.556,217.198l-12.672-61.487v61.487h-14.832V102h20.592l9.936,62.495V102h14.832v115.198H288.556z"/>
<path d="M337.37,217.198h-23.184V102h23.184c8.496,0,18.144,4.896,18.144,19.584v76.031
	C355.514,212.303,345.866,217.198,337.37,217.198z M338.954,124.176c0-3.312-1.152-4.607-3.168-4.607h-3.888v80.206h3.888
	c2.016,0,3.168-1.296,3.168-4.608V124.176z"/>
<path d="M381.432,217.198V102h34.992v16.128h-17.136v30.528h11.231v17.566h-11.231v33.408h17.136v17.567L381.432,217.198
	L381.432,217.198z"/>
<path d="M449.831,217.198h-16.416L419.015,102h17.568l5.472,67.247L448.247,102h16.127L449.831,217.198z"/>
<path d="M467.83,217.198V102h34.992v16.128h-17.137v30.528h11.232v17.566h-11.232v33.408h17.137v17.567L467.83,217.198
	L467.83,217.198z"/>
<path d="M535.221,217.198c-1.296-5.04-2.16-11.808-2.16-17.855v-25.632c0-2.592-1.296-4.607-3.743-4.607h-2.305v48.095h-17.712V102
	h21.744c8.496,0,19.008,4.896,19.008,19.584v27.936c0,5.472-3.023,8.928-7.632,11.951c4.608,3.024,7.92,6.48,7.92,11.952v24.479
	c0,7.344,1.152,13.68,2.304,19.296H535.221z M532.629,124.176c0-3.312-1.152-4.607-3.023-4.607h-2.593v33.551h2.593
	c1.871,0,3.023-1.295,3.023-4.607V124.176z"/>
<path d="M585.188,166.079v51.119h-17.137v-51.119L553.795,102h17.136l6.624,37.008L583.604,102h16.271L585.188,166.079z"/>
<path d="M652.864,217.198l-1.44-2.304c-2.88,2.447-6.912,3.744-11.375,3.744c-11.231,0-18.432-8.209-18.432-21.168v-75.742
	c0-11.664,8.784-21.168,20.448-21.168c11.663,0,20.446,9.504,20.446,21.168v25.055h-16.99V122.16c0-1.872-1.584-3.456-3.456-3.456
	s-3.456,1.584-3.456,3.456v76.318c0,1.872,1.584,3.456,3.456,3.456s3.456-1.584,3.456-3.456v-22.319h-3.456v-15.264h21.167v56.303
	H652.864z"/>
<path d="M695.918,217.198c-1.296-5.04-2.16-11.808-2.16-17.855v-25.632c0-2.592-1.296-4.607-3.744-4.607h-2.304v48.095h-17.712V102
	h21.744c8.495,0,19.007,4.896,19.007,19.584v27.936c0,5.472-3.022,8.928-7.632,11.951c4.607,3.024,7.92,6.48,7.92,11.952v24.479
	c0,7.344,1.152,13.68,2.305,19.296H695.918z M693.326,124.176c0-3.312-1.152-4.607-3.024-4.607h-2.592v33.551h2.592
	c1.872,0,3.024-1.295,3.024-4.607V124.176z"/>
<path d="M717.517,217.198V102h34.991v16.128h-17.136v30.528h11.232v17.566h-11.232v33.408h17.136v17.567L717.517,217.198
	L717.517,217.198z"/>
<path d="M782.315,217.198l-1.01-19.439h-8.062l-1.584,19.439h-15.983L767.34,102h21.167l11.952,115.198H782.315z M777.995,140.88
	l-3.312,39.312h5.615L777.995,140.88z"/>
<path d="M827.975,119.568v97.63h-17.712v-97.63h-11.808V102h40.607v17.568H827.975z"/>
<path d="M113.744,290.928v32.832h12.672v16.703h-12.672v49.535H95.888V274.801h34.992v16.127H113.744z"/>
<path d="M157.951,391.438c-11.664,0-21.167-9.504-21.167-21.168v-75.743c0-11.663,9.504-21.167,21.167-21.167
	c11.663,0,21.167,9.504,21.167,21.167v75.743C179.118,381.935,169.614,391.438,157.951,391.438z M161.407,294.96
	c0-1.872-1.584-3.456-3.456-3.456s-3.456,1.584-3.456,3.456v74.879c0,1.871,1.584,3.455,3.456,3.455s3.456-1.584,3.456-3.455V294.96
	z"/>
<path d="M212.238,389.998c-1.296-5.04-2.16-11.808-2.16-17.855v-25.632c0-2.592-1.296-4.607-3.744-4.607h-2.304v48.096h-17.712
	V274.801h21.744c8.496,0,19.008,4.896,19.008,19.583v27.937c0,5.472-3.024,8.928-7.632,11.952c4.608,3.022,7.92,6.479,7.92,11.95
	v24.479c0,7.344,1.152,13.68,2.304,19.296H212.238z M209.646,296.977c0-3.312-1.152-4.608-3.024-4.608h-2.592v33.552h2.592
	c1.872,0,3.024-1.297,3.024-4.608V296.977z"/>
<path d="M260.476,292.368v97.63h-17.711v-97.63h-11.808v-17.567h40.607v17.567H260.476z"/>
<path d="M296.619,391.438c-11.664,0-20.447-9.504-20.447-21.168V274.8h16.992v95.038c0,1.871,1.584,3.455,3.456,3.455
	c2.016,0,3.456-1.584,3.456-3.455V274.8h16.272v95.47C316.347,381.935,308.427,391.438,296.619,391.438z"/>
<path d="M351.338,389.998l-12.672-61.486v61.486h-14.832V274.801h20.592l9.936,62.494v-62.494h14.832v115.197H351.338z"/>
<path d="M376.968,389.998V274.801h34.992v16.127h-17.136v30.527h11.231v17.568h-11.231v33.406h17.136v17.567L376.968,389.998
	L376.968,389.998z"/>
<path d="M463.798,292.368v97.63h-17.711v-97.63h-11.808v-17.567h40.606v17.567H463.798z"/>
<path d="M504.404,389.998v-48.096h-6.912v48.096H479.78V274.801h17.712v49.68h6.912v-49.68h17.712v115.197H504.404L504.404,389.998z
	"/>
<path d="M529.892,389.998V274.801h34.992v16.127h-17.136v30.527h11.232v17.568h-11.232v33.406h17.136v17.567L529.892,389.998
	L529.892,389.998z"/>
<path d="M597.283,389.998c-1.296-5.04-2.16-11.808-2.16-17.855v-25.632c0-2.592-1.296-4.607-3.744-4.607h-2.304v48.096h-17.712
	V274.801h21.744c8.496,0,19.008,4.896,19.008,19.583v27.937c0,5.472-3.024,8.928-7.632,11.952c4.607,3.022,7.92,6.479,7.92,11.95
	v24.479c0,7.344,1.151,13.68,2.304,19.296H597.283z M594.69,296.977c0-3.312-1.152-4.608-3.024-4.608h-2.592v33.552h2.592
	c1.872,0,3.024-1.297,3.024-4.608V296.977z"/>
<path d="M618.881,389.998V274.801h34.991v16.127h-17.135v30.527h11.231v17.568h-11.231v33.406h17.135v17.567L618.881,389.998
	L618.881,389.998z"/>
<path d="M679.504,389.998V274.801h17.711v115.197H679.504z"/>
<path d="M724.862,391.438c-13.535,0-22.463-9.504-22.463-21.168v-16.848h16.271v15.119c0,3.168,1.872,6.192,5.328,6.192
	s5.04-2.305,5.04-6.192c0-10.655-6.48-20.591-12.672-31.823c-6.336-11.808-12.816-24.911-12.816-36.719
	c0-15.695,7.488-26.64,21.744-26.64c11.663,0,20.159,9.504,20.159,21.167v16.848h-16.271v-16.127c0-3.456-1.584-5.184-3.888-5.184
	s-4.752,1.728-4.752,5.184c0,11.664,3.888,19.728,11.231,33.551c6.624,12.385,14.256,24.912,14.256,36
	C746.03,379.486,738.398,391.438,724.862,391.438z"/>
<path d="M793.549,389.998l-1.009-19.439h-8.063l-1.584,19.439H766.91l11.664-115.197h21.167l11.952,115.197H793.549z
	 M789.229,313.68l-3.312,39.312h5.615L789.229,313.68z"/>
<path d="M854.745,391.438c-11.664,0-20.448-9.504-20.448-21.168v-75.743c0-11.663,8.784-21.167,20.448-21.167
	c11.663,0,20.447,9.504,20.447,21.167v23.616h-16.991V294.96c0-1.872-1.584-3.456-3.456-3.456s-3.456,1.584-3.456,3.456v74.879
	c0,1.871,1.584,3.455,3.456,3.455s3.456-1.584,3.456-3.455v-23.185h16.991v23.615C875.192,381.935,866.408,391.438,854.745,391.438z
	"/>
<path d="M907.447,389.998c-1.296-5.04-2.16-11.808-2.16-17.855v-25.632c0-2.592-1.296-4.607-3.744-4.607h-2.304v48.096h-17.712
	V274.801h21.744c8.494,0,19.007,4.896,19.007,19.583v27.937c0,5.472-3.023,8.928-7.632,11.952c4.607,3.022,7.92,6.479,7.92,11.95
	v24.479c0,7.344,1.151,13.68,2.305,19.296H907.447z M904.855,296.977c0-3.312-1.152-4.608-3.024-4.608h-2.592v33.552h2.592
	c1.872,0,3.024-1.297,3.024-4.608V296.977z"/>
<path d="M929.479,389.998V274.801h17.712v115.197H929.479z"/>
<path d="M1005.221,389.998V312.24l-11.664,77.758h-11.663l-10.512-77.758v77.758h-15.983V274.801h27.646l6.48,53.998l6.91-53.998
	h26.496v115.197H1005.221L1005.221,389.998z"/>
<path d="M1030.709,389.998V274.801h34.991v16.127h-17.136v30.527h11.231v17.568h-11.231v33.406h17.136v17.567L1030.709,389.998
	L1030.709,389.998z"/>
<path d="M1072.181,389.998v-17.424h16.271v17.424H1072.181z"/>
<path d="M93.439,517.95h2.73V500.31h-2.73v-1.05h6.75v1.05h-2.79v7.979h12.24v-7.979h-2.761v-1.05h6.75v1.05h-2.76v17.641h2.76V519
	h-6.75v-1.05h2.761v-8.55h-12.24v8.55h2.79V519h-6.75V517.95z"/>
<path d="M115.851,512.76c0-3.6,2.64-6.449,6.3-6.449c3.72,0,6.3,2.82,6.3,6.449c0,3.602-2.61,6.45-6.3,6.45
	S115.851,516.39,115.851,512.76z M127.28,512.76c0-3.119-2.1-5.459-5.13-5.459c-3,0-5.13,2.34-5.13,5.459
	c0,3.15,2.13,5.46,5.13,5.46C125.181,518.22,127.28,515.91,127.28,512.76z"/>
<path d="M134.329,509.04c1.17-1.409,3-2.729,4.95-2.729c1.649,0,2.699,0.66,3.27,1.65c0.39,0.689,0.57,1.619,0.57,2.64v7.409h2.189
	V519h-5.46v-0.99h2.16v-7.26c0-0.84-0.09-1.529-0.36-2.069c-0.42-0.87-1.26-1.351-2.52-1.351c-1.83,0-3.51,1.229-4.739,2.729v7.949
	h2.159V519h-5.46v-0.99h2.19v-10.499h-2.19v-0.989h3.24L134.329,509.04L134.329,509.04z"/>
<path d="M147.26,512.76c0-3.6,2.64-6.449,6.3-6.449c3.72,0,6.3,2.82,6.3,6.449c0,3.602-2.61,6.45-6.3,6.45
	S147.26,516.39,147.26,512.76z M158.689,512.76c0-3.119-2.1-5.459-5.13-5.459c-3,0-5.13,2.34-5.13,5.459c0,3.15,2.13,5.46,5.13,5.46
	C156.59,518.22,158.689,515.91,158.689,512.76z"/>
<path d="M170.959,507.511c0,0.54-0.39,0.989-0.99,0.989c-0.539,0-1.02-0.449-1.05-0.989c-1.14,0.181-2.31,1.439-3.119,2.909v7.59
	h2.459V519h-5.76v-0.99h2.19v-10.499h-2.19v-0.989h3.24v2.789c0.93-1.649,2.46-3,3.75-3
	C170.449,506.311,170.959,506.881,170.959,507.511z"/>
<path d="M173.659,512.88c0.12,3.48,2.22,5.34,5.369,5.34c1.681,0,3.03-0.568,4.351-1.438l-0.091,1.14
	c-1.199,0.812-2.76,1.29-4.38,1.29c-3.81,0-6.39-2.55-6.39-6.479c0-3.54,2.46-6.421,5.91-6.421c3.569,0,5.55,2.79,5.55,5.851
	c0,0.3-0.03,0.54-0.09,0.72h-10.229V512.88z M173.688,511.92h9.15c-0.12-2.579-1.62-4.619-4.5-4.619
	C175.938,507.301,173.959,509.16,173.688,511.92z"/>
<path d="M193.43,517.95h2.729V500.31h-2.729v-1.05h7.859c4.409,0,6.239,2.37,6.239,4.92c0,2.399-1.62,4.17-3.989,4.71
	c2.85,0.54,4.56,2.221,4.56,4.771c0,3.18-2.61,5.34-6.6,5.34h-8.069V517.95L193.43,517.95z M201.079,508.381
	c3.659,0,5.25-1.83,5.25-4.141c0-2.25-1.65-3.931-5.101-3.931h-3.84v8.07L201.079,508.381L201.079,508.381z M201.529,517.95
	c3.3,0,5.369-1.771,5.369-4.29c0-2.641-2.069-4.229-5.85-4.229h-3.66v8.521L201.529,517.95L201.529,517.95z"/>
<path d="M211.188,515.641c0-2.25,1.95-3.75,4.649-3.75c1.44,0,3.09,0.359,3.99,0.721v-2.28c0-0.779-0.21-1.439-0.63-1.949
	c-0.57-0.66-1.56-1.11-2.939-1.11c-1.44,0-2.28,0.479-2.761,0.961c0.181,0.18,0.301,0.479,0.301,0.81c0,0.45-0.36,0.9-0.9,0.9
	c-0.6,0-0.96-0.45-0.96-1.021c0-1.17,1.59-2.609,4.41-2.609c1.649,0,2.939,0.479,3.689,1.351c0.57,0.63,0.87,1.471,0.87,2.49v7.858
	h2.16V519h-3.21v-1.89c-1.021,1.108-2.67,2.1-4.5,2.1C212.719,519.21,211.188,517.62,211.188,515.641z M219.828,516.061v-2.609
	c-1.14-0.36-2.58-0.63-3.93-0.63c-2.46,0-3.6,1.29-3.6,2.76c0,1.41,1.02,2.67,3.21,2.67
	C217.278,518.25,218.778,517.26,219.828,516.061z"/>
<path d="M224.598,518.01h2.311v-19.919h-2.311v-0.99h3.42v20.909h2.37V519h-5.79V518.01z"/>
<path d="M232.008,518.61l8.49-11.13h-6.899v2.55h-1.051v-3.511h9.66v0.421l-8.49,11.1h7.561v-2.55h1.05V519h-10.32L232.008,518.61
	L232.008,518.61z"/>
<path d="M244.519,515.641c0-2.25,1.95-3.75,4.649-3.75c1.44,0,3.09,0.359,3.99,0.721v-2.28c0-0.779-0.21-1.439-0.63-1.949
	c-0.57-0.66-1.56-1.11-2.939-1.11c-1.44,0-2.28,0.479-2.761,0.961c0.181,0.18,0.301,0.479,0.301,0.81c0,0.45-0.36,0.9-0.9,0.9
	c-0.6,0-0.96-0.45-0.96-1.021c0-1.17,1.59-2.609,4.41-2.609c1.649,0,2.939,0.479,3.689,1.351c0.57,0.63,0.87,1.471,0.87,2.49v7.858
	h2.16V519h-3.21v-1.89c-1.021,1.108-2.67,2.1-4.5,2.1C246.049,519.21,244.519,517.62,244.519,515.641z M253.158,516.061v-2.609
	c-1.14-0.36-2.58-0.63-3.93-0.63c-2.46,0-3.6,1.29-3.6,2.76c0,1.41,1.02,2.67,3.21,2.67
	C250.608,518.25,252.108,517.26,253.158,516.061z"/>
<path d="M258.348,512.88c0-3.72,2.82-6.569,6.15-6.569c2.64,0,4.77,1.74,4.77,3.479c0,0.66-0.45,1.229-1.11,1.229
	c-0.42,0-0.869-0.271-0.869-0.899c0-0.42,0.239-0.75,0.72-0.96c-0.36-1.08-1.891-1.859-3.51-1.859c-2.49,0-5.01,2.13-5.01,5.609
	c0,3.15,2.279,5.31,5.459,5.31c1.381,0,2.7-0.42,4.051-1.318l-0.091,1.108c-1.17,0.812-2.76,1.2-4.079,1.2
	C261.138,519.21,258.348,516.63,258.348,512.88z"/>
</svg>
