<?xml version="1.0" encoding="utf-8"?>
<!-- Generator: Adobe Illustrator 15.0.0, SVG Export Plug-In . SVG Version: 6.00 Build 0)  -->
<!DOCTYPE svg PUBLIC "-//W3C//DTD SVG 1.1//EN" "http://www.w3.org/Graphics/SVG/1.1/DTD/svg11.dtd">
<svg version="1.1" id="Layer_1" xmlns="http://www.w3.org/2000/svg" xmlns:xlink="http://www.w3.org/1999/xlink" x="0px" y="0px"
	 width="1920px" height="1080px" viewBox="0 0 1920 1080" enable-background="new 0 0 1920 1080" xml:space="preserve">
<path d="M118.654,180.799h23.902v65.303h41.77v20.946h-65.672V180.799z"/>
<path d="M195.04,180.799h24.025v86.249H195.04V180.799z"/>
<path d="M234.835,180.799h69v20.946h-45.096v14.661h40.783v19.838h-40.783v30.802h-23.903L234.835,180.799L234.835,180.799z"/>
<path d="M314.668,180.799h69.37v20.33h-45.711v13.061h41.398v18.852h-41.398v13.678h46.327v20.33H314.67L314.668,180.799
	L314.668,180.799z"/>
<path d="M431.462,180.799h24.026v86.249h-24.026V180.799L431.462,180.799z"/>
<path d="M464.727,254.234l13.308-15.895c8.501,6.776,17.989,10.349,27.969,10.349c6.408,0,9.858-2.217,9.858-5.913v-0.247
	c0-3.572-2.834-5.544-14.54-8.256c-18.358-4.189-32.527-9.363-32.527-27.106v-0.247c0-16.018,12.691-27.599,33.393-27.599
	c14.66,0,26.121,3.943,35.485,11.459l-11.954,16.881c-7.885-5.544-16.511-8.501-24.148-8.501c-5.791,0-8.624,2.465-8.624,5.544
	v0.247c0,3.942,2.957,5.667,14.907,8.378c19.838,4.312,32.159,10.719,32.159,26.859v0.246c0,17.621-13.924,28.092-34.869,28.092
	C489.863,268.527,475.323,263.722,464.727,254.234z"/>
<path d="M606.779,201.745h-25.875v-20.946h75.653v20.946h-25.876v65.303h-23.902V201.745z"/>
<path d="M667.022,180.799h23.903v32.282h30.681v-32.282h23.902v86.249h-23.903v-32.777h-30.68v32.776h-23.903V180.799
	L667.022,180.799z"/>
<path d="M760.777,180.799h69.366v20.33h-45.712v13.061h41.4v18.852h-41.4v13.678h46.328v20.33h-69.98L760.777,180.799
	L760.777,180.799z"/>
<path d="M874.121,224.17v-0.247c0-24.766,19.961-44.849,46.575-44.849s46.327,19.838,46.327,44.603v0.246
	c0,24.766-19.961,44.85-46.574,44.85S874.121,248.937,874.121,224.17z M942.627,224.17v-0.247c0-12.443-8.993-23.286-22.178-23.286
	c-13.062,0-21.81,10.597-21.81,23.04v0.246c0,12.443,8.993,23.287,22.056,23.287C933.88,247.212,942.627,236.614,942.627,224.17z"/>
<path d="M979.461,180.799h22.297l35.486,45.588v-45.588h23.656v86.249h-20.946l-36.84-47.313v47.313h-23.653V180.799z"/>
<path d="M1076.174,180.799h23.903v65.303h41.77v20.946h-65.673V180.799L1076.174,180.799z"/>
<path d="M1160.939,234.767l-32.774-53.968h27.229l17.743,31.419l17.864-31.419h26.737l-32.774,53.599v32.652h-24.025V234.767
	L1160.939,234.767z"/>
<path d="M1256.296,224.17v-0.247c0-25.135,19.715-44.849,46.452-44.849c15.154,0,25.874,4.682,34.991,12.568l-14.045,16.88
	c-6.164-5.174-12.322-8.131-20.824-8.131c-12.444,0-22.058,10.474-22.058,23.657v0.246c0,13.923,9.732,23.902,23.414,23.902
	c5.789,0,10.227-1.231,13.796-3.572V234.15h-17.004v-17.496h39.676v38.812c-9.117,7.517-21.809,13.308-37.457,13.308
	C1276.379,268.774,1256.296,250.292,1256.296,224.17z"/>
<path d="M1383.812,180.183h23.041l36.718,86.865h-25.627l-6.287-15.402h-33.267l-6.16,15.402h-25.137L1383.812,180.183z
	 M1404.759,233.042l-9.609-24.521l-9.734,24.521H1404.759z"/>
<path d="M1451.942,180.799h25.258l20.573,33.392l20.576-33.392h25.259v86.249h-23.776v-49.531l-22.059,33.759h-0.489l-21.933-33.515
	v49.287h-23.409V180.799L1451.942,180.799z"/>
<path d="M1558.882,180.799h69.369v20.33h-45.712v13.061h41.397v18.852h-41.397v13.678h46.328v20.33h-69.985V180.799z"/>
<path d="M1675.675,180.799h24.026v86.249h-24.026V180.799z"/>
<path d="M1715.471,180.799h22.301l35.482,45.588v-45.588h23.657v86.249h-20.945l-36.837-47.313v47.313h-23.656v-86.249H1715.471z"/>
<path d="M296.436,328.643h25.257l15.032,49.901l16.634-50.147h20.577l16.634,50.147l15.033-49.901h24.767l-28.833,86.864h-20.822
	l-17.374-49.656l-17.25,49.656h-20.822L296.436,328.643z"/>
<path d="M439.842,328.643h23.903v32.282h30.682v-32.282h23.902v86.248h-23.902v-32.774h-30.682v32.774h-23.903V328.643z"/>
<path d="M534.091,328.643h24.025v86.248h-24.025V328.643L534.091,328.643z"/>
<path d="M570.927,372.013v-0.246c0-25.136,19.345-44.85,45.464-44.85c17.622,0,28.954,7.393,36.598,17.99l-17.992,13.923
	c-4.929-6.161-10.595-10.104-18.852-10.104c-12.075,0-20.577,10.228-20.577,22.794v0.247c0,12.938,8.504,23.041,20.577,23.041
	c8.994,0,14.293-4.189,19.468-10.475l17.989,12.814c-8.132,11.212-19.1,19.468-38.193,19.468
	C590.765,416.617,570.927,397.766,570.927,372.013z"/>
<path d="M663.822,328.643h23.902v32.282h30.681v-32.282h23.901v86.248h-23.901v-32.774h-30.681v32.774h-23.902V328.643z"/>
<path d="M812.772,349.588h-25.875v-20.945h75.652v20.945h-25.876v65.303h-23.901V349.588z"/>
<path d="M873.015,328.643h23.903v32.282h30.68v-32.282h23.903v86.248h-23.903v-32.774h-30.68v32.774h-23.903V328.643z"/>
<path d="M966.771,328.643h69.368v20.33h-45.715v13.061h41.399v18.852h-41.398v13.678h46.327v20.33h-69.981V328.643z"/>
<path d="M1080.114,372.013v-0.246c0-24.766,19.961-44.85,46.579-44.85c26.612,0,46.323,19.838,46.323,44.603v0.247
	c0,24.766-19.959,44.849-46.574,44.849C1099.828,416.615,1080.114,396.78,1080.114,372.013z M1148.621,372.013v-0.246
	c0-12.443-8.994-23.287-22.179-23.287c-13.062,0-21.81,10.597-21.81,23.04v0.247c0,12.443,8.995,23.287,22.061,23.287
	C1139.873,395.056,1148.621,384.458,1148.621,372.013z"/>
<path d="M1185.454,328.643h44.231c10.844,0,18.481,2.71,23.533,7.761c3.454,3.452,5.545,8.011,5.545,13.925v0.246
	c0,9.981-5.667,15.895-13.307,19.221c10.474,3.452,17.13,9.366,17.13,21.069v0.247c0,14.786-12.078,23.779-32.65,23.779h-44.479
	L1185.454,328.643L1185.454,328.643z M1223.771,363.02c7.271,0,11.336-2.464,11.336-7.518v-0.246c0-4.682-3.696-7.393-10.843-7.393
	h-15.523v15.156L1223.771,363.02L1223.771,363.02z M1227.222,395.672c7.271,0,11.457-2.835,11.457-7.886v-0.246
	c0-4.682-3.692-7.764-11.706-7.764h-18.235v15.896H1227.222z"/>
<path d="M1266.396,401.832l15.401-14.54c4.189,5.052,8.132,8.008,13.431,8.008c6.037,0,9.86-4.065,9.86-12.073v-54.584h23.777
	v54.707c0,10.841-2.71,18.482-8.501,24.272c-5.666,5.667-13.798,8.749-23.656,8.749
	C1281.676,416.371,1272.434,410.086,1266.396,401.832z"/>
<path d="M1343.028,328.643h69.368v20.33h-45.711v13.061h41.395v18.852h-41.395v13.678h46.327v20.33h-69.984V328.643
	L1343.028,328.643z"/>
<path d="M1421.633,372.013v-0.246c0-25.136,19.346-44.85,45.464-44.85c17.619,0,28.954,7.393,36.596,17.99l-17.989,13.923
	c-4.93-6.161-10.596-10.104-18.854-10.104c-12.078,0-20.576,10.228-20.576,22.794v0.247c0,12.938,8.502,23.041,20.576,23.041
	c8.995,0,14.294-4.189,19.469-10.475l17.989,12.814c-8.133,11.212-19.099,19.468-38.196,19.468
	C1441.468,416.617,1421.633,397.766,1421.633,372.013z"/>
<path d="M1535.595,349.588h-25.875v-20.945h75.653v20.945h-25.874v65.303h-23.904V349.588L1535.595,349.588z"/>
<path d="M1627.008,372.013v-0.246c0-24.766,19.96-44.85,46.575-44.85c26.612,0,46.327,19.838,46.327,44.603v0.247
	c0,24.766-19.96,44.849-46.574,44.849C1646.719,416.615,1627.008,396.78,1627.008,372.013z M1695.514,372.013v-0.246
	c0-12.443-8.994-23.287-22.178-23.287c-13.063,0-21.81,10.597-21.81,23.04v0.247c0,12.443,8.995,23.287,22.057,23.287
	C1686.766,395.056,1695.514,384.458,1695.514,372.013z"/>
<path d="M1732.347,328.643h68.999v20.945h-45.095v14.661h40.783v19.838h-40.783v30.803h-23.906v-86.247H1732.347z"/>
<path d="M315.78,497.433h-25.875v-20.945h75.655v20.945h-25.876v65.307H315.78V497.433z"/>
<path d="M376.022,476.487h23.903v32.282h30.681v-32.282h23.902v86.25h-23.902v-32.775h-30.681v32.775h-23.903V476.487z"/>
<path d="M469.778,476.487h69.37v20.331h-45.711v13.062h41.398v18.853h-41.398v13.678h46.327v20.33H469.78L469.778,476.487
	L469.778,476.487z"/>
<path d="M583.124,519.857v-0.245c0-25.137,19.713-44.85,46.45-44.85c15.154,0,25.874,4.682,34.993,12.568l-14.047,16.881
	c-6.159-5.176-12.322-8.133-20.823-8.133c-12.44,0-22.054,10.475-22.054,23.657v0.247c0,13.923,9.73,23.901,23.408,23.901
	c5.79,0,10.23-1.23,13.802-3.573v-10.474h-17.006v-17.496h39.678v38.812c-9.119,7.521-21.811,13.309-37.46,13.309
	C603.208,564.461,583.124,545.979,583.124,519.857z"/>
<path d="M710.641,475.871h23.039l36.719,86.865h-25.63l-6.281-15.401h-33.269l-6.16,15.401h-25.137L710.641,475.871z
	 M731.586,528.729l-9.61-24.521l-9.73,24.521H731.586z"/>
<path d="M778.769,476.487h25.259l20.576,33.392l20.573-33.392h25.263v86.25h-23.781v-49.531l-22.055,33.759h-0.492l-21.934-33.511
	v49.285h-23.409V476.487L778.769,476.487z"/>
<path d="M885.708,476.487h69.37v20.331h-45.711v13.062h41.396v18.853h-41.396v13.678h46.324v20.33H885.71L885.708,476.487
	L885.708,476.487z"/>
<path d="M1002.501,476.487h24.028v86.25h-24.028V476.487z"/>
<path d="M1035.767,549.922l13.308-15.896c8.502,6.775,17.989,10.349,27.97,10.349c6.407,0,9.859-2.217,9.859-5.914v-0.245
	c0-3.573-2.834-5.545-14.538-8.257c-18.359-4.189-32.532-9.363-32.532-27.105v-0.247c0-16.019,12.69-27.6,33.396-27.6
	c14.657,0,26.121,3.942,35.483,11.46l-11.951,16.88c-7.886-5.544-16.51-8.5-24.149-8.5c-5.79,0-8.624,2.464-8.624,5.543v0.247
	c0,3.942,2.96,5.667,14.909,8.378c19.841,4.312,32.157,10.72,32.157,26.86v0.245c0,17.619-13.924,28.092-34.87,28.092
	C1060.9,564.214,1046.362,559.409,1035.767,549.922z"/>
<path d="M1177.818,497.433h-25.874v-20.945h75.652v20.945h-25.875v65.307h-23.903V497.433z"/>
<path d="M1231.411,519.857v-0.245c0-24.767,19.959-44.85,46.575-44.85c26.613,0,46.328,19.836,46.328,44.603v0.247
	c0,24.765-19.964,44.849-46.577,44.849C1251.123,564.461,1231.411,544.624,1231.411,519.857z M1299.915,519.857v-0.245
	c0-12.444-8.993-23.288-22.178-23.288c-13.062,0-21.81,10.598-21.81,23.041v0.247c0,12.439,8.997,23.284,22.059,23.284
	C1291.168,542.898,1299.915,532.302,1299.915,519.857z"/>
<path d="M1370.873,476.487h23.902v65.303h41.77v20.946h-65.674v-86.25H1370.873L1370.873,476.487z"/>
<path d="M1446.765,476.487h69.369v20.331h-45.712v13.062h41.396v18.853h-41.396v13.678h46.326v20.33h-69.983V476.487z"/>
<path d="M1558.757,475.871h23.042l36.717,86.865h-25.629l-6.287-15.401h-33.264l-6.164,15.401h-25.133L1558.757,475.871z
	 M1579.703,528.729l-9.606-24.521l-9.733,24.521H1579.703z"/>
<path d="M1626.887,476.487h40.784c13.183,0,22.302,3.45,28.092,9.363c5.053,4.929,7.641,11.582,7.641,20.083v0.246
	c0,13.186-7.021,21.933-17.741,26.49l20.573,30.064h-27.6l-17.374-26.124h-10.473v26.124h-23.902V476.487L1626.887,476.487z
	 M1666.561,517.885c8.133,0,12.814-3.94,12.814-10.228v-0.246c0-6.776-4.932-10.229-12.941-10.229h-15.649v20.699L1666.561,517.885
	L1666.561,517.885z"/>
<path d="M1715.469,476.487h22.297l35.486,45.589v-45.589h23.657v86.25h-20.944l-36.837-47.313v47.313h-23.657L1715.469,476.487
	L1715.469,476.487z"/>
<path d="M1086.528,645.276h-25.875v-20.943h75.656v20.943h-25.878v65.303h-23.905L1086.528,645.276L1086.528,645.276z"/>
<path d="M1146.771,624.329h23.906v32.278h30.681v-32.278h23.902v86.246h-23.902v-32.771h-30.681v32.771h-23.906V624.329z"/>
<path d="M1240.528,624.329h69.368v20.33h-45.712v13.062h41.398v18.852h-41.398v13.678h46.327v20.33h-69.983V624.329z"/>
<path d="M1356.829,624.329h40.784c13.18,0,22.298,3.449,28.09,9.365c5.05,4.928,7.642,11.582,7.642,20.082v0.248
	c0,13.184-7.022,21.932-17.743,26.489l20.572,30.062h-27.599l-17.372-26.121h-10.471v26.121h-23.904L1356.829,624.329
	L1356.829,624.329z M1396.504,665.729c8.131,0,12.813-3.942,12.813-10.227v-0.251c0-6.776-4.931-10.227-12.941-10.227h-15.647v20.7
	L1396.504,665.729L1396.504,665.729z"/>
<path d="M1444.302,672.753v-48.424h24.277v47.931c0,12.441,6.283,18.358,15.894,18.358c9.611,0,15.896-5.667,15.896-17.743v-48.542
	h24.272v47.805c0,27.848-15.895,40.045-40.414,40.045C1459.709,712.183,1444.302,699.735,1444.302,672.753z"/>
<path d="M1538.8,624.329h23.902v65.3h41.77v20.946H1538.8V624.329L1538.8,624.329z"/>
<path d="M1614.691,624.329h69.369v20.33h-45.713v13.062h41.398v18.852h-41.398v13.678h46.328v20.33h-69.984V624.329
	L1614.691,624.329z"/>
<path d="M1690.337,697.766l13.306-15.896c8.504,6.776,17.989,10.351,27.972,10.351c6.405,0,9.854-2.219,9.854-5.915v-0.249
	c0-3.572-2.83-5.542-14.536-8.252c-18.357-4.188-32.529-9.368-32.529-27.11v-0.245c0-16.02,12.688-27.602,33.395-27.602
	c14.658,0,26.121,3.943,35.48,11.455l-11.947,16.881c-7.886-5.545-16.51-8.503-24.15-8.503c-5.79,0-8.624,2.462-8.624,5.545v0.247
	c0,3.942,2.956,5.668,14.909,8.379c19.837,4.312,32.157,10.721,32.157,26.856v0.249c0,17.62-13.923,28.094-34.87,28.094
	C1715.471,712.058,1700.933,707.252,1690.337,697.766z"/>
<path d="M1774.854,686.553h24.396v24.026h-24.396V686.553z"/>
<path d="M1424.445,888.864h3.693l11.297-30.188h-4.262v-1.796h12.834v1.796h-4.262l11.298,30.188h3.743v1.796h-10.42v-1.796h4.414
	l-3.953-10.731h-14.526l-3.955,10.731h4.521v1.796h-10.423L1424.445,888.864L1424.445,888.864z M1448.162,876.338l-6.57-17.812
	l-6.621,17.812H1448.162z"/>
<path d="M1475.833,874.901c-0.924,0-1.593-0.72-1.593-1.592c0-0.358,0.104-0.876,0.515-1.336c-1.027-0.974-3.029-1.389-4.877-1.389
	c-3.491,0-5.647,1.849-5.647,4.056c0,2.465,2.672,3.183,6.262,4.106c3.85,0.976,7.596,2.155,7.596,6.312
	c0,3.597-3.438,5.953-8.058,5.953c-3.132,0-5.955-1.076-7.394-2.565c-0.613-0.616-0.974-1.335-0.974-2.207
	c0-0.976,0.67-1.745,1.539-1.745c0.976,0,1.591,0.667,1.591,1.536c0,0.563-0.203,1.031-0.612,1.335
	c0.667,0.976,2.978,2.002,5.801,2.002c3.899,0,6.262-1.748,6.262-4.261c0-2.819-2.822-3.695-6.159-4.519
	c-4.26-1.028-7.7-2.104-7.7-5.902c0-3.233,3.132-5.749,7.545-5.749c3.029,0,5.289,0.925,6.467,2.158
	c0.671,0.669,0.976,1.332,0.976,2.104C1477.372,874.183,1476.705,874.901,1475.833,874.901z"/>
<path d="M1481.275,854.882v-1.693h5.595v20.38c2.002-2.461,5.082-4.62,8.419-4.62c2.617,0,4.313,0.924,5.389,2.413
	c0.925,1.233,1.284,2.976,1.284,4.928v12.678h3.744v1.694h-9.343v-1.694h3.695v-12.422c0-1.797-0.309-3.182-1.026-4.158
	c-0.82-1.077-2.207-1.693-4.057-1.693c-3.13,0-5.954,2.103-8.108,4.669v13.603h3.746v1.697h-9.342v-1.694h3.691v-34.084h-3.688
	V854.882z"/>
<path d="M1508.786,888.966h3.955v-34.084h-3.955v-1.693h5.852v35.777h4.057v1.694h-9.909L1508.786,888.966L1508.786,888.966
	L1508.786,888.966z"/>
<path d="M1524.497,880.188c0.206,5.955,3.799,9.138,9.188,9.138c2.876,0,5.183-0.972,7.444-2.46l-0.155,1.95
	c-2.052,1.391-4.723,2.208-7.494,2.208c-6.521,0-10.934-4.363-10.934-11.086c0-6.059,4.207-10.987,10.109-10.987
	c6.106,0,9.498,4.771,9.498,10.012c0,0.513-0.051,0.924-0.155,1.231h-17.503v-0.005L1524.497,880.188L1524.497,880.188z
	 M1524.548,878.546h15.654c-0.206-4.414-2.772-7.904-7.7-7.904C1528.398,870.642,1525.011,873.823,1524.548,878.546z"/>
<path d="M1546.571,888.966h4.006v-17.965h-4.006v-1.691h5.901v19.656h4.004v1.694h-9.905V888.966z M1549.24,860.221
	c0-1.078,0.818-1.952,1.847-1.952c1.026,0,1.849,0.874,1.849,1.952c0,1.026-0.82,1.898-1.849,1.898
	C1550.061,862.119,1549.24,861.247,1549.24,860.221z"/>
<path d="M1580.654,891.996c0,2.565-0.668,4.517-1.898,5.952c-1.748,2.054-4.568,2.978-7.956,2.978c-3.385,0-5.8-1.078-6.98-2.36
	c-0.611-0.616-0.925-1.391-0.925-2.055c0-1.182,0.822-1.95,1.85-1.95c0.875,0,1.488,0.72,1.488,1.592
	c0,0.564-0.309,1.13-0.771,1.488c0.672,0.771,2.619,1.592,5.545,1.592c2.672,0,4.878-0.72,6.313-2.413
	c0.924-1.126,1.437-2.613,1.437-4.669v-5.187c-1.897,2.054-4.465,3.748-8.008,3.748c-5.803,0-10.265-4.62-10.265-10.779
	c0-5.903,4.312-10.988,10.673-10.988c3.081,0,5.75,1.389,7.65,3.184v-2.824h5.541v1.694h-3.693V891.996L1580.654,891.996z
	 M1562.434,879.881c0,5.186,3.438,9.188,8.418,9.188c3.387,0,5.953-1.747,7.904-4.005v-11.241c-1.847-1.748-4.363-3.183-7.647-3.183
	C1565.973,870.642,1562.434,874.747,1562.434,879.881z"/>
<path d="M1587.536,854.882v-1.693h5.595v20.38c2.003-2.461,5.085-4.62,8.42-4.62c2.615,0,4.313,0.924,5.388,2.413
	c0.925,1.233,1.283,2.976,1.283,4.928v12.678h3.748v1.694h-9.343v-1.694h3.693v-12.422c0-1.797-0.311-3.182-1.028-4.158
	c-0.818-1.077-2.207-1.693-4.056-1.693c-3.131,0-5.952,2.103-8.109,4.669v13.603h3.747v1.697h-9.343v-1.694h3.695v-34.084h-3.69
	V854.882z"/>
<path d="M1627.368,888.864h4.669v-30.187h-4.669v-1.797h13.446c7.546,0,10.677,4.057,10.677,8.419c0,4.105-2.771,7.136-6.826,8.061
	c4.88,0.924,7.806,3.802,7.806,8.165c0,5.439-4.467,9.137-11.296,9.137h-13.807V888.864L1627.368,888.864z M1640.459,872.489
	c6.262,0,8.984-3.131,8.984-7.085c0-3.851-2.821-6.729-8.729-6.729h-6.57v13.811L1640.459,872.489L1640.459,872.489z
	 M1641.229,888.864c5.646,0,9.188-3.031,9.188-7.341c0-4.52-3.541-7.237-10.01-7.237h-6.264v14.581L1641.229,888.864
	L1641.229,888.864z"/>
<path d="M1671.979,871.001c0,0.924-0.667,1.692-1.69,1.692c-0.922,0-1.747-0.77-1.799-1.692c-1.95,0.311-3.952,2.463-5.339,4.978
	v12.987h4.209v1.694h-9.856v-1.694h3.749v-17.965h-3.749v-1.691h5.545v4.771c1.591-2.82,4.209-5.133,6.417-5.133
	C1671.107,868.947,1671.979,869.923,1671.979,871.001z"/>
<path d="M1675.008,888.966h4.004v-17.965h-4.004v-1.691h5.904v19.656h4.004v1.694h-9.908V888.966L1675.008,888.966z
	 M1677.679,860.221c0-1.078,0.82-1.952,1.848-1.952c1.029,0,1.848,0.874,1.848,1.952c0,1.026-0.818,1.898-1.848,1.898
	C1678.499,862.119,1677.679,861.247,1677.679,860.221z"/>
<path d="M1688.046,888.966H1692v-34.084h-3.954v-1.693h5.853v35.777h4.056v1.694h-9.907L1688.046,888.966L1688.046,888.966z"/>
<path d="M1701.085,888.966h3.954v-34.084h-3.954v-1.693h5.853v35.777h4.056v1.694h-9.907L1701.085,888.966L1701.085,888.966z"/>
<path d="M1714.689,888.966h4.008v-17.965h-4.008v-1.691h5.903v19.656h4.004v1.694h-9.907V888.966z M1717.359,860.221
	c0-1.078,0.817-1.952,1.847-1.952c1.024,0,1.848,0.874,1.848,1.952c0,1.026-0.819,1.898-1.848,1.898
	C1718.18,862.119,1717.359,861.247,1717.359,860.221z"/>
<path d="M1727.984,884.912c0-3.85,3.338-6.417,7.957-6.417c2.461,0,5.288,0.615,6.823,1.235v-3.902c0-1.333-0.358-2.463-1.078-3.335
	c-0.974-1.13-2.668-1.898-5.025-1.898c-2.464,0-3.901,0.818-4.729,1.646c0.312,0.308,0.52,0.817,0.52,1.385
	c0,0.771-0.616,1.541-1.541,1.541c-1.026,0-1.644-0.771-1.644-1.748c0-2.002,2.722-4.463,7.547-4.463
	c2.822,0,5.026,0.818,6.311,2.311c0.976,1.078,1.489,2.518,1.489,4.263v13.443h3.696v1.689h-5.493v-3.233
	c-1.746,1.896-4.568,3.594-7.7,3.594C1730.604,891.02,1727.984,888.3,1727.984,884.912z M1742.77,885.631v-4.464
	c-1.949-0.616-4.415-1.077-6.725-1.077c-4.209,0-6.16,2.207-6.16,4.722c0,2.413,1.745,4.569,5.492,4.569
	C1738.406,889.377,1740.973,887.683,1742.77,885.631z"/>
<path d="M1757.501,873.617c2.002-2.411,5.134-4.67,8.471-4.67c2.819,0,4.615,1.13,5.595,2.824c0.666,1.18,0.977,2.771,0.977,4.517
	v12.678h3.743v1.694h-9.344v-1.694h3.696v-12.422c0-1.438-0.152-2.617-0.615-3.541c-0.72-1.489-2.156-2.312-4.312-2.312
	c-3.132,0-6.006,2.103-8.109,4.669v13.603h3.694v1.697h-9.343v-1.694h3.748v-17.965h-3.748v-1.69h5.545L1757.501,873.617
	L1757.501,873.617z"/>
<path d="M1783.013,888.658c-0.358-0.771-0.513-1.644-0.513-2.67v-14.991h-3.902v-1.692h3.902v-5.695l1.896-0.672v6.367h6.881v1.692
	h-6.881v14.787c0,0.818,0.104,1.438,0.358,2.002c0.465,0.971,1.334,1.438,2.721,1.438c1.335,0,2.618-0.513,3.9-1.282l-0.308,1.897
	c-1.03,0.613-2.259,1.178-4.009,1.178C1785.066,891.02,1783.732,890.199,1783.013,888.658z"/>
</svg>
