<?xml version="1.0" encoding="utf-8"?>
<!-- Generator: Adobe Illustrator 15.0.0, SVG Export Plug-In . SVG Version: 6.00 Build 0)  -->
<!DOCTYPE svg PUBLIC "-//W3C//DTD SVG 1.1//EN" "http://www.w3.org/Graphics/SVG/1.1/DTD/svg11.dtd">
<svg version="1.1" id="Layer_1" xmlns="http://www.w3.org/2000/svg" xmlns:xlink="http://www.w3.org/1999/xlink" x="0px" y="0px"
	 width="1920px" height="1080px" viewBox="0 0 1920 1080" enable-background="new 0 0 1920 1080" xml:space="preserve">
<path d="M558.294,152.519H535.71v-18.283h66.035v18.283h-22.586v57h-20.864L558.294,152.519L558.294,152.519z"/>
<path d="M610.876,134.234h20.867v28.179h26.779v-28.179h20.863v75.283h-20.863v-28.605h-26.779v28.605h-20.867V134.234z"/>
<path d="M692.711,134.234h60.55v17.746h-39.899v11.4h36.136v16.455h-36.136v11.938H753.8v17.746h-61.085v-75.285H692.711z"/>
<path d="M794.227,134.234h29.036c26.887,0,42.48,15.486,42.48,37.211v0.216c0,21.726-15.81,37.857-42.911,37.857h-28.605V134.234
	L794.227,134.234z M823.586,191.02c12.479,0,20.757-6.881,20.757-19.034v-0.216c0-12.044-8.28-19.036-20.757-19.036h-8.495v38.286
	H823.586L823.586,191.02z"/>
<path d="M876.493,134.234h60.55v17.746h-39.902v11.4h36.137v16.455h-36.137v11.938h40.438v17.746h-61.084L876.493,134.234
	L876.493,134.234z"/>
<path d="M942.52,198.333l11.613-13.872c7.419,5.914,15.704,9.033,24.412,9.033c5.594,0,8.607-1.935,8.607-5.16v-0.217
	c0-3.119-2.475-4.84-12.691-7.205c-16.025-3.658-28.391-8.176-28.391-23.662v-0.216c0-13.979,11.078-24.091,29.146-24.091
	c12.799,0,22.799,3.443,30.975,10.002l-10.435,14.733c-6.882-4.839-14.411-7.42-21.079-7.42c-5.055,0-7.526,2.15-7.526,4.839v0.216
	c0,3.44,2.583,4.946,13.012,7.312c17.318,3.765,28.071,9.355,28.071,23.443v0.216c0,15.379-12.154,24.521-30.438,24.521
	C964.459,210.81,951.769,206.615,942.52,198.333z"/>
<path d="M1018.764,134.234h20.975v75.283h-20.975V134.234z"/>
<path d="M1053.501,134.234h35.598c11.507,0,19.467,3.014,24.521,8.176c4.409,4.301,6.669,10.109,6.669,17.529v0.214
	c0,11.508-6.129,19.145-15.487,23.123l17.958,26.241h-24.089l-15.167-22.799h-9.14v22.799h-20.862V134.234z M1088.129,170.373
	c7.098,0,11.187-3.443,11.187-8.928v-0.217c0-5.914-4.303-8.927-11.294-8.927h-13.659v18.069L1088.129,170.373L1088.129,170.373z"/>
<path d="M1130.819,134.234h60.548v17.746h-39.899v11.4h36.135v16.455h-36.135v11.938h40.438v17.746h-61.087V134.234z"/>
<path d="M1229.751,172.094v-0.217c0-21.617,17.423-39.148,40.652-39.148c23.232,0,40.438,17.317,40.438,38.933v0.217
	c0,21.617-17.422,39.147-40.651,39.147C1246.958,211.024,1229.751,193.71,1229.751,172.094z M1289.547,172.094v-0.217
	c0-10.861-7.851-20.326-19.356-20.326c-11.401,0-19.036,9.25-19.036,20.111v0.216c0,10.861,7.851,20.326,19.25,20.326
	C1281.911,192.204,1289.547,182.953,1289.547,172.094z"/>
<path d="M1321.695,134.234h60.226v18.283h-39.361v12.797h35.6v17.317h-35.6v26.886h-20.863L1321.695,134.234L1321.695,134.234z"/>
<path d="M524.636,281.564h-22.584v-18.283h66.035v18.283H545.5v56.998h-20.864V281.564z"/>
<path d="M577.219,263.281h20.865v28.178h26.779v-28.178h20.866v75.281h-20.866v-28.605h-26.779v28.605h-20.865V263.281z"/>
<path d="M659.055,263.281h60.548v17.744h-39.899v11.4h36.136v16.457h-36.136v11.937h40.438v17.745h-61.083L659.055,263.281
	L659.055,263.281z"/>
<path d="M760.568,263.281h22.046l17.961,29.146l17.958-29.146h22.049v75.281h-20.757v-43.23l-19.25,29.467h-0.432L781,295.548
	v43.018h-20.433L760.568,263.281L760.568,263.281z"/>
<path d="M879.938,262.743h20.109l32.049,75.819h-22.37l-5.483-13.441h-29.037l-5.38,13.441h-21.938L879.938,262.743z
	 M898.22,308.881l-8.388-21.403l-8.496,21.403H898.22z"/>
<path d="M939.403,263.281h19.463l30.974,39.794v-39.794h20.649v75.281h-18.282l-32.158-41.297v41.297H939.4L939.403,263.281
	L939.403,263.281z"/>
<path d="M1054.035,263.281h20.971v75.281h-20.971V263.281z"/>
<path d="M1083.071,327.38l11.612-13.874c7.422,5.916,15.703,9.034,24.415,9.034c5.593,0,8.603-1.936,8.603-5.161v-0.215
	c0-3.12-2.474-4.839-12.689-7.207c-16.022-3.656-28.392-8.173-28.392-23.66v-0.217c0-13.981,11.077-24.089,29.146-24.089
	c12.797,0,22.803,3.44,30.973,10.001l-10.43,14.732c-6.883-4.84-14.41-7.42-21.078-7.42c-5.055,0-7.527,2.15-7.527,4.839v0.215
	c0,3.443,2.579,4.947,13.014,7.312c17.315,3.766,28.067,9.356,28.067,23.444v0.217c0,15.379-12.152,24.521-30.436,24.521
	C1105.009,339.855,1092.319,335.662,1083.071,327.38z"/>
<path d="M1188.673,263.281h60.227v18.283h-39.363v12.797h35.598v17.315h-35.598v26.886h-20.862L1188.673,263.281L1188.673,263.281z"
	/>
<path d="M1255.774,301.137v-0.215c0-21.618,17.421-39.148,40.651-39.148c23.233,0,40.438,17.316,40.438,38.932v0.217
	c0,21.617-17.423,39.146-40.654,39.146S1255.774,322.755,1255.774,301.137z M1315.569,301.137v-0.215
	c0-10.863-7.851-20.326-19.358-20.326c-11.398,0-19.036,9.248-19.036,20.111v0.217c0,10.86,7.854,20.327,19.252,20.327
	C1307.935,321.25,1315.569,312,1315.569,301.137z"/>
<path d="M1347.719,263.281h35.6c11.506,0,19.462,3.012,24.521,8.174c4.408,4.303,6.667,10.11,6.667,17.529v0.216
	c0,11.508-6.13,19.144-15.486,23.124l17.961,26.238h-24.091l-15.161-22.8h-9.143v22.8h-20.861L1347.719,263.281L1347.719,263.281z
	 M1382.348,299.417c7.099,0,11.187-3.441,11.187-8.927v-0.216c0-5.916-4.302-8.927-11.295-8.927h-13.658v18.068L1382.348,299.417
	L1382.348,299.417z"/>
<path d="M492.696,410.61h-22.585v-18.283h66.034v18.283H513.56v57h-20.864V410.61z"/>
<path d="M545.281,392.327h20.863v28.178h26.78v-28.178h20.864v75.282h-20.864v-28.606h-26.78v28.606h-20.863V392.327z"/>
<path d="M627.115,392.327h60.549v17.744h-39.899v11.4h36.136v16.458h-36.136v11.934h40.438v17.748h-61.088V392.327L627.115,392.327z
	"/>
<path d="M723.573,392.327h22.049l13.119,43.557l14.521-43.772h17.958l14.522,43.772l13.121-43.557h21.618l-25.168,75.82h-18.178
	l-15.162-43.341l-15.057,43.341h-18.176L723.573,392.327z"/>
<path d="M841.865,430.184v-0.214c0-21.618,17.422-39.147,40.651-39.147c23.232,0,40.438,17.316,40.438,38.932v0.216
	c0,21.617-17.423,39.147-40.652,39.147C859.073,469.116,841.865,451.801,841.865,430.184z M901.661,430.184v-0.214
	c0-10.863-7.851-20.326-19.358-20.326c-11.399,0-19.036,9.249-19.036,20.112v0.216c0,10.859,7.851,20.324,19.25,20.324
	C894.025,450.296,901.661,441.046,901.661,430.184z"/>
<path d="M933.811,392.327h22.047l17.957,29.145l17.962-29.145h22.046v75.282h-20.754v-43.231l-19.252,29.466h-0.43l-19.144-29.25
	v43.019H933.81L933.811,392.327L933.811,392.327z"/>
<path d="M1053.178,391.791h20.111l32.049,75.82h-22.371l-5.484-13.441h-29.036l-5.381,13.441h-21.937L1053.178,391.791z
	 M1071.459,437.928l-8.386-21.403l-8.497,21.403H1071.459z"/>
<path d="M1112.646,392.327h19.464l30.974,39.793v-39.793h20.65v75.282h-18.284l-32.155-41.298v41.298h-20.648V392.327
	L1112.646,392.327z"/>
<path d="M1192.544,477.505c7.206-0.861,10.971-4.306,10.755-10.112h-8.281v-20.972h21.295v17.099
	c0,15.919-8.712,21.403-22.153,21.832L1192.544,477.505z"/>
<path d="M1257.389,392.327H1296c9.465,0,16.132,2.365,20.542,6.776c3.012,3.01,4.835,6.989,4.835,12.153v0.215
	c0,8.712-4.945,13.874-11.61,16.777c9.143,3.011,14.948,8.174,14.948,18.39v0.216c0,12.905-10.542,20.755-28.499,20.755h-38.824
	L1257.389,392.327L1257.389,392.327z M1290.835,422.333c6.345,0,9.894-2.149,9.894-6.562v-0.215c0-4.086-3.227-6.452-9.465-6.452
	h-13.55v13.228L1290.835,422.333L1290.835,422.333z M1293.846,450.833c6.347,0,10.003-2.475,10.003-6.883v-0.215
	c0-4.087-3.227-6.775-10.22-6.775h-15.915v13.874L1293.846,450.833L1293.846,450.833z"/>
<path d="M1333.31,434.593v-42.267h21.19v41.836c0,10.861,5.483,16.024,13.871,16.024c8.387,0,13.872-4.946,13.872-15.486v-42.375
	h21.188v41.729c0,24.305-13.873,34.951-35.274,34.951C1346.755,469.007,1333.31,458.146,1333.31,434.593z"/>
<path d="M1434.179,410.61h-22.585v-18.283h66.035v18.283h-22.584v57h-20.866V410.61L1434.179,410.61z"/>
<path d="M431.133,539.656h-22.584v-18.28h66.034v18.28h-22.586v56.999h-20.864V539.656z"/>
<path d="M483.716,521.373h20.864v28.173h26.78v-28.173h20.864v75.28H531.36v-28.604h-26.78v28.604h-20.864V521.373z"/>
<path d="M565.551,521.373h60.55v17.745h-39.899v11.399h36.136v16.455h-36.136v11.938h40.438v17.745h-61.086L565.551,521.373
	L565.551,521.373z"/>
<path d="M667.065,521.373h29.039c26.886,0,42.481,15.484,42.481,37.208v0.219c0,21.725-15.81,37.855-42.912,37.855h-28.608V521.373
	L667.065,521.373z M696.426,578.158c12.478,0,20.757-6.883,20.757-19.036v-0.216c0-12.045-8.282-19.036-20.757-19.036h-8.495v38.288
	H696.426L696.426,578.158z"/>
<path d="M749.332,521.373h60.55v17.745h-39.898v11.399h36.136v16.455h-36.136v11.938h40.438v17.745h-61.086L749.332,521.373
	L749.332,521.373z"/>
<path d="M815.358,585.471l11.615-13.873c7.42,5.914,15.702,9.034,24.412,9.034c5.595,0,8.604-1.937,8.604-5.163v-0.218
	c0-3.118-2.472-4.836-12.691-7.202c-16.022-3.657-28.391-8.177-28.391-23.665v-0.214c0-13.981,11.078-24.091,29.147-24.091
	c12.794,0,22.8,3.442,30.972,9.998l-10.431,14.735c-6.883-4.841-14.411-7.422-21.08-7.422c-5.054,0-7.526,2.148-7.526,4.84v0.216
	c0,3.439,2.583,4.946,13.012,7.312c17.314,3.765,28.07,9.356,28.07,23.442v0.217c0,15.38-12.153,24.521-30.437,24.521
	C837.3,597.947,824.608,593.751,815.358,585.471z"/>
<path d="M891.604,521.373h20.971v75.28h-20.971V521.373z"/>
<path d="M926.338,521.373h35.598c11.507,0,19.464,3.011,24.521,8.174c4.406,4.301,6.667,10.109,6.667,17.528v0.217
	c0,11.508-6.131,19.144-15.487,23.123l17.959,26.237h-24.091l-15.161-22.802H947.2v22.802h-20.863L926.338,521.373L926.338,521.373z
	 M960.968,557.51c7.099,0,11.188-3.442,11.188-8.928v-0.219c0-5.914-4.302-8.926-11.295-8.926H947.2v18.067L960.968,557.51
	L960.968,557.51z"/>
<path d="M1003.657,521.373h60.548v17.745h-39.899v11.399h36.134v16.455h-36.134v11.938h40.438v17.745h-61.087V521.373z"/>
<path d="M1102.591,559.229v-0.218c0-21.617,17.421-39.146,40.65-39.146c23.23,0,40.438,17.317,40.438,38.933v0.214
	c0,21.621-17.422,39.146-40.651,39.146C1119.796,598.159,1102.591,580.846,1102.591,559.229z M1162.385,559.229v-0.218
	c0-10.858-7.852-20.323-19.358-20.323c-11.401,0-19.034,9.245-19.034,20.112v0.215c0,10.861,7.851,20.326,19.25,20.326
	C1154.749,579.341,1162.385,570.092,1162.385,559.229z"/>
<path d="M1194.533,521.373h60.228v18.28h-39.362v12.798h35.599v17.313h-35.599v26.888h-20.864L1194.533,521.373L1194.533,521.373z"
	/>
<path d="M1312.395,539.656h-22.585v-18.28h66.035v18.28h-22.585v56.999h-20.865V539.656L1312.395,539.656z"/>
<path d="M1364.979,521.373h20.862v28.173h26.782v-28.173h20.86v75.28h-20.862v-28.604h-26.784v28.604h-20.862L1364.979,521.373
	L1364.979,521.373z"/>
<path d="M1446.812,521.373h60.55v17.745h-39.899v11.399h36.131v16.455h-36.131v11.938h40.438v17.745h-61.086v-75.283H1446.812z"/>
<path d="M398.6,650.419h22.047l13.121,43.556l14.52-43.771h17.96l14.519,43.771l13.121-43.556h21.618l-25.167,75.824h-18.175
	l-15.165-43.347l-15.057,43.347h-18.175L398.6,650.419z"/>
<path d="M516.893,688.274v-0.216c0-21.616,17.421-39.146,40.652-39.146c23.229,0,40.437,17.314,40.437,38.933v0.214
	c0,21.618-17.422,39.147-40.652,39.147S516.893,709.893,516.893,688.274z M576.687,688.274v-0.216
	c0-10.86-7.85-20.325-19.358-20.325c-11.4,0-19.036,9.249-19.036,20.114v0.215c0,10.861,7.851,20.326,19.251,20.326
	C569.052,708.387,576.687,699.138,576.687,688.274z"/>
<path d="M608.837,650.419h22.046l17.96,29.146l17.958-29.146h22.046v75.282h-20.754v-43.233l-19.25,29.468h-0.43l-19.144-29.253
	v43.02h-20.433L608.837,650.419L608.837,650.419z"/>
<path d="M728.206,649.882h20.111l32.049,75.821h-22.371l-5.487-13.443h-29.034l-5.381,13.443h-21.937L728.206,649.882z
	 M746.489,696.019l-8.39-21.4l-8.496,21.4H746.489z"/>
<path d="M787.67,650.419h19.466l30.975,39.795v-39.795h20.648v75.282h-18.283l-32.156-41.297v41.297H787.67V650.419L787.67,650.419z
	"/>
<path d="M902.304,650.419h20.973v75.282h-20.973V650.419z"/>
<path d="M931.338,714.518l11.616-13.874c7.419,5.914,15.702,9.034,24.413,9.034c5.593,0,8.604-1.938,8.604-5.164V704.3
	c0-3.118-2.474-4.84-12.69-7.205c-16.023-3.657-28.392-8.174-28.392-23.661v-0.218c0-13.979,11.078-24.091,29.146-24.091
	c12.799,0,22.801,3.445,30.974,10.001l-10.434,14.735c-6.88-4.841-14.408-7.421-21.075-7.421c-5.057,0-7.528,2.146-7.528,4.836
	v0.219c0,3.439,2.581,4.945,13.013,7.312c17.314,3.767,28.069,9.36,28.069,23.445v0.215c0,15.382-12.153,24.524-30.436,24.524
	C953.28,726.992,940.589,722.798,931.338,714.518z"/>
<path d="M1036.94,650.419h60.225v18.283h-39.362v12.797h35.598v17.315h-35.599v26.887h-20.861V650.419z"/>
<path d="M1104.041,688.274v-0.216c0-21.616,17.422-39.146,40.653-39.146c23.232,0,40.438,17.314,40.438,38.933v0.214
	c0,21.618-17.424,39.147-40.653,39.147C1121.247,727.207,1104.041,709.893,1104.041,688.274z M1163.836,688.274v-0.216
	c0-10.86-7.849-20.325-19.357-20.325c-11.398,0-19.035,9.249-19.035,20.114v0.215c0,10.861,7.853,20.326,19.252,20.326
	C1156.202,708.387,1163.836,699.138,1163.836,688.274z"/>
<path d="M1195.986,650.419h35.598c11.506,0,19.465,3.013,24.521,8.174c4.407,4.305,6.671,10.112,6.671,17.529v0.219
	c0,11.508-6.13,19.142-15.487,23.119l17.957,26.241h-24.091l-15.16-22.803h-9.141v22.803h-20.866L1195.986,650.419L1195.986,650.419
	z M1230.615,686.555c7.098,0,11.184-3.444,11.184-8.93v-0.215c0-5.915-4.301-8.93-11.295-8.93h-13.658v18.07L1230.615,686.555
	L1230.615,686.555z"/>
<path d="M1321.481,668.702h-22.585v-18.283h66.032v18.283h-22.584v56.999h-20.864L1321.481,668.702L1321.481,668.702z"/>
<path d="M1374.064,650.419h20.864v28.176h26.781v-28.176h20.864v75.282h-20.864v-28.606h-26.781v28.606h-20.864V650.419z"/>
<path d="M1455.9,650.419h60.548v17.745h-39.898v11.4h36.132v16.457h-36.132v11.938h40.438v17.745H1455.9V650.419z"/>
<path d="M378.116,779.464h29.038c26.886,0,42.48,15.486,42.48,37.211v0.214c0,21.727-15.81,37.857-42.911,37.857h-28.607V779.464
	L378.116,779.464z M407.475,836.248c12.476,0,20.756-6.88,20.756-19.035v-0.216c0-12.045-8.28-19.036-20.756-19.036h-8.496v38.287
	H407.475z"/>
<path d="M460.382,779.464h60.55v17.745h-39.899v11.399h36.136v16.454h-36.136v11.938h40.438v17.745h-61.086v-75.281L460.382,779.464
	L460.382,779.464z"/>
<path d="M526.409,843.562l11.616-13.873c7.42,5.914,15.701,9.033,24.412,9.033c5.593,0,8.605-1.938,8.605-5.164v-0.215
	c0-3.12-2.474-4.839-12.691-7.204c-16.025-3.656-28.392-8.178-28.392-23.661v-0.218c0-13.98,11.078-24.092,29.146-24.092
	c12.798,0,22.8,3.442,30.974,10.002l-10.433,14.732c-6.882-4.837-14.412-7.422-21.079-7.422c-5.054,0-7.528,2.15-7.528,4.839v0.218
	c0,3.442,2.581,4.947,13.012,7.313c17.316,3.765,28.07,9.355,28.07,23.444v0.215c0,15.38-12.153,24.521-30.436,24.521
	C548.349,856.037,535.659,851.842,526.409,843.562z"/>
<path d="M602.653,779.464h20.972v75.279h-20.972V779.464z"/>
<path d="M637.387,779.464h35.598c11.507,0,19.465,3.012,24.519,8.174c4.409,4.302,6.67,10.112,6.67,17.528v0.217
	c0,11.506-6.13,19.145-15.487,23.122l17.958,26.239h-24.089l-15.162-22.802h-9.142v22.802h-20.866L637.387,779.464L637.387,779.464z
	 M672.017,815.6c7.098,0,11.186-3.441,11.186-8.927v-0.219c0-5.915-4.301-8.927-11.295-8.927H658.25v18.068L672.017,815.6
	L672.017,815.6z"/>
<path d="M714.707,779.464h60.549v17.745h-39.899v11.399h36.133v16.454h-36.133v11.938h40.436v17.745h-61.085V779.464
	L714.707,779.464z"/>
<path d="M813.639,817.318v-0.215c0-21.619,17.424-39.146,40.652-39.146s40.438,17.315,40.438,38.929v0.22
	c0,21.617-17.423,39.146-40.654,39.146C830.846,856.251,813.639,838.938,813.639,817.318z M873.435,817.318v-0.215
	c0-10.861-7.85-20.325-19.357-20.325c-11.4,0-19.033,9.248-19.033,20.109v0.221c0,10.857,7.85,20.322,19.25,20.322
	C865.799,837.432,873.435,828.183,873.435,817.318z"/>
<path d="M905.583,779.464h60.227v18.282h-39.361v12.795h35.598v17.314h-35.598v26.889h-20.864L905.583,779.464L905.583,779.464z"/>
<path d="M1023.444,797.746h-22.584v-18.282h66.032v18.282h-22.585v56.997h-20.863V797.746L1023.444,797.746z"/>
<path d="M1076.028,779.464h20.863v28.175h26.781v-28.175h20.864v75.279h-20.864V826.14h-26.781v28.604h-20.863V779.464
	L1076.028,779.464z"/>
<path d="M1157.863,779.464h60.548v17.745h-39.897v11.399h36.131v16.454h-36.131v11.938h40.438v17.745h-61.087L1157.863,779.464
	L1157.863,779.464z"/>
<path d="M1259.378,779.464h22.046l17.962,29.146l17.958-29.146h22.048v75.279h-20.756v-43.23l-19.25,29.466h-0.431l-19.145-29.253
	v43.02h-20.434L1259.378,779.464L1259.378,779.464z"/>
<path d="M1378.746,778.925h20.113l32.047,75.821h-22.368l-5.485-13.444h-29.039l-5.377,13.444h-21.938L1378.746,778.925z
	 M1397.028,825.062l-8.388-21.398l-8.496,21.398H1397.028z"/>
<path d="M1438.213,779.464h19.467l30.971,39.792v-39.792h20.648v75.279h-18.281l-32.152-41.295v41.295h-20.649v-75.279H1438.213z"/>
<path d="M1520.587,833.774h21.297v20.972h-21.297V833.774z"/>
<path d="M673.912,945.344h3.226l9.86-26.346h-3.719v-1.568h11.202v1.568h-3.719l9.862,26.346h3.267v1.568h-9.096v-1.568h3.854
	l-3.452-9.363h-12.678l-3.453,9.363h3.945v1.568h-9.098L673.912,945.344L673.912,945.344z M694.612,934.409l-5.735-15.545
	l-5.779,15.545H694.612z"/>
<path d="M711.282,932.036c1.748-2.104,4.481-4.075,7.394-4.075c2.46,0,4.028,0.986,4.883,2.462c0.584,1.029,0.853,2.418,0.853,3.945
	v11.065h3.268v1.478h-8.154v-1.478h3.227v-10.847c0-1.254-0.134-2.281-0.535-3.087c-0.63-1.3-1.885-2.021-3.766-2.021
	c-2.733,0-5.242,1.839-7.079,4.078v11.873h3.225v1.478h-8.155v-1.478h3.271v-15.68h-3.271v-1.479h4.84L711.282,932.036
	L711.282,932.036z"/>
<path d="M735.657,932.036c1.748-2.104,4.48-4.075,7.391-4.075c2.464,0,4.032,0.986,4.887,2.462c0.582,1.029,0.853,2.418,0.853,3.945
	v11.065h3.267v1.478h-8.154v-1.478h3.226v-10.847c0-1.254-0.134-2.281-0.538-3.087c-0.627-1.3-1.881-2.021-3.763-2.021
	c-2.733,0-5.244,1.839-7.079,4.078v11.873h3.225v1.478h-8.154v-1.478h3.269v-15.68h-3.269v-1.479h4.839L735.657,932.036
	L735.657,932.036z"/>
<path d="M756.627,937.77c0.176,5.197,3.315,7.979,8.016,7.979c2.514,0,4.526-0.851,6.5-2.15l-0.135,1.702
	c-1.792,1.213-4.125,1.927-6.542,1.927c-5.691,0-9.546-3.808-9.546-9.676c0-5.288,3.674-9.589,8.827-9.589
	c5.331,0,8.289,4.167,8.289,8.736c0,0.448-0.045,0.808-0.134,1.076h-15.277v-0.005H756.627z M756.669,936.338h13.667
	c-0.18-3.85-2.42-6.896-6.721-6.896C760.03,929.438,757.075,932.216,756.669,936.338z"/>
<path d="M775.579,933.829h8.603v1.704h-8.603V933.829z"/>
<path d="M787.899,945.344h4.077v-26.346h-4.077v-1.568h10.175v1.568h-4.26v26.346h11.963v-5.194h1.747v6.764h-19.625V945.344
	L787.899,945.344z"/>
<path d="M811.471,937.592c0-5.38,3.942-9.633,9.409-9.633c5.556,0,9.409,4.213,9.409,9.633c0,5.378-3.896,9.631-9.409,9.631
	S811.471,943.013,811.471,937.592z M828.541,937.592c0-4.658-3.136-8.152-7.662-8.152c-4.479,0-7.662,3.494-7.662,8.152
	c0,4.703,3.182,8.155,7.662,8.155C825.406,945.747,828.541,942.297,828.541,937.592z"/>
<path d="M837.321,944.718c-0.582-1.076-0.808-2.375-0.808-3.899v-11.062h-3.267v-1.479h4.929v12.365c0,1.257,0.18,2.33,0.582,3.139
	c0.672,1.254,1.885,1.927,3.719,1.927c2.733,0,5.153-1.972,7.079-4.213V929.76h-3.225v-1.479h4.883v17.16h3.272v1.476h-4.886v-3.943
	c-1.704,2.195-4.437,4.259-7.349,4.259C839.741,947.227,838.175,946.239,837.321,944.718z"/>
<path d="M857.798,945.434h3.495v-15.682h-3.495v-1.479h5.153v17.16h3.495v1.477h-8.648V945.434L857.798,945.434z M860.131,920.343
	c0-0.94,0.714-1.704,1.611-1.704c0.896,0,1.614,0.764,1.614,1.704c0,0.898-0.717,1.657-1.614,1.657
	C860.844,922,860.131,921.238,860.131,920.343z"/>
<path d="M881.729,933.156c-0.808,0-1.394-0.627-1.394-1.39c0-0.312,0.094-0.761,0.452-1.165c-0.9-0.848-2.646-1.209-4.26-1.209
	c-3.047,0-4.93,1.613-4.93,3.54c0,2.146,2.331,2.773,5.468,3.58c3.359,0.853,6.627,1.886,6.627,5.514
	c0,3.136-3.001,5.194-7.035,5.194c-2.731,0-5.195-0.939-6.448-2.239c-0.538-0.536-0.852-1.163-0.852-1.928
	c0-0.848,0.583-1.522,1.345-1.522c0.849,0,1.388,0.582,1.388,1.341c0,0.492-0.179,0.9-0.537,1.165
	c0.585,0.853,2.599,1.748,5.066,1.748c3.4,0,5.462-1.523,5.462-3.717c0-2.464-2.461-3.227-5.376-3.945
	c-3.718-0.896-6.721-1.835-6.721-5.153c0-2.821,2.732-5.015,6.587-5.015c2.643,0,4.614,0.807,5.646,1.881
	c0.582,0.584,0.849,1.166,0.849,1.839C883.07,932.529,882.489,933.156,881.729,933.156z"/>
<path d="M889.299,937.77c0.18,5.197,3.318,7.979,8.02,7.979c2.514,0,4.525-0.851,6.501-2.15l-0.137,1.702
	c-1.791,1.213-4.125,1.927-6.544,1.927c-5.689,0-9.543-3.808-9.543-9.676c0-5.288,3.674-9.589,8.827-9.589
	c5.331,0,8.289,4.167,8.289,8.736c0,0.448-0.045,0.808-0.134,1.076h-15.279V937.77L889.299,937.77z M889.343,936.338h13.667
	c-0.179-3.85-2.419-6.896-6.721-6.896C892.704,929.438,889.749,932.216,889.343,936.338z"/>
<path d="M908.253,933.829h8.604v1.704h-8.604V933.829z"/>
<path d="M921.067,932.529c0-9.409,7.08-15.59,15.01-15.59c6.497,0,10.889,3.766,10.889,6.677c0,1.164-0.716,1.927-1.702,1.927
	c-0.899,0-1.572-0.717-1.572-1.613c0-0.673,0.313-1.255,0.985-1.567c-1.075-1.836-4.346-3.81-8.646-3.81
	c-7.932,0-13.082,6.362-13.082,13.978c0,7.886,5.599,13.174,12.545,13.174c3.581,0,6.94-1.166,10.123-3.586v-7.214h-9.044v-1.567
	h10.843v13.576h-1.748v-3.136c-3.047,2.283-6.228,3.494-10.261,3.494C927.877,947.271,921.067,941.715,921.067,932.529z"/>
<path d="M954.988,937.77c0.179,5.197,3.314,7.979,8.019,7.979c2.511,0,4.526-0.851,6.499-2.15l-0.137,1.702
	c-1.791,1.213-4.121,1.927-6.541,1.927c-5.692,0-9.544-3.808-9.544-9.676c0-5.288,3.674-9.589,8.823-9.589
	c5.331,0,8.293,4.167,8.293,8.736c0,0.448-0.046,0.808-0.138,1.076h-15.276v-0.005H954.988z M955.032,936.338h13.664
	c-0.18-3.85-2.42-6.896-6.723-6.896C958.392,929.438,955.434,932.216,955.032,936.338z"/>
<path d="M986.844,929.752c0,0.807-0.585,1.475-1.478,1.475c-0.808,0-1.523-0.668-1.568-1.475c-1.702,0.27-3.453,2.146-4.659,4.345
	v11.337h3.673v1.477h-8.603v-1.477h3.27v-15.682h-3.27v-1.479h4.837v4.168c1.392-2.466,3.677-4.481,5.603-4.481
	C986.084,927.959,986.844,928.812,986.844,929.752z"/>
<path d="M989.443,945.434h3.267v-15.682h-3.267v-1.479h4.835v3.764c1.706-2.104,4.392-4.075,7.214-4.075
	c2.334,0,3.854,0.896,4.66,2.374c0.27,0.539,0.447,1.121,0.585,1.703c2.062-2.33,4.702-4.076,7.349-4.076
	c2.596,0,4.075,1.03,4.835,2.733c0.493,1.026,0.674,2.284,0.674,3.674v11.065h3.271v1.479h-8.155v-1.479h3.225v-10.843
	c0-1.257-0.178-2.284-0.49-3.004c-0.586-1.39-1.75-2.106-3.584-2.106c-2.556,0-4.93,1.75-6.901,3.99v11.963h3.271v1.479h-8.154
	v-1.479h3.224v-10.843c0-1.212-0.134-2.24-0.448-3.004c-0.582-1.39-1.746-2.106-3.582-2.106c-2.646,0-5.018,1.839-6.898,4.033
	v11.918h3.225v1.479h-8.154v-1.479h0.006v0.001H989.443z"/>
<path d="M1025.783,941.895c0-3.359,2.909-5.601,6.939-5.601c2.152,0,4.617,0.534,5.96,1.075v-3.406c0-1.161-0.312-2.146-0.94-2.908
	c-0.853-0.985-2.331-1.658-4.391-1.658c-2.146,0-3.404,0.716-4.122,1.434c0.27,0.269,0.447,0.715,0.447,1.21
	c0,0.672-0.534,1.345-1.343,1.345c-0.896,0-1.436-0.673-1.436-1.523c0-1.75,2.378-3.897,6.588-3.897c2.462,0,4.39,0.715,5.51,2.018
	c0.849,0.939,1.301,2.198,1.301,3.719v11.737h3.226v1.478h-4.798v-2.822c-1.522,1.657-3.987,3.136-6.72,3.136
	C1028.067,947.227,1025.783,944.852,1025.783,941.895z M1038.688,942.521v-3.898c-1.702-0.535-3.854-0.94-5.869-0.94
	c-3.676,0-5.379,1.928-5.379,4.121c0,2.106,1.524,3.988,4.794,3.988C1034.878,945.792,1037.119,944.312,1038.688,942.521z"/>
<path d="M1046.75,945.434h3.498v-15.682h-3.498v-1.479h5.152v17.16h3.496v1.477h-8.648V945.434L1046.75,945.434z M1049.082,920.343
	c0-0.94,0.714-1.704,1.612-1.704c0.895,0,1.611,0.764,1.611,1.704c0,0.898-0.716,1.657-1.611,1.657
	C1049.796,922,1049.082,921.238,1049.082,920.343z"/>
<path d="M1063.419,932.036c1.747-2.104,4.48-4.075,7.394-4.075c2.464,0,4.03,0.986,4.888,2.462c0.581,1.029,0.849,2.418,0.849,3.945
	v11.065h3.27v1.478h-8.153v-1.478h3.226v-10.847c0-1.254-0.138-2.281-0.538-3.087c-0.627-1.3-1.882-2.021-3.765-2.021
	c-2.732,0-5.243,1.839-7.077,4.078v11.873h3.226v1.478h-8.158v-1.478h3.271v-15.68h-3.271v-1.479h4.84L1063.419,932.036
	L1063.419,932.036z"/>
<path d="M1084.388,937.77c0.182,5.197,3.318,7.979,8.021,7.979c2.511,0,4.524-0.851,6.5-2.15l-0.138,1.702
	c-1.789,1.213-4.123,1.927-6.544,1.927c-5.688,0-9.543-3.808-9.543-9.676c0-5.288,3.676-9.589,8.827-9.589
	c5.328,0,8.29,4.167,8.29,8.736c0,0.448-0.046,0.808-0.135,1.076h-15.279V937.77L1084.388,937.77z M1084.434,936.338h13.667
	c-0.181-3.85-2.42-6.896-6.722-6.896C1087.795,929.438,1084.836,932.216,1084.434,936.338z"/>
<path d="M1119.739,920.611v24.731h4.213v1.568h-10.038v-1.568h4.074v-26.346h-4.074v-1.568h5.643l18.908,25.854v-24.285h-4.165
	v-1.568h9.944v1.568h-4.075v28.048h-1.079L1119.739,920.611z"/>
<path d="M1148.776,937.77c0.181,5.197,3.315,7.979,8.019,7.979c2.511,0,4.527-0.851,6.499-2.15l-0.136,1.702
	c-1.79,1.213-4.121,1.927-6.542,1.927c-5.692,0-9.544-3.808-9.544-9.676c0-5.288,3.674-9.589,8.825-9.589
	c5.331,0,8.291,4.167,8.291,8.736c0,0.448-0.044,0.808-0.137,1.076h-15.277v-0.005H1148.776z M1148.82,936.338h13.664
	c-0.18-3.85-2.42-6.896-6.722-6.896C1152.182,929.438,1149.223,932.216,1148.82,936.338z"/>
<path d="M1168.177,937.77c0-5.558,4.21-9.811,9.185-9.811c3.944,0,7.128,2.6,7.128,5.196c0,0.984-0.674,1.837-1.659,1.837
	c-0.627,0-1.298-0.405-1.298-1.345c0-0.628,0.356-1.12,1.075-1.435c-0.535-1.613-2.824-2.773-5.243-2.773
	c-3.719,0-7.481,3.182-7.481,8.375c0,4.705,3.403,7.934,8.153,7.934c2.062,0,4.032-0.627,6.049-1.971l-0.135,1.656
	c-1.747,1.211-4.123,1.79-6.093,1.79C1172.344,947.227,1168.177,943.371,1168.177,937.77z"/>
<path d="M1187.849,945.434h3.226v-29.751h-3.226v-1.479h4.884v24.331l9.77-8.827h-4.438v-1.435h9.901v1.479h-3.313l-6.766,6.093
	l6.722,9.589h3.357v1.477h-4.344l-6.943-10.171l-3.945,3.581v5.106h3.36v1.479h-8.244L1187.849,945.434L1187.849,945.434z"/>
<path d="M1212.181,937.77c0.18,5.197,3.314,7.979,8.02,7.979c2.511,0,4.522-0.851,6.497-2.15l-0.135,1.702
	c-1.791,1.213-4.123,1.927-6.541,1.927c-5.692,0-9.547-3.808-9.547-9.676c0-5.288,3.672-9.589,8.826-9.589
	c5.331,0,8.288,4.167,8.288,8.736c0,0.448-0.042,0.808-0.133,1.076h-15.277v-0.005H1212.181z M1212.223,936.338h13.666
	c-0.18-3.85-2.419-6.896-6.721-6.896C1215.582,929.438,1212.627,932.216,1212.223,936.338z"/>
<path d="M1244.036,929.752c0,0.807-0.585,1.475-1.479,1.475c-0.806,0-1.524-0.668-1.566-1.475c-1.705,0.27-3.452,2.146-4.658,4.345
	v11.337h3.673v1.477h-8.604v-1.477h3.269v-15.682h-3.269v-1.479h4.837v4.168c1.393-2.466,3.675-4.481,5.601-4.481
	C1243.274,927.959,1244.036,928.812,1244.036,929.752z"/>
</svg>
